M48
; DRILL file {KiCad 7.0.10} date Thu Sep 26 01:16:30 2024
; FORMAT={-:-/ absolute / inch / decimal}
; #@! TF.CreationDate,2024-09-26T01:16:30+09:00
; #@! TF.GenerationSoftware,Kicad,Pcbnew,7.0.10
; #@! TF.FileFunction,Plated,1,2,PTH
FMAT,2
INCH
; #@! TA.AperFunction,Plated,PTH,ViaDrill
T1C0.0118
; #@! TA.AperFunction,Plated,PTH,ComponentDrill
T2C0.0315
; #@! TA.AperFunction,Plated,PTH,ComponentDrill
T3C0.0320
; #@! TA.AperFunction,Plated,PTH,ComponentDrill
T4C0.0335
; #@! TA.AperFunction,Plated,PTH,ComponentDrill
T5C0.0394
; #@! TA.AperFunction,Plated,PTH,ComponentDrill
T6C0.0512
%
G90
G05
T1
X3.79Y-1.784
X4.265Y-1.104
T3
X0.0439Y-0.624
X0.0439Y-0.924
X0.0439Y-1.364
X0.0439Y-1.664
X0.0439Y-2.109
X0.0439Y-2.409
X0.0439Y-2.864
X0.0439Y-3.164
X0.79Y-0.419
X0.79Y-0.719
X0.79Y-1.174
X0.79Y-1.474
X0.79Y-1.919
X0.79Y-2.219
X0.79Y-2.674
X0.79Y-2.974
X1.54Y-0.324
X1.54Y-0.624
X1.54Y-1.079
X1.54Y-1.379
X1.54Y-1.824
X1.54Y-2.124
X1.54Y-2.579
X1.54Y-2.879
X2.29Y-0.414
X2.29Y-0.714
X2.29Y-1.174
X2.29Y-1.474
X2.29Y-1.924
X2.29Y-2.224
X2.475Y-2.954
X2.475Y-3.254
X3.04Y-0.509
X3.04Y-0.809
X3.04Y-1.264
X3.04Y-1.564
X3.04Y-2.019
X3.04Y-2.319
X3.2962Y-3.2489
X3.3738Y-2.9592
X3.79Y-2.279
X3.79Y-2.579
X3.9551Y-1.9413
X4.095Y-3.449
X4.245Y-3.1892
X4.2551Y-1.9413
X4.815Y-0.845
X4.815Y-0.945
X4.815Y-1.045
X4.815Y-1.145
X5.335Y-0.8452
X5.335Y-0.9452
X5.335Y-1.0452
X5.335Y-1.1452
X5.86Y-1.9215
X5.9022Y-3.2016
X6.0522Y-3.4615
X6.16Y-1.9215
X6.3571Y-2.2915
X6.3571Y-2.5915
X6.7783Y-2.9566
X6.8559Y-3.2464
X7.1071Y-0.5215
X7.1071Y-0.8215
X7.1071Y-1.2665
X7.1071Y-1.5665
X7.1071Y-2.0215
X7.1071Y-2.3215
X7.6721Y-2.9565
X7.6721Y-3.2565
X7.8571Y-0.4165
X7.8571Y-0.7165
X7.8571Y-1.1665
X7.8571Y-1.4665
X7.8571Y-1.9165
X7.8571Y-2.2165
X8.6071Y-1.0815
X8.6071Y-1.3815
X8.6071Y-1.8265
X8.6071Y-2.1265
X8.6071Y-2.5765
X8.6071Y-2.8765
X8.6121Y-0.3265
X8.6121Y-0.6265
X9.3571Y-0.4265
X9.3571Y-0.7265
X9.3571Y-1.1765
X9.3571Y-1.4765
X9.3571Y-1.9215
X9.3571Y-2.2215
X9.3571Y-2.7515
X9.3571Y-3.0515
X10.1071Y-0.6265
X10.1071Y-0.9265
X10.1071Y-1.3565
X10.1071Y-1.6565
X10.1071Y-2.1065
X10.1071Y-2.4065
X10.1071Y-2.8565
X10.1071Y-3.1565
T4
X4.035Y-0.4363
X4.035Y-0.5363
X4.035Y-0.6363
X4.035Y-0.7363
X4.035Y-0.8363
X4.035Y-0.9363
X4.035Y-1.0363
X4.035Y-1.1363
X4.035Y-1.2363
X4.035Y-1.3363
X4.035Y-1.4363
X4.035Y-1.5363
X4.635Y-0.4363
X4.635Y-0.5363
X4.635Y-0.6363
X4.635Y-0.7363
X4.635Y-0.8363
X4.635Y-0.9363
X4.635Y-1.0363
X4.635Y-1.1363
X4.635Y-1.2363
X4.635Y-1.3363
X4.635Y-1.4363
X4.635Y-1.5363
X5.515Y-0.4365
X5.515Y-0.5365
X5.515Y-0.6365
X5.515Y-0.7365
X5.515Y-0.8365
X5.515Y-0.9365
X5.515Y-1.0365
X5.515Y-1.1365
X5.515Y-1.2365
X5.515Y-1.3365
X5.515Y-1.4365
X5.515Y-1.5365
X6.115Y-0.4365
X6.115Y-0.5365
X6.115Y-0.6365
X6.115Y-0.7365
X6.115Y-0.8365
X6.115Y-0.9365
X6.115Y-1.0365
X6.115Y-1.1365
X6.115Y-1.2365
X6.115Y-1.3365
X6.115Y-1.4365
X6.115Y-1.5365
T6
X3.977Y-1.7513
X4.233Y-1.7513
X5.872Y-1.7315
X6.128Y-1.7315
T2
G00X0.1653Y-0.902
M15
G01X0.181Y-0.902
M16
G05
G00X0.1653Y-1.652
M15
G01X0.181Y-1.652
M16
G05
G00X0.1653Y-2.402
M15
G01X0.181Y-2.402
M16
G05
G00X0.1653Y-3.152
M15
G01X0.181Y-3.152
M16
G05
G00X0.3621Y-0.9886
M15
G01X0.3779Y-0.9886
M16
G05
G00X0.3621Y-1.7386
M15
G01X0.3779Y-1.7386
M16
G05
G00X0.3621Y-2.4886
M15
G01X0.3779Y-2.4886
M16
G05
G00X0.3621Y-3.2386
M15
G01X0.3779Y-3.2386
M16
G05
G00X0.9153Y-0.7144
M15
G01X0.931Y-0.7144
M16
G05
G00X0.9153Y-1.4644
M15
G01X0.931Y-1.4644
M16
G05
G00X0.9153Y-2.2144
M15
G01X0.931Y-2.2144
M16
G05
G00X0.9153Y-2.9644
M15
G01X0.931Y-2.9644
M16
G05
G00X1.1121Y-0.8011
M15
G01X1.1279Y-0.8011
M16
G05
G00X1.1121Y-1.5511
M15
G01X1.1279Y-1.5511
M16
G05
G00X1.1121Y-2.3011
M15
G01X1.1279Y-2.3011
M16
G05
G00X1.1121Y-3.0511
M15
G01X1.1279Y-3.0511
M16
G05
G00X1.6653Y-0.6208
M15
G01X1.681Y-0.6208
M16
G05
G00X1.6653Y-1.3708
M15
G01X1.681Y-1.3708
M16
G05
G00X1.6653Y-2.1208
M15
G01X1.681Y-2.1208
M16
G05
G00X1.6653Y-2.8708
M15
G01X1.681Y-2.8708
M16
G05
G00X1.8621Y-0.7074
M15
G01X1.8779Y-0.7074
M16
G05
G00X1.8621Y-1.4574
M15
G01X1.8779Y-1.4574
M16
G05
G00X1.8621Y-2.2074
M15
G01X1.8779Y-2.2074
M16
G05
G00X1.8621Y-2.9574
M15
G01X1.8779Y-2.9574
M16
G05
G00X2.4153Y-0.7144
M15
G01X2.431Y-0.7144
M16
G05
G00X2.4153Y-1.4644
M15
G01X2.431Y-1.4644
M16
G05
G00X2.4153Y-2.2144
M15
G01X2.431Y-2.2144
M16
G05
G00X2.5997Y-3.2464
M15
G01X2.6154Y-3.2464
M16
G05
G00X2.6121Y-0.8011
M15
G01X2.6279Y-0.8011
M16
G05
G00X2.6121Y-1.5511
M15
G01X2.6279Y-1.5511
M16
G05
G00X2.6121Y-2.3011
M15
G01X2.6279Y-2.3011
M16
G05
G00X2.7965Y-3.333
M15
G01X2.8123Y-3.333
M16
G05
G00X3.1653Y-0.8082
M15
G01X3.181Y-0.8082
M16
G05
G00X3.1653Y-1.5582
M15
G01X3.181Y-1.5582
M16
G05
G00X3.1653Y-2.3082
M15
G01X3.181Y-2.3082
M16
G05
G00X3.3621Y-0.8948
M15
G01X3.3779Y-0.8948
M16
G05
G00X3.3621Y-1.6448
M15
G01X3.3779Y-1.6448
M16
G05
G00X3.3621Y-2.3948
M15
G01X3.3779Y-2.3948
M16
G05
G00X3.4194Y-3.2797
M15
G01X3.4346Y-3.2838
M16
G05
G00X3.5871Y-3.4144
M15
G01X3.6023Y-3.4184
M16
G05
G00X3.9153Y-2.577
M15
G01X3.931Y-2.577
M16
G05
G00X4.1121Y-2.6636
M15
G01X4.1279Y-2.6636
M16
G05
G00X4.2026Y-3.5178
M15
G01X4.2162Y-3.5257
M16
G05
G00X4.3298Y-3.6913
M15
G01X4.3434Y-3.6991
M16
G05
G00X5.5928Y-3.7278
M15
G01X5.6064Y-3.7199
M16
G05
G00X5.8066Y-3.7044
M15
G01X5.8202Y-3.6965
M16
G05
G00X5.8253Y-2.5809
M15
G01X5.841Y-2.5809
M16
G05
G00X6.0221Y-2.6675
M15
G01X6.0379Y-2.6675
M16
G05
G00X6.3401Y-3.3859
M15
G01X6.3553Y-3.3819
M16
G05
G00X6.5527Y-3.4186
M15
G01X6.5679Y-3.4146
M16
G05
G00X6.5753Y-0.8122
M15
G01X6.591Y-0.8122
M16
G05
G00X6.5753Y-1.5622
M15
G01X6.591Y-1.5622
M16
G05
G00X6.5753Y-2.3122
M15
G01X6.591Y-2.3122
M16
G05
G00X6.7721Y-0.8988
M15
G01X6.7879Y-0.8988
M16
G05
G00X6.7721Y-1.6488
M15
G01X6.7879Y-1.6488
M16
G05
G00X6.7721Y-2.3988
M15
G01X6.7879Y-2.3988
M16
G05
G00X7.1403Y-3.2472
M15
G01X7.156Y-3.2472
M16
G05
G00X7.3253Y-0.7122
M15
G01X7.341Y-0.7122
M16
G05
G00X7.3253Y-1.4622
M15
G01X7.341Y-1.4622
M16
G05
G00X7.3253Y-2.2122
M15
G01X7.341Y-2.2122
M16
G05
G00X7.3371Y-3.3338
M15
G01X7.3529Y-3.3338
M16
G05
G00X7.5221Y-0.7988
M15
G01X7.5379Y-0.7988
M16
G05
G00X7.5221Y-1.5488
M15
G01X7.5379Y-1.5488
M16
G05
G00X7.5221Y-2.2988
M15
G01X7.5379Y-2.2988
M16
G05
G00X8.0753Y-0.6222
M15
G01X8.091Y-0.6222
M16
G05
G00X8.0753Y-1.3722
M15
G01X8.091Y-1.3722
M16
G05
G00X8.0753Y-2.1222
M15
G01X8.091Y-2.1222
M16
G05
G00X8.0753Y-2.8722
M15
G01X8.091Y-2.8722
M16
G05
G00X8.2721Y-0.7088
M15
G01X8.2879Y-0.7088
M16
G05
G00X8.2721Y-1.4588
M15
G01X8.2879Y-1.4588
M16
G05
G00X8.2721Y-2.2088
M15
G01X8.2879Y-2.2088
M16
G05
G00X8.2721Y-2.9588
M15
G01X8.2879Y-2.9588
M16
G05
G00X8.8253Y-0.7172
M15
G01X8.841Y-0.7172
M16
G05
G00X8.8253Y-1.4672
M15
G01X8.841Y-1.4672
M16
G05
G00X8.8253Y-2.2172
M15
G01X8.841Y-2.2172
M16
G05
G00X8.8253Y-2.9672
M15
G01X8.841Y-2.9672
M16
G05
G00X9.0221Y-0.8038
M15
G01X9.0379Y-0.8038
M16
G05
G00X9.0221Y-1.5538
M15
G01X9.0379Y-1.5538
M16
G05
G00X9.0221Y-2.3038
M15
G01X9.0379Y-2.3038
M16
G05
G00X9.0221Y-3.0538
M15
G01X9.0379Y-3.0538
M16
G05
G00X9.5753Y-0.9024
M15
G01X9.591Y-0.9024
M16
G05
G00X9.5753Y-1.6522
M15
G01X9.591Y-1.6522
M16
G05
G00X9.5753Y-2.4022
M15
G01X9.591Y-2.4022
M16
G05
G00X9.5753Y-3.1522
M15
G01X9.591Y-3.1522
M16
G05
G00X9.7721Y-0.989
M15
G01X9.7879Y-0.989
M16
G05
G00X9.7721Y-1.7388
M15
G01X9.7879Y-1.7388
M16
G05
G00X9.7721Y-2.4888
M15
G01X9.7879Y-2.4888
M16
G05
G00X9.7721Y-3.2388
M15
G01X9.7879Y-3.2388
M16
G05
T5
G00X4.526Y-1.7068
M15
G01X4.5063Y-1.7068
M16
G05
G00X4.5733Y-1.8958
M15
G01X4.5536Y-1.8958
M16
G05
G00X4.7307Y-1.8958
M15
G01X4.7111Y-1.8958
M16
G05
G00X4.8489Y-1.8958
M15
G01X4.8292Y-1.8958
M16
G05
G00X5.3011Y-1.7099
M15
G01X5.3208Y-1.7099
M16
G05
G00X5.4193Y-1.7099
M15
G01X5.4389Y-1.7099
M16
G05
G00X5.5767Y-1.7099
M15
G01X5.5964Y-1.7099
M16
G05
G00X5.624Y-1.8989
M15
G01X5.6437Y-1.8989
M16
G05
M30
