%TF.GenerationSoftware,KiCad,Pcbnew,7.0.10*%
%TF.CreationDate,2024-09-26T01:16:29+09:00*%
%TF.ProjectId,keyboard_denchi,6b657962-6f61-4726-945f-64656e636869,rev?*%
%TF.SameCoordinates,Original*%
%TF.FileFunction,Paste,Top*%
%TF.FilePolarity,Positive*%
%FSLAX46Y46*%
G04 Gerber Fmt 4.6, Leading zero omitted, Abs format (unit mm)*
G04 Created by KiCad (PCBNEW 7.0.10) date 2024-09-26 01:16:29*
%MOMM*%
%LPD*%
G01*
G04 APERTURE LIST*
G04 Aperture macros list*
%AMRotRect*
0 Rectangle, with rotation*
0 The origin of the aperture is its center*
0 $1 length*
0 $2 width*
0 $3 Rotation angle, in degrees counterclockwise*
0 Add horizontal line*
21,1,$1,$2,0,0,$3*%
G04 Aperture macros list end*
%ADD10R,0.950000X1.300000*%
%ADD11RotRect,1.300000X0.950000X285.000000*%
%ADD12RotRect,1.300000X0.950000X255.000000*%
%ADD13R,1.300000X0.950000*%
%ADD14RotRect,1.300000X0.950000X300.000000*%
%ADD15RotRect,1.300000X0.950000X240.000000*%
G04 APERTURE END LIST*
D10*
%TO.C,D9*%
X58166000Y-31855588D03*
X58166000Y-35405588D03*
%TD*%
%TO.C,D1*%
X1116000Y-17885588D03*
X1116000Y-21435588D03*
%TD*%
%TO.C,rD8*%
X218621000Y-29505500D03*
X218621000Y-33055500D03*
%TD*%
%TO.C,rD11*%
X256721000Y-55540500D03*
X256721000Y-59090500D03*
%TD*%
%TO.C,rD19*%
X218621000Y-67478500D03*
X218621000Y-71028500D03*
%TD*%
%TO.C,rD1*%
X256721000Y-17948500D03*
X256721000Y-21498500D03*
%TD*%
%TO.C,rD2*%
X237671000Y-12868500D03*
X237671000Y-16418500D03*
%TD*%
%TO.C,D18*%
X20066000Y-69955588D03*
X20066000Y-73505588D03*
%TD*%
D11*
%TO.C,rD21*%
X172695596Y-77063982D03*
X173614404Y-80493018D03*
%TD*%
D10*
%TO.C,D6*%
X1116000Y-36681588D03*
X1116000Y-40231588D03*
%TD*%
%TO.C,D13*%
X39116000Y-48365588D03*
X39116000Y-51915588D03*
%TD*%
%TO.C,D19*%
X39116000Y-67542588D03*
X39116000Y-71092588D03*
%TD*%
%TO.C,D8*%
X39116000Y-29442588D03*
X39116000Y-32992588D03*
%TD*%
%TO.C,D20*%
X62865000Y-77067588D03*
X62865000Y-80617588D03*
%TD*%
%TO.C,rD7*%
X237671000Y-31918500D03*
X237671000Y-35468500D03*
%TD*%
%TO.C,rD17*%
X256721000Y-74590500D03*
X256721000Y-78140500D03*
%TD*%
%TO.C,rD3*%
X218748000Y-10328500D03*
X218748000Y-13878500D03*
%TD*%
%TO.C,rD15*%
X180521000Y-53381500D03*
X180521000Y-56931500D03*
%TD*%
D12*
%TO.C,D21*%
X85168404Y-77128070D03*
X84249596Y-80557106D03*
%TD*%
D10*
%TO.C,D15*%
X77216000Y-53318588D03*
X77216000Y-56868588D03*
%TD*%
%TO.C,D10*%
X77216000Y-34141588D03*
X77216000Y-37691588D03*
%TD*%
%TO.C,rD18*%
X237671000Y-71923500D03*
X237671000Y-75473500D03*
%TD*%
%TO.C,D16*%
X96266000Y-59922588D03*
X96266000Y-63472588D03*
%TD*%
%TO.C,D2*%
X20066000Y-12678588D03*
X20066000Y-16228588D03*
%TD*%
D13*
%TO.C,D23*%
X106045000Y-49309000D03*
X102495000Y-49309000D03*
%TD*%
D10*
%TO.C,rD10*%
X180521000Y-34204500D03*
X180521000Y-37754500D03*
%TD*%
D14*
%TO.C,rD22*%
X150932335Y-83084140D03*
X152707335Y-86158530D03*
%TD*%
D10*
%TO.C,D3*%
X39116000Y-10265588D03*
X39116000Y-13815588D03*
%TD*%
%TO.C,D11*%
X1116000Y-55604588D03*
X1116000Y-59154588D03*
%TD*%
%TO.C,rD13*%
X218621000Y-48428500D03*
X218621000Y-51978500D03*
%TD*%
%TO.C,rD20*%
X194872000Y-77130500D03*
X194872000Y-80680500D03*
%TD*%
%TO.C,D17*%
X1116000Y-74781588D03*
X1116000Y-78331588D03*
%TD*%
%TO.C,rD6*%
X256721000Y-36490500D03*
X256721000Y-40040500D03*
%TD*%
%TO.C,rD9*%
X199571000Y-31664500D03*
X199571000Y-35214500D03*
%TD*%
%TO.C,rD14*%
X199571000Y-50714500D03*
X199571000Y-54264500D03*
%TD*%
D15*
%TO.C,D22*%
X106804666Y-82767228D03*
X105029666Y-85841618D03*
%TD*%
D10*
%TO.C,rD12*%
X237671000Y-50841500D03*
X237671000Y-54391500D03*
%TD*%
%TO.C,D5*%
X77216000Y-14964588D03*
X77216000Y-18514588D03*
%TD*%
%TO.C,D14*%
X58166000Y-50905588D03*
X58166000Y-54455588D03*
%TD*%
%TO.C,D4*%
X58166000Y-12551588D03*
X58166000Y-16101588D03*
%TD*%
D13*
%TO.C,rD23*%
X150879000Y-48806500D03*
X154429000Y-48806500D03*
%TD*%
D10*
%TO.C,D7*%
X20066000Y-31855588D03*
X20066000Y-35405588D03*
%TD*%
%TO.C,rD4*%
X199571000Y-12614500D03*
X199571000Y-16164500D03*
%TD*%
%TO.C,rD5*%
X180521000Y-15281500D03*
X180521000Y-18831500D03*
%TD*%
%TO.C,D12*%
X20066000Y-50778588D03*
X20066000Y-54328588D03*
%TD*%
%TO.C,rD16*%
X161471000Y-60239500D03*
X161471000Y-63789500D03*
%TD*%
M02*
