%TF.GenerationSoftware,KiCad,Pcbnew,7.0.10*%
%TF.CreationDate,2024-09-26T01:16:29+09:00*%
%TF.ProjectId,keyboard_denchi,6b657962-6f61-4726-945f-64656e636869,rev?*%
%TF.SameCoordinates,Original*%
%TF.FileFunction,Legend,Top*%
%TF.FilePolarity,Positive*%
%FSLAX46Y46*%
G04 Gerber Fmt 4.6, Leading zero omitted, Abs format (unit mm)*
G04 Created by KiCad (PCBNEW 7.0.10) date 2024-09-26 01:16:29*
%MOMM*%
%LPD*%
G01*
G04 APERTURE LIST*
G04 Aperture macros list*
%AMHorizOval*
0 Thick line with rounded ends*
0 $1 width*
0 $2 $3 position (X,Y) of the first rounded end (center of the circle)*
0 $4 $5 position (X,Y) of the second rounded end (center of the circle)*
0 Add line between two ends*
20,1,$1,$2,$3,$4,$5,0*
0 Add two circle primitives to create the rounded ends*
1,1,$1,$2,$3*
1,1,$1,$4,$5*%
%AMRotRect*
0 Rectangle, with rotation*
0 The origin of the aperture is its center*
0 $1 length*
0 $2 width*
0 $3 Rotation angle, in degrees counterclockwise*
0 Add horizontal line*
21,1,$1,$2,0,0,$3*%
G04 Aperture macros list end*
%ADD10C,0.125000*%
%ADD11C,0.150000*%
%ADD12C,0.120000*%
%ADD13R,1.397000X1.397000*%
%ADD14C,1.397000*%
%ADD15RotRect,1.397000X1.397000X285.000000*%
%ADD16RotRect,1.397000X1.397000X255.000000*%
%ADD17RotRect,1.397000X1.397000X300.000000*%
%ADD18RotRect,1.397000X1.397000X240.000000*%
%ADD19C,0.300000*%
%ADD20R,0.950000X1.300000*%
%ADD21C,1.700000*%
%ADD22C,3.400000*%
%ADD23HorizOval,1.200000X0.193185X0.051764X-0.193185X-0.051764X0*%
%ADD24O,1.600000X1.200000*%
%ADD25C,1.524000*%
%ADD26RotRect,1.300000X0.950000X285.000000*%
%ADD27C,1.500000*%
%ADD28O,2.500000X1.700000*%
%ADD29RotRect,1.300000X0.950000X255.000000*%
%ADD30HorizOval,1.200000X0.193185X-0.051764X-0.193185X0.051764X0*%
%ADD31R,1.300000X0.950000*%
%ADD32C,2.000000*%
%ADD33RotRect,1.300000X0.950000X300.000000*%
%ADD34HorizOval,1.200000X0.173205X0.100000X-0.173205X-0.100000X0*%
%ADD35RotRect,1.300000X0.950000X240.000000*%
%ADD36HorizOval,1.200000X0.173205X-0.100000X-0.173205X0.100000X0*%
G04 APERTURE END LIST*
D10*
X141801686Y-26453678D02*
X142120733Y-26453678D01*
X141737876Y-26667964D02*
X141961209Y-25917964D01*
X141961209Y-25917964D02*
X142184543Y-26667964D01*
X142758829Y-26667964D02*
X142375972Y-26667964D01*
X142567400Y-26667964D02*
X142567400Y-25917964D01*
X142567400Y-25917964D02*
X142503591Y-26025107D01*
X142503591Y-26025107D02*
X142439781Y-26096535D01*
X142439781Y-26096535D02*
X142375972Y-26132250D01*
X143524543Y-25882250D02*
X142950257Y-26846535D01*
X143971210Y-26275107D02*
X143747876Y-26275107D01*
X143747876Y-26667964D02*
X143747876Y-25917964D01*
X143747876Y-25917964D02*
X144066924Y-25917964D01*
X144609305Y-25917964D02*
X144481686Y-25917964D01*
X144481686Y-25917964D02*
X144417877Y-25953678D01*
X144417877Y-25953678D02*
X144385972Y-25989392D01*
X144385972Y-25989392D02*
X144322162Y-26096535D01*
X144322162Y-26096535D02*
X144290258Y-26239392D01*
X144290258Y-26239392D02*
X144290258Y-26525107D01*
X144290258Y-26525107D02*
X144322162Y-26596535D01*
X144322162Y-26596535D02*
X144354067Y-26632250D01*
X144354067Y-26632250D02*
X144417877Y-26667964D01*
X144417877Y-26667964D02*
X144545496Y-26667964D01*
X144545496Y-26667964D02*
X144609305Y-26632250D01*
X144609305Y-26632250D02*
X144641210Y-26596535D01*
X144641210Y-26596535D02*
X144673115Y-26525107D01*
X144673115Y-26525107D02*
X144673115Y-26346535D01*
X144673115Y-26346535D02*
X144641210Y-26275107D01*
X144641210Y-26275107D02*
X144609305Y-26239392D01*
X144609305Y-26239392D02*
X144545496Y-26203678D01*
X144545496Y-26203678D02*
X144417877Y-26203678D01*
X144417877Y-26203678D02*
X144354067Y-26239392D01*
X144354067Y-26239392D02*
X144322162Y-26275107D01*
X144322162Y-26275107D02*
X144290258Y-26346535D01*
X151577162Y-36435107D02*
X151672876Y-36470821D01*
X151672876Y-36470821D02*
X151704781Y-36506535D01*
X151704781Y-36506535D02*
X151736685Y-36577964D01*
X151736685Y-36577964D02*
X151736685Y-36685107D01*
X151736685Y-36685107D02*
X151704781Y-36756535D01*
X151704781Y-36756535D02*
X151672876Y-36792250D01*
X151672876Y-36792250D02*
X151609066Y-36827964D01*
X151609066Y-36827964D02*
X151353828Y-36827964D01*
X151353828Y-36827964D02*
X151353828Y-36077964D01*
X151353828Y-36077964D02*
X151577162Y-36077964D01*
X151577162Y-36077964D02*
X151640971Y-36113678D01*
X151640971Y-36113678D02*
X151672876Y-36149392D01*
X151672876Y-36149392D02*
X151704781Y-36220821D01*
X151704781Y-36220821D02*
X151704781Y-36292250D01*
X151704781Y-36292250D02*
X151672876Y-36363678D01*
X151672876Y-36363678D02*
X151640971Y-36399392D01*
X151640971Y-36399392D02*
X151577162Y-36435107D01*
X151577162Y-36435107D02*
X151353828Y-36435107D01*
X152310971Y-36327964D02*
X152310971Y-36827964D01*
X152151447Y-36042250D02*
X151991924Y-36577964D01*
X151991924Y-36577964D02*
X152406685Y-36577964D01*
X153140495Y-36042250D02*
X152566209Y-37006535D01*
X153459543Y-36399392D02*
X153395733Y-36363678D01*
X153395733Y-36363678D02*
X153363828Y-36327964D01*
X153363828Y-36327964D02*
X153331924Y-36256535D01*
X153331924Y-36256535D02*
X153331924Y-36220821D01*
X153331924Y-36220821D02*
X153363828Y-36149392D01*
X153363828Y-36149392D02*
X153395733Y-36113678D01*
X153395733Y-36113678D02*
X153459543Y-36077964D01*
X153459543Y-36077964D02*
X153587162Y-36077964D01*
X153587162Y-36077964D02*
X153650971Y-36113678D01*
X153650971Y-36113678D02*
X153682876Y-36149392D01*
X153682876Y-36149392D02*
X153714781Y-36220821D01*
X153714781Y-36220821D02*
X153714781Y-36256535D01*
X153714781Y-36256535D02*
X153682876Y-36327964D01*
X153682876Y-36327964D02*
X153650971Y-36363678D01*
X153650971Y-36363678D02*
X153587162Y-36399392D01*
X153587162Y-36399392D02*
X153459543Y-36399392D01*
X153459543Y-36399392D02*
X153395733Y-36435107D01*
X153395733Y-36435107D02*
X153363828Y-36470821D01*
X153363828Y-36470821D02*
X153331924Y-36542250D01*
X153331924Y-36542250D02*
X153331924Y-36685107D01*
X153331924Y-36685107D02*
X153363828Y-36756535D01*
X153363828Y-36756535D02*
X153395733Y-36792250D01*
X153395733Y-36792250D02*
X153459543Y-36827964D01*
X153459543Y-36827964D02*
X153587162Y-36827964D01*
X153587162Y-36827964D02*
X153650971Y-36792250D01*
X153650971Y-36792250D02*
X153682876Y-36756535D01*
X153682876Y-36756535D02*
X153714781Y-36685107D01*
X153714781Y-36685107D02*
X153714781Y-36542250D01*
X153714781Y-36542250D02*
X153682876Y-36470821D01*
X153682876Y-36470821D02*
X153650971Y-36435107D01*
X153650971Y-36435107D02*
X153587162Y-36399392D01*
X152310971Y-15793678D02*
X152247161Y-15757964D01*
X152247161Y-15757964D02*
X152151447Y-15757964D01*
X152151447Y-15757964D02*
X152055733Y-15793678D01*
X152055733Y-15793678D02*
X151991923Y-15865107D01*
X151991923Y-15865107D02*
X151960018Y-15936535D01*
X151960018Y-15936535D02*
X151928114Y-16079392D01*
X151928114Y-16079392D02*
X151928114Y-16186535D01*
X151928114Y-16186535D02*
X151960018Y-16329392D01*
X151960018Y-16329392D02*
X151991923Y-16400821D01*
X151991923Y-16400821D02*
X152055733Y-16472250D01*
X152055733Y-16472250D02*
X152151447Y-16507964D01*
X152151447Y-16507964D02*
X152215256Y-16507964D01*
X152215256Y-16507964D02*
X152310971Y-16472250D01*
X152310971Y-16472250D02*
X152342875Y-16436535D01*
X152342875Y-16436535D02*
X152342875Y-16186535D01*
X152342875Y-16186535D02*
X152215256Y-16186535D01*
X152630018Y-16507964D02*
X152630018Y-15757964D01*
X152630018Y-15757964D02*
X153012875Y-16507964D01*
X153012875Y-16507964D02*
X153012875Y-15757964D01*
X153331923Y-16507964D02*
X153331923Y-15757964D01*
X153331923Y-15757964D02*
X153491447Y-15757964D01*
X153491447Y-15757964D02*
X153587161Y-15793678D01*
X153587161Y-15793678D02*
X153650971Y-15865107D01*
X153650971Y-15865107D02*
X153682876Y-15936535D01*
X153682876Y-15936535D02*
X153714780Y-16079392D01*
X153714780Y-16079392D02*
X153714780Y-16186535D01*
X153714780Y-16186535D02*
X153682876Y-16329392D01*
X153682876Y-16329392D02*
X153650971Y-16400821D01*
X153650971Y-16400821D02*
X153587161Y-16472250D01*
X153587161Y-16472250D02*
X153491447Y-16507964D01*
X153491447Y-16507964D02*
X153331923Y-16507964D01*
X148769543Y-24092250D02*
X148865257Y-24127964D01*
X148865257Y-24127964D02*
X149024781Y-24127964D01*
X149024781Y-24127964D02*
X149088590Y-24092250D01*
X149088590Y-24092250D02*
X149120495Y-24056535D01*
X149120495Y-24056535D02*
X149152400Y-23985107D01*
X149152400Y-23985107D02*
X149152400Y-23913678D01*
X149152400Y-23913678D02*
X149120495Y-23842250D01*
X149120495Y-23842250D02*
X149088590Y-23806535D01*
X149088590Y-23806535D02*
X149024781Y-23770821D01*
X149024781Y-23770821D02*
X148897162Y-23735107D01*
X148897162Y-23735107D02*
X148833352Y-23699392D01*
X148833352Y-23699392D02*
X148801447Y-23663678D01*
X148801447Y-23663678D02*
X148769543Y-23592250D01*
X148769543Y-23592250D02*
X148769543Y-23520821D01*
X148769543Y-23520821D02*
X148801447Y-23449392D01*
X148801447Y-23449392D02*
X148833352Y-23413678D01*
X148833352Y-23413678D02*
X148897162Y-23377964D01*
X148897162Y-23377964D02*
X149056685Y-23377964D01*
X149056685Y-23377964D02*
X149152400Y-23413678D01*
X149822399Y-24056535D02*
X149790495Y-24092250D01*
X149790495Y-24092250D02*
X149694780Y-24127964D01*
X149694780Y-24127964D02*
X149630971Y-24127964D01*
X149630971Y-24127964D02*
X149535257Y-24092250D01*
X149535257Y-24092250D02*
X149471447Y-24020821D01*
X149471447Y-24020821D02*
X149439542Y-23949392D01*
X149439542Y-23949392D02*
X149407638Y-23806535D01*
X149407638Y-23806535D02*
X149407638Y-23699392D01*
X149407638Y-23699392D02*
X149439542Y-23556535D01*
X149439542Y-23556535D02*
X149471447Y-23485107D01*
X149471447Y-23485107D02*
X149535257Y-23413678D01*
X149535257Y-23413678D02*
X149630971Y-23377964D01*
X149630971Y-23377964D02*
X149694780Y-23377964D01*
X149694780Y-23377964D02*
X149790495Y-23413678D01*
X149790495Y-23413678D02*
X149822399Y-23449392D01*
X150428590Y-24127964D02*
X150109542Y-24127964D01*
X150109542Y-24127964D02*
X150109542Y-23377964D01*
X151130495Y-23342250D02*
X150556209Y-24306535D01*
X151353828Y-24127964D02*
X151353828Y-23377964D01*
X151353828Y-23377964D02*
X151513352Y-23377964D01*
X151513352Y-23377964D02*
X151609066Y-23413678D01*
X151609066Y-23413678D02*
X151672876Y-23485107D01*
X151672876Y-23485107D02*
X151704781Y-23556535D01*
X151704781Y-23556535D02*
X151736685Y-23699392D01*
X151736685Y-23699392D02*
X151736685Y-23806535D01*
X151736685Y-23806535D02*
X151704781Y-23949392D01*
X151704781Y-23949392D02*
X151672876Y-24020821D01*
X151672876Y-24020821D02*
X151609066Y-24092250D01*
X151609066Y-24092250D02*
X151513352Y-24127964D01*
X151513352Y-24127964D02*
X151353828Y-24127964D01*
X152151447Y-23377964D02*
X152215257Y-23377964D01*
X152215257Y-23377964D02*
X152279066Y-23413678D01*
X152279066Y-23413678D02*
X152310971Y-23449392D01*
X152310971Y-23449392D02*
X152342876Y-23520821D01*
X152342876Y-23520821D02*
X152374781Y-23663678D01*
X152374781Y-23663678D02*
X152374781Y-23842250D01*
X152374781Y-23842250D02*
X152342876Y-23985107D01*
X152342876Y-23985107D02*
X152310971Y-24056535D01*
X152310971Y-24056535D02*
X152279066Y-24092250D01*
X152279066Y-24092250D02*
X152215257Y-24127964D01*
X152215257Y-24127964D02*
X152151447Y-24127964D01*
X152151447Y-24127964D02*
X152087638Y-24092250D01*
X152087638Y-24092250D02*
X152055733Y-24056535D01*
X152055733Y-24056535D02*
X152023828Y-23985107D01*
X152023828Y-23985107D02*
X151991924Y-23842250D01*
X151991924Y-23842250D02*
X151991924Y-23663678D01*
X151991924Y-23663678D02*
X152023828Y-23520821D01*
X152023828Y-23520821D02*
X152055733Y-23449392D01*
X152055733Y-23449392D02*
X152087638Y-23413678D01*
X152087638Y-23413678D02*
X152151447Y-23377964D01*
X153140495Y-23342250D02*
X152566209Y-24306535D01*
X153300019Y-23377964D02*
X153714781Y-23377964D01*
X153714781Y-23377964D02*
X153491447Y-23663678D01*
X153491447Y-23663678D02*
X153587162Y-23663678D01*
X153587162Y-23663678D02*
X153650971Y-23699392D01*
X153650971Y-23699392D02*
X153682876Y-23735107D01*
X153682876Y-23735107D02*
X153714781Y-23806535D01*
X153714781Y-23806535D02*
X153714781Y-23985107D01*
X153714781Y-23985107D02*
X153682876Y-24056535D01*
X153682876Y-24056535D02*
X153650971Y-24092250D01*
X153650971Y-24092250D02*
X153587162Y-24127964D01*
X153587162Y-24127964D02*
X153395733Y-24127964D01*
X153395733Y-24127964D02*
X153331924Y-24092250D01*
X153331924Y-24092250D02*
X153300019Y-24056535D01*
X151353828Y-26667964D02*
X151353828Y-25917964D01*
X151353828Y-25917964D02*
X151513352Y-25917964D01*
X151513352Y-25917964D02*
X151609066Y-25953678D01*
X151609066Y-25953678D02*
X151672876Y-26025107D01*
X151672876Y-26025107D02*
X151704781Y-26096535D01*
X151704781Y-26096535D02*
X151736685Y-26239392D01*
X151736685Y-26239392D02*
X151736685Y-26346535D01*
X151736685Y-26346535D02*
X151704781Y-26489392D01*
X151704781Y-26489392D02*
X151672876Y-26560821D01*
X151672876Y-26560821D02*
X151609066Y-26632250D01*
X151609066Y-26632250D02*
X151513352Y-26667964D01*
X151513352Y-26667964D02*
X151353828Y-26667964D01*
X152310971Y-26167964D02*
X152310971Y-26667964D01*
X152151447Y-25882250D02*
X151991924Y-26417964D01*
X151991924Y-26417964D02*
X152406685Y-26417964D01*
X153140495Y-25882250D02*
X152566209Y-26846535D01*
X153650971Y-26167964D02*
X153650971Y-26667964D01*
X153491447Y-25882250D02*
X153331924Y-26417964D01*
X153331924Y-26417964D02*
X153746685Y-26417964D01*
X142184543Y-36827964D02*
X141801686Y-36827964D01*
X141993114Y-36827964D02*
X141993114Y-36077964D01*
X141993114Y-36077964D02*
X141929305Y-36185107D01*
X141929305Y-36185107D02*
X141865495Y-36256535D01*
X141865495Y-36256535D02*
X141801686Y-36292250D01*
X142758828Y-36077964D02*
X142631209Y-36077964D01*
X142631209Y-36077964D02*
X142567400Y-36113678D01*
X142567400Y-36113678D02*
X142535495Y-36149392D01*
X142535495Y-36149392D02*
X142471685Y-36256535D01*
X142471685Y-36256535D02*
X142439781Y-36399392D01*
X142439781Y-36399392D02*
X142439781Y-36685107D01*
X142439781Y-36685107D02*
X142471685Y-36756535D01*
X142471685Y-36756535D02*
X142503590Y-36792250D01*
X142503590Y-36792250D02*
X142567400Y-36827964D01*
X142567400Y-36827964D02*
X142695019Y-36827964D01*
X142695019Y-36827964D02*
X142758828Y-36792250D01*
X142758828Y-36792250D02*
X142790733Y-36756535D01*
X142790733Y-36756535D02*
X142822638Y-36685107D01*
X142822638Y-36685107D02*
X142822638Y-36506535D01*
X142822638Y-36506535D02*
X142790733Y-36435107D01*
X142790733Y-36435107D02*
X142758828Y-36399392D01*
X142758828Y-36399392D02*
X142695019Y-36363678D01*
X142695019Y-36363678D02*
X142567400Y-36363678D01*
X142567400Y-36363678D02*
X142503590Y-36399392D01*
X142503590Y-36399392D02*
X142471685Y-36435107D01*
X142471685Y-36435107D02*
X142439781Y-36506535D01*
X143588352Y-36042250D02*
X143014066Y-37006535D01*
X144035019Y-36435107D02*
X144130733Y-36470821D01*
X144130733Y-36470821D02*
X144162638Y-36506535D01*
X144162638Y-36506535D02*
X144194542Y-36577964D01*
X144194542Y-36577964D02*
X144194542Y-36685107D01*
X144194542Y-36685107D02*
X144162638Y-36756535D01*
X144162638Y-36756535D02*
X144130733Y-36792250D01*
X144130733Y-36792250D02*
X144066923Y-36827964D01*
X144066923Y-36827964D02*
X143811685Y-36827964D01*
X143811685Y-36827964D02*
X143811685Y-36077964D01*
X143811685Y-36077964D02*
X144035019Y-36077964D01*
X144035019Y-36077964D02*
X144098828Y-36113678D01*
X144098828Y-36113678D02*
X144130733Y-36149392D01*
X144130733Y-36149392D02*
X144162638Y-36220821D01*
X144162638Y-36220821D02*
X144162638Y-36292250D01*
X144162638Y-36292250D02*
X144130733Y-36363678D01*
X144130733Y-36363678D02*
X144098828Y-36399392D01*
X144098828Y-36399392D02*
X144035019Y-36435107D01*
X144035019Y-36435107D02*
X143811685Y-36435107D01*
X144449781Y-36149392D02*
X144481685Y-36113678D01*
X144481685Y-36113678D02*
X144545495Y-36077964D01*
X144545495Y-36077964D02*
X144705019Y-36077964D01*
X144705019Y-36077964D02*
X144768828Y-36113678D01*
X144768828Y-36113678D02*
X144800733Y-36149392D01*
X144800733Y-36149392D02*
X144832638Y-36220821D01*
X144832638Y-36220821D02*
X144832638Y-36292250D01*
X144832638Y-36292250D02*
X144800733Y-36399392D01*
X144800733Y-36399392D02*
X144417876Y-36827964D01*
X144417876Y-36827964D02*
X144832638Y-36827964D01*
X141801686Y-23913678D02*
X142120733Y-23913678D01*
X141737876Y-24127964D02*
X141961209Y-23377964D01*
X141961209Y-23377964D02*
X142184543Y-24127964D01*
X142375972Y-23449392D02*
X142407876Y-23413678D01*
X142407876Y-23413678D02*
X142471686Y-23377964D01*
X142471686Y-23377964D02*
X142631210Y-23377964D01*
X142631210Y-23377964D02*
X142695019Y-23413678D01*
X142695019Y-23413678D02*
X142726924Y-23449392D01*
X142726924Y-23449392D02*
X142758829Y-23520821D01*
X142758829Y-23520821D02*
X142758829Y-23592250D01*
X142758829Y-23592250D02*
X142726924Y-23699392D01*
X142726924Y-23699392D02*
X142344067Y-24127964D01*
X142344067Y-24127964D02*
X142758829Y-24127964D01*
X143524543Y-23342250D02*
X142950257Y-24306535D01*
X143971210Y-23735107D02*
X143747876Y-23735107D01*
X143747876Y-24127964D02*
X143747876Y-23377964D01*
X143747876Y-23377964D02*
X144066924Y-23377964D01*
X144641210Y-23377964D02*
X144322162Y-23377964D01*
X144322162Y-23377964D02*
X144290258Y-23735107D01*
X144290258Y-23735107D02*
X144322162Y-23699392D01*
X144322162Y-23699392D02*
X144385972Y-23663678D01*
X144385972Y-23663678D02*
X144545496Y-23663678D01*
X144545496Y-23663678D02*
X144609305Y-23699392D01*
X144609305Y-23699392D02*
X144641210Y-23735107D01*
X144641210Y-23735107D02*
X144673115Y-23806535D01*
X144673115Y-23806535D02*
X144673115Y-23985107D01*
X144673115Y-23985107D02*
X144641210Y-24056535D01*
X144641210Y-24056535D02*
X144609305Y-24092250D01*
X144609305Y-24092250D02*
X144545496Y-24127964D01*
X144545496Y-24127964D02*
X144385972Y-24127964D01*
X144385972Y-24127964D02*
X144322162Y-24092250D01*
X144322162Y-24092250D02*
X144290258Y-24056535D01*
X142216447Y-16507964D02*
X141993114Y-16150821D01*
X141833590Y-16507964D02*
X141833590Y-15757964D01*
X141833590Y-15757964D02*
X142088828Y-15757964D01*
X142088828Y-15757964D02*
X142152638Y-15793678D01*
X142152638Y-15793678D02*
X142184543Y-15829392D01*
X142184543Y-15829392D02*
X142216447Y-15900821D01*
X142216447Y-15900821D02*
X142216447Y-16007964D01*
X142216447Y-16007964D02*
X142184543Y-16079392D01*
X142184543Y-16079392D02*
X142152638Y-16115107D01*
X142152638Y-16115107D02*
X142088828Y-16150821D01*
X142088828Y-16150821D02*
X141833590Y-16150821D01*
X142471686Y-16472250D02*
X142567400Y-16507964D01*
X142567400Y-16507964D02*
X142726924Y-16507964D01*
X142726924Y-16507964D02*
X142790733Y-16472250D01*
X142790733Y-16472250D02*
X142822638Y-16436535D01*
X142822638Y-16436535D02*
X142854543Y-16365107D01*
X142854543Y-16365107D02*
X142854543Y-16293678D01*
X142854543Y-16293678D02*
X142822638Y-16222250D01*
X142822638Y-16222250D02*
X142790733Y-16186535D01*
X142790733Y-16186535D02*
X142726924Y-16150821D01*
X142726924Y-16150821D02*
X142599305Y-16115107D01*
X142599305Y-16115107D02*
X142535495Y-16079392D01*
X142535495Y-16079392D02*
X142503590Y-16043678D01*
X142503590Y-16043678D02*
X142471686Y-15972250D01*
X142471686Y-15972250D02*
X142471686Y-15900821D01*
X142471686Y-15900821D02*
X142503590Y-15829392D01*
X142503590Y-15829392D02*
X142535495Y-15793678D01*
X142535495Y-15793678D02*
X142599305Y-15757964D01*
X142599305Y-15757964D02*
X142758828Y-15757964D01*
X142758828Y-15757964D02*
X142854543Y-15793678D01*
X143045971Y-15757964D02*
X143428828Y-15757964D01*
X143237400Y-16507964D02*
X143237400Y-15757964D01*
X150045733Y-13967964D02*
X150045733Y-13217964D01*
X150045733Y-13217964D02*
X150205257Y-13217964D01*
X150205257Y-13217964D02*
X150300971Y-13253678D01*
X150300971Y-13253678D02*
X150364781Y-13325107D01*
X150364781Y-13325107D02*
X150396686Y-13396535D01*
X150396686Y-13396535D02*
X150428590Y-13539392D01*
X150428590Y-13539392D02*
X150428590Y-13646535D01*
X150428590Y-13646535D02*
X150396686Y-13789392D01*
X150396686Y-13789392D02*
X150364781Y-13860821D01*
X150364781Y-13860821D02*
X150300971Y-13932250D01*
X150300971Y-13932250D02*
X150205257Y-13967964D01*
X150205257Y-13967964D02*
X150045733Y-13967964D01*
X150683829Y-13289392D02*
X150715733Y-13253678D01*
X150715733Y-13253678D02*
X150779543Y-13217964D01*
X150779543Y-13217964D02*
X150939067Y-13217964D01*
X150939067Y-13217964D02*
X151002876Y-13253678D01*
X151002876Y-13253678D02*
X151034781Y-13289392D01*
X151034781Y-13289392D02*
X151066686Y-13360821D01*
X151066686Y-13360821D02*
X151066686Y-13432250D01*
X151066686Y-13432250D02*
X151034781Y-13539392D01*
X151034781Y-13539392D02*
X150651924Y-13967964D01*
X150651924Y-13967964D02*
X151066686Y-13967964D01*
X151832400Y-13182250D02*
X151258114Y-14146535D01*
X152438590Y-13967964D02*
X152215257Y-13610821D01*
X152055733Y-13967964D02*
X152055733Y-13217964D01*
X152055733Y-13217964D02*
X152310971Y-13217964D01*
X152310971Y-13217964D02*
X152374781Y-13253678D01*
X152374781Y-13253678D02*
X152406686Y-13289392D01*
X152406686Y-13289392D02*
X152438590Y-13360821D01*
X152438590Y-13360821D02*
X152438590Y-13467964D01*
X152438590Y-13467964D02*
X152406686Y-13539392D01*
X152406686Y-13539392D02*
X152374781Y-13575107D01*
X152374781Y-13575107D02*
X152310971Y-13610821D01*
X152310971Y-13610821D02*
X152055733Y-13610821D01*
X152661924Y-13217964D02*
X153108590Y-13967964D01*
X153108590Y-13217964D02*
X152661924Y-13967964D01*
X153714781Y-13967964D02*
X153331924Y-13967964D01*
X153523352Y-13967964D02*
X153523352Y-13217964D01*
X153523352Y-13217964D02*
X153459543Y-13325107D01*
X153459543Y-13325107D02*
X153395733Y-13396535D01*
X153395733Y-13396535D02*
X153331924Y-13432250D01*
X142216447Y-11427964D02*
X141993114Y-11070821D01*
X141833590Y-11427964D02*
X141833590Y-10677964D01*
X141833590Y-10677964D02*
X142088828Y-10677964D01*
X142088828Y-10677964D02*
X142152638Y-10713678D01*
X142152638Y-10713678D02*
X142184543Y-10749392D01*
X142184543Y-10749392D02*
X142216447Y-10820821D01*
X142216447Y-10820821D02*
X142216447Y-10927964D01*
X142216447Y-10927964D02*
X142184543Y-10999392D01*
X142184543Y-10999392D02*
X142152638Y-11035107D01*
X142152638Y-11035107D02*
X142088828Y-11070821D01*
X142088828Y-11070821D02*
X141833590Y-11070821D01*
X142471686Y-11213678D02*
X142790733Y-11213678D01*
X142407876Y-11427964D02*
X142631209Y-10677964D01*
X142631209Y-10677964D02*
X142854543Y-11427964D01*
X143014067Y-10677964D02*
X143173591Y-11427964D01*
X143173591Y-11427964D02*
X143301210Y-10892250D01*
X143301210Y-10892250D02*
X143428829Y-11427964D01*
X143428829Y-11427964D02*
X143588353Y-10677964D01*
X151417638Y-33895107D02*
X151640972Y-33895107D01*
X151736686Y-34287964D02*
X151417638Y-34287964D01*
X151417638Y-34287964D02*
X151417638Y-33537964D01*
X151417638Y-33537964D02*
X151736686Y-33537964D01*
X152310971Y-33537964D02*
X152183352Y-33537964D01*
X152183352Y-33537964D02*
X152119543Y-33573678D01*
X152119543Y-33573678D02*
X152087638Y-33609392D01*
X152087638Y-33609392D02*
X152023828Y-33716535D01*
X152023828Y-33716535D02*
X151991924Y-33859392D01*
X151991924Y-33859392D02*
X151991924Y-34145107D01*
X151991924Y-34145107D02*
X152023828Y-34216535D01*
X152023828Y-34216535D02*
X152055733Y-34252250D01*
X152055733Y-34252250D02*
X152119543Y-34287964D01*
X152119543Y-34287964D02*
X152247162Y-34287964D01*
X152247162Y-34287964D02*
X152310971Y-34252250D01*
X152310971Y-34252250D02*
X152342876Y-34216535D01*
X152342876Y-34216535D02*
X152374781Y-34145107D01*
X152374781Y-34145107D02*
X152374781Y-33966535D01*
X152374781Y-33966535D02*
X152342876Y-33895107D01*
X152342876Y-33895107D02*
X152310971Y-33859392D01*
X152310971Y-33859392D02*
X152247162Y-33823678D01*
X152247162Y-33823678D02*
X152119543Y-33823678D01*
X152119543Y-33823678D02*
X152055733Y-33859392D01*
X152055733Y-33859392D02*
X152023828Y-33895107D01*
X152023828Y-33895107D02*
X151991924Y-33966535D01*
X153140495Y-33502250D02*
X152566209Y-34466535D01*
X153300019Y-33537964D02*
X153746685Y-33537964D01*
X153746685Y-33537964D02*
X153459543Y-34287964D01*
X141737876Y-18297964D02*
X141961209Y-19047964D01*
X141961209Y-19047964D02*
X142184543Y-18297964D01*
X142790733Y-18976535D02*
X142758829Y-19012250D01*
X142758829Y-19012250D02*
X142663114Y-19047964D01*
X142663114Y-19047964D02*
X142599305Y-19047964D01*
X142599305Y-19047964D02*
X142503591Y-19012250D01*
X142503591Y-19012250D02*
X142439781Y-18940821D01*
X142439781Y-18940821D02*
X142407876Y-18869392D01*
X142407876Y-18869392D02*
X142375972Y-18726535D01*
X142375972Y-18726535D02*
X142375972Y-18619392D01*
X142375972Y-18619392D02*
X142407876Y-18476535D01*
X142407876Y-18476535D02*
X142439781Y-18405107D01*
X142439781Y-18405107D02*
X142503591Y-18333678D01*
X142503591Y-18333678D02*
X142599305Y-18297964D01*
X142599305Y-18297964D02*
X142663114Y-18297964D01*
X142663114Y-18297964D02*
X142758829Y-18333678D01*
X142758829Y-18333678D02*
X142790733Y-18369392D01*
X143460733Y-18976535D02*
X143428829Y-19012250D01*
X143428829Y-19012250D02*
X143333114Y-19047964D01*
X143333114Y-19047964D02*
X143269305Y-19047964D01*
X143269305Y-19047964D02*
X143173591Y-19012250D01*
X143173591Y-19012250D02*
X143109781Y-18940821D01*
X143109781Y-18940821D02*
X143077876Y-18869392D01*
X143077876Y-18869392D02*
X143045972Y-18726535D01*
X143045972Y-18726535D02*
X143045972Y-18619392D01*
X143045972Y-18619392D02*
X143077876Y-18476535D01*
X143077876Y-18476535D02*
X143109781Y-18405107D01*
X143109781Y-18405107D02*
X143173591Y-18333678D01*
X143173591Y-18333678D02*
X143269305Y-18297964D01*
X143269305Y-18297964D02*
X143333114Y-18297964D01*
X143333114Y-18297964D02*
X143428829Y-18333678D01*
X143428829Y-18333678D02*
X143460733Y-18369392D01*
X142184543Y-13253678D02*
X142120733Y-13217964D01*
X142120733Y-13217964D02*
X142025019Y-13217964D01*
X142025019Y-13217964D02*
X141929305Y-13253678D01*
X141929305Y-13253678D02*
X141865495Y-13325107D01*
X141865495Y-13325107D02*
X141833590Y-13396535D01*
X141833590Y-13396535D02*
X141801686Y-13539392D01*
X141801686Y-13539392D02*
X141801686Y-13646535D01*
X141801686Y-13646535D02*
X141833590Y-13789392D01*
X141833590Y-13789392D02*
X141865495Y-13860821D01*
X141865495Y-13860821D02*
X141929305Y-13932250D01*
X141929305Y-13932250D02*
X142025019Y-13967964D01*
X142025019Y-13967964D02*
X142088828Y-13967964D01*
X142088828Y-13967964D02*
X142184543Y-13932250D01*
X142184543Y-13932250D02*
X142216447Y-13896535D01*
X142216447Y-13896535D02*
X142216447Y-13646535D01*
X142216447Y-13646535D02*
X142088828Y-13646535D01*
X142503590Y-13967964D02*
X142503590Y-13217964D01*
X142503590Y-13217964D02*
X142886447Y-13967964D01*
X142886447Y-13967964D02*
X142886447Y-13217964D01*
X143205495Y-13967964D02*
X143205495Y-13217964D01*
X143205495Y-13217964D02*
X143365019Y-13217964D01*
X143365019Y-13217964D02*
X143460733Y-13253678D01*
X143460733Y-13253678D02*
X143524543Y-13325107D01*
X143524543Y-13325107D02*
X143556448Y-13396535D01*
X143556448Y-13396535D02*
X143588352Y-13539392D01*
X143588352Y-13539392D02*
X143588352Y-13646535D01*
X143588352Y-13646535D02*
X143556448Y-13789392D01*
X143556448Y-13789392D02*
X143524543Y-13860821D01*
X143524543Y-13860821D02*
X143460733Y-13932250D01*
X143460733Y-13932250D02*
X143365019Y-13967964D01*
X143365019Y-13967964D02*
X143205495Y-13967964D01*
X141801686Y-21373678D02*
X142120733Y-21373678D01*
X141737876Y-21587964D02*
X141961209Y-20837964D01*
X141961209Y-20837964D02*
X142184543Y-21587964D01*
X142344067Y-20837964D02*
X142758829Y-20837964D01*
X142758829Y-20837964D02*
X142535495Y-21123678D01*
X142535495Y-21123678D02*
X142631210Y-21123678D01*
X142631210Y-21123678D02*
X142695019Y-21159392D01*
X142695019Y-21159392D02*
X142726924Y-21195107D01*
X142726924Y-21195107D02*
X142758829Y-21266535D01*
X142758829Y-21266535D02*
X142758829Y-21445107D01*
X142758829Y-21445107D02*
X142726924Y-21516535D01*
X142726924Y-21516535D02*
X142695019Y-21552250D01*
X142695019Y-21552250D02*
X142631210Y-21587964D01*
X142631210Y-21587964D02*
X142439781Y-21587964D01*
X142439781Y-21587964D02*
X142375972Y-21552250D01*
X142375972Y-21552250D02*
X142344067Y-21516535D01*
X143524543Y-20802250D02*
X142950257Y-21766535D01*
X143971210Y-21195107D02*
X143747876Y-21195107D01*
X143747876Y-21587964D02*
X143747876Y-20837964D01*
X143747876Y-20837964D02*
X144066924Y-20837964D01*
X144609305Y-21087964D02*
X144609305Y-21587964D01*
X144449781Y-20802250D02*
X144290258Y-21337964D01*
X144290258Y-21337964D02*
X144705019Y-21337964D01*
X151353828Y-31747964D02*
X151353828Y-30997964D01*
X151353828Y-30997964D02*
X151513352Y-30997964D01*
X151513352Y-30997964D02*
X151609066Y-31033678D01*
X151609066Y-31033678D02*
X151672876Y-31105107D01*
X151672876Y-31105107D02*
X151704781Y-31176535D01*
X151704781Y-31176535D02*
X151736685Y-31319392D01*
X151736685Y-31319392D02*
X151736685Y-31426535D01*
X151736685Y-31426535D02*
X151704781Y-31569392D01*
X151704781Y-31569392D02*
X151672876Y-31640821D01*
X151672876Y-31640821D02*
X151609066Y-31712250D01*
X151609066Y-31712250D02*
X151513352Y-31747964D01*
X151513352Y-31747964D02*
X151353828Y-31747964D01*
X151960019Y-30997964D02*
X152406685Y-30997964D01*
X152406685Y-30997964D02*
X152119543Y-31747964D01*
X153140495Y-30962250D02*
X152566209Y-31926535D01*
X153650971Y-30997964D02*
X153523352Y-30997964D01*
X153523352Y-30997964D02*
X153459543Y-31033678D01*
X153459543Y-31033678D02*
X153427638Y-31069392D01*
X153427638Y-31069392D02*
X153363828Y-31176535D01*
X153363828Y-31176535D02*
X153331924Y-31319392D01*
X153331924Y-31319392D02*
X153331924Y-31605107D01*
X153331924Y-31605107D02*
X153363828Y-31676535D01*
X153363828Y-31676535D02*
X153395733Y-31712250D01*
X153395733Y-31712250D02*
X153459543Y-31747964D01*
X153459543Y-31747964D02*
X153587162Y-31747964D01*
X153587162Y-31747964D02*
X153650971Y-31712250D01*
X153650971Y-31712250D02*
X153682876Y-31676535D01*
X153682876Y-31676535D02*
X153714781Y-31605107D01*
X153714781Y-31605107D02*
X153714781Y-31426535D01*
X153714781Y-31426535D02*
X153682876Y-31355107D01*
X153682876Y-31355107D02*
X153650971Y-31319392D01*
X153650971Y-31319392D02*
X153587162Y-31283678D01*
X153587162Y-31283678D02*
X153459543Y-31283678D01*
X153459543Y-31283678D02*
X153395733Y-31319392D01*
X153395733Y-31319392D02*
X153363828Y-31355107D01*
X153363828Y-31355107D02*
X153331924Y-31426535D01*
X150205256Y-11427964D02*
X150205256Y-10677964D01*
X150205256Y-10677964D02*
X150364780Y-10677964D01*
X150364780Y-10677964D02*
X150460494Y-10713678D01*
X150460494Y-10713678D02*
X150524304Y-10785107D01*
X150524304Y-10785107D02*
X150556209Y-10856535D01*
X150556209Y-10856535D02*
X150588113Y-10999392D01*
X150588113Y-10999392D02*
X150588113Y-11106535D01*
X150588113Y-11106535D02*
X150556209Y-11249392D01*
X150556209Y-11249392D02*
X150524304Y-11320821D01*
X150524304Y-11320821D02*
X150460494Y-11392250D01*
X150460494Y-11392250D02*
X150364780Y-11427964D01*
X150364780Y-11427964D02*
X150205256Y-11427964D01*
X150811447Y-10677964D02*
X151226209Y-10677964D01*
X151226209Y-10677964D02*
X151002875Y-10963678D01*
X151002875Y-10963678D02*
X151098590Y-10963678D01*
X151098590Y-10963678D02*
X151162399Y-10999392D01*
X151162399Y-10999392D02*
X151194304Y-11035107D01*
X151194304Y-11035107D02*
X151226209Y-11106535D01*
X151226209Y-11106535D02*
X151226209Y-11285107D01*
X151226209Y-11285107D02*
X151194304Y-11356535D01*
X151194304Y-11356535D02*
X151162399Y-11392250D01*
X151162399Y-11392250D02*
X151098590Y-11427964D01*
X151098590Y-11427964D02*
X150907161Y-11427964D01*
X150907161Y-11427964D02*
X150843352Y-11392250D01*
X150843352Y-11392250D02*
X150811447Y-11356535D01*
X151991923Y-10642250D02*
X151417637Y-11606535D01*
X152119542Y-10677964D02*
X152502399Y-10677964D01*
X152310971Y-11427964D02*
X152310971Y-10677964D01*
X152661923Y-10677964D02*
X153108589Y-11427964D01*
X153108589Y-10677964D02*
X152661923Y-11427964D01*
X153491446Y-10677964D02*
X153555256Y-10677964D01*
X153555256Y-10677964D02*
X153619065Y-10713678D01*
X153619065Y-10713678D02*
X153650970Y-10749392D01*
X153650970Y-10749392D02*
X153682875Y-10820821D01*
X153682875Y-10820821D02*
X153714780Y-10963678D01*
X153714780Y-10963678D02*
X153714780Y-11142250D01*
X153714780Y-11142250D02*
X153682875Y-11285107D01*
X153682875Y-11285107D02*
X153650970Y-11356535D01*
X153650970Y-11356535D02*
X153619065Y-11392250D01*
X153619065Y-11392250D02*
X153555256Y-11427964D01*
X153555256Y-11427964D02*
X153491446Y-11427964D01*
X153491446Y-11427964D02*
X153427637Y-11392250D01*
X153427637Y-11392250D02*
X153395732Y-11356535D01*
X153395732Y-11356535D02*
X153363827Y-11285107D01*
X153363827Y-11285107D02*
X153331923Y-11142250D01*
X153331923Y-11142250D02*
X153331923Y-10963678D01*
X153331923Y-10963678D02*
X153363827Y-10820821D01*
X153363827Y-10820821D02*
X153395732Y-10749392D01*
X153395732Y-10749392D02*
X153427637Y-10713678D01*
X153427637Y-10713678D02*
X153491446Y-10677964D01*
X142184543Y-34287964D02*
X141801686Y-34287964D01*
X141993114Y-34287964D02*
X141993114Y-33537964D01*
X141993114Y-33537964D02*
X141929305Y-33645107D01*
X141929305Y-33645107D02*
X141865495Y-33716535D01*
X141865495Y-33716535D02*
X141801686Y-33752250D01*
X142758828Y-33787964D02*
X142758828Y-34287964D01*
X142599304Y-33502250D02*
X142439781Y-34037964D01*
X142439781Y-34037964D02*
X142854542Y-34037964D01*
X143588352Y-33502250D02*
X143014066Y-34466535D01*
X144035019Y-33895107D02*
X144130733Y-33930821D01*
X144130733Y-33930821D02*
X144162638Y-33966535D01*
X144162638Y-33966535D02*
X144194542Y-34037964D01*
X144194542Y-34037964D02*
X144194542Y-34145107D01*
X144194542Y-34145107D02*
X144162638Y-34216535D01*
X144162638Y-34216535D02*
X144130733Y-34252250D01*
X144130733Y-34252250D02*
X144066923Y-34287964D01*
X144066923Y-34287964D02*
X143811685Y-34287964D01*
X143811685Y-34287964D02*
X143811685Y-33537964D01*
X143811685Y-33537964D02*
X144035019Y-33537964D01*
X144035019Y-33537964D02*
X144098828Y-33573678D01*
X144098828Y-33573678D02*
X144130733Y-33609392D01*
X144130733Y-33609392D02*
X144162638Y-33680821D01*
X144162638Y-33680821D02*
X144162638Y-33752250D01*
X144162638Y-33752250D02*
X144130733Y-33823678D01*
X144130733Y-33823678D02*
X144098828Y-33859392D01*
X144098828Y-33859392D02*
X144035019Y-33895107D01*
X144035019Y-33895107D02*
X143811685Y-33895107D01*
X144417876Y-33537964D02*
X144832638Y-33537964D01*
X144832638Y-33537964D02*
X144609304Y-33823678D01*
X144609304Y-33823678D02*
X144705019Y-33823678D01*
X144705019Y-33823678D02*
X144768828Y-33859392D01*
X144768828Y-33859392D02*
X144800733Y-33895107D01*
X144800733Y-33895107D02*
X144832638Y-33966535D01*
X144832638Y-33966535D02*
X144832638Y-34145107D01*
X144832638Y-34145107D02*
X144800733Y-34216535D01*
X144800733Y-34216535D02*
X144768828Y-34252250D01*
X144768828Y-34252250D02*
X144705019Y-34287964D01*
X144705019Y-34287964D02*
X144513590Y-34287964D01*
X144513590Y-34287964D02*
X144449781Y-34252250D01*
X144449781Y-34252250D02*
X144417876Y-34216535D01*
X141801686Y-28993678D02*
X142120733Y-28993678D01*
X141737876Y-29207964D02*
X141961209Y-28457964D01*
X141961209Y-28457964D02*
X142184543Y-29207964D01*
X142535495Y-28457964D02*
X142599305Y-28457964D01*
X142599305Y-28457964D02*
X142663114Y-28493678D01*
X142663114Y-28493678D02*
X142695019Y-28529392D01*
X142695019Y-28529392D02*
X142726924Y-28600821D01*
X142726924Y-28600821D02*
X142758829Y-28743678D01*
X142758829Y-28743678D02*
X142758829Y-28922250D01*
X142758829Y-28922250D02*
X142726924Y-29065107D01*
X142726924Y-29065107D02*
X142695019Y-29136535D01*
X142695019Y-29136535D02*
X142663114Y-29172250D01*
X142663114Y-29172250D02*
X142599305Y-29207964D01*
X142599305Y-29207964D02*
X142535495Y-29207964D01*
X142535495Y-29207964D02*
X142471686Y-29172250D01*
X142471686Y-29172250D02*
X142439781Y-29136535D01*
X142439781Y-29136535D02*
X142407876Y-29065107D01*
X142407876Y-29065107D02*
X142375972Y-28922250D01*
X142375972Y-28922250D02*
X142375972Y-28743678D01*
X142375972Y-28743678D02*
X142407876Y-28600821D01*
X142407876Y-28600821D02*
X142439781Y-28529392D01*
X142439781Y-28529392D02*
X142471686Y-28493678D01*
X142471686Y-28493678D02*
X142535495Y-28457964D01*
X143524543Y-28422250D02*
X142950257Y-29386535D01*
X143971210Y-28815107D02*
X143747876Y-28815107D01*
X143747876Y-29207964D02*
X143747876Y-28457964D01*
X143747876Y-28457964D02*
X144066924Y-28457964D01*
X144258353Y-28457964D02*
X144705019Y-28457964D01*
X144705019Y-28457964D02*
X144417877Y-29207964D01*
X148737638Y-21552250D02*
X148833352Y-21587964D01*
X148833352Y-21587964D02*
X148992876Y-21587964D01*
X148992876Y-21587964D02*
X149056685Y-21552250D01*
X149056685Y-21552250D02*
X149088590Y-21516535D01*
X149088590Y-21516535D02*
X149120495Y-21445107D01*
X149120495Y-21445107D02*
X149120495Y-21373678D01*
X149120495Y-21373678D02*
X149088590Y-21302250D01*
X149088590Y-21302250D02*
X149056685Y-21266535D01*
X149056685Y-21266535D02*
X148992876Y-21230821D01*
X148992876Y-21230821D02*
X148865257Y-21195107D01*
X148865257Y-21195107D02*
X148801447Y-21159392D01*
X148801447Y-21159392D02*
X148769542Y-21123678D01*
X148769542Y-21123678D02*
X148737638Y-21052250D01*
X148737638Y-21052250D02*
X148737638Y-20980821D01*
X148737638Y-20980821D02*
X148769542Y-20909392D01*
X148769542Y-20909392D02*
X148801447Y-20873678D01*
X148801447Y-20873678D02*
X148865257Y-20837964D01*
X148865257Y-20837964D02*
X149024780Y-20837964D01*
X149024780Y-20837964D02*
X149120495Y-20873678D01*
X149407637Y-21587964D02*
X149407637Y-20837964D01*
X149407637Y-20837964D02*
X149567161Y-20837964D01*
X149567161Y-20837964D02*
X149662875Y-20873678D01*
X149662875Y-20873678D02*
X149726685Y-20945107D01*
X149726685Y-20945107D02*
X149758590Y-21016535D01*
X149758590Y-21016535D02*
X149790494Y-21159392D01*
X149790494Y-21159392D02*
X149790494Y-21266535D01*
X149790494Y-21266535D02*
X149758590Y-21409392D01*
X149758590Y-21409392D02*
X149726685Y-21480821D01*
X149726685Y-21480821D02*
X149662875Y-21552250D01*
X149662875Y-21552250D02*
X149567161Y-21587964D01*
X149567161Y-21587964D02*
X149407637Y-21587964D01*
X150045733Y-21373678D02*
X150364780Y-21373678D01*
X149981923Y-21587964D02*
X150205256Y-20837964D01*
X150205256Y-20837964D02*
X150428590Y-21587964D01*
X151130495Y-20802250D02*
X150556209Y-21766535D01*
X151353828Y-21587964D02*
X151353828Y-20837964D01*
X151353828Y-20837964D02*
X151513352Y-20837964D01*
X151513352Y-20837964D02*
X151609066Y-20873678D01*
X151609066Y-20873678D02*
X151672876Y-20945107D01*
X151672876Y-20945107D02*
X151704781Y-21016535D01*
X151704781Y-21016535D02*
X151736685Y-21159392D01*
X151736685Y-21159392D02*
X151736685Y-21266535D01*
X151736685Y-21266535D02*
X151704781Y-21409392D01*
X151704781Y-21409392D02*
X151672876Y-21480821D01*
X151672876Y-21480821D02*
X151609066Y-21552250D01*
X151609066Y-21552250D02*
X151513352Y-21587964D01*
X151513352Y-21587964D02*
X151353828Y-21587964D01*
X152374781Y-21587964D02*
X151991924Y-21587964D01*
X152183352Y-21587964D02*
X152183352Y-20837964D01*
X152183352Y-20837964D02*
X152119543Y-20945107D01*
X152119543Y-20945107D02*
X152055733Y-21016535D01*
X152055733Y-21016535D02*
X151991924Y-21052250D01*
X153140495Y-20802250D02*
X152566209Y-21766535D01*
X153331924Y-20909392D02*
X153363828Y-20873678D01*
X153363828Y-20873678D02*
X153427638Y-20837964D01*
X153427638Y-20837964D02*
X153587162Y-20837964D01*
X153587162Y-20837964D02*
X153650971Y-20873678D01*
X153650971Y-20873678D02*
X153682876Y-20909392D01*
X153682876Y-20909392D02*
X153714781Y-20980821D01*
X153714781Y-20980821D02*
X153714781Y-21052250D01*
X153714781Y-21052250D02*
X153682876Y-21159392D01*
X153682876Y-21159392D02*
X153300019Y-21587964D01*
X153300019Y-21587964D02*
X153714781Y-21587964D01*
X142184543Y-31747964D02*
X141801686Y-31747964D01*
X141993114Y-31747964D02*
X141993114Y-30997964D01*
X141993114Y-30997964D02*
X141929305Y-31105107D01*
X141929305Y-31105107D02*
X141865495Y-31176535D01*
X141865495Y-31176535D02*
X141801686Y-31212250D01*
X142790733Y-30997964D02*
X142471685Y-30997964D01*
X142471685Y-30997964D02*
X142439781Y-31355107D01*
X142439781Y-31355107D02*
X142471685Y-31319392D01*
X142471685Y-31319392D02*
X142535495Y-31283678D01*
X142535495Y-31283678D02*
X142695019Y-31283678D01*
X142695019Y-31283678D02*
X142758828Y-31319392D01*
X142758828Y-31319392D02*
X142790733Y-31355107D01*
X142790733Y-31355107D02*
X142822638Y-31426535D01*
X142822638Y-31426535D02*
X142822638Y-31605107D01*
X142822638Y-31605107D02*
X142790733Y-31676535D01*
X142790733Y-31676535D02*
X142758828Y-31712250D01*
X142758828Y-31712250D02*
X142695019Y-31747964D01*
X142695019Y-31747964D02*
X142535495Y-31747964D01*
X142535495Y-31747964D02*
X142471685Y-31712250D01*
X142471685Y-31712250D02*
X142439781Y-31676535D01*
X143588352Y-30962250D02*
X143014066Y-31926535D01*
X144035019Y-31355107D02*
X144130733Y-31390821D01*
X144130733Y-31390821D02*
X144162638Y-31426535D01*
X144162638Y-31426535D02*
X144194542Y-31497964D01*
X144194542Y-31497964D02*
X144194542Y-31605107D01*
X144194542Y-31605107D02*
X144162638Y-31676535D01*
X144162638Y-31676535D02*
X144130733Y-31712250D01*
X144130733Y-31712250D02*
X144066923Y-31747964D01*
X144066923Y-31747964D02*
X143811685Y-31747964D01*
X143811685Y-31747964D02*
X143811685Y-30997964D01*
X143811685Y-30997964D02*
X144035019Y-30997964D01*
X144035019Y-30997964D02*
X144098828Y-31033678D01*
X144098828Y-31033678D02*
X144130733Y-31069392D01*
X144130733Y-31069392D02*
X144162638Y-31140821D01*
X144162638Y-31140821D02*
X144162638Y-31212250D01*
X144162638Y-31212250D02*
X144130733Y-31283678D01*
X144130733Y-31283678D02*
X144098828Y-31319392D01*
X144098828Y-31319392D02*
X144035019Y-31355107D01*
X144035019Y-31355107D02*
X143811685Y-31355107D01*
X144832638Y-31747964D02*
X144449781Y-31747964D01*
X144641209Y-31747964D02*
X144641209Y-30997964D01*
X144641209Y-30997964D02*
X144577400Y-31105107D01*
X144577400Y-31105107D02*
X144513590Y-31176535D01*
X144513590Y-31176535D02*
X144449781Y-31212250D01*
X142184543Y-39367964D02*
X141801686Y-39367964D01*
X141993114Y-39367964D02*
X141993114Y-38617964D01*
X141993114Y-38617964D02*
X141929305Y-38725107D01*
X141929305Y-38725107D02*
X141865495Y-38796535D01*
X141865495Y-38796535D02*
X141801686Y-38832250D01*
X142599304Y-38617964D02*
X142663114Y-38617964D01*
X142663114Y-38617964D02*
X142726923Y-38653678D01*
X142726923Y-38653678D02*
X142758828Y-38689392D01*
X142758828Y-38689392D02*
X142790733Y-38760821D01*
X142790733Y-38760821D02*
X142822638Y-38903678D01*
X142822638Y-38903678D02*
X142822638Y-39082250D01*
X142822638Y-39082250D02*
X142790733Y-39225107D01*
X142790733Y-39225107D02*
X142758828Y-39296535D01*
X142758828Y-39296535D02*
X142726923Y-39332250D01*
X142726923Y-39332250D02*
X142663114Y-39367964D01*
X142663114Y-39367964D02*
X142599304Y-39367964D01*
X142599304Y-39367964D02*
X142535495Y-39332250D01*
X142535495Y-39332250D02*
X142503590Y-39296535D01*
X142503590Y-39296535D02*
X142471685Y-39225107D01*
X142471685Y-39225107D02*
X142439781Y-39082250D01*
X142439781Y-39082250D02*
X142439781Y-38903678D01*
X142439781Y-38903678D02*
X142471685Y-38760821D01*
X142471685Y-38760821D02*
X142503590Y-38689392D01*
X142503590Y-38689392D02*
X142535495Y-38653678D01*
X142535495Y-38653678D02*
X142599304Y-38617964D01*
X143588352Y-38582250D02*
X143014066Y-39546535D01*
X144035019Y-38975107D02*
X144130733Y-39010821D01*
X144130733Y-39010821D02*
X144162638Y-39046535D01*
X144162638Y-39046535D02*
X144194542Y-39117964D01*
X144194542Y-39117964D02*
X144194542Y-39225107D01*
X144194542Y-39225107D02*
X144162638Y-39296535D01*
X144162638Y-39296535D02*
X144130733Y-39332250D01*
X144130733Y-39332250D02*
X144066923Y-39367964D01*
X144066923Y-39367964D02*
X143811685Y-39367964D01*
X143811685Y-39367964D02*
X143811685Y-38617964D01*
X143811685Y-38617964D02*
X144035019Y-38617964D01*
X144035019Y-38617964D02*
X144098828Y-38653678D01*
X144098828Y-38653678D02*
X144130733Y-38689392D01*
X144130733Y-38689392D02*
X144162638Y-38760821D01*
X144162638Y-38760821D02*
X144162638Y-38832250D01*
X144162638Y-38832250D02*
X144130733Y-38903678D01*
X144130733Y-38903678D02*
X144098828Y-38939392D01*
X144098828Y-38939392D02*
X144035019Y-38975107D01*
X144035019Y-38975107D02*
X143811685Y-38975107D01*
X144768828Y-38617964D02*
X144641209Y-38617964D01*
X144641209Y-38617964D02*
X144577400Y-38653678D01*
X144577400Y-38653678D02*
X144545495Y-38689392D01*
X144545495Y-38689392D02*
X144481685Y-38796535D01*
X144481685Y-38796535D02*
X144449781Y-38939392D01*
X144449781Y-38939392D02*
X144449781Y-39225107D01*
X144449781Y-39225107D02*
X144481685Y-39296535D01*
X144481685Y-39296535D02*
X144513590Y-39332250D01*
X144513590Y-39332250D02*
X144577400Y-39367964D01*
X144577400Y-39367964D02*
X144705019Y-39367964D01*
X144705019Y-39367964D02*
X144768828Y-39332250D01*
X144768828Y-39332250D02*
X144800733Y-39296535D01*
X144800733Y-39296535D02*
X144832638Y-39225107D01*
X144832638Y-39225107D02*
X144832638Y-39046535D01*
X144832638Y-39046535D02*
X144800733Y-38975107D01*
X144800733Y-38975107D02*
X144768828Y-38939392D01*
X144768828Y-38939392D02*
X144705019Y-38903678D01*
X144705019Y-38903678D02*
X144577400Y-38903678D01*
X144577400Y-38903678D02*
X144513590Y-38939392D01*
X144513590Y-38939392D02*
X144481685Y-38975107D01*
X144481685Y-38975107D02*
X144449781Y-39046535D01*
X151736685Y-29136535D02*
X151704781Y-29172250D01*
X151704781Y-29172250D02*
X151609066Y-29207964D01*
X151609066Y-29207964D02*
X151545257Y-29207964D01*
X151545257Y-29207964D02*
X151449543Y-29172250D01*
X151449543Y-29172250D02*
X151385733Y-29100821D01*
X151385733Y-29100821D02*
X151353828Y-29029392D01*
X151353828Y-29029392D02*
X151321924Y-28886535D01*
X151321924Y-28886535D02*
X151321924Y-28779392D01*
X151321924Y-28779392D02*
X151353828Y-28636535D01*
X151353828Y-28636535D02*
X151385733Y-28565107D01*
X151385733Y-28565107D02*
X151449543Y-28493678D01*
X151449543Y-28493678D02*
X151545257Y-28457964D01*
X151545257Y-28457964D02*
X151609066Y-28457964D01*
X151609066Y-28457964D02*
X151704781Y-28493678D01*
X151704781Y-28493678D02*
X151736685Y-28529392D01*
X152310971Y-28457964D02*
X152183352Y-28457964D01*
X152183352Y-28457964D02*
X152119543Y-28493678D01*
X152119543Y-28493678D02*
X152087638Y-28529392D01*
X152087638Y-28529392D02*
X152023828Y-28636535D01*
X152023828Y-28636535D02*
X151991924Y-28779392D01*
X151991924Y-28779392D02*
X151991924Y-29065107D01*
X151991924Y-29065107D02*
X152023828Y-29136535D01*
X152023828Y-29136535D02*
X152055733Y-29172250D01*
X152055733Y-29172250D02*
X152119543Y-29207964D01*
X152119543Y-29207964D02*
X152247162Y-29207964D01*
X152247162Y-29207964D02*
X152310971Y-29172250D01*
X152310971Y-29172250D02*
X152342876Y-29136535D01*
X152342876Y-29136535D02*
X152374781Y-29065107D01*
X152374781Y-29065107D02*
X152374781Y-28886535D01*
X152374781Y-28886535D02*
X152342876Y-28815107D01*
X152342876Y-28815107D02*
X152310971Y-28779392D01*
X152310971Y-28779392D02*
X152247162Y-28743678D01*
X152247162Y-28743678D02*
X152119543Y-28743678D01*
X152119543Y-28743678D02*
X152055733Y-28779392D01*
X152055733Y-28779392D02*
X152023828Y-28815107D01*
X152023828Y-28815107D02*
X151991924Y-28886535D01*
X153140495Y-28422250D02*
X152566209Y-29386535D01*
X153682876Y-28457964D02*
X153363828Y-28457964D01*
X153363828Y-28457964D02*
X153331924Y-28815107D01*
X153331924Y-28815107D02*
X153363828Y-28779392D01*
X153363828Y-28779392D02*
X153427638Y-28743678D01*
X153427638Y-28743678D02*
X153587162Y-28743678D01*
X153587162Y-28743678D02*
X153650971Y-28779392D01*
X153650971Y-28779392D02*
X153682876Y-28815107D01*
X153682876Y-28815107D02*
X153714781Y-28886535D01*
X153714781Y-28886535D02*
X153714781Y-29065107D01*
X153714781Y-29065107D02*
X153682876Y-29136535D01*
X153682876Y-29136535D02*
X153650971Y-29172250D01*
X153650971Y-29172250D02*
X153587162Y-29207964D01*
X153587162Y-29207964D02*
X153427638Y-29207964D01*
X153427638Y-29207964D02*
X153363828Y-29172250D01*
X153363828Y-29172250D02*
X153331924Y-29136535D01*
X151577162Y-38975107D02*
X151672876Y-39010821D01*
X151672876Y-39010821D02*
X151704781Y-39046535D01*
X151704781Y-39046535D02*
X151736685Y-39117964D01*
X151736685Y-39117964D02*
X151736685Y-39225107D01*
X151736685Y-39225107D02*
X151704781Y-39296535D01*
X151704781Y-39296535D02*
X151672876Y-39332250D01*
X151672876Y-39332250D02*
X151609066Y-39367964D01*
X151609066Y-39367964D02*
X151353828Y-39367964D01*
X151353828Y-39367964D02*
X151353828Y-38617964D01*
X151353828Y-38617964D02*
X151577162Y-38617964D01*
X151577162Y-38617964D02*
X151640971Y-38653678D01*
X151640971Y-38653678D02*
X151672876Y-38689392D01*
X151672876Y-38689392D02*
X151704781Y-38760821D01*
X151704781Y-38760821D02*
X151704781Y-38832250D01*
X151704781Y-38832250D02*
X151672876Y-38903678D01*
X151672876Y-38903678D02*
X151640971Y-38939392D01*
X151640971Y-38939392D02*
X151577162Y-38975107D01*
X151577162Y-38975107D02*
X151353828Y-38975107D01*
X152342876Y-38617964D02*
X152023828Y-38617964D01*
X152023828Y-38617964D02*
X151991924Y-38975107D01*
X151991924Y-38975107D02*
X152023828Y-38939392D01*
X152023828Y-38939392D02*
X152087638Y-38903678D01*
X152087638Y-38903678D02*
X152247162Y-38903678D01*
X152247162Y-38903678D02*
X152310971Y-38939392D01*
X152310971Y-38939392D02*
X152342876Y-38975107D01*
X152342876Y-38975107D02*
X152374781Y-39046535D01*
X152374781Y-39046535D02*
X152374781Y-39225107D01*
X152374781Y-39225107D02*
X152342876Y-39296535D01*
X152342876Y-39296535D02*
X152310971Y-39332250D01*
X152310971Y-39332250D02*
X152247162Y-39367964D01*
X152247162Y-39367964D02*
X152087638Y-39367964D01*
X152087638Y-39367964D02*
X152023828Y-39332250D01*
X152023828Y-39332250D02*
X151991924Y-39296535D01*
X153140495Y-38582250D02*
X152566209Y-39546535D01*
X153395733Y-39367964D02*
X153523352Y-39367964D01*
X153523352Y-39367964D02*
X153587162Y-39332250D01*
X153587162Y-39332250D02*
X153619066Y-39296535D01*
X153619066Y-39296535D02*
X153682876Y-39189392D01*
X153682876Y-39189392D02*
X153714781Y-39046535D01*
X153714781Y-39046535D02*
X153714781Y-38760821D01*
X153714781Y-38760821D02*
X153682876Y-38689392D01*
X153682876Y-38689392D02*
X153650971Y-38653678D01*
X153650971Y-38653678D02*
X153587162Y-38617964D01*
X153587162Y-38617964D02*
X153459543Y-38617964D01*
X153459543Y-38617964D02*
X153395733Y-38653678D01*
X153395733Y-38653678D02*
X153363828Y-38689392D01*
X153363828Y-38689392D02*
X153331924Y-38760821D01*
X153331924Y-38760821D02*
X153331924Y-38939392D01*
X153331924Y-38939392D02*
X153363828Y-39010821D01*
X153363828Y-39010821D02*
X153395733Y-39046535D01*
X153395733Y-39046535D02*
X153459543Y-39082250D01*
X153459543Y-39082250D02*
X153587162Y-39082250D01*
X153587162Y-39082250D02*
X153650971Y-39046535D01*
X153650971Y-39046535D02*
X153682876Y-39010821D01*
X153682876Y-39010821D02*
X153714781Y-38939392D01*
X152310971Y-18333678D02*
X152247161Y-18297964D01*
X152247161Y-18297964D02*
X152151447Y-18297964D01*
X152151447Y-18297964D02*
X152055733Y-18333678D01*
X152055733Y-18333678D02*
X151991923Y-18405107D01*
X151991923Y-18405107D02*
X151960018Y-18476535D01*
X151960018Y-18476535D02*
X151928114Y-18619392D01*
X151928114Y-18619392D02*
X151928114Y-18726535D01*
X151928114Y-18726535D02*
X151960018Y-18869392D01*
X151960018Y-18869392D02*
X151991923Y-18940821D01*
X151991923Y-18940821D02*
X152055733Y-19012250D01*
X152055733Y-19012250D02*
X152151447Y-19047964D01*
X152151447Y-19047964D02*
X152215256Y-19047964D01*
X152215256Y-19047964D02*
X152310971Y-19012250D01*
X152310971Y-19012250D02*
X152342875Y-18976535D01*
X152342875Y-18976535D02*
X152342875Y-18726535D01*
X152342875Y-18726535D02*
X152215256Y-18726535D01*
X152630018Y-19047964D02*
X152630018Y-18297964D01*
X152630018Y-18297964D02*
X153012875Y-19047964D01*
X153012875Y-19047964D02*
X153012875Y-18297964D01*
X153331923Y-19047964D02*
X153331923Y-18297964D01*
X153331923Y-18297964D02*
X153491447Y-18297964D01*
X153491447Y-18297964D02*
X153587161Y-18333678D01*
X153587161Y-18333678D02*
X153650971Y-18405107D01*
X153650971Y-18405107D02*
X153682876Y-18476535D01*
X153682876Y-18476535D02*
X153714780Y-18619392D01*
X153714780Y-18619392D02*
X153714780Y-18726535D01*
X153714780Y-18726535D02*
X153682876Y-18869392D01*
X153682876Y-18869392D02*
X153650971Y-18940821D01*
X153650971Y-18940821D02*
X153587161Y-19012250D01*
X153587161Y-19012250D02*
X153491447Y-19047964D01*
X153491447Y-19047964D02*
X153331923Y-19047964D01*
D11*
X132863819Y-26740880D02*
X132863819Y-26550404D01*
X132863819Y-26550404D02*
X132911438Y-26455166D01*
X132911438Y-26455166D02*
X133006676Y-26359928D01*
X133006676Y-26359928D02*
X133197152Y-26312309D01*
X133197152Y-26312309D02*
X133530485Y-26312309D01*
X133530485Y-26312309D02*
X133720961Y-26359928D01*
X133720961Y-26359928D02*
X133816200Y-26455166D01*
X133816200Y-26455166D02*
X133863819Y-26550404D01*
X133863819Y-26550404D02*
X133863819Y-26740880D01*
X133863819Y-26740880D02*
X133816200Y-26836118D01*
X133816200Y-26836118D02*
X133720961Y-26931356D01*
X133720961Y-26931356D02*
X133530485Y-26978975D01*
X133530485Y-26978975D02*
X133197152Y-26978975D01*
X133197152Y-26978975D02*
X133006676Y-26931356D01*
X133006676Y-26931356D02*
X132911438Y-26836118D01*
X132911438Y-26836118D02*
X132863819Y-26740880D01*
X133863819Y-25407547D02*
X133863819Y-25883737D01*
X133863819Y-25883737D02*
X132863819Y-25883737D01*
X133340009Y-25074213D02*
X133340009Y-24740880D01*
X133863819Y-24598023D02*
X133863819Y-25074213D01*
X133863819Y-25074213D02*
X132863819Y-25074213D01*
X132863819Y-25074213D02*
X132863819Y-24598023D01*
X133863819Y-24169451D02*
X132863819Y-24169451D01*
X132863819Y-24169451D02*
X132863819Y-23931356D01*
X132863819Y-23931356D02*
X132911438Y-23788499D01*
X132911438Y-23788499D02*
X133006676Y-23693261D01*
X133006676Y-23693261D02*
X133101914Y-23645642D01*
X133101914Y-23645642D02*
X133292390Y-23598023D01*
X133292390Y-23598023D02*
X133435247Y-23598023D01*
X133435247Y-23598023D02*
X133625723Y-23645642D01*
X133625723Y-23645642D02*
X133720961Y-23693261D01*
X133720961Y-23693261D02*
X133816200Y-23788499D01*
X133816200Y-23788499D02*
X133863819Y-23931356D01*
X133863819Y-23931356D02*
X133863819Y-24169451D01*
X119115819Y-46764904D02*
X119115819Y-46193476D01*
X120115819Y-46479190D02*
X119115819Y-46479190D01*
X120115819Y-45288714D02*
X119639628Y-45622047D01*
X120115819Y-45860142D02*
X119115819Y-45860142D01*
X119115819Y-45860142D02*
X119115819Y-45479190D01*
X119115819Y-45479190D02*
X119163438Y-45383952D01*
X119163438Y-45383952D02*
X119211057Y-45336333D01*
X119211057Y-45336333D02*
X119306295Y-45288714D01*
X119306295Y-45288714D02*
X119449152Y-45288714D01*
X119449152Y-45288714D02*
X119544390Y-45336333D01*
X119544390Y-45336333D02*
X119592009Y-45383952D01*
X119592009Y-45383952D02*
X119639628Y-45479190D01*
X119639628Y-45479190D02*
X119639628Y-45860142D01*
X120115819Y-44288714D02*
X119639628Y-44622047D01*
X120115819Y-44860142D02*
X119115819Y-44860142D01*
X119115819Y-44860142D02*
X119115819Y-44479190D01*
X119115819Y-44479190D02*
X119163438Y-44383952D01*
X119163438Y-44383952D02*
X119211057Y-44336333D01*
X119211057Y-44336333D02*
X119306295Y-44288714D01*
X119306295Y-44288714D02*
X119449152Y-44288714D01*
X119449152Y-44288714D02*
X119544390Y-44336333D01*
X119544390Y-44336333D02*
X119592009Y-44383952D01*
X119592009Y-44383952D02*
X119639628Y-44479190D01*
X119639628Y-44479190D02*
X119639628Y-44860142D01*
X120068200Y-43907761D02*
X120115819Y-43764904D01*
X120115819Y-43764904D02*
X120115819Y-43526809D01*
X120115819Y-43526809D02*
X120068200Y-43431571D01*
X120068200Y-43431571D02*
X120020580Y-43383952D01*
X120020580Y-43383952D02*
X119925342Y-43336333D01*
X119925342Y-43336333D02*
X119830104Y-43336333D01*
X119830104Y-43336333D02*
X119734866Y-43383952D01*
X119734866Y-43383952D02*
X119687247Y-43431571D01*
X119687247Y-43431571D02*
X119639628Y-43526809D01*
X119639628Y-43526809D02*
X119592009Y-43717285D01*
X119592009Y-43717285D02*
X119544390Y-43812523D01*
X119544390Y-43812523D02*
X119496771Y-43860142D01*
X119496771Y-43860142D02*
X119401533Y-43907761D01*
X119401533Y-43907761D02*
X119306295Y-43907761D01*
X119306295Y-43907761D02*
X119211057Y-43860142D01*
X119211057Y-43860142D02*
X119163438Y-43812523D01*
X119163438Y-43812523D02*
X119115819Y-43717285D01*
X119115819Y-43717285D02*
X119115819Y-43479190D01*
X119115819Y-43479190D02*
X119163438Y-43336333D01*
D10*
X113825638Y-33889607D02*
X114048972Y-33889607D01*
X114144686Y-34282464D02*
X113825638Y-34282464D01*
X113825638Y-34282464D02*
X113825638Y-33532464D01*
X113825638Y-33532464D02*
X114144686Y-33532464D01*
X114718971Y-33532464D02*
X114591352Y-33532464D01*
X114591352Y-33532464D02*
X114527543Y-33568178D01*
X114527543Y-33568178D02*
X114495638Y-33603892D01*
X114495638Y-33603892D02*
X114431828Y-33711035D01*
X114431828Y-33711035D02*
X114399924Y-33853892D01*
X114399924Y-33853892D02*
X114399924Y-34139607D01*
X114399924Y-34139607D02*
X114431828Y-34211035D01*
X114431828Y-34211035D02*
X114463733Y-34246750D01*
X114463733Y-34246750D02*
X114527543Y-34282464D01*
X114527543Y-34282464D02*
X114655162Y-34282464D01*
X114655162Y-34282464D02*
X114718971Y-34246750D01*
X114718971Y-34246750D02*
X114750876Y-34211035D01*
X114750876Y-34211035D02*
X114782781Y-34139607D01*
X114782781Y-34139607D02*
X114782781Y-33961035D01*
X114782781Y-33961035D02*
X114750876Y-33889607D01*
X114750876Y-33889607D02*
X114718971Y-33853892D01*
X114718971Y-33853892D02*
X114655162Y-33818178D01*
X114655162Y-33818178D02*
X114527543Y-33818178D01*
X114527543Y-33818178D02*
X114463733Y-33853892D01*
X114463733Y-33853892D02*
X114431828Y-33889607D01*
X114431828Y-33889607D02*
X114399924Y-33961035D01*
X115548495Y-33496750D02*
X114974209Y-34461035D01*
X115708019Y-33532464D02*
X116154685Y-33532464D01*
X116154685Y-33532464D02*
X115867543Y-34282464D01*
X104209686Y-21368178D02*
X104528733Y-21368178D01*
X104145876Y-21582464D02*
X104369209Y-20832464D01*
X104369209Y-20832464D02*
X104592543Y-21582464D01*
X104752067Y-20832464D02*
X105166829Y-20832464D01*
X105166829Y-20832464D02*
X104943495Y-21118178D01*
X104943495Y-21118178D02*
X105039210Y-21118178D01*
X105039210Y-21118178D02*
X105103019Y-21153892D01*
X105103019Y-21153892D02*
X105134924Y-21189607D01*
X105134924Y-21189607D02*
X105166829Y-21261035D01*
X105166829Y-21261035D02*
X105166829Y-21439607D01*
X105166829Y-21439607D02*
X105134924Y-21511035D01*
X105134924Y-21511035D02*
X105103019Y-21546750D01*
X105103019Y-21546750D02*
X105039210Y-21582464D01*
X105039210Y-21582464D02*
X104847781Y-21582464D01*
X104847781Y-21582464D02*
X104783972Y-21546750D01*
X104783972Y-21546750D02*
X104752067Y-21511035D01*
X105932543Y-20796750D02*
X105358257Y-21761035D01*
X106379210Y-21189607D02*
X106155876Y-21189607D01*
X106155876Y-21582464D02*
X106155876Y-20832464D01*
X106155876Y-20832464D02*
X106474924Y-20832464D01*
X107017305Y-21082464D02*
X107017305Y-21582464D01*
X106857781Y-20796750D02*
X106698258Y-21332464D01*
X106698258Y-21332464D02*
X107113019Y-21332464D01*
X104624447Y-11422464D02*
X104401114Y-11065321D01*
X104241590Y-11422464D02*
X104241590Y-10672464D01*
X104241590Y-10672464D02*
X104496828Y-10672464D01*
X104496828Y-10672464D02*
X104560638Y-10708178D01*
X104560638Y-10708178D02*
X104592543Y-10743892D01*
X104592543Y-10743892D02*
X104624447Y-10815321D01*
X104624447Y-10815321D02*
X104624447Y-10922464D01*
X104624447Y-10922464D02*
X104592543Y-10993892D01*
X104592543Y-10993892D02*
X104560638Y-11029607D01*
X104560638Y-11029607D02*
X104496828Y-11065321D01*
X104496828Y-11065321D02*
X104241590Y-11065321D01*
X104879686Y-11208178D02*
X105198733Y-11208178D01*
X104815876Y-11422464D02*
X105039209Y-10672464D01*
X105039209Y-10672464D02*
X105262543Y-11422464D01*
X105422067Y-10672464D02*
X105581591Y-11422464D01*
X105581591Y-11422464D02*
X105709210Y-10886750D01*
X105709210Y-10886750D02*
X105836829Y-11422464D01*
X105836829Y-11422464D02*
X105996353Y-10672464D01*
X104592543Y-13248178D02*
X104528733Y-13212464D01*
X104528733Y-13212464D02*
X104433019Y-13212464D01*
X104433019Y-13212464D02*
X104337305Y-13248178D01*
X104337305Y-13248178D02*
X104273495Y-13319607D01*
X104273495Y-13319607D02*
X104241590Y-13391035D01*
X104241590Y-13391035D02*
X104209686Y-13533892D01*
X104209686Y-13533892D02*
X104209686Y-13641035D01*
X104209686Y-13641035D02*
X104241590Y-13783892D01*
X104241590Y-13783892D02*
X104273495Y-13855321D01*
X104273495Y-13855321D02*
X104337305Y-13926750D01*
X104337305Y-13926750D02*
X104433019Y-13962464D01*
X104433019Y-13962464D02*
X104496828Y-13962464D01*
X104496828Y-13962464D02*
X104592543Y-13926750D01*
X104592543Y-13926750D02*
X104624447Y-13891035D01*
X104624447Y-13891035D02*
X104624447Y-13641035D01*
X104624447Y-13641035D02*
X104496828Y-13641035D01*
X104911590Y-13962464D02*
X104911590Y-13212464D01*
X104911590Y-13212464D02*
X105294447Y-13962464D01*
X105294447Y-13962464D02*
X105294447Y-13212464D01*
X105613495Y-13962464D02*
X105613495Y-13212464D01*
X105613495Y-13212464D02*
X105773019Y-13212464D01*
X105773019Y-13212464D02*
X105868733Y-13248178D01*
X105868733Y-13248178D02*
X105932543Y-13319607D01*
X105932543Y-13319607D02*
X105964448Y-13391035D01*
X105964448Y-13391035D02*
X105996352Y-13533892D01*
X105996352Y-13533892D02*
X105996352Y-13641035D01*
X105996352Y-13641035D02*
X105964448Y-13783892D01*
X105964448Y-13783892D02*
X105932543Y-13855321D01*
X105932543Y-13855321D02*
X105868733Y-13926750D01*
X105868733Y-13926750D02*
X105773019Y-13962464D01*
X105773019Y-13962464D02*
X105613495Y-13962464D01*
X104209686Y-26448178D02*
X104528733Y-26448178D01*
X104145876Y-26662464D02*
X104369209Y-25912464D01*
X104369209Y-25912464D02*
X104592543Y-26662464D01*
X105166829Y-26662464D02*
X104783972Y-26662464D01*
X104975400Y-26662464D02*
X104975400Y-25912464D01*
X104975400Y-25912464D02*
X104911591Y-26019607D01*
X104911591Y-26019607D02*
X104847781Y-26091035D01*
X104847781Y-26091035D02*
X104783972Y-26126750D01*
X105932543Y-25876750D02*
X105358257Y-26841035D01*
X106379210Y-26269607D02*
X106155876Y-26269607D01*
X106155876Y-26662464D02*
X106155876Y-25912464D01*
X106155876Y-25912464D02*
X106474924Y-25912464D01*
X107017305Y-25912464D02*
X106889686Y-25912464D01*
X106889686Y-25912464D02*
X106825877Y-25948178D01*
X106825877Y-25948178D02*
X106793972Y-25983892D01*
X106793972Y-25983892D02*
X106730162Y-26091035D01*
X106730162Y-26091035D02*
X106698258Y-26233892D01*
X106698258Y-26233892D02*
X106698258Y-26519607D01*
X106698258Y-26519607D02*
X106730162Y-26591035D01*
X106730162Y-26591035D02*
X106762067Y-26626750D01*
X106762067Y-26626750D02*
X106825877Y-26662464D01*
X106825877Y-26662464D02*
X106953496Y-26662464D01*
X106953496Y-26662464D02*
X107017305Y-26626750D01*
X107017305Y-26626750D02*
X107049210Y-26591035D01*
X107049210Y-26591035D02*
X107081115Y-26519607D01*
X107081115Y-26519607D02*
X107081115Y-26341035D01*
X107081115Y-26341035D02*
X107049210Y-26269607D01*
X107049210Y-26269607D02*
X107017305Y-26233892D01*
X107017305Y-26233892D02*
X106953496Y-26198178D01*
X106953496Y-26198178D02*
X106825877Y-26198178D01*
X106825877Y-26198178D02*
X106762067Y-26233892D01*
X106762067Y-26233892D02*
X106730162Y-26269607D01*
X106730162Y-26269607D02*
X106698258Y-26341035D01*
X111177543Y-24086750D02*
X111273257Y-24122464D01*
X111273257Y-24122464D02*
X111432781Y-24122464D01*
X111432781Y-24122464D02*
X111496590Y-24086750D01*
X111496590Y-24086750D02*
X111528495Y-24051035D01*
X111528495Y-24051035D02*
X111560400Y-23979607D01*
X111560400Y-23979607D02*
X111560400Y-23908178D01*
X111560400Y-23908178D02*
X111528495Y-23836750D01*
X111528495Y-23836750D02*
X111496590Y-23801035D01*
X111496590Y-23801035D02*
X111432781Y-23765321D01*
X111432781Y-23765321D02*
X111305162Y-23729607D01*
X111305162Y-23729607D02*
X111241352Y-23693892D01*
X111241352Y-23693892D02*
X111209447Y-23658178D01*
X111209447Y-23658178D02*
X111177543Y-23586750D01*
X111177543Y-23586750D02*
X111177543Y-23515321D01*
X111177543Y-23515321D02*
X111209447Y-23443892D01*
X111209447Y-23443892D02*
X111241352Y-23408178D01*
X111241352Y-23408178D02*
X111305162Y-23372464D01*
X111305162Y-23372464D02*
X111464685Y-23372464D01*
X111464685Y-23372464D02*
X111560400Y-23408178D01*
X112230399Y-24051035D02*
X112198495Y-24086750D01*
X112198495Y-24086750D02*
X112102780Y-24122464D01*
X112102780Y-24122464D02*
X112038971Y-24122464D01*
X112038971Y-24122464D02*
X111943257Y-24086750D01*
X111943257Y-24086750D02*
X111879447Y-24015321D01*
X111879447Y-24015321D02*
X111847542Y-23943892D01*
X111847542Y-23943892D02*
X111815638Y-23801035D01*
X111815638Y-23801035D02*
X111815638Y-23693892D01*
X111815638Y-23693892D02*
X111847542Y-23551035D01*
X111847542Y-23551035D02*
X111879447Y-23479607D01*
X111879447Y-23479607D02*
X111943257Y-23408178D01*
X111943257Y-23408178D02*
X112038971Y-23372464D01*
X112038971Y-23372464D02*
X112102780Y-23372464D01*
X112102780Y-23372464D02*
X112198495Y-23408178D01*
X112198495Y-23408178D02*
X112230399Y-23443892D01*
X112836590Y-24122464D02*
X112517542Y-24122464D01*
X112517542Y-24122464D02*
X112517542Y-23372464D01*
X113538495Y-23336750D02*
X112964209Y-24301035D01*
X113761828Y-24122464D02*
X113761828Y-23372464D01*
X113761828Y-23372464D02*
X113921352Y-23372464D01*
X113921352Y-23372464D02*
X114017066Y-23408178D01*
X114017066Y-23408178D02*
X114080876Y-23479607D01*
X114080876Y-23479607D02*
X114112781Y-23551035D01*
X114112781Y-23551035D02*
X114144685Y-23693892D01*
X114144685Y-23693892D02*
X114144685Y-23801035D01*
X114144685Y-23801035D02*
X114112781Y-23943892D01*
X114112781Y-23943892D02*
X114080876Y-24015321D01*
X114080876Y-24015321D02*
X114017066Y-24086750D01*
X114017066Y-24086750D02*
X113921352Y-24122464D01*
X113921352Y-24122464D02*
X113761828Y-24122464D01*
X114559447Y-23372464D02*
X114623257Y-23372464D01*
X114623257Y-23372464D02*
X114687066Y-23408178D01*
X114687066Y-23408178D02*
X114718971Y-23443892D01*
X114718971Y-23443892D02*
X114750876Y-23515321D01*
X114750876Y-23515321D02*
X114782781Y-23658178D01*
X114782781Y-23658178D02*
X114782781Y-23836750D01*
X114782781Y-23836750D02*
X114750876Y-23979607D01*
X114750876Y-23979607D02*
X114718971Y-24051035D01*
X114718971Y-24051035D02*
X114687066Y-24086750D01*
X114687066Y-24086750D02*
X114623257Y-24122464D01*
X114623257Y-24122464D02*
X114559447Y-24122464D01*
X114559447Y-24122464D02*
X114495638Y-24086750D01*
X114495638Y-24086750D02*
X114463733Y-24051035D01*
X114463733Y-24051035D02*
X114431828Y-23979607D01*
X114431828Y-23979607D02*
X114399924Y-23836750D01*
X114399924Y-23836750D02*
X114399924Y-23658178D01*
X114399924Y-23658178D02*
X114431828Y-23515321D01*
X114431828Y-23515321D02*
X114463733Y-23443892D01*
X114463733Y-23443892D02*
X114495638Y-23408178D01*
X114495638Y-23408178D02*
X114559447Y-23372464D01*
X115548495Y-23336750D02*
X114974209Y-24301035D01*
X115708019Y-23372464D02*
X116122781Y-23372464D01*
X116122781Y-23372464D02*
X115899447Y-23658178D01*
X115899447Y-23658178D02*
X115995162Y-23658178D01*
X115995162Y-23658178D02*
X116058971Y-23693892D01*
X116058971Y-23693892D02*
X116090876Y-23729607D01*
X116090876Y-23729607D02*
X116122781Y-23801035D01*
X116122781Y-23801035D02*
X116122781Y-23979607D01*
X116122781Y-23979607D02*
X116090876Y-24051035D01*
X116090876Y-24051035D02*
X116058971Y-24086750D01*
X116058971Y-24086750D02*
X115995162Y-24122464D01*
X115995162Y-24122464D02*
X115803733Y-24122464D01*
X115803733Y-24122464D02*
X115739924Y-24086750D01*
X115739924Y-24086750D02*
X115708019Y-24051035D01*
X113761828Y-26662464D02*
X113761828Y-25912464D01*
X113761828Y-25912464D02*
X113921352Y-25912464D01*
X113921352Y-25912464D02*
X114017066Y-25948178D01*
X114017066Y-25948178D02*
X114080876Y-26019607D01*
X114080876Y-26019607D02*
X114112781Y-26091035D01*
X114112781Y-26091035D02*
X114144685Y-26233892D01*
X114144685Y-26233892D02*
X114144685Y-26341035D01*
X114144685Y-26341035D02*
X114112781Y-26483892D01*
X114112781Y-26483892D02*
X114080876Y-26555321D01*
X114080876Y-26555321D02*
X114017066Y-26626750D01*
X114017066Y-26626750D02*
X113921352Y-26662464D01*
X113921352Y-26662464D02*
X113761828Y-26662464D01*
X114718971Y-26162464D02*
X114718971Y-26662464D01*
X114559447Y-25876750D02*
X114399924Y-26412464D01*
X114399924Y-26412464D02*
X114814685Y-26412464D01*
X115548495Y-25876750D02*
X114974209Y-26841035D01*
X116058971Y-26162464D02*
X116058971Y-26662464D01*
X115899447Y-25876750D02*
X115739924Y-26412464D01*
X115739924Y-26412464D02*
X116154685Y-26412464D01*
X104145876Y-18292464D02*
X104369209Y-19042464D01*
X104369209Y-19042464D02*
X104592543Y-18292464D01*
X105198733Y-18971035D02*
X105166829Y-19006750D01*
X105166829Y-19006750D02*
X105071114Y-19042464D01*
X105071114Y-19042464D02*
X105007305Y-19042464D01*
X105007305Y-19042464D02*
X104911591Y-19006750D01*
X104911591Y-19006750D02*
X104847781Y-18935321D01*
X104847781Y-18935321D02*
X104815876Y-18863892D01*
X104815876Y-18863892D02*
X104783972Y-18721035D01*
X104783972Y-18721035D02*
X104783972Y-18613892D01*
X104783972Y-18613892D02*
X104815876Y-18471035D01*
X104815876Y-18471035D02*
X104847781Y-18399607D01*
X104847781Y-18399607D02*
X104911591Y-18328178D01*
X104911591Y-18328178D02*
X105007305Y-18292464D01*
X105007305Y-18292464D02*
X105071114Y-18292464D01*
X105071114Y-18292464D02*
X105166829Y-18328178D01*
X105166829Y-18328178D02*
X105198733Y-18363892D01*
X105868733Y-18971035D02*
X105836829Y-19006750D01*
X105836829Y-19006750D02*
X105741114Y-19042464D01*
X105741114Y-19042464D02*
X105677305Y-19042464D01*
X105677305Y-19042464D02*
X105581591Y-19006750D01*
X105581591Y-19006750D02*
X105517781Y-18935321D01*
X105517781Y-18935321D02*
X105485876Y-18863892D01*
X105485876Y-18863892D02*
X105453972Y-18721035D01*
X105453972Y-18721035D02*
X105453972Y-18613892D01*
X105453972Y-18613892D02*
X105485876Y-18471035D01*
X105485876Y-18471035D02*
X105517781Y-18399607D01*
X105517781Y-18399607D02*
X105581591Y-18328178D01*
X105581591Y-18328178D02*
X105677305Y-18292464D01*
X105677305Y-18292464D02*
X105741114Y-18292464D01*
X105741114Y-18292464D02*
X105836829Y-18328178D01*
X105836829Y-18328178D02*
X105868733Y-18363892D01*
X104209686Y-23908178D02*
X104528733Y-23908178D01*
X104145876Y-24122464D02*
X104369209Y-23372464D01*
X104369209Y-23372464D02*
X104592543Y-24122464D01*
X104783972Y-23443892D02*
X104815876Y-23408178D01*
X104815876Y-23408178D02*
X104879686Y-23372464D01*
X104879686Y-23372464D02*
X105039210Y-23372464D01*
X105039210Y-23372464D02*
X105103019Y-23408178D01*
X105103019Y-23408178D02*
X105134924Y-23443892D01*
X105134924Y-23443892D02*
X105166829Y-23515321D01*
X105166829Y-23515321D02*
X105166829Y-23586750D01*
X105166829Y-23586750D02*
X105134924Y-23693892D01*
X105134924Y-23693892D02*
X104752067Y-24122464D01*
X104752067Y-24122464D02*
X105166829Y-24122464D01*
X105932543Y-23336750D02*
X105358257Y-24301035D01*
X106379210Y-23729607D02*
X106155876Y-23729607D01*
X106155876Y-24122464D02*
X106155876Y-23372464D01*
X106155876Y-23372464D02*
X106474924Y-23372464D01*
X107049210Y-23372464D02*
X106730162Y-23372464D01*
X106730162Y-23372464D02*
X106698258Y-23729607D01*
X106698258Y-23729607D02*
X106730162Y-23693892D01*
X106730162Y-23693892D02*
X106793972Y-23658178D01*
X106793972Y-23658178D02*
X106953496Y-23658178D01*
X106953496Y-23658178D02*
X107017305Y-23693892D01*
X107017305Y-23693892D02*
X107049210Y-23729607D01*
X107049210Y-23729607D02*
X107081115Y-23801035D01*
X107081115Y-23801035D02*
X107081115Y-23979607D01*
X107081115Y-23979607D02*
X107049210Y-24051035D01*
X107049210Y-24051035D02*
X107017305Y-24086750D01*
X107017305Y-24086750D02*
X106953496Y-24122464D01*
X106953496Y-24122464D02*
X106793972Y-24122464D01*
X106793972Y-24122464D02*
X106730162Y-24086750D01*
X106730162Y-24086750D02*
X106698258Y-24051035D01*
X113985162Y-36429607D02*
X114080876Y-36465321D01*
X114080876Y-36465321D02*
X114112781Y-36501035D01*
X114112781Y-36501035D02*
X114144685Y-36572464D01*
X114144685Y-36572464D02*
X114144685Y-36679607D01*
X114144685Y-36679607D02*
X114112781Y-36751035D01*
X114112781Y-36751035D02*
X114080876Y-36786750D01*
X114080876Y-36786750D02*
X114017066Y-36822464D01*
X114017066Y-36822464D02*
X113761828Y-36822464D01*
X113761828Y-36822464D02*
X113761828Y-36072464D01*
X113761828Y-36072464D02*
X113985162Y-36072464D01*
X113985162Y-36072464D02*
X114048971Y-36108178D01*
X114048971Y-36108178D02*
X114080876Y-36143892D01*
X114080876Y-36143892D02*
X114112781Y-36215321D01*
X114112781Y-36215321D02*
X114112781Y-36286750D01*
X114112781Y-36286750D02*
X114080876Y-36358178D01*
X114080876Y-36358178D02*
X114048971Y-36393892D01*
X114048971Y-36393892D02*
X113985162Y-36429607D01*
X113985162Y-36429607D02*
X113761828Y-36429607D01*
X114718971Y-36322464D02*
X114718971Y-36822464D01*
X114559447Y-36036750D02*
X114399924Y-36572464D01*
X114399924Y-36572464D02*
X114814685Y-36572464D01*
X115548495Y-36036750D02*
X114974209Y-37001035D01*
X115867543Y-36393892D02*
X115803733Y-36358178D01*
X115803733Y-36358178D02*
X115771828Y-36322464D01*
X115771828Y-36322464D02*
X115739924Y-36251035D01*
X115739924Y-36251035D02*
X115739924Y-36215321D01*
X115739924Y-36215321D02*
X115771828Y-36143892D01*
X115771828Y-36143892D02*
X115803733Y-36108178D01*
X115803733Y-36108178D02*
X115867543Y-36072464D01*
X115867543Y-36072464D02*
X115995162Y-36072464D01*
X115995162Y-36072464D02*
X116058971Y-36108178D01*
X116058971Y-36108178D02*
X116090876Y-36143892D01*
X116090876Y-36143892D02*
X116122781Y-36215321D01*
X116122781Y-36215321D02*
X116122781Y-36251035D01*
X116122781Y-36251035D02*
X116090876Y-36322464D01*
X116090876Y-36322464D02*
X116058971Y-36358178D01*
X116058971Y-36358178D02*
X115995162Y-36393892D01*
X115995162Y-36393892D02*
X115867543Y-36393892D01*
X115867543Y-36393892D02*
X115803733Y-36429607D01*
X115803733Y-36429607D02*
X115771828Y-36465321D01*
X115771828Y-36465321D02*
X115739924Y-36536750D01*
X115739924Y-36536750D02*
X115739924Y-36679607D01*
X115739924Y-36679607D02*
X115771828Y-36751035D01*
X115771828Y-36751035D02*
X115803733Y-36786750D01*
X115803733Y-36786750D02*
X115867543Y-36822464D01*
X115867543Y-36822464D02*
X115995162Y-36822464D01*
X115995162Y-36822464D02*
X116058971Y-36786750D01*
X116058971Y-36786750D02*
X116090876Y-36751035D01*
X116090876Y-36751035D02*
X116122781Y-36679607D01*
X116122781Y-36679607D02*
X116122781Y-36536750D01*
X116122781Y-36536750D02*
X116090876Y-36465321D01*
X116090876Y-36465321D02*
X116058971Y-36429607D01*
X116058971Y-36429607D02*
X115995162Y-36393892D01*
X112613256Y-11422464D02*
X112613256Y-10672464D01*
X112613256Y-10672464D02*
X112772780Y-10672464D01*
X112772780Y-10672464D02*
X112868494Y-10708178D01*
X112868494Y-10708178D02*
X112932304Y-10779607D01*
X112932304Y-10779607D02*
X112964209Y-10851035D01*
X112964209Y-10851035D02*
X112996113Y-10993892D01*
X112996113Y-10993892D02*
X112996113Y-11101035D01*
X112996113Y-11101035D02*
X112964209Y-11243892D01*
X112964209Y-11243892D02*
X112932304Y-11315321D01*
X112932304Y-11315321D02*
X112868494Y-11386750D01*
X112868494Y-11386750D02*
X112772780Y-11422464D01*
X112772780Y-11422464D02*
X112613256Y-11422464D01*
X113219447Y-10672464D02*
X113634209Y-10672464D01*
X113634209Y-10672464D02*
X113410875Y-10958178D01*
X113410875Y-10958178D02*
X113506590Y-10958178D01*
X113506590Y-10958178D02*
X113570399Y-10993892D01*
X113570399Y-10993892D02*
X113602304Y-11029607D01*
X113602304Y-11029607D02*
X113634209Y-11101035D01*
X113634209Y-11101035D02*
X113634209Y-11279607D01*
X113634209Y-11279607D02*
X113602304Y-11351035D01*
X113602304Y-11351035D02*
X113570399Y-11386750D01*
X113570399Y-11386750D02*
X113506590Y-11422464D01*
X113506590Y-11422464D02*
X113315161Y-11422464D01*
X113315161Y-11422464D02*
X113251352Y-11386750D01*
X113251352Y-11386750D02*
X113219447Y-11351035D01*
X114399923Y-10636750D02*
X113825637Y-11601035D01*
X114527542Y-10672464D02*
X114910399Y-10672464D01*
X114718971Y-11422464D02*
X114718971Y-10672464D01*
X115069923Y-10672464D02*
X115516589Y-11422464D01*
X115516589Y-10672464D02*
X115069923Y-11422464D01*
X115899446Y-10672464D02*
X115963256Y-10672464D01*
X115963256Y-10672464D02*
X116027065Y-10708178D01*
X116027065Y-10708178D02*
X116058970Y-10743892D01*
X116058970Y-10743892D02*
X116090875Y-10815321D01*
X116090875Y-10815321D02*
X116122780Y-10958178D01*
X116122780Y-10958178D02*
X116122780Y-11136750D01*
X116122780Y-11136750D02*
X116090875Y-11279607D01*
X116090875Y-11279607D02*
X116058970Y-11351035D01*
X116058970Y-11351035D02*
X116027065Y-11386750D01*
X116027065Y-11386750D02*
X115963256Y-11422464D01*
X115963256Y-11422464D02*
X115899446Y-11422464D01*
X115899446Y-11422464D02*
X115835637Y-11386750D01*
X115835637Y-11386750D02*
X115803732Y-11351035D01*
X115803732Y-11351035D02*
X115771827Y-11279607D01*
X115771827Y-11279607D02*
X115739923Y-11136750D01*
X115739923Y-11136750D02*
X115739923Y-10958178D01*
X115739923Y-10958178D02*
X115771827Y-10815321D01*
X115771827Y-10815321D02*
X115803732Y-10743892D01*
X115803732Y-10743892D02*
X115835637Y-10708178D01*
X115835637Y-10708178D02*
X115899446Y-10672464D01*
X114718971Y-18328178D02*
X114655161Y-18292464D01*
X114655161Y-18292464D02*
X114559447Y-18292464D01*
X114559447Y-18292464D02*
X114463733Y-18328178D01*
X114463733Y-18328178D02*
X114399923Y-18399607D01*
X114399923Y-18399607D02*
X114368018Y-18471035D01*
X114368018Y-18471035D02*
X114336114Y-18613892D01*
X114336114Y-18613892D02*
X114336114Y-18721035D01*
X114336114Y-18721035D02*
X114368018Y-18863892D01*
X114368018Y-18863892D02*
X114399923Y-18935321D01*
X114399923Y-18935321D02*
X114463733Y-19006750D01*
X114463733Y-19006750D02*
X114559447Y-19042464D01*
X114559447Y-19042464D02*
X114623256Y-19042464D01*
X114623256Y-19042464D02*
X114718971Y-19006750D01*
X114718971Y-19006750D02*
X114750875Y-18971035D01*
X114750875Y-18971035D02*
X114750875Y-18721035D01*
X114750875Y-18721035D02*
X114623256Y-18721035D01*
X115038018Y-19042464D02*
X115038018Y-18292464D01*
X115038018Y-18292464D02*
X115420875Y-19042464D01*
X115420875Y-19042464D02*
X115420875Y-18292464D01*
X115739923Y-19042464D02*
X115739923Y-18292464D01*
X115739923Y-18292464D02*
X115899447Y-18292464D01*
X115899447Y-18292464D02*
X115995161Y-18328178D01*
X115995161Y-18328178D02*
X116058971Y-18399607D01*
X116058971Y-18399607D02*
X116090876Y-18471035D01*
X116090876Y-18471035D02*
X116122780Y-18613892D01*
X116122780Y-18613892D02*
X116122780Y-18721035D01*
X116122780Y-18721035D02*
X116090876Y-18863892D01*
X116090876Y-18863892D02*
X116058971Y-18935321D01*
X116058971Y-18935321D02*
X115995161Y-19006750D01*
X115995161Y-19006750D02*
X115899447Y-19042464D01*
X115899447Y-19042464D02*
X115739923Y-19042464D01*
X113761828Y-31742464D02*
X113761828Y-30992464D01*
X113761828Y-30992464D02*
X113921352Y-30992464D01*
X113921352Y-30992464D02*
X114017066Y-31028178D01*
X114017066Y-31028178D02*
X114080876Y-31099607D01*
X114080876Y-31099607D02*
X114112781Y-31171035D01*
X114112781Y-31171035D02*
X114144685Y-31313892D01*
X114144685Y-31313892D02*
X114144685Y-31421035D01*
X114144685Y-31421035D02*
X114112781Y-31563892D01*
X114112781Y-31563892D02*
X114080876Y-31635321D01*
X114080876Y-31635321D02*
X114017066Y-31706750D01*
X114017066Y-31706750D02*
X113921352Y-31742464D01*
X113921352Y-31742464D02*
X113761828Y-31742464D01*
X114368019Y-30992464D02*
X114814685Y-30992464D01*
X114814685Y-30992464D02*
X114527543Y-31742464D01*
X115548495Y-30956750D02*
X114974209Y-31921035D01*
X116058971Y-30992464D02*
X115931352Y-30992464D01*
X115931352Y-30992464D02*
X115867543Y-31028178D01*
X115867543Y-31028178D02*
X115835638Y-31063892D01*
X115835638Y-31063892D02*
X115771828Y-31171035D01*
X115771828Y-31171035D02*
X115739924Y-31313892D01*
X115739924Y-31313892D02*
X115739924Y-31599607D01*
X115739924Y-31599607D02*
X115771828Y-31671035D01*
X115771828Y-31671035D02*
X115803733Y-31706750D01*
X115803733Y-31706750D02*
X115867543Y-31742464D01*
X115867543Y-31742464D02*
X115995162Y-31742464D01*
X115995162Y-31742464D02*
X116058971Y-31706750D01*
X116058971Y-31706750D02*
X116090876Y-31671035D01*
X116090876Y-31671035D02*
X116122781Y-31599607D01*
X116122781Y-31599607D02*
X116122781Y-31421035D01*
X116122781Y-31421035D02*
X116090876Y-31349607D01*
X116090876Y-31349607D02*
X116058971Y-31313892D01*
X116058971Y-31313892D02*
X115995162Y-31278178D01*
X115995162Y-31278178D02*
X115867543Y-31278178D01*
X115867543Y-31278178D02*
X115803733Y-31313892D01*
X115803733Y-31313892D02*
X115771828Y-31349607D01*
X115771828Y-31349607D02*
X115739924Y-31421035D01*
X114718971Y-15788178D02*
X114655161Y-15752464D01*
X114655161Y-15752464D02*
X114559447Y-15752464D01*
X114559447Y-15752464D02*
X114463733Y-15788178D01*
X114463733Y-15788178D02*
X114399923Y-15859607D01*
X114399923Y-15859607D02*
X114368018Y-15931035D01*
X114368018Y-15931035D02*
X114336114Y-16073892D01*
X114336114Y-16073892D02*
X114336114Y-16181035D01*
X114336114Y-16181035D02*
X114368018Y-16323892D01*
X114368018Y-16323892D02*
X114399923Y-16395321D01*
X114399923Y-16395321D02*
X114463733Y-16466750D01*
X114463733Y-16466750D02*
X114559447Y-16502464D01*
X114559447Y-16502464D02*
X114623256Y-16502464D01*
X114623256Y-16502464D02*
X114718971Y-16466750D01*
X114718971Y-16466750D02*
X114750875Y-16431035D01*
X114750875Y-16431035D02*
X114750875Y-16181035D01*
X114750875Y-16181035D02*
X114623256Y-16181035D01*
X115038018Y-16502464D02*
X115038018Y-15752464D01*
X115038018Y-15752464D02*
X115420875Y-16502464D01*
X115420875Y-16502464D02*
X115420875Y-15752464D01*
X115739923Y-16502464D02*
X115739923Y-15752464D01*
X115739923Y-15752464D02*
X115899447Y-15752464D01*
X115899447Y-15752464D02*
X115995161Y-15788178D01*
X115995161Y-15788178D02*
X116058971Y-15859607D01*
X116058971Y-15859607D02*
X116090876Y-15931035D01*
X116090876Y-15931035D02*
X116122780Y-16073892D01*
X116122780Y-16073892D02*
X116122780Y-16181035D01*
X116122780Y-16181035D02*
X116090876Y-16323892D01*
X116090876Y-16323892D02*
X116058971Y-16395321D01*
X116058971Y-16395321D02*
X115995161Y-16466750D01*
X115995161Y-16466750D02*
X115899447Y-16502464D01*
X115899447Y-16502464D02*
X115739923Y-16502464D01*
X104592543Y-34282464D02*
X104209686Y-34282464D01*
X104401114Y-34282464D02*
X104401114Y-33532464D01*
X104401114Y-33532464D02*
X104337305Y-33639607D01*
X104337305Y-33639607D02*
X104273495Y-33711035D01*
X104273495Y-33711035D02*
X104209686Y-33746750D01*
X105166828Y-33782464D02*
X105166828Y-34282464D01*
X105007304Y-33496750D02*
X104847781Y-34032464D01*
X104847781Y-34032464D02*
X105262542Y-34032464D01*
X105996352Y-33496750D02*
X105422066Y-34461035D01*
X106443019Y-33889607D02*
X106538733Y-33925321D01*
X106538733Y-33925321D02*
X106570638Y-33961035D01*
X106570638Y-33961035D02*
X106602542Y-34032464D01*
X106602542Y-34032464D02*
X106602542Y-34139607D01*
X106602542Y-34139607D02*
X106570638Y-34211035D01*
X106570638Y-34211035D02*
X106538733Y-34246750D01*
X106538733Y-34246750D02*
X106474923Y-34282464D01*
X106474923Y-34282464D02*
X106219685Y-34282464D01*
X106219685Y-34282464D02*
X106219685Y-33532464D01*
X106219685Y-33532464D02*
X106443019Y-33532464D01*
X106443019Y-33532464D02*
X106506828Y-33568178D01*
X106506828Y-33568178D02*
X106538733Y-33603892D01*
X106538733Y-33603892D02*
X106570638Y-33675321D01*
X106570638Y-33675321D02*
X106570638Y-33746750D01*
X106570638Y-33746750D02*
X106538733Y-33818178D01*
X106538733Y-33818178D02*
X106506828Y-33853892D01*
X106506828Y-33853892D02*
X106443019Y-33889607D01*
X106443019Y-33889607D02*
X106219685Y-33889607D01*
X106825876Y-33532464D02*
X107240638Y-33532464D01*
X107240638Y-33532464D02*
X107017304Y-33818178D01*
X107017304Y-33818178D02*
X107113019Y-33818178D01*
X107113019Y-33818178D02*
X107176828Y-33853892D01*
X107176828Y-33853892D02*
X107208733Y-33889607D01*
X107208733Y-33889607D02*
X107240638Y-33961035D01*
X107240638Y-33961035D02*
X107240638Y-34139607D01*
X107240638Y-34139607D02*
X107208733Y-34211035D01*
X107208733Y-34211035D02*
X107176828Y-34246750D01*
X107176828Y-34246750D02*
X107113019Y-34282464D01*
X107113019Y-34282464D02*
X106921590Y-34282464D01*
X106921590Y-34282464D02*
X106857781Y-34246750D01*
X106857781Y-34246750D02*
X106825876Y-34211035D01*
X104209686Y-28988178D02*
X104528733Y-28988178D01*
X104145876Y-29202464D02*
X104369209Y-28452464D01*
X104369209Y-28452464D02*
X104592543Y-29202464D01*
X104943495Y-28452464D02*
X105007305Y-28452464D01*
X105007305Y-28452464D02*
X105071114Y-28488178D01*
X105071114Y-28488178D02*
X105103019Y-28523892D01*
X105103019Y-28523892D02*
X105134924Y-28595321D01*
X105134924Y-28595321D02*
X105166829Y-28738178D01*
X105166829Y-28738178D02*
X105166829Y-28916750D01*
X105166829Y-28916750D02*
X105134924Y-29059607D01*
X105134924Y-29059607D02*
X105103019Y-29131035D01*
X105103019Y-29131035D02*
X105071114Y-29166750D01*
X105071114Y-29166750D02*
X105007305Y-29202464D01*
X105007305Y-29202464D02*
X104943495Y-29202464D01*
X104943495Y-29202464D02*
X104879686Y-29166750D01*
X104879686Y-29166750D02*
X104847781Y-29131035D01*
X104847781Y-29131035D02*
X104815876Y-29059607D01*
X104815876Y-29059607D02*
X104783972Y-28916750D01*
X104783972Y-28916750D02*
X104783972Y-28738178D01*
X104783972Y-28738178D02*
X104815876Y-28595321D01*
X104815876Y-28595321D02*
X104847781Y-28523892D01*
X104847781Y-28523892D02*
X104879686Y-28488178D01*
X104879686Y-28488178D02*
X104943495Y-28452464D01*
X105932543Y-28416750D02*
X105358257Y-29381035D01*
X106379210Y-28809607D02*
X106155876Y-28809607D01*
X106155876Y-29202464D02*
X106155876Y-28452464D01*
X106155876Y-28452464D02*
X106474924Y-28452464D01*
X106666353Y-28452464D02*
X107113019Y-28452464D01*
X107113019Y-28452464D02*
X106825877Y-29202464D01*
X113985162Y-38969607D02*
X114080876Y-39005321D01*
X114080876Y-39005321D02*
X114112781Y-39041035D01*
X114112781Y-39041035D02*
X114144685Y-39112464D01*
X114144685Y-39112464D02*
X114144685Y-39219607D01*
X114144685Y-39219607D02*
X114112781Y-39291035D01*
X114112781Y-39291035D02*
X114080876Y-39326750D01*
X114080876Y-39326750D02*
X114017066Y-39362464D01*
X114017066Y-39362464D02*
X113761828Y-39362464D01*
X113761828Y-39362464D02*
X113761828Y-38612464D01*
X113761828Y-38612464D02*
X113985162Y-38612464D01*
X113985162Y-38612464D02*
X114048971Y-38648178D01*
X114048971Y-38648178D02*
X114080876Y-38683892D01*
X114080876Y-38683892D02*
X114112781Y-38755321D01*
X114112781Y-38755321D02*
X114112781Y-38826750D01*
X114112781Y-38826750D02*
X114080876Y-38898178D01*
X114080876Y-38898178D02*
X114048971Y-38933892D01*
X114048971Y-38933892D02*
X113985162Y-38969607D01*
X113985162Y-38969607D02*
X113761828Y-38969607D01*
X114750876Y-38612464D02*
X114431828Y-38612464D01*
X114431828Y-38612464D02*
X114399924Y-38969607D01*
X114399924Y-38969607D02*
X114431828Y-38933892D01*
X114431828Y-38933892D02*
X114495638Y-38898178D01*
X114495638Y-38898178D02*
X114655162Y-38898178D01*
X114655162Y-38898178D02*
X114718971Y-38933892D01*
X114718971Y-38933892D02*
X114750876Y-38969607D01*
X114750876Y-38969607D02*
X114782781Y-39041035D01*
X114782781Y-39041035D02*
X114782781Y-39219607D01*
X114782781Y-39219607D02*
X114750876Y-39291035D01*
X114750876Y-39291035D02*
X114718971Y-39326750D01*
X114718971Y-39326750D02*
X114655162Y-39362464D01*
X114655162Y-39362464D02*
X114495638Y-39362464D01*
X114495638Y-39362464D02*
X114431828Y-39326750D01*
X114431828Y-39326750D02*
X114399924Y-39291035D01*
X115548495Y-38576750D02*
X114974209Y-39541035D01*
X115803733Y-39362464D02*
X115931352Y-39362464D01*
X115931352Y-39362464D02*
X115995162Y-39326750D01*
X115995162Y-39326750D02*
X116027066Y-39291035D01*
X116027066Y-39291035D02*
X116090876Y-39183892D01*
X116090876Y-39183892D02*
X116122781Y-39041035D01*
X116122781Y-39041035D02*
X116122781Y-38755321D01*
X116122781Y-38755321D02*
X116090876Y-38683892D01*
X116090876Y-38683892D02*
X116058971Y-38648178D01*
X116058971Y-38648178D02*
X115995162Y-38612464D01*
X115995162Y-38612464D02*
X115867543Y-38612464D01*
X115867543Y-38612464D02*
X115803733Y-38648178D01*
X115803733Y-38648178D02*
X115771828Y-38683892D01*
X115771828Y-38683892D02*
X115739924Y-38755321D01*
X115739924Y-38755321D02*
X115739924Y-38933892D01*
X115739924Y-38933892D02*
X115771828Y-39005321D01*
X115771828Y-39005321D02*
X115803733Y-39041035D01*
X115803733Y-39041035D02*
X115867543Y-39076750D01*
X115867543Y-39076750D02*
X115995162Y-39076750D01*
X115995162Y-39076750D02*
X116058971Y-39041035D01*
X116058971Y-39041035D02*
X116090876Y-39005321D01*
X116090876Y-39005321D02*
X116122781Y-38933892D01*
X104592543Y-31742464D02*
X104209686Y-31742464D01*
X104401114Y-31742464D02*
X104401114Y-30992464D01*
X104401114Y-30992464D02*
X104337305Y-31099607D01*
X104337305Y-31099607D02*
X104273495Y-31171035D01*
X104273495Y-31171035D02*
X104209686Y-31206750D01*
X105198733Y-30992464D02*
X104879685Y-30992464D01*
X104879685Y-30992464D02*
X104847781Y-31349607D01*
X104847781Y-31349607D02*
X104879685Y-31313892D01*
X104879685Y-31313892D02*
X104943495Y-31278178D01*
X104943495Y-31278178D02*
X105103019Y-31278178D01*
X105103019Y-31278178D02*
X105166828Y-31313892D01*
X105166828Y-31313892D02*
X105198733Y-31349607D01*
X105198733Y-31349607D02*
X105230638Y-31421035D01*
X105230638Y-31421035D02*
X105230638Y-31599607D01*
X105230638Y-31599607D02*
X105198733Y-31671035D01*
X105198733Y-31671035D02*
X105166828Y-31706750D01*
X105166828Y-31706750D02*
X105103019Y-31742464D01*
X105103019Y-31742464D02*
X104943495Y-31742464D01*
X104943495Y-31742464D02*
X104879685Y-31706750D01*
X104879685Y-31706750D02*
X104847781Y-31671035D01*
X105996352Y-30956750D02*
X105422066Y-31921035D01*
X106443019Y-31349607D02*
X106538733Y-31385321D01*
X106538733Y-31385321D02*
X106570638Y-31421035D01*
X106570638Y-31421035D02*
X106602542Y-31492464D01*
X106602542Y-31492464D02*
X106602542Y-31599607D01*
X106602542Y-31599607D02*
X106570638Y-31671035D01*
X106570638Y-31671035D02*
X106538733Y-31706750D01*
X106538733Y-31706750D02*
X106474923Y-31742464D01*
X106474923Y-31742464D02*
X106219685Y-31742464D01*
X106219685Y-31742464D02*
X106219685Y-30992464D01*
X106219685Y-30992464D02*
X106443019Y-30992464D01*
X106443019Y-30992464D02*
X106506828Y-31028178D01*
X106506828Y-31028178D02*
X106538733Y-31063892D01*
X106538733Y-31063892D02*
X106570638Y-31135321D01*
X106570638Y-31135321D02*
X106570638Y-31206750D01*
X106570638Y-31206750D02*
X106538733Y-31278178D01*
X106538733Y-31278178D02*
X106506828Y-31313892D01*
X106506828Y-31313892D02*
X106443019Y-31349607D01*
X106443019Y-31349607D02*
X106219685Y-31349607D01*
X107240638Y-31742464D02*
X106857781Y-31742464D01*
X107049209Y-31742464D02*
X107049209Y-30992464D01*
X107049209Y-30992464D02*
X106985400Y-31099607D01*
X106985400Y-31099607D02*
X106921590Y-31171035D01*
X106921590Y-31171035D02*
X106857781Y-31206750D01*
X111145638Y-21546750D02*
X111241352Y-21582464D01*
X111241352Y-21582464D02*
X111400876Y-21582464D01*
X111400876Y-21582464D02*
X111464685Y-21546750D01*
X111464685Y-21546750D02*
X111496590Y-21511035D01*
X111496590Y-21511035D02*
X111528495Y-21439607D01*
X111528495Y-21439607D02*
X111528495Y-21368178D01*
X111528495Y-21368178D02*
X111496590Y-21296750D01*
X111496590Y-21296750D02*
X111464685Y-21261035D01*
X111464685Y-21261035D02*
X111400876Y-21225321D01*
X111400876Y-21225321D02*
X111273257Y-21189607D01*
X111273257Y-21189607D02*
X111209447Y-21153892D01*
X111209447Y-21153892D02*
X111177542Y-21118178D01*
X111177542Y-21118178D02*
X111145638Y-21046750D01*
X111145638Y-21046750D02*
X111145638Y-20975321D01*
X111145638Y-20975321D02*
X111177542Y-20903892D01*
X111177542Y-20903892D02*
X111209447Y-20868178D01*
X111209447Y-20868178D02*
X111273257Y-20832464D01*
X111273257Y-20832464D02*
X111432780Y-20832464D01*
X111432780Y-20832464D02*
X111528495Y-20868178D01*
X111815637Y-21582464D02*
X111815637Y-20832464D01*
X111815637Y-20832464D02*
X111975161Y-20832464D01*
X111975161Y-20832464D02*
X112070875Y-20868178D01*
X112070875Y-20868178D02*
X112134685Y-20939607D01*
X112134685Y-20939607D02*
X112166590Y-21011035D01*
X112166590Y-21011035D02*
X112198494Y-21153892D01*
X112198494Y-21153892D02*
X112198494Y-21261035D01*
X112198494Y-21261035D02*
X112166590Y-21403892D01*
X112166590Y-21403892D02*
X112134685Y-21475321D01*
X112134685Y-21475321D02*
X112070875Y-21546750D01*
X112070875Y-21546750D02*
X111975161Y-21582464D01*
X111975161Y-21582464D02*
X111815637Y-21582464D01*
X112453733Y-21368178D02*
X112772780Y-21368178D01*
X112389923Y-21582464D02*
X112613256Y-20832464D01*
X112613256Y-20832464D02*
X112836590Y-21582464D01*
X113538495Y-20796750D02*
X112964209Y-21761035D01*
X113761828Y-21582464D02*
X113761828Y-20832464D01*
X113761828Y-20832464D02*
X113921352Y-20832464D01*
X113921352Y-20832464D02*
X114017066Y-20868178D01*
X114017066Y-20868178D02*
X114080876Y-20939607D01*
X114080876Y-20939607D02*
X114112781Y-21011035D01*
X114112781Y-21011035D02*
X114144685Y-21153892D01*
X114144685Y-21153892D02*
X114144685Y-21261035D01*
X114144685Y-21261035D02*
X114112781Y-21403892D01*
X114112781Y-21403892D02*
X114080876Y-21475321D01*
X114080876Y-21475321D02*
X114017066Y-21546750D01*
X114017066Y-21546750D02*
X113921352Y-21582464D01*
X113921352Y-21582464D02*
X113761828Y-21582464D01*
X114782781Y-21582464D02*
X114399924Y-21582464D01*
X114591352Y-21582464D02*
X114591352Y-20832464D01*
X114591352Y-20832464D02*
X114527543Y-20939607D01*
X114527543Y-20939607D02*
X114463733Y-21011035D01*
X114463733Y-21011035D02*
X114399924Y-21046750D01*
X115548495Y-20796750D02*
X114974209Y-21761035D01*
X115739924Y-20903892D02*
X115771828Y-20868178D01*
X115771828Y-20868178D02*
X115835638Y-20832464D01*
X115835638Y-20832464D02*
X115995162Y-20832464D01*
X115995162Y-20832464D02*
X116058971Y-20868178D01*
X116058971Y-20868178D02*
X116090876Y-20903892D01*
X116090876Y-20903892D02*
X116122781Y-20975321D01*
X116122781Y-20975321D02*
X116122781Y-21046750D01*
X116122781Y-21046750D02*
X116090876Y-21153892D01*
X116090876Y-21153892D02*
X115708019Y-21582464D01*
X115708019Y-21582464D02*
X116122781Y-21582464D01*
X104592543Y-36822464D02*
X104209686Y-36822464D01*
X104401114Y-36822464D02*
X104401114Y-36072464D01*
X104401114Y-36072464D02*
X104337305Y-36179607D01*
X104337305Y-36179607D02*
X104273495Y-36251035D01*
X104273495Y-36251035D02*
X104209686Y-36286750D01*
X105166828Y-36072464D02*
X105039209Y-36072464D01*
X105039209Y-36072464D02*
X104975400Y-36108178D01*
X104975400Y-36108178D02*
X104943495Y-36143892D01*
X104943495Y-36143892D02*
X104879685Y-36251035D01*
X104879685Y-36251035D02*
X104847781Y-36393892D01*
X104847781Y-36393892D02*
X104847781Y-36679607D01*
X104847781Y-36679607D02*
X104879685Y-36751035D01*
X104879685Y-36751035D02*
X104911590Y-36786750D01*
X104911590Y-36786750D02*
X104975400Y-36822464D01*
X104975400Y-36822464D02*
X105103019Y-36822464D01*
X105103019Y-36822464D02*
X105166828Y-36786750D01*
X105166828Y-36786750D02*
X105198733Y-36751035D01*
X105198733Y-36751035D02*
X105230638Y-36679607D01*
X105230638Y-36679607D02*
X105230638Y-36501035D01*
X105230638Y-36501035D02*
X105198733Y-36429607D01*
X105198733Y-36429607D02*
X105166828Y-36393892D01*
X105166828Y-36393892D02*
X105103019Y-36358178D01*
X105103019Y-36358178D02*
X104975400Y-36358178D01*
X104975400Y-36358178D02*
X104911590Y-36393892D01*
X104911590Y-36393892D02*
X104879685Y-36429607D01*
X104879685Y-36429607D02*
X104847781Y-36501035D01*
X105996352Y-36036750D02*
X105422066Y-37001035D01*
X106443019Y-36429607D02*
X106538733Y-36465321D01*
X106538733Y-36465321D02*
X106570638Y-36501035D01*
X106570638Y-36501035D02*
X106602542Y-36572464D01*
X106602542Y-36572464D02*
X106602542Y-36679607D01*
X106602542Y-36679607D02*
X106570638Y-36751035D01*
X106570638Y-36751035D02*
X106538733Y-36786750D01*
X106538733Y-36786750D02*
X106474923Y-36822464D01*
X106474923Y-36822464D02*
X106219685Y-36822464D01*
X106219685Y-36822464D02*
X106219685Y-36072464D01*
X106219685Y-36072464D02*
X106443019Y-36072464D01*
X106443019Y-36072464D02*
X106506828Y-36108178D01*
X106506828Y-36108178D02*
X106538733Y-36143892D01*
X106538733Y-36143892D02*
X106570638Y-36215321D01*
X106570638Y-36215321D02*
X106570638Y-36286750D01*
X106570638Y-36286750D02*
X106538733Y-36358178D01*
X106538733Y-36358178D02*
X106506828Y-36393892D01*
X106506828Y-36393892D02*
X106443019Y-36429607D01*
X106443019Y-36429607D02*
X106219685Y-36429607D01*
X106857781Y-36143892D02*
X106889685Y-36108178D01*
X106889685Y-36108178D02*
X106953495Y-36072464D01*
X106953495Y-36072464D02*
X107113019Y-36072464D01*
X107113019Y-36072464D02*
X107176828Y-36108178D01*
X107176828Y-36108178D02*
X107208733Y-36143892D01*
X107208733Y-36143892D02*
X107240638Y-36215321D01*
X107240638Y-36215321D02*
X107240638Y-36286750D01*
X107240638Y-36286750D02*
X107208733Y-36393892D01*
X107208733Y-36393892D02*
X106825876Y-36822464D01*
X106825876Y-36822464D02*
X107240638Y-36822464D01*
X104592543Y-39362464D02*
X104209686Y-39362464D01*
X104401114Y-39362464D02*
X104401114Y-38612464D01*
X104401114Y-38612464D02*
X104337305Y-38719607D01*
X104337305Y-38719607D02*
X104273495Y-38791035D01*
X104273495Y-38791035D02*
X104209686Y-38826750D01*
X105007304Y-38612464D02*
X105071114Y-38612464D01*
X105071114Y-38612464D02*
X105134923Y-38648178D01*
X105134923Y-38648178D02*
X105166828Y-38683892D01*
X105166828Y-38683892D02*
X105198733Y-38755321D01*
X105198733Y-38755321D02*
X105230638Y-38898178D01*
X105230638Y-38898178D02*
X105230638Y-39076750D01*
X105230638Y-39076750D02*
X105198733Y-39219607D01*
X105198733Y-39219607D02*
X105166828Y-39291035D01*
X105166828Y-39291035D02*
X105134923Y-39326750D01*
X105134923Y-39326750D02*
X105071114Y-39362464D01*
X105071114Y-39362464D02*
X105007304Y-39362464D01*
X105007304Y-39362464D02*
X104943495Y-39326750D01*
X104943495Y-39326750D02*
X104911590Y-39291035D01*
X104911590Y-39291035D02*
X104879685Y-39219607D01*
X104879685Y-39219607D02*
X104847781Y-39076750D01*
X104847781Y-39076750D02*
X104847781Y-38898178D01*
X104847781Y-38898178D02*
X104879685Y-38755321D01*
X104879685Y-38755321D02*
X104911590Y-38683892D01*
X104911590Y-38683892D02*
X104943495Y-38648178D01*
X104943495Y-38648178D02*
X105007304Y-38612464D01*
X105996352Y-38576750D02*
X105422066Y-39541035D01*
X106443019Y-38969607D02*
X106538733Y-39005321D01*
X106538733Y-39005321D02*
X106570638Y-39041035D01*
X106570638Y-39041035D02*
X106602542Y-39112464D01*
X106602542Y-39112464D02*
X106602542Y-39219607D01*
X106602542Y-39219607D02*
X106570638Y-39291035D01*
X106570638Y-39291035D02*
X106538733Y-39326750D01*
X106538733Y-39326750D02*
X106474923Y-39362464D01*
X106474923Y-39362464D02*
X106219685Y-39362464D01*
X106219685Y-39362464D02*
X106219685Y-38612464D01*
X106219685Y-38612464D02*
X106443019Y-38612464D01*
X106443019Y-38612464D02*
X106506828Y-38648178D01*
X106506828Y-38648178D02*
X106538733Y-38683892D01*
X106538733Y-38683892D02*
X106570638Y-38755321D01*
X106570638Y-38755321D02*
X106570638Y-38826750D01*
X106570638Y-38826750D02*
X106538733Y-38898178D01*
X106538733Y-38898178D02*
X106506828Y-38933892D01*
X106506828Y-38933892D02*
X106443019Y-38969607D01*
X106443019Y-38969607D02*
X106219685Y-38969607D01*
X107176828Y-38612464D02*
X107049209Y-38612464D01*
X107049209Y-38612464D02*
X106985400Y-38648178D01*
X106985400Y-38648178D02*
X106953495Y-38683892D01*
X106953495Y-38683892D02*
X106889685Y-38791035D01*
X106889685Y-38791035D02*
X106857781Y-38933892D01*
X106857781Y-38933892D02*
X106857781Y-39219607D01*
X106857781Y-39219607D02*
X106889685Y-39291035D01*
X106889685Y-39291035D02*
X106921590Y-39326750D01*
X106921590Y-39326750D02*
X106985400Y-39362464D01*
X106985400Y-39362464D02*
X107113019Y-39362464D01*
X107113019Y-39362464D02*
X107176828Y-39326750D01*
X107176828Y-39326750D02*
X107208733Y-39291035D01*
X107208733Y-39291035D02*
X107240638Y-39219607D01*
X107240638Y-39219607D02*
X107240638Y-39041035D01*
X107240638Y-39041035D02*
X107208733Y-38969607D01*
X107208733Y-38969607D02*
X107176828Y-38933892D01*
X107176828Y-38933892D02*
X107113019Y-38898178D01*
X107113019Y-38898178D02*
X106985400Y-38898178D01*
X106985400Y-38898178D02*
X106921590Y-38933892D01*
X106921590Y-38933892D02*
X106889685Y-38969607D01*
X106889685Y-38969607D02*
X106857781Y-39041035D01*
X112453733Y-13962464D02*
X112453733Y-13212464D01*
X112453733Y-13212464D02*
X112613257Y-13212464D01*
X112613257Y-13212464D02*
X112708971Y-13248178D01*
X112708971Y-13248178D02*
X112772781Y-13319607D01*
X112772781Y-13319607D02*
X112804686Y-13391035D01*
X112804686Y-13391035D02*
X112836590Y-13533892D01*
X112836590Y-13533892D02*
X112836590Y-13641035D01*
X112836590Y-13641035D02*
X112804686Y-13783892D01*
X112804686Y-13783892D02*
X112772781Y-13855321D01*
X112772781Y-13855321D02*
X112708971Y-13926750D01*
X112708971Y-13926750D02*
X112613257Y-13962464D01*
X112613257Y-13962464D02*
X112453733Y-13962464D01*
X113091829Y-13283892D02*
X113123733Y-13248178D01*
X113123733Y-13248178D02*
X113187543Y-13212464D01*
X113187543Y-13212464D02*
X113347067Y-13212464D01*
X113347067Y-13212464D02*
X113410876Y-13248178D01*
X113410876Y-13248178D02*
X113442781Y-13283892D01*
X113442781Y-13283892D02*
X113474686Y-13355321D01*
X113474686Y-13355321D02*
X113474686Y-13426750D01*
X113474686Y-13426750D02*
X113442781Y-13533892D01*
X113442781Y-13533892D02*
X113059924Y-13962464D01*
X113059924Y-13962464D02*
X113474686Y-13962464D01*
X114240400Y-13176750D02*
X113666114Y-14141035D01*
X114846590Y-13962464D02*
X114623257Y-13605321D01*
X114463733Y-13962464D02*
X114463733Y-13212464D01*
X114463733Y-13212464D02*
X114718971Y-13212464D01*
X114718971Y-13212464D02*
X114782781Y-13248178D01*
X114782781Y-13248178D02*
X114814686Y-13283892D01*
X114814686Y-13283892D02*
X114846590Y-13355321D01*
X114846590Y-13355321D02*
X114846590Y-13462464D01*
X114846590Y-13462464D02*
X114814686Y-13533892D01*
X114814686Y-13533892D02*
X114782781Y-13569607D01*
X114782781Y-13569607D02*
X114718971Y-13605321D01*
X114718971Y-13605321D02*
X114463733Y-13605321D01*
X115069924Y-13212464D02*
X115516590Y-13962464D01*
X115516590Y-13212464D02*
X115069924Y-13962464D01*
X116122781Y-13962464D02*
X115739924Y-13962464D01*
X115931352Y-13962464D02*
X115931352Y-13212464D01*
X115931352Y-13212464D02*
X115867543Y-13319607D01*
X115867543Y-13319607D02*
X115803733Y-13391035D01*
X115803733Y-13391035D02*
X115739924Y-13426750D01*
X114144685Y-29131035D02*
X114112781Y-29166750D01*
X114112781Y-29166750D02*
X114017066Y-29202464D01*
X114017066Y-29202464D02*
X113953257Y-29202464D01*
X113953257Y-29202464D02*
X113857543Y-29166750D01*
X113857543Y-29166750D02*
X113793733Y-29095321D01*
X113793733Y-29095321D02*
X113761828Y-29023892D01*
X113761828Y-29023892D02*
X113729924Y-28881035D01*
X113729924Y-28881035D02*
X113729924Y-28773892D01*
X113729924Y-28773892D02*
X113761828Y-28631035D01*
X113761828Y-28631035D02*
X113793733Y-28559607D01*
X113793733Y-28559607D02*
X113857543Y-28488178D01*
X113857543Y-28488178D02*
X113953257Y-28452464D01*
X113953257Y-28452464D02*
X114017066Y-28452464D01*
X114017066Y-28452464D02*
X114112781Y-28488178D01*
X114112781Y-28488178D02*
X114144685Y-28523892D01*
X114718971Y-28452464D02*
X114591352Y-28452464D01*
X114591352Y-28452464D02*
X114527543Y-28488178D01*
X114527543Y-28488178D02*
X114495638Y-28523892D01*
X114495638Y-28523892D02*
X114431828Y-28631035D01*
X114431828Y-28631035D02*
X114399924Y-28773892D01*
X114399924Y-28773892D02*
X114399924Y-29059607D01*
X114399924Y-29059607D02*
X114431828Y-29131035D01*
X114431828Y-29131035D02*
X114463733Y-29166750D01*
X114463733Y-29166750D02*
X114527543Y-29202464D01*
X114527543Y-29202464D02*
X114655162Y-29202464D01*
X114655162Y-29202464D02*
X114718971Y-29166750D01*
X114718971Y-29166750D02*
X114750876Y-29131035D01*
X114750876Y-29131035D02*
X114782781Y-29059607D01*
X114782781Y-29059607D02*
X114782781Y-28881035D01*
X114782781Y-28881035D02*
X114750876Y-28809607D01*
X114750876Y-28809607D02*
X114718971Y-28773892D01*
X114718971Y-28773892D02*
X114655162Y-28738178D01*
X114655162Y-28738178D02*
X114527543Y-28738178D01*
X114527543Y-28738178D02*
X114463733Y-28773892D01*
X114463733Y-28773892D02*
X114431828Y-28809607D01*
X114431828Y-28809607D02*
X114399924Y-28881035D01*
X115548495Y-28416750D02*
X114974209Y-29381035D01*
X116090876Y-28452464D02*
X115771828Y-28452464D01*
X115771828Y-28452464D02*
X115739924Y-28809607D01*
X115739924Y-28809607D02*
X115771828Y-28773892D01*
X115771828Y-28773892D02*
X115835638Y-28738178D01*
X115835638Y-28738178D02*
X115995162Y-28738178D01*
X115995162Y-28738178D02*
X116058971Y-28773892D01*
X116058971Y-28773892D02*
X116090876Y-28809607D01*
X116090876Y-28809607D02*
X116122781Y-28881035D01*
X116122781Y-28881035D02*
X116122781Y-29059607D01*
X116122781Y-29059607D02*
X116090876Y-29131035D01*
X116090876Y-29131035D02*
X116058971Y-29166750D01*
X116058971Y-29166750D02*
X115995162Y-29202464D01*
X115995162Y-29202464D02*
X115835638Y-29202464D01*
X115835638Y-29202464D02*
X115771828Y-29166750D01*
X115771828Y-29166750D02*
X115739924Y-29131035D01*
X104624447Y-16502464D02*
X104401114Y-16145321D01*
X104241590Y-16502464D02*
X104241590Y-15752464D01*
X104241590Y-15752464D02*
X104496828Y-15752464D01*
X104496828Y-15752464D02*
X104560638Y-15788178D01*
X104560638Y-15788178D02*
X104592543Y-15823892D01*
X104592543Y-15823892D02*
X104624447Y-15895321D01*
X104624447Y-15895321D02*
X104624447Y-16002464D01*
X104624447Y-16002464D02*
X104592543Y-16073892D01*
X104592543Y-16073892D02*
X104560638Y-16109607D01*
X104560638Y-16109607D02*
X104496828Y-16145321D01*
X104496828Y-16145321D02*
X104241590Y-16145321D01*
X104879686Y-16466750D02*
X104975400Y-16502464D01*
X104975400Y-16502464D02*
X105134924Y-16502464D01*
X105134924Y-16502464D02*
X105198733Y-16466750D01*
X105198733Y-16466750D02*
X105230638Y-16431035D01*
X105230638Y-16431035D02*
X105262543Y-16359607D01*
X105262543Y-16359607D02*
X105262543Y-16288178D01*
X105262543Y-16288178D02*
X105230638Y-16216750D01*
X105230638Y-16216750D02*
X105198733Y-16181035D01*
X105198733Y-16181035D02*
X105134924Y-16145321D01*
X105134924Y-16145321D02*
X105007305Y-16109607D01*
X105007305Y-16109607D02*
X104943495Y-16073892D01*
X104943495Y-16073892D02*
X104911590Y-16038178D01*
X104911590Y-16038178D02*
X104879686Y-15966750D01*
X104879686Y-15966750D02*
X104879686Y-15895321D01*
X104879686Y-15895321D02*
X104911590Y-15823892D01*
X104911590Y-15823892D02*
X104943495Y-15788178D01*
X104943495Y-15788178D02*
X105007305Y-15752464D01*
X105007305Y-15752464D02*
X105166828Y-15752464D01*
X105166828Y-15752464D02*
X105262543Y-15788178D01*
X105453971Y-15752464D02*
X105836828Y-15752464D01*
X105645400Y-16502464D02*
X105645400Y-15752464D01*
D11*
X137603819Y-48343904D02*
X137603819Y-47772476D01*
X138603819Y-48058190D02*
X137603819Y-48058190D01*
X138603819Y-46867714D02*
X138127628Y-47201047D01*
X138603819Y-47439142D02*
X137603819Y-47439142D01*
X137603819Y-47439142D02*
X137603819Y-47058190D01*
X137603819Y-47058190D02*
X137651438Y-46962952D01*
X137651438Y-46962952D02*
X137699057Y-46915333D01*
X137699057Y-46915333D02*
X137794295Y-46867714D01*
X137794295Y-46867714D02*
X137937152Y-46867714D01*
X137937152Y-46867714D02*
X138032390Y-46915333D01*
X138032390Y-46915333D02*
X138080009Y-46962952D01*
X138080009Y-46962952D02*
X138127628Y-47058190D01*
X138127628Y-47058190D02*
X138127628Y-47439142D01*
X138603819Y-45867714D02*
X138127628Y-46201047D01*
X138603819Y-46439142D02*
X137603819Y-46439142D01*
X137603819Y-46439142D02*
X137603819Y-46058190D01*
X137603819Y-46058190D02*
X137651438Y-45962952D01*
X137651438Y-45962952D02*
X137699057Y-45915333D01*
X137699057Y-45915333D02*
X137794295Y-45867714D01*
X137794295Y-45867714D02*
X137937152Y-45867714D01*
X137937152Y-45867714D02*
X138032390Y-45915333D01*
X138032390Y-45915333D02*
X138080009Y-45962952D01*
X138080009Y-45962952D02*
X138127628Y-46058190D01*
X138127628Y-46058190D02*
X138127628Y-46439142D01*
X138556200Y-45486761D02*
X138603819Y-45343904D01*
X138603819Y-45343904D02*
X138603819Y-45105809D01*
X138603819Y-45105809D02*
X138556200Y-45010571D01*
X138556200Y-45010571D02*
X138508580Y-44962952D01*
X138508580Y-44962952D02*
X138413342Y-44915333D01*
X138413342Y-44915333D02*
X138318104Y-44915333D01*
X138318104Y-44915333D02*
X138222866Y-44962952D01*
X138222866Y-44962952D02*
X138175247Y-45010571D01*
X138175247Y-45010571D02*
X138127628Y-45105809D01*
X138127628Y-45105809D02*
X138080009Y-45296285D01*
X138080009Y-45296285D02*
X138032390Y-45391523D01*
X138032390Y-45391523D02*
X137984771Y-45439142D01*
X137984771Y-45439142D02*
X137889533Y-45486761D01*
X137889533Y-45486761D02*
X137794295Y-45486761D01*
X137794295Y-45486761D02*
X137699057Y-45439142D01*
X137699057Y-45439142D02*
X137651438Y-45391523D01*
X137651438Y-45391523D02*
X137603819Y-45296285D01*
X137603819Y-45296285D02*
X137603819Y-45058190D01*
X137603819Y-45058190D02*
X137651438Y-44915333D01*
X150328571Y-44435319D02*
X150328571Y-43768652D01*
X150328571Y-43959128D02*
X150376190Y-43863890D01*
X150376190Y-43863890D02*
X150423809Y-43816271D01*
X150423809Y-43816271D02*
X150519047Y-43768652D01*
X150519047Y-43768652D02*
X150614285Y-43768652D01*
X150900000Y-44387700D02*
X151042857Y-44435319D01*
X151042857Y-44435319D02*
X151280952Y-44435319D01*
X151280952Y-44435319D02*
X151376190Y-44387700D01*
X151376190Y-44387700D02*
X151423809Y-44340080D01*
X151423809Y-44340080D02*
X151471428Y-44244842D01*
X151471428Y-44244842D02*
X151471428Y-44149604D01*
X151471428Y-44149604D02*
X151423809Y-44054366D01*
X151423809Y-44054366D02*
X151376190Y-44006747D01*
X151376190Y-44006747D02*
X151280952Y-43959128D01*
X151280952Y-43959128D02*
X151090476Y-43911509D01*
X151090476Y-43911509D02*
X150995238Y-43863890D01*
X150995238Y-43863890D02*
X150947619Y-43816271D01*
X150947619Y-43816271D02*
X150900000Y-43721033D01*
X150900000Y-43721033D02*
X150900000Y-43625795D01*
X150900000Y-43625795D02*
X150947619Y-43530557D01*
X150947619Y-43530557D02*
X150995238Y-43482938D01*
X150995238Y-43482938D02*
X151090476Y-43435319D01*
X151090476Y-43435319D02*
X151328571Y-43435319D01*
X151328571Y-43435319D02*
X151471428Y-43482938D01*
X151804762Y-43435319D02*
X152042857Y-44435319D01*
X152042857Y-44435319D02*
X152233333Y-43721033D01*
X152233333Y-43721033D02*
X152423809Y-44435319D01*
X152423809Y-44435319D02*
X152661905Y-43435319D01*
X152995238Y-43530557D02*
X153042857Y-43482938D01*
X153042857Y-43482938D02*
X153138095Y-43435319D01*
X153138095Y-43435319D02*
X153376190Y-43435319D01*
X153376190Y-43435319D02*
X153471428Y-43482938D01*
X153471428Y-43482938D02*
X153519047Y-43530557D01*
X153519047Y-43530557D02*
X153566666Y-43625795D01*
X153566666Y-43625795D02*
X153566666Y-43721033D01*
X153566666Y-43721033D02*
X153519047Y-43863890D01*
X153519047Y-43863890D02*
X152947619Y-44435319D01*
X152947619Y-44435319D02*
X153566666Y-44435319D01*
X153900000Y-43435319D02*
X154519047Y-43435319D01*
X154519047Y-43435319D02*
X154185714Y-43816271D01*
X154185714Y-43816271D02*
X154328571Y-43816271D01*
X154328571Y-43816271D02*
X154423809Y-43863890D01*
X154423809Y-43863890D02*
X154471428Y-43911509D01*
X154471428Y-43911509D02*
X154519047Y-44006747D01*
X154519047Y-44006747D02*
X154519047Y-44244842D01*
X154519047Y-44244842D02*
X154471428Y-44340080D01*
X154471428Y-44340080D02*
X154423809Y-44387700D01*
X154423809Y-44387700D02*
X154328571Y-44435319D01*
X154328571Y-44435319D02*
X154042857Y-44435319D01*
X154042857Y-44435319D02*
X153947619Y-44387700D01*
X153947619Y-44387700D02*
X153900000Y-44340080D01*
X102457476Y-44890200D02*
X102600333Y-44937819D01*
X102600333Y-44937819D02*
X102838428Y-44937819D01*
X102838428Y-44937819D02*
X102933666Y-44890200D01*
X102933666Y-44890200D02*
X102981285Y-44842580D01*
X102981285Y-44842580D02*
X103028904Y-44747342D01*
X103028904Y-44747342D02*
X103028904Y-44652104D01*
X103028904Y-44652104D02*
X102981285Y-44556866D01*
X102981285Y-44556866D02*
X102933666Y-44509247D01*
X102933666Y-44509247D02*
X102838428Y-44461628D01*
X102838428Y-44461628D02*
X102647952Y-44414009D01*
X102647952Y-44414009D02*
X102552714Y-44366390D01*
X102552714Y-44366390D02*
X102505095Y-44318771D01*
X102505095Y-44318771D02*
X102457476Y-44223533D01*
X102457476Y-44223533D02*
X102457476Y-44128295D01*
X102457476Y-44128295D02*
X102505095Y-44033057D01*
X102505095Y-44033057D02*
X102552714Y-43985438D01*
X102552714Y-43985438D02*
X102647952Y-43937819D01*
X102647952Y-43937819D02*
X102886047Y-43937819D01*
X102886047Y-43937819D02*
X103028904Y-43985438D01*
X103362238Y-43937819D02*
X103600333Y-44937819D01*
X103600333Y-44937819D02*
X103790809Y-44223533D01*
X103790809Y-44223533D02*
X103981285Y-44937819D01*
X103981285Y-44937819D02*
X104219381Y-43937819D01*
X104552714Y-44033057D02*
X104600333Y-43985438D01*
X104600333Y-43985438D02*
X104695571Y-43937819D01*
X104695571Y-43937819D02*
X104933666Y-43937819D01*
X104933666Y-43937819D02*
X105028904Y-43985438D01*
X105028904Y-43985438D02*
X105076523Y-44033057D01*
X105076523Y-44033057D02*
X105124142Y-44128295D01*
X105124142Y-44128295D02*
X105124142Y-44223533D01*
X105124142Y-44223533D02*
X105076523Y-44366390D01*
X105076523Y-44366390D02*
X104505095Y-44937819D01*
X104505095Y-44937819D02*
X105124142Y-44937819D01*
X105457476Y-43937819D02*
X106076523Y-43937819D01*
X106076523Y-43937819D02*
X105743190Y-44318771D01*
X105743190Y-44318771D02*
X105886047Y-44318771D01*
X105886047Y-44318771D02*
X105981285Y-44366390D01*
X105981285Y-44366390D02*
X106028904Y-44414009D01*
X106028904Y-44414009D02*
X106076523Y-44509247D01*
X106076523Y-44509247D02*
X106076523Y-44747342D01*
X106076523Y-44747342D02*
X106028904Y-44842580D01*
X106028904Y-44842580D02*
X105981285Y-44890200D01*
X105981285Y-44890200D02*
X105886047Y-44937819D01*
X105886047Y-44937819D02*
X105600333Y-44937819D01*
X105600333Y-44937819D02*
X105505095Y-44890200D01*
X105505095Y-44890200D02*
X105457476Y-44842580D01*
X119655819Y-26735380D02*
X119655819Y-26544904D01*
X119655819Y-26544904D02*
X119703438Y-26449666D01*
X119703438Y-26449666D02*
X119798676Y-26354428D01*
X119798676Y-26354428D02*
X119989152Y-26306809D01*
X119989152Y-26306809D02*
X120322485Y-26306809D01*
X120322485Y-26306809D02*
X120512961Y-26354428D01*
X120512961Y-26354428D02*
X120608200Y-26449666D01*
X120608200Y-26449666D02*
X120655819Y-26544904D01*
X120655819Y-26544904D02*
X120655819Y-26735380D01*
X120655819Y-26735380D02*
X120608200Y-26830618D01*
X120608200Y-26830618D02*
X120512961Y-26925856D01*
X120512961Y-26925856D02*
X120322485Y-26973475D01*
X120322485Y-26973475D02*
X119989152Y-26973475D01*
X119989152Y-26973475D02*
X119798676Y-26925856D01*
X119798676Y-26925856D02*
X119703438Y-26830618D01*
X119703438Y-26830618D02*
X119655819Y-26735380D01*
X120655819Y-25402047D02*
X120655819Y-25878237D01*
X120655819Y-25878237D02*
X119655819Y-25878237D01*
X120132009Y-25068713D02*
X120132009Y-24735380D01*
X120655819Y-24592523D02*
X120655819Y-25068713D01*
X120655819Y-25068713D02*
X119655819Y-25068713D01*
X119655819Y-25068713D02*
X119655819Y-24592523D01*
X120655819Y-24163951D02*
X119655819Y-24163951D01*
X119655819Y-24163951D02*
X119655819Y-23925856D01*
X119655819Y-23925856D02*
X119703438Y-23782999D01*
X119703438Y-23782999D02*
X119798676Y-23687761D01*
X119798676Y-23687761D02*
X119893914Y-23640142D01*
X119893914Y-23640142D02*
X120084390Y-23592523D01*
X120084390Y-23592523D02*
X120227247Y-23592523D01*
X120227247Y-23592523D02*
X120417723Y-23640142D01*
X120417723Y-23640142D02*
X120512961Y-23687761D01*
X120512961Y-23687761D02*
X120608200Y-23782999D01*
X120608200Y-23782999D02*
X120655819Y-23925856D01*
X120655819Y-23925856D02*
X120655819Y-24163951D01*
%TO.C,D9*%
X58916000Y-30930588D02*
X57416000Y-30930588D01*
X57416000Y-30930588D02*
X57416000Y-36330588D01*
X58666000Y-33130588D02*
X57666000Y-33130588D01*
X58166000Y-33230588D02*
X58666000Y-34130588D01*
X58666000Y-34130588D02*
X57666000Y-34130588D01*
X57666000Y-34130588D02*
X58166000Y-33230588D01*
X58916000Y-36330588D02*
X58916000Y-30930588D01*
X57416000Y-36330588D02*
X58916000Y-36330588D01*
%TO.C,D1*%
X1866000Y-16960588D02*
X366000Y-16960588D01*
X366000Y-16960588D02*
X366000Y-22360588D01*
X1616000Y-19160588D02*
X616000Y-19160588D01*
X1116000Y-19260588D02*
X1616000Y-20160588D01*
X1616000Y-20160588D02*
X616000Y-20160588D01*
X616000Y-20160588D02*
X1116000Y-19260588D01*
X1866000Y-22360588D02*
X1866000Y-16960588D01*
X366000Y-22360588D02*
X1866000Y-22360588D01*
%TO.C,rD8*%
X219371000Y-28580500D02*
X217871000Y-28580500D01*
X217871000Y-28580500D02*
X217871000Y-33980500D01*
X219121000Y-30780500D02*
X218121000Y-30780500D01*
X218621000Y-30880500D02*
X219121000Y-31780500D01*
X219121000Y-31780500D02*
X218121000Y-31780500D01*
X218121000Y-31780500D02*
X218621000Y-30880500D01*
X219371000Y-33980500D02*
X219371000Y-28580500D01*
X217871000Y-33980500D02*
X219371000Y-33980500D01*
%TO.C,rD11*%
X257471000Y-54615500D02*
X255971000Y-54615500D01*
X255971000Y-54615500D02*
X255971000Y-60015500D01*
X257221000Y-56815500D02*
X256221000Y-56815500D01*
X256721000Y-56915500D02*
X257221000Y-57815500D01*
X257221000Y-57815500D02*
X256221000Y-57815500D01*
X256221000Y-57815500D02*
X256721000Y-56915500D01*
X257471000Y-60015500D02*
X257471000Y-54615500D01*
X255971000Y-60015500D02*
X257471000Y-60015500D01*
%TO.C,rD19*%
X219371000Y-66553500D02*
X217871000Y-66553500D01*
X217871000Y-66553500D02*
X217871000Y-71953500D01*
X219121000Y-68753500D02*
X218121000Y-68753500D01*
X218621000Y-68853500D02*
X219121000Y-69753500D01*
X219121000Y-69753500D02*
X218121000Y-69753500D01*
X218121000Y-69753500D02*
X218621000Y-68853500D01*
X219371000Y-71953500D02*
X219371000Y-66553500D01*
X217871000Y-71953500D02*
X219371000Y-71953500D01*
%TO.C,rD1*%
X257471000Y-17023500D02*
X255971000Y-17023500D01*
X255971000Y-17023500D02*
X255971000Y-22423500D01*
X257221000Y-19223500D02*
X256221000Y-19223500D01*
X256721000Y-19323500D02*
X257221000Y-20223500D01*
X257221000Y-20223500D02*
X256221000Y-20223500D01*
X256221000Y-20223500D02*
X256721000Y-19323500D01*
X257471000Y-22423500D02*
X257471000Y-17023500D01*
X255971000Y-22423500D02*
X257471000Y-22423500D01*
%TO.C,rD2*%
X238421000Y-11943500D02*
X236921000Y-11943500D01*
X236921000Y-11943500D02*
X236921000Y-17343500D01*
X238171000Y-14143500D02*
X237171000Y-14143500D01*
X237671000Y-14243500D02*
X238171000Y-15143500D01*
X238171000Y-15143500D02*
X237171000Y-15143500D01*
X237171000Y-15143500D02*
X237671000Y-14243500D01*
X238421000Y-17343500D02*
X238421000Y-11943500D01*
X236921000Y-17343500D02*
X238421000Y-17343500D01*
%TO.C,D18*%
X20816000Y-69030588D02*
X19316000Y-69030588D01*
X19316000Y-69030588D02*
X19316000Y-74430588D01*
X20566000Y-71230588D02*
X19566000Y-71230588D01*
X20066000Y-71330588D02*
X20566000Y-72230588D01*
X20566000Y-72230588D02*
X19566000Y-72230588D01*
X19566000Y-72230588D02*
X20066000Y-71330588D01*
X20816000Y-74430588D02*
X20816000Y-69030588D01*
X19316000Y-74430588D02*
X20816000Y-74430588D01*
D12*
%TO.C,rU1*%
X138811000Y-9817500D02*
X141351000Y-9817500D01*
X138811000Y-40297500D02*
X138811000Y-9817500D01*
X141351000Y-9817500D02*
X141351000Y-40297500D01*
X141351000Y-40297500D02*
X138811000Y-40297500D01*
X154051000Y-9817500D02*
X154051000Y-40297500D01*
X154051000Y-40297500D02*
X156591000Y-40297500D01*
X156591000Y-9817500D02*
X154051000Y-9817500D01*
X156591000Y-40297500D02*
X156591000Y-9817500D01*
D11*
%TO.C,rD21*%
X173180633Y-75976386D02*
X171731744Y-76364615D01*
X171731744Y-76364615D02*
X173129367Y-81580614D01*
X173508553Y-78166128D02*
X172542628Y-78424947D01*
X173051472Y-78392130D02*
X173767372Y-79132053D01*
X173767372Y-79132053D02*
X172801447Y-79390872D01*
X172801447Y-79390872D02*
X173051472Y-78392130D01*
X174578256Y-81192385D02*
X173180633Y-75976386D01*
X173129367Y-81580614D02*
X174578256Y-81192385D01*
%TO.C,D6*%
X1866000Y-35756588D02*
X366000Y-35756588D01*
X366000Y-35756588D02*
X366000Y-41156588D01*
X1616000Y-37956588D02*
X616000Y-37956588D01*
X1116000Y-38056588D02*
X1616000Y-38956588D01*
X1616000Y-38956588D02*
X616000Y-38956588D01*
X616000Y-38956588D02*
X1116000Y-38056588D01*
X1866000Y-41156588D02*
X1866000Y-35756588D01*
X366000Y-41156588D02*
X1866000Y-41156588D01*
%TO.C,D13*%
X39866000Y-47440588D02*
X38366000Y-47440588D01*
X38366000Y-47440588D02*
X38366000Y-52840588D01*
X39616000Y-49640588D02*
X38616000Y-49640588D01*
X39116000Y-49740588D02*
X39616000Y-50640588D01*
X39616000Y-50640588D02*
X38616000Y-50640588D01*
X38616000Y-50640588D02*
X39116000Y-49740588D01*
X39866000Y-52840588D02*
X39866000Y-47440588D01*
X38366000Y-52840588D02*
X39866000Y-52840588D01*
%TO.C,D19*%
X39866000Y-66617588D02*
X38366000Y-66617588D01*
X38366000Y-66617588D02*
X38366000Y-72017588D01*
X39616000Y-68817588D02*
X38616000Y-68817588D01*
X39116000Y-68917588D02*
X39616000Y-69817588D01*
X39616000Y-69817588D02*
X38616000Y-69817588D01*
X38616000Y-69817588D02*
X39116000Y-68917588D01*
X39866000Y-72017588D02*
X39866000Y-66617588D01*
X38366000Y-72017588D02*
X39866000Y-72017588D01*
%TO.C,D8*%
X39866000Y-28517588D02*
X38366000Y-28517588D01*
X38366000Y-28517588D02*
X38366000Y-33917588D01*
X39616000Y-30717588D02*
X38616000Y-30717588D01*
X39116000Y-30817588D02*
X39616000Y-31717588D01*
X39616000Y-31717588D02*
X38616000Y-31717588D01*
X38616000Y-31717588D02*
X39116000Y-30817588D01*
X39866000Y-33917588D02*
X39866000Y-28517588D01*
X38366000Y-33917588D02*
X39866000Y-33917588D01*
%TO.C,D20*%
X63615000Y-76142588D02*
X62115000Y-76142588D01*
X62115000Y-76142588D02*
X62115000Y-81542588D01*
X63365000Y-78342588D02*
X62365000Y-78342588D01*
X62865000Y-78442588D02*
X63365000Y-79342588D01*
X63365000Y-79342588D02*
X62365000Y-79342588D01*
X62365000Y-79342588D02*
X62865000Y-78442588D01*
X63615000Y-81542588D02*
X63615000Y-76142588D01*
X62115000Y-81542588D02*
X63615000Y-81542588D01*
%TO.C,rOL1*%
X134239000Y-30358500D02*
X134239000Y-20198500D01*
X136779000Y-30358500D02*
X134239000Y-30358500D01*
X136779000Y-30358500D02*
X136779000Y-20198500D01*
X134239000Y-20198500D02*
X136779000Y-20198500D01*
%TO.C,rD7*%
X238421000Y-30993500D02*
X236921000Y-30993500D01*
X236921000Y-30993500D02*
X236921000Y-36393500D01*
X238171000Y-33193500D02*
X237171000Y-33193500D01*
X237671000Y-33293500D02*
X238171000Y-34193500D01*
X238171000Y-34193500D02*
X237171000Y-34193500D01*
X237171000Y-34193500D02*
X237671000Y-33293500D01*
X238421000Y-36393500D02*
X238421000Y-30993500D01*
X236921000Y-36393500D02*
X238421000Y-36393500D01*
%TO.C,rD17*%
X257471000Y-73665500D02*
X255971000Y-73665500D01*
X255971000Y-73665500D02*
X255971000Y-79065500D01*
X257221000Y-75865500D02*
X256221000Y-75865500D01*
X256721000Y-75965500D02*
X257221000Y-76865500D01*
X257221000Y-76865500D02*
X256221000Y-76865500D01*
X256221000Y-76865500D02*
X256721000Y-75965500D01*
X257471000Y-79065500D02*
X257471000Y-73665500D01*
X255971000Y-79065500D02*
X257471000Y-79065500D01*
%TO.C,J1*%
X126111000Y-42753000D02*
X126111000Y-48753000D01*
X114111000Y-42753000D02*
X126111000Y-42753000D01*
X126111000Y-48753000D02*
X114111000Y-48753000D01*
X114111000Y-48753000D02*
X114111000Y-42753000D01*
%TO.C,rD3*%
X219498000Y-9403500D02*
X217998000Y-9403500D01*
X217998000Y-9403500D02*
X217998000Y-14803500D01*
X219248000Y-11603500D02*
X218248000Y-11603500D01*
X218748000Y-11703500D02*
X219248000Y-12603500D01*
X219248000Y-12603500D02*
X218248000Y-12603500D01*
X218248000Y-12603500D02*
X218748000Y-11703500D01*
X219498000Y-14803500D02*
X219498000Y-9403500D01*
X217998000Y-14803500D02*
X219498000Y-14803500D01*
%TO.C,rD15*%
X181271000Y-52456500D02*
X179771000Y-52456500D01*
X179771000Y-52456500D02*
X179771000Y-57856500D01*
X181021000Y-54656500D02*
X180021000Y-54656500D01*
X180521000Y-54756500D02*
X181021000Y-55656500D01*
X181021000Y-55656500D02*
X180021000Y-55656500D01*
X180021000Y-55656500D02*
X180521000Y-54756500D01*
X181271000Y-57856500D02*
X181271000Y-52456500D01*
X179771000Y-57856500D02*
X181271000Y-57856500D01*
%TO.C,D21*%
X86132256Y-76428703D02*
X84683367Y-76040474D01*
X84683367Y-76040474D02*
X83285744Y-81256473D01*
X85321372Y-78489035D02*
X84355447Y-78230216D01*
X84812528Y-78456218D02*
X85062553Y-79454960D01*
X85062553Y-79454960D02*
X84096628Y-79196141D01*
X84096628Y-79196141D02*
X84812528Y-78456218D01*
X84734633Y-81644702D02*
X86132256Y-76428703D01*
X83285744Y-81256473D02*
X84734633Y-81644702D01*
D12*
%TO.C,U1*%
X101219000Y-9812000D02*
X103759000Y-9812000D01*
X101219000Y-40292000D02*
X101219000Y-9812000D01*
X103759000Y-9812000D02*
X103759000Y-40292000D01*
X103759000Y-40292000D02*
X101219000Y-40292000D01*
X116459000Y-9812000D02*
X116459000Y-40292000D01*
X116459000Y-40292000D02*
X118999000Y-40292000D01*
X118999000Y-9812000D02*
X116459000Y-9812000D01*
X118999000Y-40292000D02*
X118999000Y-9812000D01*
D11*
%TO.C,D15*%
X77966000Y-52393588D02*
X76466000Y-52393588D01*
X76466000Y-52393588D02*
X76466000Y-57793588D01*
X77716000Y-54593588D02*
X76716000Y-54593588D01*
X77216000Y-54693588D02*
X77716000Y-55593588D01*
X77716000Y-55593588D02*
X76716000Y-55593588D01*
X76716000Y-55593588D02*
X77216000Y-54693588D01*
X77966000Y-57793588D02*
X77966000Y-52393588D01*
X76466000Y-57793588D02*
X77966000Y-57793588D01*
%TO.C,D10*%
X77966000Y-33216588D02*
X76466000Y-33216588D01*
X76466000Y-33216588D02*
X76466000Y-38616588D01*
X77716000Y-35416588D02*
X76716000Y-35416588D01*
X77216000Y-35516588D02*
X77716000Y-36416588D01*
X77716000Y-36416588D02*
X76716000Y-36416588D01*
X76716000Y-36416588D02*
X77216000Y-35516588D01*
X77966000Y-38616588D02*
X77966000Y-33216588D01*
X76466000Y-38616588D02*
X77966000Y-38616588D01*
%TO.C,rD18*%
X238421000Y-70998500D02*
X236921000Y-70998500D01*
X236921000Y-70998500D02*
X236921000Y-76398500D01*
X238171000Y-73198500D02*
X237171000Y-73198500D01*
X237671000Y-73298500D02*
X238171000Y-74198500D01*
X238171000Y-74198500D02*
X237171000Y-74198500D01*
X237171000Y-74198500D02*
X237671000Y-73298500D01*
X238421000Y-76398500D02*
X238421000Y-70998500D01*
X236921000Y-76398500D02*
X238421000Y-76398500D01*
%TO.C,D16*%
X97016000Y-58997588D02*
X95516000Y-58997588D01*
X95516000Y-58997588D02*
X95516000Y-64397588D01*
X96766000Y-61197588D02*
X95766000Y-61197588D01*
X96266000Y-61297588D02*
X96766000Y-62197588D01*
X96766000Y-62197588D02*
X95766000Y-62197588D01*
X95766000Y-62197588D02*
X96266000Y-61297588D01*
X97016000Y-64397588D02*
X97016000Y-58997588D01*
X95516000Y-64397588D02*
X97016000Y-64397588D01*
%TO.C,D2*%
X20816000Y-11753588D02*
X19316000Y-11753588D01*
X19316000Y-11753588D02*
X19316000Y-17153588D01*
X20566000Y-13953588D02*
X19566000Y-13953588D01*
X20066000Y-14053588D02*
X20566000Y-14953588D01*
X20566000Y-14953588D02*
X19566000Y-14953588D01*
X19566000Y-14953588D02*
X20066000Y-14053588D01*
X20816000Y-17153588D02*
X20816000Y-11753588D01*
X19316000Y-17153588D02*
X20816000Y-17153588D01*
%TO.C,rJ1*%
X131699000Y-48832000D02*
X131699000Y-42832000D01*
X143699000Y-48832000D02*
X131699000Y-48832000D01*
X131699000Y-42832000D02*
X143699000Y-42832000D01*
X143699000Y-42832000D02*
X143699000Y-48832000D01*
%TO.C,D23*%
X106970000Y-50059000D02*
X106970000Y-48559000D01*
X106970000Y-48559000D02*
X101570000Y-48559000D01*
X104770000Y-49809000D02*
X104770000Y-48809000D01*
X104670000Y-49309000D02*
X103770000Y-49809000D01*
X103770000Y-49809000D02*
X103770000Y-48809000D01*
X103770000Y-48809000D02*
X104670000Y-49309000D01*
X101570000Y-50059000D02*
X106970000Y-50059000D01*
X101570000Y-48559000D02*
X101570000Y-50059000D01*
%TO.C,rD10*%
X181271000Y-33279500D02*
X179771000Y-33279500D01*
X179771000Y-33279500D02*
X179771000Y-38679500D01*
X181021000Y-35479500D02*
X180021000Y-35479500D01*
X180521000Y-35579500D02*
X181021000Y-36479500D01*
X181021000Y-36479500D02*
X180021000Y-36479500D01*
X180021000Y-36479500D02*
X180521000Y-35579500D01*
X181271000Y-38679500D02*
X181271000Y-33279500D01*
X179771000Y-38679500D02*
X181271000Y-38679500D01*
%TO.C,rSW23*%
X149400000Y-42230500D02*
X149400000Y-42480500D01*
X149400000Y-42230500D02*
X155400000Y-42230500D01*
X149400000Y-45730500D02*
X149400000Y-45480500D01*
X149400000Y-45730500D02*
X155400000Y-45730500D01*
X155400000Y-42230500D02*
X155400000Y-42480500D01*
X155400000Y-45730500D02*
X155400000Y-45480500D01*
%TO.C,rD22*%
X151119354Y-81908066D02*
X149820316Y-82658066D01*
X149820316Y-82658066D02*
X152520316Y-87334604D01*
X152002848Y-83938322D02*
X151136822Y-84438322D01*
X151619835Y-84274925D02*
X152502848Y-84804348D01*
X152502848Y-84804348D02*
X151636822Y-85304348D01*
X151636822Y-85304348D02*
X151619835Y-84274925D01*
X153819354Y-86584604D02*
X151119354Y-81908066D01*
X152520316Y-87334604D02*
X153819354Y-86584604D01*
%TO.C,D3*%
X39866000Y-9340588D02*
X38366000Y-9340588D01*
X38366000Y-9340588D02*
X38366000Y-14740588D01*
X39616000Y-11540588D02*
X38616000Y-11540588D01*
X39116000Y-11640588D02*
X39616000Y-12540588D01*
X39616000Y-12540588D02*
X38616000Y-12540588D01*
X38616000Y-12540588D02*
X39116000Y-11640588D01*
X39866000Y-14740588D02*
X39866000Y-9340588D01*
X38366000Y-14740588D02*
X39866000Y-14740588D01*
%TO.C,D11*%
X1866000Y-54679588D02*
X366000Y-54679588D01*
X366000Y-54679588D02*
X366000Y-60079588D01*
X1616000Y-56879588D02*
X616000Y-56879588D01*
X1116000Y-56979588D02*
X1616000Y-57879588D01*
X1616000Y-57879588D02*
X616000Y-57879588D01*
X616000Y-57879588D02*
X1116000Y-56979588D01*
X1866000Y-60079588D02*
X1866000Y-54679588D01*
X366000Y-60079588D02*
X1866000Y-60079588D01*
%TO.C,rD13*%
X219371000Y-47503500D02*
X217871000Y-47503500D01*
X217871000Y-47503500D02*
X217871000Y-52903500D01*
X219121000Y-49703500D02*
X218121000Y-49703500D01*
X218621000Y-49803500D02*
X219121000Y-50703500D01*
X219121000Y-50703500D02*
X218121000Y-50703500D01*
X218121000Y-50703500D02*
X218621000Y-49803500D01*
X219371000Y-52903500D02*
X219371000Y-47503500D01*
X217871000Y-52903500D02*
X219371000Y-52903500D01*
%TO.C,rD20*%
X195622000Y-76205500D02*
X194122000Y-76205500D01*
X194122000Y-76205500D02*
X194122000Y-81605500D01*
X195372000Y-78405500D02*
X194372000Y-78405500D01*
X194872000Y-78505500D02*
X195372000Y-79405500D01*
X195372000Y-79405500D02*
X194372000Y-79405500D01*
X194372000Y-79405500D02*
X194872000Y-78505500D01*
X195622000Y-81605500D02*
X195622000Y-76205500D01*
X194122000Y-81605500D02*
X195622000Y-81605500D01*
%TO.C,D17*%
X1866000Y-73856588D02*
X366000Y-73856588D01*
X366000Y-73856588D02*
X366000Y-79256588D01*
X1616000Y-76056588D02*
X616000Y-76056588D01*
X1116000Y-76156588D02*
X1616000Y-77056588D01*
X1616000Y-77056588D02*
X616000Y-77056588D01*
X616000Y-77056588D02*
X1116000Y-76156588D01*
X1866000Y-79256588D02*
X1866000Y-73856588D01*
X366000Y-79256588D02*
X1866000Y-79256588D01*
%TO.C,rD6*%
X257471000Y-35565500D02*
X255971000Y-35565500D01*
X255971000Y-35565500D02*
X255971000Y-40965500D01*
X257221000Y-37765500D02*
X256221000Y-37765500D01*
X256721000Y-37865500D02*
X257221000Y-38765500D01*
X257221000Y-38765500D02*
X256221000Y-38765500D01*
X256221000Y-38765500D02*
X256721000Y-37865500D01*
X257471000Y-40965500D02*
X257471000Y-35565500D01*
X255971000Y-40965500D02*
X257471000Y-40965500D01*
%TO.C,rD9*%
X200321000Y-30739500D02*
X198821000Y-30739500D01*
X198821000Y-30739500D02*
X198821000Y-36139500D01*
X200071000Y-32939500D02*
X199071000Y-32939500D01*
X199571000Y-33039500D02*
X200071000Y-33939500D01*
X200071000Y-33939500D02*
X199071000Y-33939500D01*
X199071000Y-33939500D02*
X199571000Y-33039500D01*
X200321000Y-36139500D02*
X200321000Y-30739500D01*
X198821000Y-36139500D02*
X200321000Y-36139500D01*
%TO.C,rD14*%
X200321000Y-49789500D02*
X198821000Y-49789500D01*
X198821000Y-49789500D02*
X198821000Y-55189500D01*
X200071000Y-51989500D02*
X199071000Y-51989500D01*
X199571000Y-52089500D02*
X200071000Y-52989500D01*
X200071000Y-52989500D02*
X199071000Y-52989500D01*
X199071000Y-52989500D02*
X199571000Y-52089500D01*
X200321000Y-55189500D02*
X200321000Y-49789500D01*
X198821000Y-55189500D02*
X200321000Y-55189500D01*
%TO.C,D22*%
X107916685Y-82341154D02*
X106617647Y-81591154D01*
X106617647Y-81591154D02*
X103917647Y-86267692D01*
X106600179Y-84121410D02*
X105734153Y-83621410D01*
X106117166Y-83958013D02*
X106100179Y-84987436D01*
X106100179Y-84987436D02*
X105234153Y-84487436D01*
X105234153Y-84487436D02*
X106117166Y-83958013D01*
X105216685Y-87017692D02*
X107916685Y-82341154D01*
X103917647Y-86267692D02*
X105216685Y-87017692D01*
%TO.C,SW23*%
X107267000Y-46233000D02*
X107267000Y-45983000D01*
X107267000Y-46233000D02*
X101267000Y-46233000D01*
X107267000Y-42733000D02*
X107267000Y-42983000D01*
X107267000Y-42733000D02*
X101267000Y-42733000D01*
X101267000Y-46233000D02*
X101267000Y-45983000D01*
X101267000Y-42733000D02*
X101267000Y-42983000D01*
%TO.C,rD12*%
X238421000Y-49916500D02*
X236921000Y-49916500D01*
X236921000Y-49916500D02*
X236921000Y-55316500D01*
X238171000Y-52116500D02*
X237171000Y-52116500D01*
X237671000Y-52216500D02*
X238171000Y-53116500D01*
X238171000Y-53116500D02*
X237171000Y-53116500D01*
X237171000Y-53116500D02*
X237671000Y-52216500D01*
X238421000Y-55316500D02*
X238421000Y-49916500D01*
X236921000Y-55316500D02*
X238421000Y-55316500D01*
%TO.C,D5*%
X77966000Y-14039588D02*
X76466000Y-14039588D01*
X76466000Y-14039588D02*
X76466000Y-19439588D01*
X77716000Y-16239588D02*
X76716000Y-16239588D01*
X77216000Y-16339588D02*
X77716000Y-17239588D01*
X77716000Y-17239588D02*
X76716000Y-17239588D01*
X76716000Y-17239588D02*
X77216000Y-16339588D01*
X77966000Y-19439588D02*
X77966000Y-14039588D01*
X76466000Y-19439588D02*
X77966000Y-19439588D01*
%TO.C,D14*%
X58916000Y-49980588D02*
X57416000Y-49980588D01*
X57416000Y-49980588D02*
X57416000Y-55380588D01*
X58666000Y-52180588D02*
X57666000Y-52180588D01*
X58166000Y-52280588D02*
X58666000Y-53180588D01*
X58666000Y-53180588D02*
X57666000Y-53180588D01*
X57666000Y-53180588D02*
X58166000Y-52280588D01*
X58916000Y-55380588D02*
X58916000Y-49980588D01*
X57416000Y-55380588D02*
X58916000Y-55380588D01*
%TO.C,D4*%
X58916000Y-11626588D02*
X57416000Y-11626588D01*
X57416000Y-11626588D02*
X57416000Y-17026588D01*
X58666000Y-13826588D02*
X57666000Y-13826588D01*
X58166000Y-13926588D02*
X58666000Y-14826588D01*
X58666000Y-14826588D02*
X57666000Y-14826588D01*
X57666000Y-14826588D02*
X58166000Y-13926588D01*
X58916000Y-17026588D02*
X58916000Y-11626588D01*
X57416000Y-17026588D02*
X58916000Y-17026588D01*
%TO.C,rD23*%
X149954000Y-48056500D02*
X149954000Y-49556500D01*
X149954000Y-49556500D02*
X155354000Y-49556500D01*
X152154000Y-48306500D02*
X152154000Y-49306500D01*
X152254000Y-48806500D02*
X153154000Y-48306500D01*
X153154000Y-48306500D02*
X153154000Y-49306500D01*
X153154000Y-49306500D02*
X152254000Y-48806500D01*
X155354000Y-48056500D02*
X149954000Y-48056500D01*
X155354000Y-49556500D02*
X155354000Y-48056500D01*
%TO.C,D7*%
X20816000Y-30930588D02*
X19316000Y-30930588D01*
X19316000Y-30930588D02*
X19316000Y-36330588D01*
X20566000Y-33130588D02*
X19566000Y-33130588D01*
X20066000Y-33230588D02*
X20566000Y-34130588D01*
X20566000Y-34130588D02*
X19566000Y-34130588D01*
X19566000Y-34130588D02*
X20066000Y-33230588D01*
X20816000Y-36330588D02*
X20816000Y-30930588D01*
X19316000Y-36330588D02*
X20816000Y-36330588D01*
%TO.C,rD4*%
X200321000Y-11689500D02*
X198821000Y-11689500D01*
X198821000Y-11689500D02*
X198821000Y-17089500D01*
X200071000Y-13889500D02*
X199071000Y-13889500D01*
X199571000Y-13989500D02*
X200071000Y-14889500D01*
X200071000Y-14889500D02*
X199071000Y-14889500D01*
X199071000Y-14889500D02*
X199571000Y-13989500D01*
X200321000Y-17089500D02*
X200321000Y-11689500D01*
X198821000Y-17089500D02*
X200321000Y-17089500D01*
%TO.C,rD5*%
X181271000Y-14356500D02*
X179771000Y-14356500D01*
X179771000Y-14356500D02*
X179771000Y-19756500D01*
X181021000Y-16556500D02*
X180021000Y-16556500D01*
X180521000Y-16656500D02*
X181021000Y-17556500D01*
X181021000Y-17556500D02*
X180021000Y-17556500D01*
X180021000Y-17556500D02*
X180521000Y-16656500D01*
X181271000Y-19756500D02*
X181271000Y-14356500D01*
X179771000Y-19756500D02*
X181271000Y-19756500D01*
%TO.C,D12*%
X20816000Y-49853588D02*
X19316000Y-49853588D01*
X19316000Y-49853588D02*
X19316000Y-55253588D01*
X20566000Y-52053588D02*
X19566000Y-52053588D01*
X20066000Y-52153588D02*
X20566000Y-53053588D01*
X20566000Y-53053588D02*
X19566000Y-53053588D01*
X19566000Y-53053588D02*
X20066000Y-52153588D01*
X20816000Y-55253588D02*
X20816000Y-49853588D01*
X19316000Y-55253588D02*
X20816000Y-55253588D01*
%TO.C,rD16*%
X162221000Y-59314500D02*
X160721000Y-59314500D01*
X160721000Y-59314500D02*
X160721000Y-64714500D01*
X161971000Y-61514500D02*
X160971000Y-61514500D01*
X161471000Y-61614500D02*
X161971000Y-62514500D01*
X161971000Y-62514500D02*
X160971000Y-62514500D01*
X160971000Y-62514500D02*
X161471000Y-61614500D01*
X162221000Y-64714500D02*
X162221000Y-59314500D01*
X160721000Y-64714500D02*
X162221000Y-64714500D01*
%TO.C,OL1*%
X121031000Y-30353000D02*
X121031000Y-20193000D01*
X123571000Y-30353000D02*
X121031000Y-30353000D01*
X123571000Y-30353000D02*
X123571000Y-20193000D01*
X121031000Y-20193000D02*
X123571000Y-20193000D01*
%TD*%
D13*
%TO.C,D9*%
X58166000Y-29820588D03*
D14*
X58166000Y-37440588D03*
%TD*%
D13*
%TO.C,D1*%
X1116000Y-15850588D03*
D14*
X1116000Y-23470588D03*
%TD*%
D13*
%TO.C,rD8*%
X218621000Y-27470500D03*
D14*
X218621000Y-35090500D03*
%TD*%
D13*
%TO.C,rD11*%
X256721000Y-53505500D03*
D14*
X256721000Y-61125500D03*
%TD*%
D13*
%TO.C,rD19*%
X218621000Y-65443500D03*
D14*
X218621000Y-73063500D03*
%TD*%
D13*
%TO.C,rD1*%
X256721000Y-15913500D03*
D14*
X256721000Y-23533500D03*
%TD*%
D13*
%TO.C,rD2*%
X237671000Y-10833500D03*
D14*
X237671000Y-18453500D03*
%TD*%
D13*
%TO.C,D18*%
X20066000Y-67920588D03*
D14*
X20066000Y-75540588D03*
%TD*%
D15*
%TO.C,rD21*%
X172168899Y-75098323D03*
D14*
X174141101Y-82458677D03*
%TD*%
D13*
%TO.C,D6*%
X1116000Y-34646588D03*
D14*
X1116000Y-42266588D03*
%TD*%
D13*
%TO.C,D13*%
X39116000Y-46330588D03*
D14*
X39116000Y-53950588D03*
%TD*%
D13*
%TO.C,D19*%
X39116000Y-65507588D03*
D14*
X39116000Y-73127588D03*
%TD*%
D13*
%TO.C,D8*%
X39116000Y-27407588D03*
D14*
X39116000Y-35027588D03*
%TD*%
D13*
%TO.C,D20*%
X62865000Y-75032588D03*
D14*
X62865000Y-82652588D03*
%TD*%
%TO.C,rOL1*%
X135509000Y-29088500D03*
X135509000Y-26548500D03*
X135509000Y-24008500D03*
X135509000Y-21468500D03*
%TD*%
D13*
%TO.C,rD7*%
X237671000Y-29883500D03*
D14*
X237671000Y-37503500D03*
%TD*%
D13*
%TO.C,rD17*%
X256721000Y-72555500D03*
D14*
X256721000Y-80175500D03*
%TD*%
D13*
%TO.C,rD3*%
X218748000Y-8293500D03*
D14*
X218748000Y-15913500D03*
%TD*%
D13*
%TO.C,rD15*%
X180521000Y-51346500D03*
D14*
X180521000Y-58966500D03*
%TD*%
D16*
%TO.C,D21*%
X85695101Y-75162411D03*
D14*
X83722899Y-82522765D03*
%TD*%
D13*
%TO.C,D15*%
X77216000Y-51283588D03*
D14*
X77216000Y-58903588D03*
%TD*%
D13*
%TO.C,D10*%
X77216000Y-32106588D03*
D14*
X77216000Y-39726588D03*
%TD*%
D13*
%TO.C,rD18*%
X237671000Y-69888500D03*
D14*
X237671000Y-77508500D03*
%TD*%
D13*
%TO.C,D16*%
X96266000Y-57887588D03*
D14*
X96266000Y-65507588D03*
%TD*%
D13*
%TO.C,D2*%
X20066000Y-10643588D03*
D14*
X20066000Y-18263588D03*
%TD*%
D13*
%TO.C,D23*%
X108080000Y-49309000D03*
D14*
X100460000Y-49309000D03*
%TD*%
D13*
%TO.C,rD10*%
X180521000Y-32169500D03*
D14*
X180521000Y-39789500D03*
%TD*%
D17*
%TO.C,rD22*%
X149914835Y-81321778D03*
D14*
X153724835Y-87920892D03*
%TD*%
D13*
%TO.C,D3*%
X39116000Y-8230588D03*
D14*
X39116000Y-15850588D03*
%TD*%
D13*
%TO.C,D11*%
X1116000Y-53569588D03*
D14*
X1116000Y-61189588D03*
%TD*%
D13*
%TO.C,rD13*%
X218621000Y-46393500D03*
D14*
X218621000Y-54013500D03*
%TD*%
D13*
%TO.C,rD20*%
X194872000Y-75095500D03*
D14*
X194872000Y-82715500D03*
%TD*%
D13*
%TO.C,D17*%
X1116000Y-72746588D03*
D14*
X1116000Y-80366588D03*
%TD*%
D13*
%TO.C,rD6*%
X256721000Y-34455500D03*
D14*
X256721000Y-42075500D03*
%TD*%
D13*
%TO.C,rD9*%
X199571000Y-29629500D03*
D14*
X199571000Y-37249500D03*
%TD*%
D13*
%TO.C,rD14*%
X199571000Y-48679500D03*
D14*
X199571000Y-56299500D03*
%TD*%
D18*
%TO.C,D22*%
X107822166Y-81004866D03*
D14*
X104012166Y-87603980D03*
%TD*%
D13*
%TO.C,rD12*%
X237671000Y-48806500D03*
D14*
X237671000Y-56426500D03*
%TD*%
D13*
%TO.C,D5*%
X77216000Y-12929588D03*
D14*
X77216000Y-20549588D03*
%TD*%
D13*
%TO.C,D14*%
X58166000Y-48870588D03*
D14*
X58166000Y-56490588D03*
%TD*%
D13*
%TO.C,D4*%
X58166000Y-10516588D03*
D14*
X58166000Y-18136588D03*
%TD*%
D13*
%TO.C,rD23*%
X148844000Y-48806500D03*
D14*
X156464000Y-48806500D03*
%TD*%
D13*
%TO.C,D7*%
X20066000Y-29820588D03*
D14*
X20066000Y-37440588D03*
%TD*%
D13*
%TO.C,rD4*%
X199571000Y-10579500D03*
D14*
X199571000Y-18199500D03*
%TD*%
D13*
%TO.C,rD5*%
X180521000Y-13246500D03*
D14*
X180521000Y-20866500D03*
%TD*%
D13*
%TO.C,D12*%
X20066000Y-48743588D03*
D14*
X20066000Y-56363588D03*
%TD*%
D13*
%TO.C,rD16*%
X161471000Y-58204500D03*
D14*
X161471000Y-65824500D03*
%TD*%
%TO.C,OL1*%
X122301000Y-29083000D03*
X122301000Y-26543000D03*
X122301000Y-24003000D03*
X122301000Y-21463000D03*
%TD*%
%LPC*%
D19*
%TO.C,REF\u002A\u002A*%
X150076000Y-7018000D03*
X149482250Y-7018000D03*
X148888500Y-7018000D03*
X148294750Y-7018000D03*
X147701000Y-7018000D03*
X147107250Y-7018000D03*
X146513500Y-7018000D03*
X145919750Y-7018000D03*
X145326000Y-7018000D03*
%TD*%
%TO.C,REF\u002A\u002A*%
X112484000Y-7018000D03*
X111890250Y-7018000D03*
X111296500Y-7018000D03*
X110702750Y-7018000D03*
X110109000Y-7018000D03*
X109515250Y-7018000D03*
X108921500Y-7018000D03*
X108327750Y-7018000D03*
X107734000Y-7018000D03*
%TD*%
%TO.C,REF\u002A\u002A*%
X131445000Y-31948000D03*
X131445000Y-32541750D03*
X131445000Y-33135500D03*
X131445000Y-33729250D03*
X131445000Y-34323000D03*
X131445000Y-34916750D03*
X131445000Y-35510500D03*
X131445000Y-36104250D03*
X131445000Y-36698000D03*
%TD*%
%TO.C,REF\u002A\u002A*%
X126365000Y-36698000D03*
X126365000Y-36104250D03*
X126365000Y-35510500D03*
X126365000Y-34916750D03*
X126365000Y-34323000D03*
X126365000Y-33729250D03*
X126365000Y-33135500D03*
X126365000Y-32541750D03*
X126365000Y-31948000D03*
%TD*%
%TO.C,*%
X126365000Y-34323000D03*
%TD*%
%TO.C,*%
X126365000Y-35510500D03*
%TD*%
%TO.C,REF\u002A\u002A*%
X131445000Y-56459000D03*
X131445000Y-57052750D03*
X131445000Y-57646500D03*
X131445000Y-58240250D03*
X131445000Y-58834000D03*
X131445000Y-59427750D03*
X131445000Y-60021500D03*
X131445000Y-60615250D03*
X131445000Y-61209000D03*
%TD*%
%TO.C,REF\u002A\u002A*%
X126365000Y-61209000D03*
X126365000Y-60615250D03*
X126365000Y-60021500D03*
X126365000Y-59427750D03*
X126365000Y-58834000D03*
X126365000Y-58240250D03*
X126365000Y-57646500D03*
X126365000Y-57052750D03*
X126365000Y-56459000D03*
%TD*%
%TO.C,*%
X126365000Y-58834000D03*
%TD*%
%TO.C,*%
X126365000Y-60021500D03*
%TD*%
%TO.C,REF\u002A\u002A*%
X131445000Y-72969000D03*
X131445000Y-73562750D03*
X131445000Y-74156500D03*
X131445000Y-74750250D03*
X131445000Y-75344000D03*
X131445000Y-75937750D03*
X131445000Y-76531500D03*
X131445000Y-77125250D03*
X131445000Y-77719000D03*
%TD*%
%TO.C,REF\u002A\u002A*%
X126365000Y-77719000D03*
X126365000Y-77125250D03*
X126365000Y-76531500D03*
X126365000Y-75937750D03*
X126365000Y-75344000D03*
X126365000Y-74750250D03*
X126365000Y-74156500D03*
X126365000Y-73562750D03*
X126365000Y-72969000D03*
%TD*%
%TO.C,*%
X126365000Y-75344000D03*
%TD*%
%TO.C,*%
X126365000Y-76531500D03*
%TD*%
%TO.C,REF\u002A\u002A*%
X131445000Y-14549000D03*
X131445000Y-15142750D03*
X131445000Y-15736500D03*
X131445000Y-16330250D03*
X131445000Y-16924000D03*
X131445000Y-17517750D03*
X131445000Y-18111500D03*
X131445000Y-18705250D03*
X131445000Y-19299000D03*
%TD*%
%TO.C,REF\u002A\u002A*%
X126365000Y-19299000D03*
X126365000Y-18705250D03*
X126365000Y-18111500D03*
X126365000Y-17517750D03*
X126365000Y-16924000D03*
X126365000Y-16330250D03*
X126365000Y-15736500D03*
X126365000Y-15142750D03*
X126365000Y-14549000D03*
%TD*%
D13*
%TO.C,D9*%
X58166000Y-29820588D03*
D20*
X58166000Y-31855588D03*
X58166000Y-35405588D03*
D14*
X58166000Y-37440588D03*
%TD*%
D21*
%TO.C,rSW21*%
X159791600Y-82506310D03*
D22*
X165104192Y-81082805D03*
D21*
X170416784Y-79659300D03*
D23*
X161232193Y-85950826D03*
X166631224Y-86781767D03*
%TD*%
D13*
%TO.C,D1*%
X1116000Y-15850588D03*
D20*
X1116000Y-17885588D03*
X1116000Y-21435588D03*
D14*
X1116000Y-23470588D03*
%TD*%
D13*
%TO.C,rD8*%
X218621000Y-27470500D03*
D20*
X218621000Y-29505500D03*
X218621000Y-33055500D03*
D14*
X218621000Y-35090500D03*
%TD*%
D13*
%TO.C,rD11*%
X256721000Y-53505500D03*
D20*
X256721000Y-55540500D03*
X256721000Y-59090500D03*
D14*
X256721000Y-61125500D03*
%TD*%
D13*
%TO.C,rD19*%
X218621000Y-65443500D03*
D20*
X218621000Y-67478500D03*
X218621000Y-71028500D03*
D14*
X218621000Y-73063500D03*
%TD*%
D21*
%TO.C,SW5*%
X80098000Y-16829000D03*
D22*
X85598000Y-16829000D03*
D21*
X91098000Y-16829000D03*
D24*
X80598000Y-20529000D03*
X85598000Y-22729000D03*
%TD*%
D21*
%TO.C,rSW18*%
X223862000Y-71666500D03*
D22*
X229362000Y-71666500D03*
D21*
X234862000Y-71666500D03*
D24*
X224362000Y-75366500D03*
X229362000Y-77566500D03*
%TD*%
D21*
%TO.C,SW9*%
X61048000Y-33497000D03*
D22*
X66548000Y-33497000D03*
D21*
X72048000Y-33497000D03*
D24*
X61548000Y-37197000D03*
X66548000Y-39397000D03*
%TD*%
D13*
%TO.C,rD1*%
X256721000Y-15913500D03*
D20*
X256721000Y-17948500D03*
X256721000Y-21498500D03*
D14*
X256721000Y-23533500D03*
%TD*%
D13*
%TO.C,rD2*%
X237671000Y-10833500D03*
D20*
X237671000Y-12868500D03*
X237671000Y-16418500D03*
D14*
X237671000Y-18453500D03*
%TD*%
D13*
%TO.C,D18*%
X20066000Y-67920588D03*
D20*
X20066000Y-69955588D03*
X20066000Y-73505588D03*
D14*
X20066000Y-75540588D03*
%TD*%
D25*
%TO.C,rU1*%
X155321000Y-11087500D03*
X155321000Y-13627500D03*
X155321000Y-16167500D03*
X155321000Y-18707500D03*
X155321000Y-21247500D03*
X155321000Y-23787500D03*
X155321000Y-26327500D03*
X155321000Y-28867500D03*
X155321000Y-31407500D03*
X155321000Y-33947500D03*
X155321000Y-36487500D03*
X155321000Y-39027500D03*
X140081000Y-39027500D03*
X140081000Y-36487500D03*
X140081000Y-33947500D03*
X140081000Y-31407500D03*
X140081000Y-28867500D03*
X140081000Y-26327500D03*
X140081000Y-23787500D03*
X140081000Y-21247500D03*
X140081000Y-18707500D03*
X140081000Y-16167500D03*
X140081000Y-13627500D03*
X140081000Y-11087500D03*
%TD*%
D15*
%TO.C,rD21*%
X172168899Y-75098323D03*
D26*
X172695596Y-77063982D03*
X173614404Y-80493018D03*
D14*
X174141101Y-82458677D03*
%TD*%
D21*
%TO.C,rSW12*%
X223862000Y-52616500D03*
D22*
X229362000Y-52616500D03*
D21*
X234862000Y-52616500D03*
D24*
X224362000Y-56316500D03*
X229362000Y-58516500D03*
%TD*%
D21*
%TO.C,rSW17*%
X242912000Y-76365500D03*
D22*
X248412000Y-76365500D03*
D21*
X253912000Y-76365500D03*
D24*
X243412000Y-80065500D03*
X248412000Y-82265500D03*
%TD*%
D13*
%TO.C,D6*%
X1116000Y-34646588D03*
D20*
X1116000Y-36681588D03*
X1116000Y-40231588D03*
D14*
X1116000Y-42266588D03*
%TD*%
D21*
%TO.C,SW6*%
X3898000Y-38260000D03*
D22*
X9398000Y-38260000D03*
D21*
X14898000Y-38260000D03*
D24*
X4398000Y-41960000D03*
X9398000Y-44160000D03*
%TD*%
D13*
%TO.C,D13*%
X39116000Y-46330588D03*
D20*
X39116000Y-48365588D03*
X39116000Y-51915588D03*
D14*
X39116000Y-53950588D03*
%TD*%
D13*
%TO.C,D19*%
X39116000Y-65507588D03*
D20*
X39116000Y-67542588D03*
X39116000Y-71092588D03*
D14*
X39116000Y-73127588D03*
%TD*%
D13*
%TO.C,D8*%
X39116000Y-27407588D03*
D20*
X39116000Y-29442588D03*
X39116000Y-32992588D03*
D14*
X39116000Y-35027588D03*
%TD*%
D21*
%TO.C,rSW10*%
X166712000Y-35979500D03*
D22*
X172212000Y-35979500D03*
D21*
X177712000Y-35979500D03*
D24*
X167212000Y-39679500D03*
X172212000Y-41879500D03*
%TD*%
D21*
%TO.C,rSW3*%
X204812000Y-12103500D03*
D22*
X210312000Y-12103500D03*
D21*
X215812000Y-12103500D03*
D24*
X205312000Y-15803500D03*
X210312000Y-18003500D03*
%TD*%
D13*
%TO.C,D20*%
X62865000Y-75032588D03*
D20*
X62865000Y-77067588D03*
X62865000Y-80617588D03*
D14*
X62865000Y-82652588D03*
%TD*%
%TO.C,rOL1*%
X135509000Y-29088500D03*
X135509000Y-26548500D03*
X135509000Y-24008500D03*
X135509000Y-21468500D03*
%TD*%
D13*
%TO.C,rD7*%
X237671000Y-29883500D03*
D20*
X237671000Y-31918500D03*
X237671000Y-35468500D03*
D14*
X237671000Y-37503500D03*
%TD*%
D21*
%TO.C,SW18*%
X22948000Y-71597000D03*
D22*
X28448000Y-71597000D03*
D21*
X33948000Y-71597000D03*
D24*
X23448000Y-75297000D03*
X28448000Y-77497000D03*
%TD*%
D13*
%TO.C,rD17*%
X256721000Y-72555500D03*
D20*
X256721000Y-74590500D03*
X256721000Y-78140500D03*
D14*
X256721000Y-80175500D03*
%TD*%
D27*
%TO.C,J1*%
X124511000Y-45753000D03*
X117511000Y-45753000D03*
D28*
X114711000Y-43353000D03*
X122911000Y-48153000D03*
X119911000Y-48153000D03*
X115911000Y-48153000D03*
%TD*%
D21*
%TO.C,rSW20*%
X181063000Y-78778500D03*
D22*
X186563000Y-78778500D03*
D21*
X192063000Y-78778500D03*
D24*
X181563000Y-82478500D03*
X186563000Y-84678500D03*
%TD*%
D21*
%TO.C,rSW11*%
X242912000Y-57315500D03*
D22*
X248412000Y-57315500D03*
D21*
X253912000Y-57315500D03*
D24*
X243412000Y-61015500D03*
X248412000Y-63215500D03*
%TD*%
D13*
%TO.C,rD3*%
X218748000Y-8293500D03*
D20*
X218748000Y-10328500D03*
X218748000Y-13878500D03*
D14*
X218748000Y-15913500D03*
%TD*%
D13*
%TO.C,rD15*%
X180521000Y-51346500D03*
D20*
X180521000Y-53381500D03*
X180521000Y-56931500D03*
D14*
X180521000Y-58966500D03*
%TD*%
D16*
%TO.C,D21*%
X85695101Y-75162411D03*
D29*
X85168404Y-77128070D03*
X84249596Y-80557106D03*
D14*
X83722899Y-82522765D03*
%TD*%
D21*
%TO.C,rSW13*%
X204812000Y-50203500D03*
D22*
X210312000Y-50203500D03*
D21*
X215812000Y-50203500D03*
D24*
X205312000Y-53903500D03*
X210312000Y-56103500D03*
%TD*%
D21*
%TO.C,SW21*%
X87520216Y-79653800D03*
D22*
X92832808Y-81077305D03*
D21*
X98145400Y-82500810D03*
D30*
X87045548Y-83357135D03*
X91305776Y-86776267D03*
%TD*%
D21*
%TO.C,SW14*%
X61048000Y-52547000D03*
D22*
X66548000Y-52547000D03*
D21*
X72048000Y-52547000D03*
D24*
X61548000Y-56247000D03*
X66548000Y-58447000D03*
%TD*%
D25*
%TO.C,U1*%
X117729000Y-11082000D03*
X117729000Y-13622000D03*
X117729000Y-16162000D03*
X117729000Y-18702000D03*
X117729000Y-21242000D03*
X117729000Y-23782000D03*
X117729000Y-26322000D03*
X117729000Y-28862000D03*
X117729000Y-31402000D03*
X117729000Y-33942000D03*
X117729000Y-36482000D03*
X117729000Y-39022000D03*
X102489000Y-39022000D03*
X102489000Y-36482000D03*
X102489000Y-33942000D03*
X102489000Y-31402000D03*
X102489000Y-28862000D03*
X102489000Y-26322000D03*
X102489000Y-23782000D03*
X102489000Y-21242000D03*
X102489000Y-18702000D03*
X102489000Y-16162000D03*
X102489000Y-13622000D03*
X102489000Y-11082000D03*
%TD*%
D13*
%TO.C,D15*%
X77216000Y-51283588D03*
D20*
X77216000Y-53318588D03*
X77216000Y-56868588D03*
D14*
X77216000Y-58903588D03*
%TD*%
D13*
%TO.C,D10*%
X77216000Y-32106588D03*
D20*
X77216000Y-34141588D03*
X77216000Y-37691588D03*
D14*
X77216000Y-39726588D03*
%TD*%
D13*
%TO.C,rD18*%
X237671000Y-69888500D03*
D20*
X237671000Y-71923500D03*
X237671000Y-75473500D03*
D14*
X237671000Y-77508500D03*
%TD*%
D21*
%TO.C,rSW1*%
X242912000Y-19221000D03*
D22*
X248412000Y-19221000D03*
D21*
X253912000Y-19221000D03*
D24*
X243412000Y-22921000D03*
X248412000Y-25121000D03*
%TD*%
D13*
%TO.C,D16*%
X96266000Y-57887588D03*
D20*
X96266000Y-59922588D03*
X96266000Y-63472588D03*
D14*
X96266000Y-65507588D03*
%TD*%
D21*
%TO.C,rSW19*%
X204812000Y-69253500D03*
D22*
X210312000Y-69253500D03*
D21*
X215812000Y-69253500D03*
D24*
X205312000Y-72953500D03*
X210312000Y-75153500D03*
%TD*%
D13*
%TO.C,D2*%
X20066000Y-10643588D03*
D20*
X20066000Y-12678588D03*
X20066000Y-16228588D03*
D14*
X20066000Y-18263588D03*
%TD*%
D27*
%TO.C,rJ1*%
X133299000Y-45832000D03*
X140299000Y-45832000D03*
D28*
X143099000Y-48232000D03*
X134899000Y-43432000D03*
X137899000Y-43432000D03*
X141899000Y-43432000D03*
%TD*%
D21*
%TO.C,SW16*%
X99148000Y-61755000D03*
D22*
X104648000Y-61755000D03*
D21*
X110148000Y-61755000D03*
D24*
X99648000Y-65455000D03*
X104648000Y-67655000D03*
%TD*%
D13*
%TO.C,D23*%
X108080000Y-49309000D03*
D31*
X106045000Y-49309000D03*
X102495000Y-49309000D03*
D14*
X100460000Y-49309000D03*
%TD*%
D21*
%TO.C,SW12*%
X22948000Y-52547000D03*
D22*
X28448000Y-52547000D03*
D21*
X33948000Y-52547000D03*
D24*
X23448000Y-56247000D03*
X28448000Y-58447000D03*
%TD*%
D21*
%TO.C,rSW15*%
X166712000Y-55029500D03*
D22*
X172212000Y-55029500D03*
D21*
X177712000Y-55029500D03*
D24*
X167212000Y-58729500D03*
X172212000Y-60929500D03*
%TD*%
D21*
%TO.C,rSW8*%
X204812000Y-31153500D03*
D22*
X210312000Y-31153500D03*
D21*
X215812000Y-31153500D03*
D24*
X205312000Y-34853500D03*
X210312000Y-37053500D03*
%TD*%
D21*
%TO.C,SW7*%
X22948000Y-33497000D03*
D22*
X28448000Y-33497000D03*
D21*
X33948000Y-33497000D03*
D24*
X23448000Y-37197000D03*
X28448000Y-39397000D03*
%TD*%
D13*
%TO.C,rD10*%
X180521000Y-32169500D03*
D20*
X180521000Y-34204500D03*
X180521000Y-37754500D03*
D14*
X180521000Y-39789500D03*
%TD*%
D32*
%TO.C,rSW23*%
X155650000Y-43980500D03*
X149150000Y-43980500D03*
%TD*%
D17*
%TO.C,rD22*%
X149914835Y-81321778D03*
D33*
X150932335Y-83084140D03*
X152707335Y-86158530D03*
D14*
X153724835Y-87920892D03*
%TD*%
D13*
%TO.C,D3*%
X39116000Y-8230588D03*
D20*
X39116000Y-10265588D03*
X39116000Y-13815588D03*
D14*
X39116000Y-15850588D03*
%TD*%
D13*
%TO.C,D11*%
X1116000Y-53569588D03*
D20*
X1116000Y-55604588D03*
X1116000Y-59154588D03*
D14*
X1116000Y-61189588D03*
%TD*%
D21*
%TO.C,rSW7*%
X223862000Y-33566500D03*
D22*
X229362000Y-33566500D03*
D21*
X234862000Y-33566500D03*
D24*
X224362000Y-37266500D03*
X229362000Y-39466500D03*
%TD*%
D21*
%TO.C,rSW2*%
X223862000Y-14516500D03*
D22*
X229362000Y-14516500D03*
D21*
X234862000Y-14516500D03*
D24*
X224362000Y-18216500D03*
X229362000Y-20416500D03*
%TD*%
D21*
%TO.C,SW8*%
X41998000Y-31118000D03*
D22*
X47498000Y-31118000D03*
D21*
X52998000Y-31118000D03*
D24*
X42498000Y-34818000D03*
X47498000Y-37018000D03*
%TD*%
D13*
%TO.C,rD13*%
X218621000Y-46393500D03*
D20*
X218621000Y-48428500D03*
X218621000Y-51978500D03*
D14*
X218621000Y-54013500D03*
%TD*%
D13*
%TO.C,rD20*%
X194872000Y-75095500D03*
D20*
X194872000Y-77130500D03*
X194872000Y-80680500D03*
D14*
X194872000Y-82715500D03*
%TD*%
D21*
%TO.C,SW2*%
X22948000Y-14447000D03*
D22*
X28448000Y-14447000D03*
D21*
X33948000Y-14447000D03*
D24*
X23448000Y-18147000D03*
X28448000Y-20347000D03*
%TD*%
D21*
%TO.C,rSW9*%
X185762000Y-33439500D03*
D22*
X191262000Y-33439500D03*
D21*
X196762000Y-33439500D03*
D24*
X186262000Y-37139500D03*
X191262000Y-39339500D03*
%TD*%
D21*
%TO.C,SW15*%
X80098000Y-54929000D03*
D22*
X85598000Y-54929000D03*
D21*
X91098000Y-54929000D03*
D24*
X80598000Y-58629000D03*
X85598000Y-60829000D03*
%TD*%
D13*
%TO.C,D17*%
X1116000Y-72746588D03*
D20*
X1116000Y-74781588D03*
X1116000Y-78331588D03*
D14*
X1116000Y-80366588D03*
%TD*%
D21*
%TO.C,SW13*%
X41998000Y-50168000D03*
D22*
X47498000Y-50168000D03*
D21*
X52998000Y-50168000D03*
D24*
X42498000Y-53868000D03*
X47498000Y-56068000D03*
%TD*%
D21*
%TO.C,rSW22*%
X139947252Y-91631108D03*
D22*
X144710392Y-88881108D03*
D21*
X149473532Y-86131108D03*
D34*
X142230265Y-94585402D03*
X147660392Y-93990658D03*
%TD*%
D13*
%TO.C,rD6*%
X256721000Y-34455500D03*
D20*
X256721000Y-36490500D03*
X256721000Y-40040500D03*
D14*
X256721000Y-42075500D03*
%TD*%
D13*
%TO.C,rD9*%
X199571000Y-29629500D03*
D20*
X199571000Y-31664500D03*
X199571000Y-35214500D03*
D14*
X199571000Y-37249500D03*
%TD*%
D21*
%TO.C,rSW5*%
X166712000Y-16929500D03*
D22*
X172212000Y-16929500D03*
D21*
X177712000Y-16929500D03*
D24*
X167212000Y-20629500D03*
X172212000Y-22829500D03*
%TD*%
D21*
%TO.C,SW4*%
X61048000Y-14447000D03*
D22*
X66548000Y-14447000D03*
D21*
X72048000Y-14447000D03*
D24*
X61548000Y-18147000D03*
X66548000Y-20347000D03*
%TD*%
D21*
%TO.C,SW17*%
X3898000Y-76360000D03*
D22*
X9398000Y-76360000D03*
D21*
X14898000Y-76360000D03*
D24*
X4398000Y-80060000D03*
X9398000Y-82260000D03*
%TD*%
D13*
%TO.C,rD14*%
X199571000Y-48679500D03*
D20*
X199571000Y-50714500D03*
X199571000Y-54264500D03*
D14*
X199571000Y-56299500D03*
%TD*%
D21*
%TO.C,rSW6*%
X242912000Y-38265500D03*
D22*
X248412000Y-38265500D03*
D21*
X253912000Y-38265500D03*
D24*
X243412000Y-41965500D03*
X248412000Y-44165500D03*
%TD*%
D18*
%TO.C,D22*%
X107822166Y-81004866D03*
D35*
X106804666Y-82767228D03*
X105029666Y-85841618D03*
D14*
X104012166Y-87603980D03*
%TD*%
D21*
%TO.C,SW10*%
X80098000Y-35879000D03*
D22*
X85598000Y-35879000D03*
D21*
X91098000Y-35879000D03*
D24*
X80598000Y-39579000D03*
X85598000Y-41779000D03*
%TD*%
D32*
%TO.C,SW23*%
X101017000Y-44483000D03*
X107517000Y-44483000D03*
%TD*%
D21*
%TO.C,rSW4*%
X185762000Y-14389500D03*
D22*
X191262000Y-14389500D03*
D21*
X196762000Y-14389500D03*
D24*
X186262000Y-18089500D03*
X191262000Y-20289500D03*
%TD*%
D13*
%TO.C,rD12*%
X237671000Y-48806500D03*
D20*
X237671000Y-50841500D03*
X237671000Y-54391500D03*
D14*
X237671000Y-56426500D03*
%TD*%
D13*
%TO.C,D5*%
X77216000Y-12929588D03*
D20*
X77216000Y-14964588D03*
X77216000Y-18514588D03*
D14*
X77216000Y-20549588D03*
%TD*%
D21*
%TO.C,SW22*%
X108336468Y-85998608D03*
D22*
X113099608Y-88748608D03*
D21*
X117862748Y-91498608D03*
D36*
X106919481Y-89452902D03*
X110149608Y-93858158D03*
%TD*%
D21*
%TO.C,SW1*%
X3898000Y-19210000D03*
D22*
X9398000Y-19210000D03*
D21*
X14898000Y-19210000D03*
D24*
X4398000Y-22910000D03*
X9398000Y-25110000D03*
%TD*%
D13*
%TO.C,D14*%
X58166000Y-48870588D03*
D20*
X58166000Y-50905588D03*
X58166000Y-54455588D03*
D14*
X58166000Y-56490588D03*
%TD*%
D13*
%TO.C,D4*%
X58166000Y-10516588D03*
D20*
X58166000Y-12551588D03*
X58166000Y-16101588D03*
D14*
X58166000Y-18136588D03*
%TD*%
D13*
%TO.C,rD23*%
X148844000Y-48806500D03*
D31*
X150879000Y-48806500D03*
X154429000Y-48806500D03*
D14*
X156464000Y-48806500D03*
%TD*%
D21*
%TO.C,SW3*%
X41998000Y-12068000D03*
D22*
X47498000Y-12068000D03*
D21*
X52998000Y-12068000D03*
D24*
X42498000Y-15768000D03*
X47498000Y-17968000D03*
%TD*%
D13*
%TO.C,D7*%
X20066000Y-29820588D03*
D20*
X20066000Y-31855588D03*
X20066000Y-35405588D03*
D14*
X20066000Y-37440588D03*
%TD*%
D21*
%TO.C,SW19*%
X41998000Y-69218000D03*
D22*
X47498000Y-69218000D03*
D21*
X52998000Y-69218000D03*
D24*
X42498000Y-72918000D03*
X47498000Y-75118000D03*
%TD*%
D21*
%TO.C,rSW16*%
X147662000Y-61855500D03*
D22*
X153162000Y-61855500D03*
D21*
X158662000Y-61855500D03*
D24*
X148162000Y-65555500D03*
X153162000Y-67755500D03*
%TD*%
D13*
%TO.C,rD4*%
X199571000Y-10579500D03*
D20*
X199571000Y-12614500D03*
X199571000Y-16164500D03*
D14*
X199571000Y-18199500D03*
%TD*%
D13*
%TO.C,rD5*%
X180521000Y-13246500D03*
D20*
X180521000Y-15281500D03*
X180521000Y-18831500D03*
D14*
X180521000Y-20866500D03*
%TD*%
D13*
%TO.C,D12*%
X20066000Y-48743588D03*
D20*
X20066000Y-50778588D03*
X20066000Y-54328588D03*
D14*
X20066000Y-56363588D03*
%TD*%
D21*
%TO.C,rSW14*%
X185762000Y-52489500D03*
D22*
X191262000Y-52489500D03*
D21*
X196762000Y-52489500D03*
D24*
X186262000Y-56189500D03*
X191262000Y-58389500D03*
%TD*%
D21*
%TO.C,SW20*%
X65732000Y-78758000D03*
D22*
X71232000Y-78758000D03*
D21*
X76732000Y-78758000D03*
D24*
X66232000Y-82458000D03*
X71232000Y-84658000D03*
%TD*%
D13*
%TO.C,rD16*%
X161471000Y-58204500D03*
D20*
X161471000Y-60239500D03*
X161471000Y-63789500D03*
D14*
X161471000Y-65824500D03*
%TD*%
D21*
%TO.C,SW11*%
X3898000Y-57310000D03*
D22*
X9398000Y-57310000D03*
D21*
X14898000Y-57310000D03*
D24*
X4398000Y-61010000D03*
X9398000Y-63210000D03*
%TD*%
D14*
%TO.C,OL1*%
X122301000Y-29083000D03*
X122301000Y-26543000D03*
X122301000Y-24003000D03*
X122301000Y-21463000D03*
%TD*%
%LPD*%
M02*
