M48
; DRILL file {KiCad 7.0.10} date Thu Sep 26 01:16:30 2024
; FORMAT={-:-/ absolute / inch / decimal}
; #@! TF.CreationDate,2024-09-26T01:16:30+09:00
; #@! TF.GenerationSoftware,Kicad,Pcbnew,7.0.10
; #@! TF.FileFunction,NonPlated,1,2,NPTH
FMAT,2
INCH
; #@! TA.AperFunction,NonPlated,NPTH,ComponentDrill
T1C0.0118
; #@! TA.AperFunction,NonPlated,NPTH,ComponentDrill
T2C0.0591
; #@! TA.AperFunction,NonPlated,NPTH,ComponentDrill
T3C0.0669
; #@! TA.AperFunction,NonPlated,NPTH,ComponentDrill
T4C0.1339
%
G90
G05
T1
X4.2415Y-0.2763
X4.2649Y-0.2763
X4.2882Y-0.2763
X4.3116Y-0.2763
X4.335Y-0.2763
X4.3584Y-0.2763
X4.3818Y-0.2763
X4.4051Y-0.2763
X4.4285Y-0.2763
X4.975Y-0.5728
X4.975Y-0.5962
X4.975Y-0.6195
X4.975Y-0.6429
X4.975Y-0.6663
X4.975Y-0.6897
X4.975Y-0.7131
X4.975Y-0.7364
X4.975Y-0.7598
X4.975Y-1.2578
X4.975Y-1.2812
X4.975Y-1.3045
X4.975Y-1.3279
X4.975Y-1.3513
X4.975Y-1.3513
X4.975Y-1.3747
X4.975Y-1.3981
X4.975Y-1.3981
X4.975Y-1.4214
X4.975Y-1.4448
X4.975Y-2.2228
X4.975Y-2.2462
X4.975Y-2.2695
X4.975Y-2.2929
X4.975Y-2.3163
X4.975Y-2.3163
X4.975Y-2.3397
X4.975Y-2.3631
X4.975Y-2.3631
X4.975Y-2.3864
X4.975Y-2.4098
X4.975Y-2.8728
X4.975Y-2.8962
X4.975Y-2.9195
X4.975Y-2.9429
X4.975Y-2.9663
X4.975Y-2.9663
X4.975Y-2.9897
X4.975Y-3.0131
X4.975Y-3.0131
X4.975Y-3.0364
X4.975Y-3.0598
X5.175Y-0.5728
X5.175Y-0.5962
X5.175Y-0.6195
X5.175Y-0.6429
X5.175Y-0.6663
X5.175Y-0.6897
X5.175Y-0.7131
X5.175Y-0.7364
X5.175Y-0.7598
X5.175Y-1.2578
X5.175Y-1.2812
X5.175Y-1.3045
X5.175Y-1.3279
X5.175Y-1.3513
X5.175Y-1.3747
X5.175Y-1.3981
X5.175Y-1.4214
X5.175Y-1.4448
X5.175Y-2.2228
X5.175Y-2.2462
X5.175Y-2.2695
X5.175Y-2.2929
X5.175Y-2.3163
X5.175Y-2.3397
X5.175Y-2.3631
X5.175Y-2.3864
X5.175Y-2.4098
X5.175Y-2.8728
X5.175Y-2.8962
X5.175Y-2.9195
X5.175Y-2.9429
X5.175Y-2.9663
X5.175Y-2.9897
X5.175Y-3.0131
X5.175Y-3.0364
X5.175Y-3.0598
X5.7215Y-0.2763
X5.7449Y-0.2763
X5.7682Y-0.2763
X5.7916Y-0.2763
X5.815Y-0.2763
X5.8384Y-0.2763
X5.8618Y-0.2763
X5.8851Y-0.2763
X5.9085Y-0.2763
T2
X4.6264Y-1.8013
X4.902Y-1.8013
X5.248Y-1.8044
X5.5236Y-1.8044
T3
X0.1535Y-0.7563
X0.1535Y-1.5063
X0.1535Y-2.2563
X0.1535Y-3.0063
X0.5865Y-0.7563
X0.5865Y-1.5063
X0.5865Y-2.2563
X0.5865Y-3.0063
X0.9035Y-0.5688
X0.9035Y-1.3188
X0.9035Y-2.0688
X0.9035Y-2.8188
X1.3365Y-0.5688
X1.3365Y-1.3188
X1.3365Y-2.0688
X1.3365Y-2.8188
X1.6535Y-0.4751
X1.6535Y-1.2251
X1.6535Y-1.9751
X1.6535Y-2.7251
X2.0865Y-0.4751
X2.0865Y-1.2251
X2.0865Y-1.9751
X2.0865Y-2.7251
X2.4035Y-0.5688
X2.4035Y-1.3188
X2.4035Y-2.0688
X2.5879Y-3.1007
X2.8365Y-0.5688
X2.8365Y-1.3188
X2.8365Y-2.0688
X3.0209Y-3.1007
X3.1535Y-0.6626
X3.1535Y-1.4126
X3.1535Y-2.1626
X3.4457Y-3.136
X3.5865Y-0.6626
X3.5865Y-1.4126
X3.5865Y-2.1626
X3.864Y-3.2481
X3.9035Y-2.4313
X4.2652Y-3.3858
X4.3365Y-2.4313
X4.6403Y-3.6023
X5.5097Y-3.6075
X5.8135Y-2.4353
X5.8848Y-3.391
X6.2465Y-2.4353
X6.291Y-3.2483
X6.5635Y-0.6665
X6.5635Y-1.4165
X6.5635Y-2.1665
X6.7093Y-3.1362
X6.9965Y-0.6665
X6.9965Y-1.4165
X6.9965Y-2.1665
X7.1285Y-3.1015
X7.3135Y-0.5665
X7.3135Y-1.3165
X7.3135Y-2.0665
X7.5615Y-3.1015
X7.7465Y-0.5665
X7.7465Y-1.3165
X7.7465Y-2.0665
X8.0635Y-0.4765
X8.0635Y-1.2265
X8.0635Y-1.9765
X8.0635Y-2.7265
X8.4965Y-0.4765
X8.4965Y-1.2265
X8.4965Y-1.9765
X8.4965Y-2.7265
X8.8135Y-0.5715
X8.8135Y-1.3215
X8.8135Y-2.0715
X8.8135Y-2.8215
X9.2465Y-0.5715
X9.2465Y-1.3215
X9.2465Y-2.0715
X9.2465Y-2.8215
X9.5635Y-0.7567
X9.5635Y-1.5065
X9.5635Y-2.2565
X9.5635Y-3.0065
X9.9965Y-0.7567
X9.9965Y-1.5065
X9.9965Y-2.2565
X9.9965Y-3.0065
T4
X0.37Y-0.7563
X0.37Y-1.5063
X0.37Y-2.2563
X0.37Y-3.0063
X1.12Y-0.5688
X1.12Y-1.3188
X1.12Y-2.0688
X1.12Y-2.8188
X1.87Y-0.4751
X1.87Y-1.2251
X1.87Y-1.9751
X1.87Y-2.7251
X2.62Y-0.5688
X2.62Y-1.3188
X2.62Y-2.0688
X2.8044Y-3.1007
X3.37Y-0.6626
X3.37Y-1.4126
X3.37Y-2.1626
X3.6548Y-3.192
X4.12Y-2.4313
X4.4527Y-3.494
X5.6973Y-3.4993
X6.03Y-2.4353
X6.5002Y-3.1922
X6.78Y-0.6665
X6.78Y-1.4165
X6.78Y-2.1665
X7.345Y-3.1015
X7.53Y-0.5665
X7.53Y-1.3165
X7.53Y-2.0665
X8.28Y-0.4765
X8.28Y-1.2265
X8.28Y-1.9765
X8.28Y-2.7265
X9.03Y-0.5715
X9.03Y-1.3215
X9.03Y-2.0715
X9.03Y-2.8215
X9.78Y-0.7567
X9.78Y-1.5065
X9.78Y-2.2565
X9.78Y-3.0065
M30
