%TF.GenerationSoftware,KiCad,Pcbnew,7.0.10*%
%TF.CreationDate,2024-09-26T01:16:29+09:00*%
%TF.ProjectId,keyboard_denchi,6b657962-6f61-4726-945f-64656e636869,rev?*%
%TF.SameCoordinates,Original*%
%TF.FileFunction,Soldermask,Top*%
%TF.FilePolarity,Negative*%
%FSLAX46Y46*%
G04 Gerber Fmt 4.6, Leading zero omitted, Abs format (unit mm)*
G04 Created by KiCad (PCBNEW 7.0.10) date 2024-09-26 01:16:29*
%MOMM*%
%LPD*%
G01*
G04 APERTURE LIST*
G04 Aperture macros list*
%AMHorizOval*
0 Thick line with rounded ends*
0 $1 width*
0 $2 $3 position (X,Y) of the first rounded end (center of the circle)*
0 $4 $5 position (X,Y) of the second rounded end (center of the circle)*
0 Add line between two ends*
20,1,$1,$2,$3,$4,$5,0*
0 Add two circle primitives to create the rounded ends*
1,1,$1,$2,$3*
1,1,$1,$4,$5*%
%AMRotRect*
0 Rectangle, with rotation*
0 The origin of the aperture is its center*
0 $1 length*
0 $2 width*
0 $3 Rotation angle, in degrees counterclockwise*
0 Add horizontal line*
21,1,$1,$2,0,0,$3*%
G04 Aperture macros list end*
%ADD10C,0.300000*%
%ADD11R,1.397000X1.397000*%
%ADD12R,0.950000X1.300000*%
%ADD13C,1.397000*%
%ADD14C,1.700000*%
%ADD15C,3.400000*%
%ADD16HorizOval,1.200000X0.193185X0.051764X-0.193185X-0.051764X0*%
%ADD17O,1.600000X1.200000*%
%ADD18C,1.524000*%
%ADD19RotRect,1.397000X1.397000X285.000000*%
%ADD20RotRect,1.300000X0.950000X285.000000*%
%ADD21C,1.500000*%
%ADD22O,2.500000X1.700000*%
%ADD23RotRect,1.397000X1.397000X255.000000*%
%ADD24RotRect,1.300000X0.950000X255.000000*%
%ADD25HorizOval,1.200000X0.193185X-0.051764X-0.193185X0.051764X0*%
%ADD26R,1.300000X0.950000*%
%ADD27C,2.000000*%
%ADD28RotRect,1.397000X1.397000X300.000000*%
%ADD29RotRect,1.300000X0.950000X300.000000*%
%ADD30HorizOval,1.200000X0.173205X0.100000X-0.173205X-0.100000X0*%
%ADD31RotRect,1.397000X1.397000X240.000000*%
%ADD32RotRect,1.300000X0.950000X240.000000*%
%ADD33HorizOval,1.200000X0.173205X-0.100000X-0.173205X0.100000X0*%
G04 APERTURE END LIST*
D10*
%TO.C,REF\u002A\u002A*%
X150076000Y-7018000D03*
X149482250Y-7018000D03*
X148888500Y-7018000D03*
X148294750Y-7018000D03*
X147701000Y-7018000D03*
X147107250Y-7018000D03*
X146513500Y-7018000D03*
X145919750Y-7018000D03*
X145326000Y-7018000D03*
%TD*%
%TO.C,REF\u002A\u002A*%
X112484000Y-7018000D03*
X111890250Y-7018000D03*
X111296500Y-7018000D03*
X110702750Y-7018000D03*
X110109000Y-7018000D03*
X109515250Y-7018000D03*
X108921500Y-7018000D03*
X108327750Y-7018000D03*
X107734000Y-7018000D03*
%TD*%
%TO.C,REF\u002A\u002A*%
X131445000Y-31948000D03*
X131445000Y-32541750D03*
X131445000Y-33135500D03*
X131445000Y-33729250D03*
X131445000Y-34323000D03*
X131445000Y-34916750D03*
X131445000Y-35510500D03*
X131445000Y-36104250D03*
X131445000Y-36698000D03*
%TD*%
%TO.C,REF\u002A\u002A*%
X126365000Y-36698000D03*
X126365000Y-36104250D03*
X126365000Y-35510500D03*
X126365000Y-34916750D03*
X126365000Y-34323000D03*
X126365000Y-33729250D03*
X126365000Y-33135500D03*
X126365000Y-32541750D03*
X126365000Y-31948000D03*
%TD*%
%TO.C,*%
X126365000Y-34323000D03*
%TD*%
%TO.C,*%
X126365000Y-35510500D03*
%TD*%
%TO.C,REF\u002A\u002A*%
X131445000Y-56459000D03*
X131445000Y-57052750D03*
X131445000Y-57646500D03*
X131445000Y-58240250D03*
X131445000Y-58834000D03*
X131445000Y-59427750D03*
X131445000Y-60021500D03*
X131445000Y-60615250D03*
X131445000Y-61209000D03*
%TD*%
%TO.C,REF\u002A\u002A*%
X126365000Y-61209000D03*
X126365000Y-60615250D03*
X126365000Y-60021500D03*
X126365000Y-59427750D03*
X126365000Y-58834000D03*
X126365000Y-58240250D03*
X126365000Y-57646500D03*
X126365000Y-57052750D03*
X126365000Y-56459000D03*
%TD*%
%TO.C,*%
X126365000Y-58834000D03*
%TD*%
%TO.C,*%
X126365000Y-60021500D03*
%TD*%
%TO.C,REF\u002A\u002A*%
X131445000Y-72969000D03*
X131445000Y-73562750D03*
X131445000Y-74156500D03*
X131445000Y-74750250D03*
X131445000Y-75344000D03*
X131445000Y-75937750D03*
X131445000Y-76531500D03*
X131445000Y-77125250D03*
X131445000Y-77719000D03*
%TD*%
%TO.C,REF\u002A\u002A*%
X126365000Y-77719000D03*
X126365000Y-77125250D03*
X126365000Y-76531500D03*
X126365000Y-75937750D03*
X126365000Y-75344000D03*
X126365000Y-74750250D03*
X126365000Y-74156500D03*
X126365000Y-73562750D03*
X126365000Y-72969000D03*
%TD*%
%TO.C,*%
X126365000Y-75344000D03*
%TD*%
%TO.C,*%
X126365000Y-76531500D03*
%TD*%
%TO.C,REF\u002A\u002A*%
X131445000Y-14549000D03*
X131445000Y-15142750D03*
X131445000Y-15736500D03*
X131445000Y-16330250D03*
X131445000Y-16924000D03*
X131445000Y-17517750D03*
X131445000Y-18111500D03*
X131445000Y-18705250D03*
X131445000Y-19299000D03*
%TD*%
%TO.C,REF\u002A\u002A*%
X126365000Y-19299000D03*
X126365000Y-18705250D03*
X126365000Y-18111500D03*
X126365000Y-17517750D03*
X126365000Y-16924000D03*
X126365000Y-16330250D03*
X126365000Y-15736500D03*
X126365000Y-15142750D03*
X126365000Y-14549000D03*
%TD*%
D11*
%TO.C,D9*%
X58166000Y-29820588D03*
D12*
X58166000Y-31855588D03*
X58166000Y-35405588D03*
D13*
X58166000Y-37440588D03*
%TD*%
D14*
%TO.C,rSW21*%
X159791600Y-82506310D03*
D15*
X165104192Y-81082805D03*
D14*
X170416784Y-79659300D03*
D16*
X161232193Y-85950826D03*
X166631224Y-86781767D03*
%TD*%
D11*
%TO.C,D1*%
X1116000Y-15850588D03*
D12*
X1116000Y-17885588D03*
X1116000Y-21435588D03*
D13*
X1116000Y-23470588D03*
%TD*%
D11*
%TO.C,rD8*%
X218621000Y-27470500D03*
D12*
X218621000Y-29505500D03*
X218621000Y-33055500D03*
D13*
X218621000Y-35090500D03*
%TD*%
D11*
%TO.C,rD11*%
X256721000Y-53505500D03*
D12*
X256721000Y-55540500D03*
X256721000Y-59090500D03*
D13*
X256721000Y-61125500D03*
%TD*%
D11*
%TO.C,rD19*%
X218621000Y-65443500D03*
D12*
X218621000Y-67478500D03*
X218621000Y-71028500D03*
D13*
X218621000Y-73063500D03*
%TD*%
D14*
%TO.C,SW5*%
X80098000Y-16829000D03*
D15*
X85598000Y-16829000D03*
D14*
X91098000Y-16829000D03*
D17*
X80598000Y-20529000D03*
X85598000Y-22729000D03*
%TD*%
D14*
%TO.C,rSW18*%
X223862000Y-71666500D03*
D15*
X229362000Y-71666500D03*
D14*
X234862000Y-71666500D03*
D17*
X224362000Y-75366500D03*
X229362000Y-77566500D03*
%TD*%
D14*
%TO.C,SW9*%
X61048000Y-33497000D03*
D15*
X66548000Y-33497000D03*
D14*
X72048000Y-33497000D03*
D17*
X61548000Y-37197000D03*
X66548000Y-39397000D03*
%TD*%
D11*
%TO.C,rD1*%
X256721000Y-15913500D03*
D12*
X256721000Y-17948500D03*
X256721000Y-21498500D03*
D13*
X256721000Y-23533500D03*
%TD*%
D11*
%TO.C,rD2*%
X237671000Y-10833500D03*
D12*
X237671000Y-12868500D03*
X237671000Y-16418500D03*
D13*
X237671000Y-18453500D03*
%TD*%
D11*
%TO.C,D18*%
X20066000Y-67920588D03*
D12*
X20066000Y-69955588D03*
X20066000Y-73505588D03*
D13*
X20066000Y-75540588D03*
%TD*%
D18*
%TO.C,rU1*%
X155321000Y-11087500D03*
X155321000Y-13627500D03*
X155321000Y-16167500D03*
X155321000Y-18707500D03*
X155321000Y-21247500D03*
X155321000Y-23787500D03*
X155321000Y-26327500D03*
X155321000Y-28867500D03*
X155321000Y-31407500D03*
X155321000Y-33947500D03*
X155321000Y-36487500D03*
X155321000Y-39027500D03*
X140081000Y-39027500D03*
X140081000Y-36487500D03*
X140081000Y-33947500D03*
X140081000Y-31407500D03*
X140081000Y-28867500D03*
X140081000Y-26327500D03*
X140081000Y-23787500D03*
X140081000Y-21247500D03*
X140081000Y-18707500D03*
X140081000Y-16167500D03*
X140081000Y-13627500D03*
X140081000Y-11087500D03*
%TD*%
D19*
%TO.C,rD21*%
X172168899Y-75098323D03*
D20*
X172695596Y-77063982D03*
X173614404Y-80493018D03*
D13*
X174141101Y-82458677D03*
%TD*%
D14*
%TO.C,rSW12*%
X223862000Y-52616500D03*
D15*
X229362000Y-52616500D03*
D14*
X234862000Y-52616500D03*
D17*
X224362000Y-56316500D03*
X229362000Y-58516500D03*
%TD*%
D14*
%TO.C,rSW17*%
X242912000Y-76365500D03*
D15*
X248412000Y-76365500D03*
D14*
X253912000Y-76365500D03*
D17*
X243412000Y-80065500D03*
X248412000Y-82265500D03*
%TD*%
D11*
%TO.C,D6*%
X1116000Y-34646588D03*
D12*
X1116000Y-36681588D03*
X1116000Y-40231588D03*
D13*
X1116000Y-42266588D03*
%TD*%
D14*
%TO.C,SW6*%
X3898000Y-38260000D03*
D15*
X9398000Y-38260000D03*
D14*
X14898000Y-38260000D03*
D17*
X4398000Y-41960000D03*
X9398000Y-44160000D03*
%TD*%
D11*
%TO.C,D13*%
X39116000Y-46330588D03*
D12*
X39116000Y-48365588D03*
X39116000Y-51915588D03*
D13*
X39116000Y-53950588D03*
%TD*%
D11*
%TO.C,D19*%
X39116000Y-65507588D03*
D12*
X39116000Y-67542588D03*
X39116000Y-71092588D03*
D13*
X39116000Y-73127588D03*
%TD*%
D11*
%TO.C,D8*%
X39116000Y-27407588D03*
D12*
X39116000Y-29442588D03*
X39116000Y-32992588D03*
D13*
X39116000Y-35027588D03*
%TD*%
D14*
%TO.C,rSW10*%
X166712000Y-35979500D03*
D15*
X172212000Y-35979500D03*
D14*
X177712000Y-35979500D03*
D17*
X167212000Y-39679500D03*
X172212000Y-41879500D03*
%TD*%
D14*
%TO.C,rSW3*%
X204812000Y-12103500D03*
D15*
X210312000Y-12103500D03*
D14*
X215812000Y-12103500D03*
D17*
X205312000Y-15803500D03*
X210312000Y-18003500D03*
%TD*%
D11*
%TO.C,D20*%
X62865000Y-75032588D03*
D12*
X62865000Y-77067588D03*
X62865000Y-80617588D03*
D13*
X62865000Y-82652588D03*
%TD*%
%TO.C,rOL1*%
X135509000Y-29088500D03*
X135509000Y-26548500D03*
X135509000Y-24008500D03*
X135509000Y-21468500D03*
%TD*%
D11*
%TO.C,rD7*%
X237671000Y-29883500D03*
D12*
X237671000Y-31918500D03*
X237671000Y-35468500D03*
D13*
X237671000Y-37503500D03*
%TD*%
D14*
%TO.C,SW18*%
X22948000Y-71597000D03*
D15*
X28448000Y-71597000D03*
D14*
X33948000Y-71597000D03*
D17*
X23448000Y-75297000D03*
X28448000Y-77497000D03*
%TD*%
D11*
%TO.C,rD17*%
X256721000Y-72555500D03*
D12*
X256721000Y-74590500D03*
X256721000Y-78140500D03*
D13*
X256721000Y-80175500D03*
%TD*%
D21*
%TO.C,J1*%
X124511000Y-45753000D03*
X117511000Y-45753000D03*
D22*
X114711000Y-43353000D03*
X122911000Y-48153000D03*
X119911000Y-48153000D03*
X115911000Y-48153000D03*
%TD*%
D14*
%TO.C,rSW20*%
X181063000Y-78778500D03*
D15*
X186563000Y-78778500D03*
D14*
X192063000Y-78778500D03*
D17*
X181563000Y-82478500D03*
X186563000Y-84678500D03*
%TD*%
D14*
%TO.C,rSW11*%
X242912000Y-57315500D03*
D15*
X248412000Y-57315500D03*
D14*
X253912000Y-57315500D03*
D17*
X243412000Y-61015500D03*
X248412000Y-63215500D03*
%TD*%
D11*
%TO.C,rD3*%
X218748000Y-8293500D03*
D12*
X218748000Y-10328500D03*
X218748000Y-13878500D03*
D13*
X218748000Y-15913500D03*
%TD*%
D11*
%TO.C,rD15*%
X180521000Y-51346500D03*
D12*
X180521000Y-53381500D03*
X180521000Y-56931500D03*
D13*
X180521000Y-58966500D03*
%TD*%
D23*
%TO.C,D21*%
X85695101Y-75162411D03*
D24*
X85168404Y-77128070D03*
X84249596Y-80557106D03*
D13*
X83722899Y-82522765D03*
%TD*%
D14*
%TO.C,rSW13*%
X204812000Y-50203500D03*
D15*
X210312000Y-50203500D03*
D14*
X215812000Y-50203500D03*
D17*
X205312000Y-53903500D03*
X210312000Y-56103500D03*
%TD*%
D14*
%TO.C,SW21*%
X87520216Y-79653800D03*
D15*
X92832808Y-81077305D03*
D14*
X98145400Y-82500810D03*
D25*
X87045548Y-83357135D03*
X91305776Y-86776267D03*
%TD*%
D14*
%TO.C,SW14*%
X61048000Y-52547000D03*
D15*
X66548000Y-52547000D03*
D14*
X72048000Y-52547000D03*
D17*
X61548000Y-56247000D03*
X66548000Y-58447000D03*
%TD*%
D18*
%TO.C,U1*%
X117729000Y-11082000D03*
X117729000Y-13622000D03*
X117729000Y-16162000D03*
X117729000Y-18702000D03*
X117729000Y-21242000D03*
X117729000Y-23782000D03*
X117729000Y-26322000D03*
X117729000Y-28862000D03*
X117729000Y-31402000D03*
X117729000Y-33942000D03*
X117729000Y-36482000D03*
X117729000Y-39022000D03*
X102489000Y-39022000D03*
X102489000Y-36482000D03*
X102489000Y-33942000D03*
X102489000Y-31402000D03*
X102489000Y-28862000D03*
X102489000Y-26322000D03*
X102489000Y-23782000D03*
X102489000Y-21242000D03*
X102489000Y-18702000D03*
X102489000Y-16162000D03*
X102489000Y-13622000D03*
X102489000Y-11082000D03*
%TD*%
D11*
%TO.C,D15*%
X77216000Y-51283588D03*
D12*
X77216000Y-53318588D03*
X77216000Y-56868588D03*
D13*
X77216000Y-58903588D03*
%TD*%
D11*
%TO.C,D10*%
X77216000Y-32106588D03*
D12*
X77216000Y-34141588D03*
X77216000Y-37691588D03*
D13*
X77216000Y-39726588D03*
%TD*%
D11*
%TO.C,rD18*%
X237671000Y-69888500D03*
D12*
X237671000Y-71923500D03*
X237671000Y-75473500D03*
D13*
X237671000Y-77508500D03*
%TD*%
D14*
%TO.C,rSW1*%
X242912000Y-19221000D03*
D15*
X248412000Y-19221000D03*
D14*
X253912000Y-19221000D03*
D17*
X243412000Y-22921000D03*
X248412000Y-25121000D03*
%TD*%
D11*
%TO.C,D16*%
X96266000Y-57887588D03*
D12*
X96266000Y-59922588D03*
X96266000Y-63472588D03*
D13*
X96266000Y-65507588D03*
%TD*%
D14*
%TO.C,rSW19*%
X204812000Y-69253500D03*
D15*
X210312000Y-69253500D03*
D14*
X215812000Y-69253500D03*
D17*
X205312000Y-72953500D03*
X210312000Y-75153500D03*
%TD*%
D11*
%TO.C,D2*%
X20066000Y-10643588D03*
D12*
X20066000Y-12678588D03*
X20066000Y-16228588D03*
D13*
X20066000Y-18263588D03*
%TD*%
D21*
%TO.C,rJ1*%
X133299000Y-45832000D03*
X140299000Y-45832000D03*
D22*
X143099000Y-48232000D03*
X134899000Y-43432000D03*
X137899000Y-43432000D03*
X141899000Y-43432000D03*
%TD*%
D14*
%TO.C,SW16*%
X99148000Y-61755000D03*
D15*
X104648000Y-61755000D03*
D14*
X110148000Y-61755000D03*
D17*
X99648000Y-65455000D03*
X104648000Y-67655000D03*
%TD*%
D11*
%TO.C,D23*%
X108080000Y-49309000D03*
D26*
X106045000Y-49309000D03*
X102495000Y-49309000D03*
D13*
X100460000Y-49309000D03*
%TD*%
D14*
%TO.C,SW12*%
X22948000Y-52547000D03*
D15*
X28448000Y-52547000D03*
D14*
X33948000Y-52547000D03*
D17*
X23448000Y-56247000D03*
X28448000Y-58447000D03*
%TD*%
D14*
%TO.C,rSW15*%
X166712000Y-55029500D03*
D15*
X172212000Y-55029500D03*
D14*
X177712000Y-55029500D03*
D17*
X167212000Y-58729500D03*
X172212000Y-60929500D03*
%TD*%
D14*
%TO.C,rSW8*%
X204812000Y-31153500D03*
D15*
X210312000Y-31153500D03*
D14*
X215812000Y-31153500D03*
D17*
X205312000Y-34853500D03*
X210312000Y-37053500D03*
%TD*%
D14*
%TO.C,SW7*%
X22948000Y-33497000D03*
D15*
X28448000Y-33497000D03*
D14*
X33948000Y-33497000D03*
D17*
X23448000Y-37197000D03*
X28448000Y-39397000D03*
%TD*%
D11*
%TO.C,rD10*%
X180521000Y-32169500D03*
D12*
X180521000Y-34204500D03*
X180521000Y-37754500D03*
D13*
X180521000Y-39789500D03*
%TD*%
D27*
%TO.C,rSW23*%
X155650000Y-43980500D03*
X149150000Y-43980500D03*
%TD*%
D28*
%TO.C,rD22*%
X149914835Y-81321778D03*
D29*
X150932335Y-83084140D03*
X152707335Y-86158530D03*
D13*
X153724835Y-87920892D03*
%TD*%
D11*
%TO.C,D3*%
X39116000Y-8230588D03*
D12*
X39116000Y-10265588D03*
X39116000Y-13815588D03*
D13*
X39116000Y-15850588D03*
%TD*%
D11*
%TO.C,D11*%
X1116000Y-53569588D03*
D12*
X1116000Y-55604588D03*
X1116000Y-59154588D03*
D13*
X1116000Y-61189588D03*
%TD*%
D14*
%TO.C,rSW7*%
X223862000Y-33566500D03*
D15*
X229362000Y-33566500D03*
D14*
X234862000Y-33566500D03*
D17*
X224362000Y-37266500D03*
X229362000Y-39466500D03*
%TD*%
D14*
%TO.C,rSW2*%
X223862000Y-14516500D03*
D15*
X229362000Y-14516500D03*
D14*
X234862000Y-14516500D03*
D17*
X224362000Y-18216500D03*
X229362000Y-20416500D03*
%TD*%
D14*
%TO.C,SW8*%
X41998000Y-31118000D03*
D15*
X47498000Y-31118000D03*
D14*
X52998000Y-31118000D03*
D17*
X42498000Y-34818000D03*
X47498000Y-37018000D03*
%TD*%
D11*
%TO.C,rD13*%
X218621000Y-46393500D03*
D12*
X218621000Y-48428500D03*
X218621000Y-51978500D03*
D13*
X218621000Y-54013500D03*
%TD*%
D11*
%TO.C,rD20*%
X194872000Y-75095500D03*
D12*
X194872000Y-77130500D03*
X194872000Y-80680500D03*
D13*
X194872000Y-82715500D03*
%TD*%
D14*
%TO.C,SW2*%
X22948000Y-14447000D03*
D15*
X28448000Y-14447000D03*
D14*
X33948000Y-14447000D03*
D17*
X23448000Y-18147000D03*
X28448000Y-20347000D03*
%TD*%
D14*
%TO.C,rSW9*%
X185762000Y-33439500D03*
D15*
X191262000Y-33439500D03*
D14*
X196762000Y-33439500D03*
D17*
X186262000Y-37139500D03*
X191262000Y-39339500D03*
%TD*%
D14*
%TO.C,SW15*%
X80098000Y-54929000D03*
D15*
X85598000Y-54929000D03*
D14*
X91098000Y-54929000D03*
D17*
X80598000Y-58629000D03*
X85598000Y-60829000D03*
%TD*%
D11*
%TO.C,D17*%
X1116000Y-72746588D03*
D12*
X1116000Y-74781588D03*
X1116000Y-78331588D03*
D13*
X1116000Y-80366588D03*
%TD*%
D14*
%TO.C,SW13*%
X41998000Y-50168000D03*
D15*
X47498000Y-50168000D03*
D14*
X52998000Y-50168000D03*
D17*
X42498000Y-53868000D03*
X47498000Y-56068000D03*
%TD*%
D14*
%TO.C,rSW22*%
X139947252Y-91631108D03*
D15*
X144710392Y-88881108D03*
D14*
X149473532Y-86131108D03*
D30*
X142230265Y-94585402D03*
X147660392Y-93990658D03*
%TD*%
D11*
%TO.C,rD6*%
X256721000Y-34455500D03*
D12*
X256721000Y-36490500D03*
X256721000Y-40040500D03*
D13*
X256721000Y-42075500D03*
%TD*%
D11*
%TO.C,rD9*%
X199571000Y-29629500D03*
D12*
X199571000Y-31664500D03*
X199571000Y-35214500D03*
D13*
X199571000Y-37249500D03*
%TD*%
D14*
%TO.C,rSW5*%
X166712000Y-16929500D03*
D15*
X172212000Y-16929500D03*
D14*
X177712000Y-16929500D03*
D17*
X167212000Y-20629500D03*
X172212000Y-22829500D03*
%TD*%
D14*
%TO.C,SW4*%
X61048000Y-14447000D03*
D15*
X66548000Y-14447000D03*
D14*
X72048000Y-14447000D03*
D17*
X61548000Y-18147000D03*
X66548000Y-20347000D03*
%TD*%
D14*
%TO.C,SW17*%
X3898000Y-76360000D03*
D15*
X9398000Y-76360000D03*
D14*
X14898000Y-76360000D03*
D17*
X4398000Y-80060000D03*
X9398000Y-82260000D03*
%TD*%
D11*
%TO.C,rD14*%
X199571000Y-48679500D03*
D12*
X199571000Y-50714500D03*
X199571000Y-54264500D03*
D13*
X199571000Y-56299500D03*
%TD*%
D14*
%TO.C,rSW6*%
X242912000Y-38265500D03*
D15*
X248412000Y-38265500D03*
D14*
X253912000Y-38265500D03*
D17*
X243412000Y-41965500D03*
X248412000Y-44165500D03*
%TD*%
D31*
%TO.C,D22*%
X107822166Y-81004866D03*
D32*
X106804666Y-82767228D03*
X105029666Y-85841618D03*
D13*
X104012166Y-87603980D03*
%TD*%
D14*
%TO.C,SW10*%
X80098000Y-35879000D03*
D15*
X85598000Y-35879000D03*
D14*
X91098000Y-35879000D03*
D17*
X80598000Y-39579000D03*
X85598000Y-41779000D03*
%TD*%
D27*
%TO.C,SW23*%
X101017000Y-44483000D03*
X107517000Y-44483000D03*
%TD*%
D14*
%TO.C,rSW4*%
X185762000Y-14389500D03*
D15*
X191262000Y-14389500D03*
D14*
X196762000Y-14389500D03*
D17*
X186262000Y-18089500D03*
X191262000Y-20289500D03*
%TD*%
D11*
%TO.C,rD12*%
X237671000Y-48806500D03*
D12*
X237671000Y-50841500D03*
X237671000Y-54391500D03*
D13*
X237671000Y-56426500D03*
%TD*%
D11*
%TO.C,D5*%
X77216000Y-12929588D03*
D12*
X77216000Y-14964588D03*
X77216000Y-18514588D03*
D13*
X77216000Y-20549588D03*
%TD*%
D14*
%TO.C,SW22*%
X108336468Y-85998608D03*
D15*
X113099608Y-88748608D03*
D14*
X117862748Y-91498608D03*
D33*
X106919481Y-89452902D03*
X110149608Y-93858158D03*
%TD*%
D14*
%TO.C,SW1*%
X3898000Y-19210000D03*
D15*
X9398000Y-19210000D03*
D14*
X14898000Y-19210000D03*
D17*
X4398000Y-22910000D03*
X9398000Y-25110000D03*
%TD*%
D11*
%TO.C,D14*%
X58166000Y-48870588D03*
D12*
X58166000Y-50905588D03*
X58166000Y-54455588D03*
D13*
X58166000Y-56490588D03*
%TD*%
D11*
%TO.C,D4*%
X58166000Y-10516588D03*
D12*
X58166000Y-12551588D03*
X58166000Y-16101588D03*
D13*
X58166000Y-18136588D03*
%TD*%
D11*
%TO.C,rD23*%
X148844000Y-48806500D03*
D26*
X150879000Y-48806500D03*
X154429000Y-48806500D03*
D13*
X156464000Y-48806500D03*
%TD*%
D14*
%TO.C,SW3*%
X41998000Y-12068000D03*
D15*
X47498000Y-12068000D03*
D14*
X52998000Y-12068000D03*
D17*
X42498000Y-15768000D03*
X47498000Y-17968000D03*
%TD*%
D11*
%TO.C,D7*%
X20066000Y-29820588D03*
D12*
X20066000Y-31855588D03*
X20066000Y-35405588D03*
D13*
X20066000Y-37440588D03*
%TD*%
D14*
%TO.C,SW19*%
X41998000Y-69218000D03*
D15*
X47498000Y-69218000D03*
D14*
X52998000Y-69218000D03*
D17*
X42498000Y-72918000D03*
X47498000Y-75118000D03*
%TD*%
D14*
%TO.C,rSW16*%
X147662000Y-61855500D03*
D15*
X153162000Y-61855500D03*
D14*
X158662000Y-61855500D03*
D17*
X148162000Y-65555500D03*
X153162000Y-67755500D03*
%TD*%
D11*
%TO.C,rD4*%
X199571000Y-10579500D03*
D12*
X199571000Y-12614500D03*
X199571000Y-16164500D03*
D13*
X199571000Y-18199500D03*
%TD*%
D11*
%TO.C,rD5*%
X180521000Y-13246500D03*
D12*
X180521000Y-15281500D03*
X180521000Y-18831500D03*
D13*
X180521000Y-20866500D03*
%TD*%
D11*
%TO.C,D12*%
X20066000Y-48743588D03*
D12*
X20066000Y-50778588D03*
X20066000Y-54328588D03*
D13*
X20066000Y-56363588D03*
%TD*%
D14*
%TO.C,rSW14*%
X185762000Y-52489500D03*
D15*
X191262000Y-52489500D03*
D14*
X196762000Y-52489500D03*
D17*
X186262000Y-56189500D03*
X191262000Y-58389500D03*
%TD*%
D14*
%TO.C,SW20*%
X65732000Y-78758000D03*
D15*
X71232000Y-78758000D03*
D14*
X76732000Y-78758000D03*
D17*
X66232000Y-82458000D03*
X71232000Y-84658000D03*
%TD*%
D11*
%TO.C,rD16*%
X161471000Y-58204500D03*
D12*
X161471000Y-60239500D03*
X161471000Y-63789500D03*
D13*
X161471000Y-65824500D03*
%TD*%
D14*
%TO.C,SW11*%
X3898000Y-57310000D03*
D15*
X9398000Y-57310000D03*
D14*
X14898000Y-57310000D03*
D17*
X4398000Y-61010000D03*
X9398000Y-63210000D03*
%TD*%
D13*
%TO.C,OL1*%
X122301000Y-29083000D03*
X122301000Y-26543000D03*
X122301000Y-24003000D03*
X122301000Y-21463000D03*
%TD*%
M02*
