%TF.GenerationSoftware,KiCad,Pcbnew,7.0.10*%
%TF.CreationDate,2024-09-26T01:27:18+09:00*%
%TF.ProjectId,keyboard_denchi_right,6b657962-6f61-4726-945f-64656e636869,rev?*%
%TF.SameCoordinates,Original*%
%TF.FileFunction,Soldermask,Bot*%
%TF.FilePolarity,Negative*%
%FSLAX46Y46*%
G04 Gerber Fmt 4.6, Leading zero omitted, Abs format (unit mm)*
G04 Created by KiCad (PCBNEW 7.0.10) date 2024-09-26 01:27:18*
%MOMM*%
%LPD*%
G01*
G04 APERTURE LIST*
G04 Aperture macros list*
%AMHorizOval*
0 Thick line with rounded ends*
0 $1 width*
0 $2 $3 position (X,Y) of the first rounded end (center of the circle)*
0 $4 $5 position (X,Y) of the second rounded end (center of the circle)*
0 Add line between two ends*
20,1,$1,$2,$3,$4,$5,0*
0 Add two circle primitives to create the rounded ends*
1,1,$1,$2,$3*
1,1,$1,$4,$5*%
%AMRotRect*
0 Rectangle, with rotation*
0 The origin of the aperture is its center*
0 $1 length*
0 $2 width*
0 $3 Rotation angle, in degrees counterclockwise*
0 Add horizontal line*
21,1,$1,$2,0,0,$3*%
G04 Aperture macros list end*
%ADD10R,1.397000X1.397000*%
%ADD11R,0.950000X1.300000*%
%ADD12C,1.397000*%
%ADD13C,1.700000*%
%ADD14C,3.400000*%
%ADD15O,1.600000X1.200000*%
%ADD16C,2.000000*%
%ADD17RotRect,1.397000X1.397000X285.000000*%
%ADD18RotRect,1.300000X0.950000X285.000000*%
%ADD19HorizOval,1.200000X0.193185X0.051764X-0.193185X-0.051764X0*%
%ADD20RotRect,1.397000X1.397000X300.000000*%
%ADD21RotRect,1.300000X0.950000X300.000000*%
%ADD22HorizOval,1.200000X0.173205X0.100000X-0.173205X-0.100000X0*%
%ADD23C,1.500000*%
%ADD24O,2.500000X1.700000*%
%ADD25R,1.300000X0.950000*%
%ADD26C,1.524000*%
G04 APERTURE END LIST*
D10*
%TO.C,rD15*%
X135356000Y-110593000D03*
D11*
X135356000Y-112628000D03*
X135356000Y-116178000D03*
D12*
X135356000Y-118213000D03*
%TD*%
D13*
%TO.C,rSW3*%
X159647000Y-71350000D03*
D14*
X165147000Y-71350000D03*
D13*
X170647000Y-71350000D03*
D15*
X160147000Y-75050000D03*
X165147000Y-77250000D03*
%TD*%
D13*
%TO.C,rSW5*%
X121547000Y-76176000D03*
D14*
X127047000Y-76176000D03*
D13*
X132547000Y-76176000D03*
D15*
X122047000Y-79876000D03*
X127047000Y-82076000D03*
%TD*%
D13*
%TO.C,rSW7*%
X178697000Y-92813000D03*
D14*
X184197000Y-92813000D03*
D13*
X189697000Y-92813000D03*
D15*
X179197000Y-96513000D03*
X184197000Y-98713000D03*
%TD*%
D10*
%TO.C,rD4*%
X154406000Y-69826000D03*
D11*
X154406000Y-71861000D03*
X154406000Y-75411000D03*
D12*
X154406000Y-77446000D03*
%TD*%
D10*
%TO.C,rD19*%
X173456000Y-124690000D03*
D11*
X173456000Y-126725000D03*
X173456000Y-130275000D03*
D12*
X173456000Y-132310000D03*
%TD*%
D10*
%TO.C,rD10*%
X135356000Y-91416000D03*
D11*
X135356000Y-93451000D03*
X135356000Y-97001000D03*
D12*
X135356000Y-99036000D03*
%TD*%
D13*
%TO.C,rSW2*%
X178697000Y-73763000D03*
D14*
X184197000Y-73763000D03*
D13*
X189697000Y-73763000D03*
D15*
X179197000Y-77463000D03*
X184197000Y-79663000D03*
%TD*%
D10*
%TO.C,rD13*%
X173456000Y-105640000D03*
D11*
X173456000Y-107675000D03*
X173456000Y-111225000D03*
D12*
X173456000Y-113260000D03*
%TD*%
D16*
%TO.C,rSW23*%
X110485000Y-103227000D03*
X103985000Y-103227000D03*
%TD*%
D10*
%TO.C,rD8*%
X173456000Y-86717000D03*
D11*
X173456000Y-88752000D03*
X173456000Y-92302000D03*
D12*
X173456000Y-94337000D03*
%TD*%
D13*
%TO.C,rSW16*%
X102497000Y-121102000D03*
D14*
X107997000Y-121102000D03*
D13*
X113497000Y-121102000D03*
D15*
X102997000Y-124802000D03*
X107997000Y-127002000D03*
%TD*%
D13*
%TO.C,rSW8*%
X159647000Y-90400000D03*
D14*
X165147000Y-90400000D03*
D13*
X170647000Y-90400000D03*
D15*
X160147000Y-94100000D03*
X165147000Y-96300000D03*
%TD*%
D13*
%TO.C,rSW19*%
X159647000Y-128500000D03*
D14*
X165147000Y-128500000D03*
D13*
X170647000Y-128500000D03*
D15*
X160147000Y-132200000D03*
X165147000Y-134400000D03*
%TD*%
D17*
%TO.C,rD21*%
X127003899Y-134344823D03*
D18*
X127530596Y-136310482D03*
X128449404Y-139739518D03*
D12*
X128976101Y-141705177D03*
%TD*%
D10*
%TO.C,rD20*%
X149707000Y-134342000D03*
D11*
X149707000Y-136377000D03*
X149707000Y-139927000D03*
D12*
X149707000Y-141962000D03*
%TD*%
D13*
%TO.C,rSW4*%
X140597000Y-73636000D03*
D14*
X146097000Y-73636000D03*
D13*
X151597000Y-73636000D03*
D15*
X141097000Y-77336000D03*
X146097000Y-79536000D03*
%TD*%
D13*
%TO.C,rSW21*%
X114626600Y-141752810D03*
D14*
X119939192Y-140329305D03*
D13*
X125251784Y-138905800D03*
D19*
X116067193Y-145197326D03*
X121466224Y-146028267D03*
%TD*%
D10*
%TO.C,rD7*%
X192506000Y-89130000D03*
D11*
X192506000Y-91165000D03*
X192506000Y-94715000D03*
D12*
X192506000Y-96750000D03*
%TD*%
D13*
%TO.C,rSW10*%
X121547000Y-95226000D03*
D14*
X127047000Y-95226000D03*
D13*
X132547000Y-95226000D03*
D15*
X122047000Y-98926000D03*
X127047000Y-101126000D03*
%TD*%
D10*
%TO.C,rD17*%
X211556000Y-131802000D03*
D11*
X211556000Y-133837000D03*
X211556000Y-137387000D03*
D12*
X211556000Y-139422000D03*
%TD*%
D10*
%TO.C,rD14*%
X154406000Y-107926000D03*
D11*
X154406000Y-109961000D03*
X154406000Y-113511000D03*
D12*
X154406000Y-115546000D03*
%TD*%
D10*
%TO.C,rD2*%
X192506000Y-70080000D03*
D11*
X192506000Y-72115000D03*
X192506000Y-75665000D03*
D12*
X192506000Y-77700000D03*
%TD*%
D13*
%TO.C,rSW15*%
X121547000Y-114276000D03*
D14*
X127047000Y-114276000D03*
D13*
X132547000Y-114276000D03*
D15*
X122047000Y-117976000D03*
X127047000Y-120176000D03*
%TD*%
D20*
%TO.C,rD22*%
X104749835Y-140568278D03*
D21*
X105767335Y-142330640D03*
X107542335Y-145405030D03*
D12*
X108559835Y-147167392D03*
%TD*%
D13*
%TO.C,rSW22*%
X94782252Y-150877608D03*
D14*
X99545392Y-148127608D03*
D13*
X104308532Y-145377608D03*
D22*
X97065265Y-153831902D03*
X102495392Y-153237158D03*
%TD*%
D23*
%TO.C,rJ1*%
X88134000Y-105078500D03*
X95134000Y-105078500D03*
D24*
X97934000Y-107478500D03*
X89734000Y-102678500D03*
X92734000Y-102678500D03*
X96734000Y-102678500D03*
%TD*%
D12*
%TO.C,rOL1*%
X90344000Y-88335000D03*
X90344000Y-85795000D03*
X90344000Y-83255000D03*
X90344000Y-80715000D03*
%TD*%
D10*
%TO.C,rD6*%
X211556000Y-93702000D03*
D11*
X211556000Y-95737000D03*
X211556000Y-99287000D03*
D12*
X211556000Y-101322000D03*
%TD*%
D13*
%TO.C,rSW13*%
X159647000Y-109450000D03*
D14*
X165147000Y-109450000D03*
D13*
X170647000Y-109450000D03*
D15*
X160147000Y-113150000D03*
X165147000Y-115350000D03*
%TD*%
D13*
%TO.C,rSW11*%
X197747000Y-116562000D03*
D14*
X203247000Y-116562000D03*
D13*
X208747000Y-116562000D03*
D15*
X198247000Y-120262000D03*
X203247000Y-122462000D03*
%TD*%
D13*
%TO.C,rSW17*%
X197747000Y-135612000D03*
D14*
X203247000Y-135612000D03*
D13*
X208747000Y-135612000D03*
D15*
X198247000Y-139312000D03*
X203247000Y-141512000D03*
%TD*%
D13*
%TO.C,rSW12*%
X178697000Y-111863000D03*
D14*
X184197000Y-111863000D03*
D13*
X189697000Y-111863000D03*
D15*
X179197000Y-115563000D03*
X184197000Y-117763000D03*
%TD*%
D10*
%TO.C,rD16*%
X116306000Y-117451000D03*
D11*
X116306000Y-119486000D03*
X116306000Y-123036000D03*
D12*
X116306000Y-125071000D03*
%TD*%
D10*
%TO.C,rD23*%
X103679000Y-108053000D03*
D25*
X105714000Y-108053000D03*
X109264000Y-108053000D03*
D12*
X111299000Y-108053000D03*
%TD*%
D10*
%TO.C,rD3*%
X173583000Y-67540000D03*
D11*
X173583000Y-69575000D03*
X173583000Y-73125000D03*
D12*
X173583000Y-75160000D03*
%TD*%
D13*
%TO.C,rSW20*%
X135898000Y-138025000D03*
D14*
X141398000Y-138025000D03*
D13*
X146898000Y-138025000D03*
D15*
X136398000Y-141725000D03*
X141398000Y-143925000D03*
%TD*%
D26*
%TO.C,rU1*%
X110156000Y-70334000D03*
X110156000Y-72874000D03*
X110156000Y-75414000D03*
X110156000Y-77954000D03*
X110156000Y-80494000D03*
X110156000Y-83034000D03*
X110156000Y-85574000D03*
X110156000Y-88114000D03*
X110156000Y-90654000D03*
X110156000Y-93194000D03*
X110156000Y-95734000D03*
X110156000Y-98274000D03*
X94916000Y-98274000D03*
X94916000Y-95734000D03*
X94916000Y-93194000D03*
X94916000Y-90654000D03*
X94916000Y-88114000D03*
X94916000Y-85574000D03*
X94916000Y-83034000D03*
X94916000Y-80494000D03*
X94916000Y-77954000D03*
X94916000Y-75414000D03*
X94916000Y-72874000D03*
X94916000Y-70334000D03*
%TD*%
D10*
%TO.C,rD9*%
X154406000Y-88876000D03*
D11*
X154406000Y-90911000D03*
X154406000Y-94461000D03*
D12*
X154406000Y-96496000D03*
%TD*%
D10*
%TO.C,rD5*%
X135356000Y-72493000D03*
D11*
X135356000Y-74528000D03*
X135356000Y-78078000D03*
D12*
X135356000Y-80113000D03*
%TD*%
D10*
%TO.C,rD18*%
X192506000Y-129135000D03*
D11*
X192506000Y-131170000D03*
X192506000Y-134720000D03*
D12*
X192506000Y-136755000D03*
%TD*%
D10*
%TO.C,rD12*%
X192506000Y-108053000D03*
D11*
X192506000Y-110088000D03*
X192506000Y-113638000D03*
D12*
X192506000Y-115673000D03*
%TD*%
D13*
%TO.C,rSW9*%
X140597000Y-92686000D03*
D14*
X146097000Y-92686000D03*
D13*
X151597000Y-92686000D03*
D15*
X141097000Y-96386000D03*
X146097000Y-98586000D03*
%TD*%
D13*
%TO.C,rSW6*%
X197747000Y-97512000D03*
D14*
X203247000Y-97512000D03*
D13*
X208747000Y-97512000D03*
D15*
X198247000Y-101212000D03*
X203247000Y-103412000D03*
%TD*%
D13*
%TO.C,rSW14*%
X140597000Y-111736000D03*
D14*
X146097000Y-111736000D03*
D13*
X151597000Y-111736000D03*
D15*
X141097000Y-115436000D03*
X146097000Y-117636000D03*
%TD*%
D13*
%TO.C,rSW18*%
X178697000Y-130913000D03*
D14*
X184197000Y-130913000D03*
D13*
X189697000Y-130913000D03*
D15*
X179197000Y-134613000D03*
X184197000Y-136813000D03*
%TD*%
D13*
%TO.C,rSW1*%
X197747000Y-78467500D03*
D14*
X203247000Y-78467500D03*
D13*
X208747000Y-78467500D03*
D15*
X198247000Y-82167500D03*
X203247000Y-84367500D03*
%TD*%
D10*
%TO.C,rD1*%
X211556000Y-75160000D03*
D11*
X211556000Y-77195000D03*
X211556000Y-80745000D03*
D12*
X211556000Y-82780000D03*
%TD*%
D10*
%TO.C,rD11*%
X211556000Y-112752000D03*
D11*
X211556000Y-114787000D03*
X211556000Y-118337000D03*
D12*
X211556000Y-120372000D03*
%TD*%
M02*
