M48
; DRILL file {KiCad 7.0.10} date Thu Sep 26 01:27:18 2024
; FORMAT={-:-/ absolute / inch / decimal}
; #@! TF.CreationDate,2024-09-26T01:27:18+09:00
; #@! TF.GenerationSoftware,Kicad,Pcbnew,7.0.10
; #@! TF.FileFunction,NonPlated,1,2,NPTH
FMAT,2
INCH
; #@! TA.AperFunction,NonPlated,NPTH,ComponentDrill
T1C0.0591
; #@! TA.AperFunction,NonPlated,NPTH,ComponentDrill
T2C0.0669
; #@! TA.AperFunction,NonPlated,NPTH,ComponentDrill
T3C0.1339
%
G90
G05
T1
X3.4698Y-4.1369
X3.7454Y-4.1369
T2
X3.7316Y-5.9401
X4.0353Y-4.7678
X4.1066Y-5.7235
X4.4684Y-4.7678
X4.5129Y-5.5808
X4.7853Y-2.9991
X4.7853Y-3.7491
X4.7853Y-4.4991
X4.9312Y-5.4687
X5.2184Y-2.9991
X5.2184Y-3.7491
X5.2184Y-4.4991
X5.3503Y-5.4341
X5.5353Y-2.8991
X5.5353Y-3.6491
X5.5353Y-4.3991
X5.7834Y-5.4341
X5.9684Y-2.8991
X5.9684Y-3.6491
X5.9684Y-4.3991
X6.2853Y-2.8091
X6.2853Y-3.5591
X6.2853Y-4.3091
X6.2853Y-5.0591
X6.7184Y-2.8091
X6.7184Y-3.5591
X6.7184Y-4.3091
X6.7184Y-5.0591
X7.0353Y-2.9041
X7.0353Y-3.6541
X7.0353Y-4.4041
X7.0353Y-5.1541
X7.4684Y-2.9041
X7.4684Y-3.6541
X7.4684Y-4.4041
X7.4684Y-5.1541
X7.7853Y-3.0893
X7.7853Y-3.8391
X7.7853Y-4.5891
X7.7853Y-5.3391
X8.2184Y-3.0893
X8.2184Y-3.8391
X8.2184Y-4.5891
X8.2184Y-5.3391
T3
X3.9191Y-5.8318
X4.2519Y-4.7678
X4.722Y-5.5248
X5.0019Y-2.9991
X5.0019Y-3.7491
X5.0019Y-4.4991
X5.5669Y-5.4341
X5.7519Y-2.8991
X5.7519Y-3.6491
X5.7519Y-4.3991
X6.5019Y-2.8091
X6.5019Y-3.5591
X6.5019Y-4.3091
X6.5019Y-5.0591
X7.2519Y-2.9041
X7.2519Y-3.6541
X7.2519Y-4.4041
X7.2519Y-5.1541
X8.0019Y-3.0893
X8.0019Y-3.8391
X8.0019Y-4.5891
X8.0019Y-5.3391
M30
