%TF.GenerationSoftware,KiCad,Pcbnew,7.0.10*%
%TF.CreationDate,2024-09-26T01:27:18+09:00*%
%TF.ProjectId,keyboard_denchi_right,6b657962-6f61-4726-945f-64656e636869,rev?*%
%TF.SameCoordinates,Original*%
%TF.FileFunction,Profile,NP*%
%FSLAX46Y46*%
G04 Gerber Fmt 4.6, Leading zero omitted, Abs format (unit mm)*
G04 Created by KiCad (PCBNEW 7.0.10) date 2024-09-26 01:27:18*
%MOMM*%
%LPD*%
G01*
G04 APERTURE LIST*
%TA.AperFunction,Profile*%
%ADD10C,0.200000*%
%TD*%
%TA.AperFunction,Profile*%
%ADD11C,0.100000*%
%TD*%
G04 APERTURE END LIST*
D10*
X193722000Y-64232500D02*
X174672000Y-61819500D01*
X212772000Y-68931500D02*
X193722000Y-64232500D01*
D11*
X93347437Y-113762500D02*
G75*
G03*
X90134563Y-113762500I-1606437J0D01*
G01*
X90134563Y-113762500D02*
G75*
G03*
X93347437Y-113762500I1606437J0D01*
G01*
X155622000Y-145131500D02*
X150923000Y-147544500D01*
D10*
X86534000Y-66518500D02*
X86534000Y-144623500D01*
D11*
X131873000Y-147544500D02*
X150923000Y-147544500D01*
D10*
X174672000Y-61819500D02*
X155622000Y-61819500D01*
D11*
X152402437Y-124684500D02*
G75*
G03*
X149189563Y-124684500I-1606437J0D01*
G01*
X149189563Y-124684500D02*
G75*
G03*
X152402437Y-124684500I1606437J0D01*
G01*
X86534000Y-144623500D02*
X96059000Y-161006500D01*
X195328437Y-84939000D02*
G75*
G03*
X192115563Y-84939000I-1606437J0D01*
G01*
X192115563Y-84939000D02*
G75*
G03*
X195328437Y-84939000I1606437J0D01*
G01*
X193722000Y-145131500D02*
X155622000Y-145131500D01*
X172849437Y-140432500D02*
G75*
G03*
X169636563Y-140432500I-1606437J0D01*
G01*
X169636563Y-140432500D02*
G75*
G03*
X172849437Y-140432500I1606437J0D01*
G01*
X195328437Y-122912000D02*
G75*
G03*
X192115563Y-122912000I-1606437J0D01*
G01*
X192115563Y-122912000D02*
G75*
G03*
X195328437Y-122912000I1606437J0D01*
G01*
D10*
X96059000Y-161006500D02*
X113077000Y-151989500D01*
D11*
X91950437Y-70709500D02*
G75*
G03*
X88737563Y-70709500I-1606437J0D01*
G01*
X88737563Y-70709500D02*
G75*
G03*
X91950437Y-70709500I1606437J0D01*
G01*
D10*
X193722000Y-145131500D02*
X212772000Y-145131500D01*
D11*
X93347437Y-133193500D02*
G75*
G03*
X90134563Y-133193500I-1606437J0D01*
G01*
X90134563Y-133193500D02*
G75*
G03*
X93347437Y-133193500I1606437J0D01*
G01*
X136572000Y-64105500D02*
X117522000Y-66518500D01*
D10*
X117522000Y-66518500D02*
X86534000Y-66518500D01*
D11*
X113077000Y-151989500D02*
X131873000Y-147544500D01*
D10*
X212772000Y-145131500D02*
X212772000Y-68931500D01*
X155622000Y-61819500D02*
X136572000Y-64105500D01*
M02*
