M48
; DRILL file {KiCad 7.0.10} date Thu Sep 26 01:27:18 2024
; FORMAT={-:-/ absolute / inch / decimal}
; #@! TF.CreationDate,2024-09-26T01:27:18+09:00
; #@! TF.GenerationSoftware,Kicad,Pcbnew,7.0.10
; #@! TF.FileFunction,Plated,1,2,PTH
FMAT,2
INCH
; #@! TA.AperFunction,Plated,PTH,ComponentDrill
T1C0.0315
; #@! TA.AperFunction,Plated,PTH,ComponentDrill
T2C0.0320
; #@! TA.AperFunction,Plated,PTH,ComponentDrill
T3C0.0335
; #@! TA.AperFunction,Plated,PTH,ComponentDrill
T4C0.0394
; #@! TA.AperFunction,Plated,PTH,ComponentDrill
T5C0.0512
%
G90
G05
T2
X3.5569Y-3.1778
X3.5569Y-3.2778
X3.5569Y-3.3778
X3.5569Y-3.4778
X4.0819Y-4.2541
X4.124Y-5.5342
X4.274Y-5.794
X4.3819Y-4.2541
X4.579Y-4.6241
X4.579Y-4.9241
X5.0002Y-5.2892
X5.0778Y-5.5789
X5.329Y-2.8541
X5.329Y-3.1541
X5.329Y-3.5991
X5.329Y-3.8991
X5.329Y-4.3541
X5.329Y-4.6541
X5.894Y-5.2891
X5.894Y-5.5891
X6.079Y-2.7491
X6.079Y-3.0491
X6.079Y-3.4991
X6.079Y-3.7991
X6.079Y-4.2491
X6.079Y-4.5491
X6.829Y-3.4141
X6.829Y-3.7141
X6.829Y-4.1591
X6.829Y-4.4591
X6.829Y-4.9091
X6.829Y-5.2091
X6.834Y-2.6591
X6.834Y-2.9591
X7.579Y-2.7591
X7.579Y-3.0591
X7.579Y-3.5091
X7.579Y-3.8091
X7.579Y-4.2541
X7.579Y-4.5541
X7.579Y-5.0841
X7.579Y-5.3841
X8.329Y-2.9591
X8.329Y-3.2591
X8.329Y-3.6891
X8.329Y-3.9891
X8.329Y-4.4391
X8.329Y-4.7391
X8.329Y-5.1891
X8.329Y-5.4891
T3
X3.7369Y-2.7691
X3.7369Y-2.8691
X3.7369Y-2.9691
X3.7369Y-3.0691
X3.7369Y-3.1691
X3.7369Y-3.2691
X3.7369Y-3.3691
X3.7369Y-3.4691
X3.7369Y-3.5691
X3.7369Y-3.6691
X3.7369Y-3.7691
X3.7369Y-3.8691
X4.3369Y-2.7691
X4.3369Y-2.8691
X4.3369Y-2.9691
X4.3369Y-3.0691
X4.3369Y-3.1691
X4.3369Y-3.2691
X4.3369Y-3.3691
X4.3369Y-3.4691
X4.3369Y-3.5691
X4.3369Y-3.6691
X4.3369Y-3.7691
X4.3369Y-3.8691
T5
X4.0939Y-4.0641
X4.3498Y-4.0641
T1
G00X3.8146Y-6.0603
M15
G01X3.8283Y-6.0524
M16
G05
G00X4.0284Y-6.0369
M15
G01X4.0421Y-6.029
M16
G05
G00X4.0471Y-4.9135
M15
G01X4.0629Y-4.9135
M16
G05
G00X4.244Y-5.0001
M15
G01X4.2597Y-5.0001
M16
G05
G00X4.562Y-5.7185
M15
G01X4.5772Y-5.7144
M16
G05
G00X4.7745Y-5.7512
M15
G01X4.7897Y-5.7471
M16
G05
G00X4.7971Y-3.1447
M15
G01X4.8129Y-3.1447
M16
G05
G00X4.7971Y-3.8947
M15
G01X4.8129Y-3.8947
M16
G05
G00X4.7971Y-4.6447
M15
G01X4.8129Y-4.6447
M16
G05
G00X4.994Y-3.2313
M15
G01X5.0097Y-3.2313
M16
G05
G00X4.994Y-3.9813
M15
G01X5.0097Y-3.9813
M16
G05
G00X4.994Y-4.7313
M15
G01X5.0097Y-4.7313
M16
G05
G00X5.3621Y-5.5797
M15
G01X5.3779Y-5.5797
M16
G05
G00X5.5471Y-3.0447
M15
G01X5.5629Y-3.0447
M16
G05
G00X5.5471Y-3.7947
M15
G01X5.5629Y-3.7947
M16
G05
G00X5.5471Y-4.5447
M15
G01X5.5629Y-4.5447
M16
G05
G00X5.559Y-5.6663
M15
G01X5.5747Y-5.6663
M16
G05
G00X5.744Y-3.1313
M15
G01X5.7597Y-3.1313
M16
G05
G00X5.744Y-3.8813
M15
G01X5.7597Y-3.8813
M16
G05
G00X5.744Y-4.6313
M15
G01X5.7597Y-4.6313
M16
G05
G00X6.2971Y-2.9547
M15
G01X6.3129Y-2.9547
M16
G05
G00X6.2971Y-3.7047
M15
G01X6.3129Y-3.7047
M16
G05
G00X6.2971Y-4.4547
M15
G01X6.3129Y-4.4547
M16
G05
G00X6.2971Y-5.2047
M15
G01X6.3129Y-5.2047
M16
G05
G00X6.494Y-3.0413
M15
G01X6.5097Y-3.0413
M16
G05
G00X6.494Y-3.7913
M15
G01X6.5097Y-3.7913
M16
G05
G00X6.494Y-4.5413
M15
G01X6.5097Y-4.5413
M16
G05
G00X6.494Y-5.2913
M15
G01X6.5097Y-5.2913
M16
G05
G00X7.0471Y-3.0497
M15
G01X7.0629Y-3.0497
M16
G05
G00X7.0471Y-3.7997
M15
G01X7.0629Y-3.7997
M16
G05
G00X7.0471Y-4.5497
M15
G01X7.0629Y-4.5497
M16
G05
G00X7.0471Y-5.2997
M15
G01X7.0629Y-5.2997
M16
G05
G00X7.244Y-3.1363
M15
G01X7.2597Y-3.1363
M16
G05
G00X7.244Y-3.8863
M15
G01X7.2597Y-3.8863
M16
G05
G00X7.244Y-4.6363
M15
G01X7.2597Y-4.6363
M16
G05
G00X7.244Y-5.3863
M15
G01X7.2597Y-5.3863
M16
G05
G00X7.7971Y-3.2349
M15
G01X7.8129Y-3.2349
M16
G05
G00X7.7971Y-3.9847
M15
G01X7.8129Y-3.9847
M16
G05
G00X7.7971Y-4.7347
M15
G01X7.8129Y-4.7347
M16
G05
G00X7.7971Y-5.4847
M15
G01X7.8129Y-5.4847
M16
G05
G00X7.994Y-3.3216
M15
G01X8.0097Y-3.3216
M16
G05
G00X7.994Y-4.0713
M15
G01X8.0097Y-4.0713
M16
G05
G00X7.994Y-4.8213
M15
G01X8.0097Y-4.8213
M16
G05
G00X7.994Y-5.5713
M15
G01X8.0097Y-5.5713
M16
G05
T4
G00X3.523Y-4.0425
M15
G01X3.5427Y-4.0425
M16
G05
G00X3.6411Y-4.0425
M15
G01X3.6608Y-4.0425
M16
G05
G00X3.7986Y-4.0425
M15
G01X3.8183Y-4.0425
M16
G05
G00X3.8458Y-4.2314
M15
G01X3.8655Y-4.2314
M16
G05
M30
