G04 #@! TF.GenerationSoftware,KiCad,Pcbnew,7.0.10*
G04 #@! TF.CreationDate,2024-09-26T00:25:04+09:00*
G04 #@! TF.ProjectId,keyboard_denchi,6b657962-6f61-4726-945f-64656e636869,rev?*
G04 #@! TF.SameCoordinates,Original*
G04 #@! TF.FileFunction,Profile,NP*
%FSLAX46Y46*%
G04 Gerber Fmt 4.6, Leading zero omitted, Abs format (unit mm)*
G04 Created by KiCad (PCBNEW 7.0.10) date 2024-09-26 00:25:04*
%MOMM*%
%LPD*%
G01*
G04 APERTURE LIST*
G04 #@! TA.AperFunction,Profile*
%ADD10C,0.200000*%
G04 #@! TD*
G04 #@! TA.AperFunction,Profile*
%ADD11C,0.100000*%
G04 #@! TD*
G04 APERTURE END LIST*
D10*
X31877000Y-114420000D02*
X44831000Y-114420000D01*
X19304000Y-139820000D02*
X277368000Y-139820000D01*
X19304000Y-117468000D02*
X19304000Y-139820000D01*
D11*
X277368000Y-117468000D02*
X277368000Y-139820000D01*
D10*
X270891000Y-114420000D02*
X273812000Y-114420000D01*
X270891000Y-117468000D02*
X270891000Y-114420000D01*
X273812000Y-117468000D02*
X270891000Y-117468000D01*
X264795000Y-117468000D02*
X251968000Y-117468000D01*
X264795000Y-114420000D02*
X264795000Y-117468000D01*
X251968000Y-114420000D02*
X264795000Y-114420000D01*
X251968000Y-117468000D02*
X251968000Y-114420000D01*
X245872000Y-114420000D02*
X242824000Y-114420000D01*
X245872000Y-117468000D02*
X245872000Y-114420000D01*
X242824000Y-117468000D02*
X245872000Y-117468000D01*
X50927000Y-117468000D02*
X53848000Y-117468000D01*
X50927000Y-114420000D02*
X50927000Y-117468000D01*
X53848000Y-114420000D02*
X50927000Y-114420000D01*
X25781000Y-114420000D02*
X22860000Y-114420000D01*
X25781000Y-117468000D02*
X25781000Y-114420000D01*
X22860000Y-117468000D02*
X25781000Y-117468000D01*
X31877000Y-117468000D02*
X31877000Y-114420000D01*
X34798000Y-117468000D02*
X31877000Y-117468000D01*
X44831000Y-117468000D02*
X41910000Y-117468000D01*
X44831000Y-114420000D02*
X44831000Y-117468000D01*
X238887000Y-27806000D02*
X277368000Y-27806000D01*
X220345000Y-27806000D02*
X76200000Y-27806000D01*
X220345000Y-31108000D02*
X220345000Y-27806000D01*
X220218000Y-31108000D02*
X220345000Y-31108000D01*
X226314000Y-31108000D02*
X232791000Y-31108000D01*
X226314000Y-27806000D02*
X226314000Y-31108000D01*
X232791000Y-27806000D02*
X226314000Y-27806000D01*
X232791000Y-31108000D02*
X232791000Y-27806000D01*
X238887000Y-31108000D02*
X238887000Y-27806000D01*
X239268000Y-31108000D02*
X238887000Y-31108000D01*
X70231000Y-27806000D02*
X63754000Y-27806000D01*
X70231000Y-31108000D02*
X70231000Y-27806000D01*
X63754000Y-31108000D02*
X70231000Y-31108000D01*
X63754000Y-27806000D02*
X63754000Y-31108000D01*
X57658000Y-27806000D02*
X19304000Y-27806000D01*
X57658000Y-31108000D02*
X57658000Y-27806000D01*
X57404000Y-31108000D02*
X57658000Y-31108000D01*
X76200000Y-31108000D02*
X76200000Y-27806000D01*
X76454000Y-31108000D02*
X76200000Y-31108000D01*
X273812000Y-114420000D02*
X277368000Y-114420000D01*
X277368000Y-117468000D02*
X273812000Y-117468000D01*
X34798000Y-117468000D02*
X41910000Y-117468000D01*
X22860000Y-117468000D02*
X19304000Y-117468000D01*
X19304000Y-114420000D02*
X22860000Y-114420000D01*
X220218000Y-131311000D02*
X76454000Y-131311000D01*
X220218000Y-117468000D02*
X220218000Y-131311000D01*
X76454000Y-117468000D02*
X76454000Y-131311000D01*
X53848000Y-117468000D02*
X76454000Y-117468000D01*
X76454000Y-114420000D02*
X53848000Y-114420000D01*
X242824000Y-117468000D02*
X220218000Y-117468000D01*
X220218000Y-114420000D02*
X242824000Y-114420000D01*
X277368000Y-22726000D02*
X277368000Y-27806000D01*
X19304000Y-22726000D02*
X277368000Y-22726000D01*
X19304000Y-27806000D02*
X19304000Y-22726000D01*
X258318000Y-33521000D02*
X239268000Y-31108000D01*
X277368000Y-38220000D02*
X258318000Y-33521000D01*
D11*
X157943437Y-83051000D02*
G75*
G03*
X154730563Y-83051000I-1606437J0D01*
G01*
X154730563Y-83051000D02*
G75*
G03*
X157943437Y-83051000I1606437J0D01*
G01*
D10*
X220218000Y-114420000D02*
X215519000Y-116833000D01*
X151130000Y-35807000D02*
X151130000Y-113912000D01*
X196469000Y-116833000D02*
X215519000Y-116833000D01*
D11*
X216998437Y-93973000D02*
G75*
G03*
X213785563Y-93973000I-1606437J0D01*
G01*
X213785563Y-93973000D02*
G75*
G03*
X216998437Y-93973000I1606437J0D01*
G01*
D10*
X151130000Y-113912000D02*
X160655000Y-130295000D01*
D11*
X259924437Y-54227500D02*
G75*
G03*
X256711563Y-54227500I-1606437J0D01*
G01*
X256711563Y-54227500D02*
G75*
G03*
X259924437Y-54227500I1606437J0D01*
G01*
X237445437Y-109721000D02*
G75*
G03*
X234232563Y-109721000I-1606437J0D01*
G01*
X234232563Y-109721000D02*
G75*
G03*
X237445437Y-109721000I1606437J0D01*
G01*
X259924437Y-92200500D02*
G75*
G03*
X256711563Y-92200500I-1606437J0D01*
G01*
X256711563Y-92200500D02*
G75*
G03*
X259924437Y-92200500I1606437J0D01*
G01*
D10*
X160655000Y-130295000D02*
X177673000Y-121278000D01*
D11*
X156546437Y-39998000D02*
G75*
G03*
X153333563Y-39998000I-1606437J0D01*
G01*
X153333563Y-39998000D02*
G75*
G03*
X156546437Y-39998000I1606437J0D01*
G01*
X157943437Y-102482000D02*
G75*
G03*
X154730563Y-102482000I-1606437J0D01*
G01*
X154730563Y-102482000D02*
G75*
G03*
X157943437Y-102482000I1606437J0D01*
G01*
D10*
X201168000Y-33394000D02*
X182118000Y-35807000D01*
X182118000Y-35807000D02*
X151130000Y-35807000D01*
X177673000Y-121278000D02*
X196469000Y-116833000D01*
X277368000Y-114420000D02*
X277368000Y-38220000D01*
X220218000Y-31108000D02*
X201168000Y-33394000D01*
X100203000Y-116833000D02*
X81153000Y-116833000D01*
X76454000Y-31108000D02*
X95504000Y-33394000D01*
D11*
X141941437Y-102482000D02*
G75*
G03*
X138728563Y-102482000I-1606437J0D01*
G01*
X138728563Y-102482000D02*
G75*
G03*
X141941437Y-102482000I1606437J0D01*
G01*
D10*
X95504000Y-33394000D02*
X114554000Y-35807000D01*
D11*
X141941437Y-83051000D02*
G75*
G03*
X138728563Y-83051000I-1606437J0D01*
G01*
X138728563Y-83051000D02*
G75*
G03*
X141941437Y-83051000I1606437J0D01*
G01*
D10*
X145542000Y-35807000D02*
X145542000Y-113912000D01*
X76454000Y-114420000D02*
X81153000Y-116833000D01*
X118999000Y-121278000D02*
X100203000Y-116833000D01*
X145542000Y-113912000D02*
X136017000Y-130295000D01*
X114554000Y-35807000D02*
X145542000Y-35807000D01*
D11*
X36740874Y-38289588D02*
G75*
G03*
X33528000Y-38289588I-1606437J0D01*
G01*
X33528000Y-38289588D02*
G75*
G03*
X36740874Y-38289588I1606437J0D01*
G01*
D10*
X19304000Y-114420000D02*
X19304000Y-38220000D01*
D11*
X40087437Y-92010588D02*
G75*
G03*
X36874563Y-92010588I-1606437J0D01*
G01*
X36874563Y-92010588D02*
G75*
G03*
X40087437Y-92010588I1606437J0D01*
G01*
D10*
X38354000Y-33521000D02*
X57404000Y-31108000D01*
X136017000Y-130295000D02*
X118999000Y-121278000D01*
D11*
X62439437Y-109721000D02*
G75*
G03*
X59226563Y-109721000I-1606437J0D01*
G01*
X59226563Y-109721000D02*
G75*
G03*
X62439437Y-109721000I1606437J0D01*
G01*
X82886437Y-93973000D02*
G75*
G03*
X79673563Y-93973000I-1606437J0D01*
G01*
X79673563Y-93973000D02*
G75*
G03*
X82886437Y-93973000I1606437J0D01*
G01*
X143338437Y-39998000D02*
G75*
G03*
X140125563Y-39998000I-1606437J0D01*
G01*
X140125563Y-39998000D02*
G75*
G03*
X143338437Y-39998000I1606437J0D01*
G01*
D10*
X19304000Y-38220000D02*
X38354000Y-33521000D01*
M02*
