G04 #@! TF.GenerationSoftware,KiCad,Pcbnew,7.0.10*
G04 #@! TF.CreationDate,2024-09-26T00:25:04+09:00*
G04 #@! TF.ProjectId,keyboard_denchi,6b657962-6f61-4726-945f-64656e636869,rev?*
G04 #@! TF.SameCoordinates,Original*
G04 #@! TF.FileFunction,Legend,Bot*
G04 #@! TF.FilePolarity,Positive*
%FSLAX46Y46*%
G04 Gerber Fmt 4.6, Leading zero omitted, Abs format (unit mm)*
G04 Created by KiCad (PCBNEW 7.0.10) date 2024-09-26 00:25:04*
%MOMM*%
%LPD*%
G01*
G04 APERTURE LIST*
%ADD10C,0.150000*%
G04 APERTURE END LIST*
D10*
X152294819Y-52421119D02*
X152294819Y-52611595D01*
X152294819Y-52611595D02*
X152342438Y-52706833D01*
X152342438Y-52706833D02*
X152437676Y-52802071D01*
X152437676Y-52802071D02*
X152628152Y-52849690D01*
X152628152Y-52849690D02*
X152961485Y-52849690D01*
X152961485Y-52849690D02*
X153151961Y-52802071D01*
X153151961Y-52802071D02*
X153247200Y-52706833D01*
X153247200Y-52706833D02*
X153294819Y-52611595D01*
X153294819Y-52611595D02*
X153294819Y-52421119D01*
X153294819Y-52421119D02*
X153247200Y-52325881D01*
X153247200Y-52325881D02*
X153151961Y-52230643D01*
X153151961Y-52230643D02*
X152961485Y-52183024D01*
X152961485Y-52183024D02*
X152628152Y-52183024D01*
X152628152Y-52183024D02*
X152437676Y-52230643D01*
X152437676Y-52230643D02*
X152342438Y-52325881D01*
X152342438Y-52325881D02*
X152294819Y-52421119D01*
X153294819Y-53754452D02*
X153294819Y-53278262D01*
X153294819Y-53278262D02*
X152294819Y-53278262D01*
X152771009Y-54087786D02*
X152771009Y-54421119D01*
X153294819Y-54563976D02*
X153294819Y-54087786D01*
X153294819Y-54087786D02*
X152294819Y-54087786D01*
X152294819Y-54087786D02*
X152294819Y-54563976D01*
X153294819Y-54992548D02*
X152294819Y-54992548D01*
X152294819Y-54992548D02*
X152294819Y-55230643D01*
X152294819Y-55230643D02*
X152342438Y-55373500D01*
X152342438Y-55373500D02*
X152437676Y-55468738D01*
X152437676Y-55468738D02*
X152532914Y-55516357D01*
X152532914Y-55516357D02*
X152723390Y-55563976D01*
X152723390Y-55563976D02*
X152866247Y-55563976D01*
X152866247Y-55563976D02*
X153056723Y-55516357D01*
X153056723Y-55516357D02*
X153151961Y-55468738D01*
X153151961Y-55468738D02*
X153247200Y-55373500D01*
X153247200Y-55373500D02*
X153294819Y-55230643D01*
X153294819Y-55230643D02*
X153294819Y-54992548D01*
X139086819Y-52415619D02*
X139086819Y-52606095D01*
X139086819Y-52606095D02*
X139134438Y-52701333D01*
X139134438Y-52701333D02*
X139229676Y-52796571D01*
X139229676Y-52796571D02*
X139420152Y-52844190D01*
X139420152Y-52844190D02*
X139753485Y-52844190D01*
X139753485Y-52844190D02*
X139943961Y-52796571D01*
X139943961Y-52796571D02*
X140039200Y-52701333D01*
X140039200Y-52701333D02*
X140086819Y-52606095D01*
X140086819Y-52606095D02*
X140086819Y-52415619D01*
X140086819Y-52415619D02*
X140039200Y-52320381D01*
X140039200Y-52320381D02*
X139943961Y-52225143D01*
X139943961Y-52225143D02*
X139753485Y-52177524D01*
X139753485Y-52177524D02*
X139420152Y-52177524D01*
X139420152Y-52177524D02*
X139229676Y-52225143D01*
X139229676Y-52225143D02*
X139134438Y-52320381D01*
X139134438Y-52320381D02*
X139086819Y-52415619D01*
X140086819Y-53748952D02*
X140086819Y-53272762D01*
X140086819Y-53272762D02*
X139086819Y-53272762D01*
X139563009Y-54082286D02*
X139563009Y-54415619D01*
X140086819Y-54558476D02*
X140086819Y-54082286D01*
X140086819Y-54082286D02*
X139086819Y-54082286D01*
X139086819Y-54082286D02*
X139086819Y-54558476D01*
X140086819Y-54987048D02*
X139086819Y-54987048D01*
X139086819Y-54987048D02*
X139086819Y-55225143D01*
X139086819Y-55225143D02*
X139134438Y-55368000D01*
X139134438Y-55368000D02*
X139229676Y-55463238D01*
X139229676Y-55463238D02*
X139324914Y-55510857D01*
X139324914Y-55510857D02*
X139515390Y-55558476D01*
X139515390Y-55558476D02*
X139658247Y-55558476D01*
X139658247Y-55558476D02*
X139848723Y-55510857D01*
X139848723Y-55510857D02*
X139943961Y-55463238D01*
X139943961Y-55463238D02*
X140039200Y-55368000D01*
X140039200Y-55368000D02*
X140086819Y-55225143D01*
X140086819Y-55225143D02*
X140086819Y-54987048D01*
X199202000Y-86391500D02*
X200702000Y-86391500D01*
X200702000Y-86391500D02*
X200702000Y-80991500D01*
X199452000Y-84191500D02*
X199952000Y-83291500D01*
X200452000Y-84191500D02*
X199452000Y-84191500D01*
X199952000Y-83291500D02*
X200452000Y-84191500D01*
X200452000Y-83191500D02*
X199452000Y-83191500D01*
X199202000Y-80991500D02*
X199202000Y-86391500D01*
X200702000Y-80991500D02*
X199202000Y-80991500D01*
X218252000Y-45624500D02*
X219752000Y-45624500D01*
X219752000Y-45624500D02*
X219752000Y-40224500D01*
X218502000Y-43424500D02*
X219002000Y-42524500D01*
X219502000Y-43424500D02*
X218502000Y-43424500D01*
X219002000Y-42524500D02*
X219502000Y-43424500D01*
X219502000Y-42424500D02*
X218502000Y-42424500D01*
X218252000Y-40224500D02*
X218252000Y-45624500D01*
X219752000Y-40224500D02*
X218252000Y-40224500D01*
X237302000Y-100488500D02*
X238802000Y-100488500D01*
X238802000Y-100488500D02*
X238802000Y-95088500D01*
X237552000Y-98288500D02*
X238052000Y-97388500D01*
X238552000Y-98288500D02*
X237552000Y-98288500D01*
X238052000Y-97388500D02*
X238552000Y-98288500D01*
X238552000Y-97288500D02*
X237552000Y-97288500D01*
X237302000Y-95088500D02*
X237302000Y-100488500D01*
X238802000Y-95088500D02*
X237302000Y-95088500D01*
X199202000Y-67214500D02*
X200702000Y-67214500D01*
X200702000Y-67214500D02*
X200702000Y-61814500D01*
X199452000Y-65014500D02*
X199952000Y-64114500D01*
X200452000Y-65014500D02*
X199452000Y-65014500D01*
X199952000Y-64114500D02*
X200452000Y-65014500D01*
X200452000Y-64014500D02*
X199452000Y-64014500D01*
X199202000Y-61814500D02*
X199202000Y-67214500D01*
X200702000Y-61814500D02*
X199202000Y-61814500D01*
X237302000Y-81438500D02*
X238802000Y-81438500D01*
X238802000Y-81438500D02*
X238802000Y-76038500D01*
X237552000Y-79238500D02*
X238052000Y-78338500D01*
X238552000Y-79238500D02*
X237552000Y-79238500D01*
X238052000Y-78338500D02*
X238552000Y-79238500D01*
X238552000Y-78238500D02*
X237552000Y-78238500D01*
X237302000Y-76038500D02*
X237302000Y-81438500D01*
X238802000Y-76038500D02*
X237302000Y-76038500D01*
X174831000Y-74265500D02*
X168831000Y-74265500D01*
X174831000Y-74015500D02*
X174831000Y-74265500D01*
X174831000Y-70765500D02*
X174831000Y-71015500D01*
X168831000Y-74265500D02*
X168831000Y-74015500D01*
X168831000Y-71015500D02*
X168831000Y-70765500D01*
X168831000Y-70765500D02*
X174831000Y-70765500D01*
X237302000Y-62515500D02*
X238802000Y-62515500D01*
X238802000Y-62515500D02*
X238802000Y-57115500D01*
X237552000Y-60315500D02*
X238052000Y-59415500D01*
X238552000Y-60315500D02*
X237552000Y-60315500D01*
X238052000Y-59415500D02*
X238552000Y-60315500D01*
X238552000Y-59315500D02*
X237552000Y-59315500D01*
X237302000Y-57115500D02*
X237302000Y-62515500D01*
X238802000Y-57115500D02*
X237302000Y-57115500D01*
X192560367Y-110115614D02*
X194009256Y-109727385D01*
X194009256Y-109727385D02*
X192611633Y-104511386D01*
X192232447Y-107925872D02*
X192482472Y-106927130D01*
X193198372Y-107667053D02*
X192232447Y-107925872D01*
X192482472Y-106927130D02*
X193198372Y-107667053D01*
X192939553Y-106701128D02*
X191973628Y-106959947D01*
X191162744Y-104899615D02*
X192560367Y-110115614D01*
X192611633Y-104511386D02*
X191162744Y-104899615D01*
X213553000Y-110140500D02*
X215053000Y-110140500D01*
X215053000Y-110140500D02*
X215053000Y-104740500D01*
X213803000Y-107940500D02*
X214303000Y-107040500D01*
X214803000Y-107940500D02*
X213803000Y-107940500D01*
X214303000Y-107040500D02*
X214803000Y-107940500D01*
X214803000Y-106940500D02*
X213803000Y-106940500D01*
X213553000Y-104740500D02*
X213553000Y-110140500D01*
X215053000Y-104740500D02*
X213553000Y-104740500D01*
X256352000Y-64928500D02*
X257852000Y-64928500D01*
X257852000Y-64928500D02*
X257852000Y-59528500D01*
X256602000Y-62728500D02*
X257102000Y-61828500D01*
X257602000Y-62728500D02*
X256602000Y-62728500D01*
X257102000Y-61828500D02*
X257602000Y-62728500D01*
X257602000Y-61728500D02*
X256602000Y-61728500D01*
X256352000Y-59528500D02*
X256352000Y-64928500D01*
X257852000Y-59528500D02*
X256352000Y-59528500D01*
X275402000Y-107600500D02*
X276902000Y-107600500D01*
X276902000Y-107600500D02*
X276902000Y-102200500D01*
X275652000Y-105400500D02*
X276152000Y-104500500D01*
X276652000Y-105400500D02*
X275652000Y-105400500D01*
X276152000Y-104500500D02*
X276652000Y-105400500D01*
X276652000Y-104400500D02*
X275652000Y-104400500D01*
X275402000Y-102200500D02*
X275402000Y-107600500D01*
X276902000Y-102200500D02*
X275402000Y-102200500D01*
X218252000Y-83724500D02*
X219752000Y-83724500D01*
X219752000Y-83724500D02*
X219752000Y-78324500D01*
X218502000Y-81524500D02*
X219002000Y-80624500D01*
X219502000Y-81524500D02*
X218502000Y-81524500D01*
X219002000Y-80624500D02*
X219502000Y-81524500D01*
X219502000Y-80524500D02*
X218502000Y-80524500D01*
X218252000Y-78324500D02*
X218252000Y-83724500D01*
X219752000Y-78324500D02*
X218252000Y-78324500D01*
X256352000Y-45878500D02*
X257852000Y-45878500D01*
X257852000Y-45878500D02*
X257852000Y-40478500D01*
X256602000Y-43678500D02*
X257102000Y-42778500D01*
X257602000Y-43678500D02*
X256602000Y-43678500D01*
X257102000Y-42778500D02*
X257602000Y-43678500D01*
X257602000Y-42678500D02*
X256602000Y-42678500D01*
X256352000Y-40478500D02*
X256352000Y-45878500D01*
X257852000Y-40478500D02*
X256352000Y-40478500D01*
X171951316Y-115869604D02*
X173250354Y-115119604D01*
X173250354Y-115119604D02*
X170550354Y-110443066D01*
X171067822Y-113839348D02*
X171050835Y-112809925D01*
X171933848Y-113339348D02*
X171067822Y-113839348D01*
X171050835Y-112809925D02*
X171933848Y-113339348D01*
X171433848Y-112473322D02*
X170567822Y-112973322D01*
X169251316Y-111193066D02*
X171951316Y-115869604D01*
X170550354Y-110443066D02*
X169251316Y-111193066D01*
X156210000Y-48733500D02*
X156210000Y-58893500D01*
X153670000Y-48733500D02*
X156210000Y-48733500D01*
X156210000Y-58893500D02*
X153670000Y-58893500D01*
X153670000Y-58893500D02*
X153670000Y-48733500D01*
X275402000Y-69500500D02*
X276902000Y-69500500D01*
X276902000Y-69500500D02*
X276902000Y-64100500D01*
X275652000Y-67300500D02*
X276152000Y-66400500D01*
X276652000Y-67300500D02*
X275652000Y-67300500D01*
X276152000Y-66400500D02*
X276652000Y-67300500D01*
X276652000Y-66300500D02*
X275652000Y-66300500D01*
X275402000Y-64100500D02*
X275402000Y-69500500D01*
X276902000Y-64100500D02*
X275402000Y-64100500D01*
X180152000Y-93249500D02*
X181652000Y-93249500D01*
X181652000Y-93249500D02*
X181652000Y-87849500D01*
X180402000Y-91049500D02*
X180902000Y-90149500D01*
X181402000Y-91049500D02*
X180402000Y-91049500D01*
X180902000Y-90149500D02*
X181402000Y-91049500D01*
X181402000Y-90049500D02*
X180402000Y-90049500D01*
X180152000Y-87849500D02*
X180152000Y-93249500D01*
X181652000Y-87849500D02*
X180152000Y-87849500D01*
X174785000Y-78091500D02*
X174785000Y-76591500D01*
X174785000Y-76591500D02*
X169385000Y-76591500D01*
X172585000Y-77841500D02*
X171685000Y-77341500D01*
X172585000Y-76841500D02*
X172585000Y-77841500D01*
X171685000Y-77341500D02*
X172585000Y-76841500D01*
X171585000Y-76841500D02*
X171585000Y-77841500D01*
X169385000Y-78091500D02*
X174785000Y-78091500D01*
X169385000Y-76591500D02*
X169385000Y-78091500D01*
X237429000Y-43338500D02*
X238929000Y-43338500D01*
X238929000Y-43338500D02*
X238929000Y-37938500D01*
X237679000Y-41138500D02*
X238179000Y-40238500D01*
X238679000Y-41138500D02*
X237679000Y-41138500D01*
X238179000Y-40238500D02*
X238679000Y-41138500D01*
X238679000Y-40138500D02*
X237679000Y-40138500D01*
X237429000Y-37938500D02*
X237429000Y-43338500D01*
X238929000Y-37938500D02*
X237429000Y-37938500D01*
X218252000Y-64674500D02*
X219752000Y-64674500D01*
X219752000Y-64674500D02*
X219752000Y-59274500D01*
X218502000Y-62474500D02*
X219002000Y-61574500D01*
X219502000Y-62474500D02*
X218502000Y-62474500D01*
X219002000Y-61574500D02*
X219502000Y-62474500D01*
X219502000Y-61474500D02*
X218502000Y-61474500D01*
X218252000Y-59274500D02*
X218252000Y-64674500D01*
X219752000Y-59274500D02*
X218252000Y-59274500D01*
X199202000Y-48291500D02*
X200702000Y-48291500D01*
X200702000Y-48291500D02*
X200702000Y-42891500D01*
X199452000Y-46091500D02*
X199952000Y-45191500D01*
X200452000Y-46091500D02*
X199452000Y-46091500D01*
X199952000Y-45191500D02*
X200452000Y-46091500D01*
X200452000Y-45091500D02*
X199452000Y-45091500D01*
X199202000Y-42891500D02*
X199202000Y-48291500D01*
X200702000Y-42891500D02*
X199202000Y-42891500D01*
X256352000Y-104933500D02*
X257852000Y-104933500D01*
X257852000Y-104933500D02*
X257852000Y-99533500D01*
X256602000Y-102733500D02*
X257102000Y-101833500D01*
X257602000Y-102733500D02*
X256602000Y-102733500D01*
X257102000Y-101833500D02*
X257602000Y-102733500D01*
X257602000Y-101733500D02*
X256602000Y-101733500D01*
X256352000Y-99533500D02*
X256352000Y-104933500D01*
X257852000Y-99533500D02*
X256352000Y-99533500D01*
X256352000Y-83851500D02*
X257852000Y-83851500D01*
X257852000Y-83851500D02*
X257852000Y-78451500D01*
X256602000Y-81651500D02*
X257102000Y-80751500D01*
X257602000Y-81651500D02*
X256602000Y-81651500D01*
X257102000Y-80751500D02*
X257602000Y-81651500D01*
X257602000Y-80651500D02*
X256602000Y-80651500D01*
X256352000Y-78451500D02*
X256352000Y-83851500D01*
X257852000Y-78451500D02*
X256352000Y-78451500D01*
X275402000Y-50958500D02*
X276902000Y-50958500D01*
X276902000Y-50958500D02*
X276902000Y-45558500D01*
X275652000Y-48758500D02*
X276152000Y-47858500D01*
X276652000Y-48758500D02*
X275652000Y-48758500D01*
X276152000Y-47858500D02*
X276652000Y-48758500D01*
X276652000Y-47758500D02*
X275652000Y-47758500D01*
X275402000Y-45558500D02*
X275402000Y-50958500D01*
X276902000Y-45558500D02*
X275402000Y-45558500D01*
X275402000Y-88550500D02*
X276902000Y-88550500D01*
X276902000Y-88550500D02*
X276902000Y-83150500D01*
X275652000Y-86350500D02*
X276152000Y-85450500D01*
X276652000Y-86350500D02*
X275652000Y-86350500D01*
X276152000Y-85450500D02*
X276652000Y-86350500D01*
X276652000Y-85350500D02*
X275652000Y-85350500D01*
X275402000Y-83150500D02*
X275402000Y-88550500D01*
X276902000Y-83150500D02*
X275402000Y-83150500D01*
X40247000Y-40288588D02*
X38747000Y-40288588D01*
X38747000Y-40288588D02*
X38747000Y-45688588D01*
X39997000Y-42488588D02*
X38997000Y-42488588D01*
X39497000Y-42588588D02*
X39997000Y-43488588D01*
X39997000Y-43488588D02*
X38997000Y-43488588D01*
X38997000Y-43488588D02*
X39497000Y-42588588D01*
X40247000Y-45688588D02*
X40247000Y-40288588D01*
X38747000Y-45688588D02*
X40247000Y-45688588D01*
X83046000Y-104677588D02*
X81546000Y-104677588D01*
X81546000Y-104677588D02*
X81546000Y-110077588D01*
X82796000Y-106877588D02*
X81796000Y-106877588D01*
X82296000Y-106977588D02*
X82796000Y-107877588D01*
X82796000Y-107877588D02*
X81796000Y-107877588D01*
X81796000Y-107877588D02*
X82296000Y-106977588D01*
X83046000Y-110077588D02*
X83046000Y-104677588D01*
X81546000Y-110077588D02*
X83046000Y-110077588D01*
X59297000Y-75975588D02*
X57797000Y-75975588D01*
X57797000Y-75975588D02*
X57797000Y-81375588D01*
X59047000Y-78175588D02*
X58047000Y-78175588D01*
X58547000Y-78275588D02*
X59047000Y-79175588D01*
X59047000Y-79175588D02*
X58047000Y-79175588D01*
X58047000Y-79175588D02*
X58547000Y-78275588D01*
X59297000Y-81375588D02*
X59297000Y-75975588D01*
X57797000Y-81375588D02*
X59297000Y-81375588D01*
X78347000Y-59465588D02*
X76847000Y-59465588D01*
X76847000Y-59465588D02*
X76847000Y-64865588D01*
X78097000Y-61665588D02*
X77097000Y-61665588D01*
X77597000Y-61765588D02*
X78097000Y-62665588D01*
X78097000Y-62665588D02*
X77097000Y-62665588D01*
X77097000Y-62665588D02*
X77597000Y-61765588D01*
X78347000Y-64865588D02*
X78347000Y-59465588D01*
X76847000Y-64865588D02*
X78347000Y-64865588D01*
X97397000Y-61751588D02*
X95897000Y-61751588D01*
X95897000Y-61751588D02*
X95897000Y-67151588D01*
X97147000Y-63951588D02*
X96147000Y-63951588D01*
X96647000Y-64051588D02*
X97147000Y-64951588D01*
X97147000Y-64951588D02*
X96147000Y-64951588D01*
X96147000Y-64951588D02*
X96647000Y-64051588D01*
X97397000Y-67151588D02*
X97397000Y-61751588D01*
X95897000Y-67151588D02*
X97397000Y-67151588D01*
X21297000Y-83214588D02*
X19797000Y-83214588D01*
X19797000Y-83214588D02*
X19797000Y-88614588D01*
X21047000Y-85414588D02*
X20047000Y-85414588D01*
X20547000Y-85514588D02*
X21047000Y-86414588D01*
X21047000Y-86414588D02*
X20047000Y-86414588D01*
X20047000Y-86414588D02*
X20547000Y-85514588D01*
X21297000Y-88614588D02*
X21297000Y-83214588D01*
X19797000Y-88614588D02*
X21297000Y-88614588D01*
X116447000Y-87532588D02*
X114947000Y-87532588D01*
X114947000Y-87532588D02*
X114947000Y-92932588D01*
X116197000Y-89732588D02*
X115197000Y-89732588D01*
X115697000Y-89832588D02*
X116197000Y-90732588D01*
X116197000Y-90732588D02*
X115197000Y-90732588D01*
X115197000Y-90732588D02*
X115697000Y-89832588D01*
X116447000Y-92932588D02*
X116447000Y-87532588D01*
X114947000Y-92932588D02*
X116447000Y-92932588D01*
X97397000Y-80928588D02*
X95897000Y-80928588D01*
X95897000Y-80928588D02*
X95897000Y-86328588D01*
X97147000Y-83128588D02*
X96147000Y-83128588D01*
X96647000Y-83228588D02*
X97147000Y-84128588D01*
X97147000Y-84128588D02*
X96147000Y-84128588D01*
X96147000Y-84128588D02*
X96647000Y-83228588D01*
X97397000Y-86328588D02*
X97397000Y-80928588D01*
X95897000Y-86328588D02*
X97397000Y-86328588D01*
X21297000Y-45495588D02*
X19797000Y-45495588D01*
X19797000Y-45495588D02*
X19797000Y-50895588D01*
X21047000Y-47695588D02*
X20047000Y-47695588D01*
X20547000Y-47795588D02*
X21047000Y-48695588D01*
X21047000Y-48695588D02*
X20047000Y-48695588D01*
X20047000Y-48695588D02*
X20547000Y-47795588D01*
X21297000Y-50895588D02*
X21297000Y-45495588D01*
X19797000Y-50895588D02*
X21297000Y-50895588D01*
X40247000Y-59465588D02*
X38747000Y-59465588D01*
X38747000Y-59465588D02*
X38747000Y-64865588D01*
X39997000Y-61665588D02*
X38997000Y-61665588D01*
X39497000Y-61765588D02*
X39997000Y-62665588D01*
X39997000Y-62665588D02*
X38997000Y-62665588D01*
X38997000Y-62665588D02*
X39497000Y-61765588D01*
X40247000Y-64865588D02*
X40247000Y-59465588D01*
X38747000Y-64865588D02*
X40247000Y-64865588D01*
X59297000Y-37875588D02*
X57797000Y-37875588D01*
X57797000Y-37875588D02*
X57797000Y-43275588D01*
X59047000Y-40075588D02*
X58047000Y-40075588D01*
X58547000Y-40175588D02*
X59047000Y-41075588D01*
X59047000Y-41075588D02*
X58047000Y-41075588D01*
X58047000Y-41075588D02*
X58547000Y-40175588D01*
X59297000Y-43275588D02*
X59297000Y-37875588D01*
X57797000Y-43275588D02*
X59297000Y-43275588D01*
X105563256Y-104963703D02*
X104114367Y-104575474D01*
X104114367Y-104575474D02*
X102716744Y-109791473D01*
X104752372Y-107024035D02*
X103786447Y-106765216D01*
X104243528Y-106991218D02*
X104493553Y-107989960D01*
X104493553Y-107989960D02*
X103527628Y-107731141D01*
X103527628Y-107731141D02*
X104243528Y-106991218D01*
X104165633Y-110179702D02*
X105563256Y-104963703D01*
X102716744Y-109791473D02*
X104165633Y-110179702D01*
X78347000Y-78515588D02*
X76847000Y-78515588D01*
X76847000Y-78515588D02*
X76847000Y-83915588D01*
X78097000Y-80715588D02*
X77097000Y-80715588D01*
X77597000Y-80815588D02*
X78097000Y-81715588D01*
X78097000Y-81715588D02*
X77097000Y-81715588D01*
X77097000Y-81715588D02*
X77597000Y-80815588D01*
X78347000Y-83915588D02*
X78347000Y-78515588D01*
X76847000Y-83915588D02*
X78347000Y-83915588D01*
X40247000Y-97565588D02*
X38747000Y-97565588D01*
X38747000Y-97565588D02*
X38747000Y-102965588D01*
X39997000Y-99765588D02*
X38997000Y-99765588D01*
X39497000Y-99865588D02*
X39997000Y-100765588D01*
X39997000Y-100765588D02*
X38997000Y-100765588D01*
X38997000Y-100765588D02*
X39497000Y-99865588D01*
X40247000Y-102965588D02*
X40247000Y-97565588D01*
X38747000Y-102965588D02*
X40247000Y-102965588D01*
X21297000Y-102391588D02*
X19797000Y-102391588D01*
X19797000Y-102391588D02*
X19797000Y-107791588D01*
X21047000Y-104591588D02*
X20047000Y-104591588D01*
X20547000Y-104691588D02*
X21047000Y-105591588D01*
X21047000Y-105591588D02*
X20047000Y-105591588D01*
X20047000Y-105591588D02*
X20547000Y-104691588D01*
X21297000Y-107791588D02*
X21297000Y-102391588D01*
X19797000Y-107791588D02*
X21297000Y-107791588D01*
X59297000Y-95152588D02*
X57797000Y-95152588D01*
X57797000Y-95152588D02*
X57797000Y-100552588D01*
X59047000Y-97352588D02*
X58047000Y-97352588D01*
X58547000Y-97452588D02*
X59047000Y-98352588D01*
X59047000Y-98352588D02*
X58047000Y-98352588D01*
X58047000Y-98352588D02*
X58547000Y-97452588D01*
X59297000Y-100552588D02*
X59297000Y-95152588D01*
X57797000Y-100552588D02*
X59297000Y-100552588D01*
X127347685Y-110876154D02*
X126048647Y-110126154D01*
X126048647Y-110126154D02*
X123348647Y-114802692D01*
X126031179Y-112656410D02*
X125165153Y-112156410D01*
X125548166Y-112493013D02*
X125531179Y-113522436D01*
X125531179Y-113522436D02*
X124665153Y-113022436D01*
X124665153Y-113022436D02*
X125548166Y-112493013D01*
X124647685Y-115552692D02*
X127347685Y-110876154D01*
X123348647Y-114802692D02*
X124647685Y-115552692D01*
X59297000Y-57052588D02*
X57797000Y-57052588D01*
X57797000Y-57052588D02*
X57797000Y-62452588D01*
X59047000Y-59252588D02*
X58047000Y-59252588D01*
X58547000Y-59352588D02*
X59047000Y-60252588D01*
X59047000Y-60252588D02*
X58047000Y-60252588D01*
X58047000Y-60252588D02*
X58547000Y-59352588D01*
X59297000Y-62452588D02*
X59297000Y-57052588D01*
X57797000Y-62452588D02*
X59297000Y-62452588D01*
X140462000Y-58888000D02*
X140462000Y-48728000D01*
X143002000Y-58888000D02*
X140462000Y-58888000D01*
X140462000Y-48728000D02*
X143002000Y-48728000D01*
X143002000Y-48728000D02*
X143002000Y-58888000D01*
X40247000Y-78388588D02*
X38747000Y-78388588D01*
X38747000Y-78388588D02*
X38747000Y-83788588D01*
X39997000Y-80588588D02*
X38997000Y-80588588D01*
X39497000Y-80688588D02*
X39997000Y-81588588D01*
X39997000Y-81588588D02*
X38997000Y-81588588D01*
X38997000Y-81588588D02*
X39497000Y-80688588D01*
X40247000Y-83788588D02*
X40247000Y-78388588D01*
X38747000Y-83788588D02*
X40247000Y-83788588D01*
X78347000Y-40161588D02*
X76847000Y-40161588D01*
X76847000Y-40161588D02*
X76847000Y-45561588D01*
X78097000Y-42361588D02*
X77097000Y-42361588D01*
X77597000Y-42461588D02*
X78097000Y-43361588D01*
X78097000Y-43361588D02*
X77097000Y-43361588D01*
X77097000Y-43361588D02*
X77597000Y-42461588D01*
X78347000Y-45561588D02*
X78347000Y-40161588D01*
X76847000Y-45561588D02*
X78347000Y-45561588D01*
X126401000Y-78594000D02*
X126401000Y-77094000D01*
X126401000Y-77094000D02*
X121001000Y-77094000D01*
X124201000Y-78344000D02*
X124201000Y-77344000D01*
X124101000Y-77844000D02*
X123201000Y-78344000D01*
X123201000Y-78344000D02*
X123201000Y-77344000D01*
X123201000Y-77344000D02*
X124101000Y-77844000D01*
X121001000Y-78594000D02*
X126401000Y-78594000D01*
X121001000Y-77094000D02*
X121001000Y-78594000D01*
X21297000Y-64291588D02*
X19797000Y-64291588D01*
X19797000Y-64291588D02*
X19797000Y-69691588D01*
X21047000Y-66491588D02*
X20047000Y-66491588D01*
X20547000Y-66591588D02*
X21047000Y-67491588D01*
X21047000Y-67491588D02*
X20047000Y-67491588D01*
X20047000Y-67491588D02*
X20547000Y-66591588D01*
X21297000Y-69691588D02*
X21297000Y-64291588D01*
X19797000Y-69691588D02*
X21297000Y-69691588D01*
X126698000Y-74768000D02*
X120698000Y-74768000D01*
X126698000Y-74518000D02*
X126698000Y-74768000D01*
X126698000Y-71268000D02*
X126698000Y-71518000D01*
X120698000Y-74768000D02*
X120698000Y-74518000D01*
X120698000Y-71518000D02*
X120698000Y-71268000D01*
X120698000Y-71268000D02*
X126698000Y-71268000D01*
X97397000Y-42574588D02*
X95897000Y-42574588D01*
X95897000Y-42574588D02*
X95897000Y-47974588D01*
X97147000Y-44774588D02*
X96147000Y-44774588D01*
X96647000Y-44874588D02*
X97147000Y-45774588D01*
X97147000Y-45774588D02*
X96147000Y-45774588D01*
X96147000Y-45774588D02*
X96647000Y-44874588D01*
X97397000Y-47974588D02*
X97397000Y-42574588D01*
X95897000Y-47974588D02*
X97397000Y-47974588D01*
M02*
