G04 #@! TF.GenerationSoftware,KiCad,Pcbnew,7.0.10*
G04 #@! TF.CreationDate,2024-09-26T00:25:04+09:00*
G04 #@! TF.ProjectId,keyboard_denchi,6b657962-6f61-4726-945f-64656e636869,rev?*
G04 #@! TF.SameCoordinates,Original*
G04 #@! TF.FileFunction,Legend,Top*
G04 #@! TF.FilePolarity,Positive*
%FSLAX46Y46*%
G04 Gerber Fmt 4.6, Leading zero omitted, Abs format (unit mm)*
G04 Created by KiCad (PCBNEW 7.0.10) date 2024-09-26 00:25:04*
%MOMM*%
%LPD*%
G01*
G04 APERTURE LIST*
G04 Aperture macros list*
%AMRotRect*
0 Rectangle, with rotation*
0 The origin of the aperture is its center*
0 $1 length*
0 $2 width*
0 $3 Rotation angle, in degrees counterclockwise*
0 Add horizontal line*
21,1,$1,$2,0,0,$3*%
G04 Aperture macros list end*
%ADD10C,0.150000*%
%ADD11C,0.125000*%
%ADD12C,0.120000*%
%ADD13C,1.397000*%
%ADD14R,1.397000X1.397000*%
%ADD15RotRect,1.397000X1.397000X285.000000*%
%ADD16RotRect,1.397000X1.397000X300.000000*%
%ADD17RotRect,1.397000X1.397000X255.000000*%
%ADD18RotRect,1.397000X1.397000X240.000000*%
G04 APERTURE END LIST*
D10*
X169759571Y-72970319D02*
X169759571Y-72303652D01*
X169759571Y-72494128D02*
X169807190Y-72398890D01*
X169807190Y-72398890D02*
X169854809Y-72351271D01*
X169854809Y-72351271D02*
X169950047Y-72303652D01*
X169950047Y-72303652D02*
X170045285Y-72303652D01*
X170331000Y-72922700D02*
X170473857Y-72970319D01*
X170473857Y-72970319D02*
X170711952Y-72970319D01*
X170711952Y-72970319D02*
X170807190Y-72922700D01*
X170807190Y-72922700D02*
X170854809Y-72875080D01*
X170854809Y-72875080D02*
X170902428Y-72779842D01*
X170902428Y-72779842D02*
X170902428Y-72684604D01*
X170902428Y-72684604D02*
X170854809Y-72589366D01*
X170854809Y-72589366D02*
X170807190Y-72541747D01*
X170807190Y-72541747D02*
X170711952Y-72494128D01*
X170711952Y-72494128D02*
X170521476Y-72446509D01*
X170521476Y-72446509D02*
X170426238Y-72398890D01*
X170426238Y-72398890D02*
X170378619Y-72351271D01*
X170378619Y-72351271D02*
X170331000Y-72256033D01*
X170331000Y-72256033D02*
X170331000Y-72160795D01*
X170331000Y-72160795D02*
X170378619Y-72065557D01*
X170378619Y-72065557D02*
X170426238Y-72017938D01*
X170426238Y-72017938D02*
X170521476Y-71970319D01*
X170521476Y-71970319D02*
X170759571Y-71970319D01*
X170759571Y-71970319D02*
X170902428Y-72017938D01*
X171235762Y-71970319D02*
X171473857Y-72970319D01*
X171473857Y-72970319D02*
X171664333Y-72256033D01*
X171664333Y-72256033D02*
X171854809Y-72970319D01*
X171854809Y-72970319D02*
X172092905Y-71970319D01*
X172426238Y-72065557D02*
X172473857Y-72017938D01*
X172473857Y-72017938D02*
X172569095Y-71970319D01*
X172569095Y-71970319D02*
X172807190Y-71970319D01*
X172807190Y-71970319D02*
X172902428Y-72017938D01*
X172902428Y-72017938D02*
X172950047Y-72065557D01*
X172950047Y-72065557D02*
X172997666Y-72160795D01*
X172997666Y-72160795D02*
X172997666Y-72256033D01*
X172997666Y-72256033D02*
X172950047Y-72398890D01*
X172950047Y-72398890D02*
X172378619Y-72970319D01*
X172378619Y-72970319D02*
X172997666Y-72970319D01*
X173331000Y-71970319D02*
X173950047Y-71970319D01*
X173950047Y-71970319D02*
X173616714Y-72351271D01*
X173616714Y-72351271D02*
X173759571Y-72351271D01*
X173759571Y-72351271D02*
X173854809Y-72398890D01*
X173854809Y-72398890D02*
X173902428Y-72446509D01*
X173902428Y-72446509D02*
X173950047Y-72541747D01*
X173950047Y-72541747D02*
X173950047Y-72779842D01*
X173950047Y-72779842D02*
X173902428Y-72875080D01*
X173902428Y-72875080D02*
X173854809Y-72922700D01*
X173854809Y-72922700D02*
X173759571Y-72970319D01*
X173759571Y-72970319D02*
X173473857Y-72970319D01*
X173473857Y-72970319D02*
X173378619Y-72922700D01*
X173378619Y-72922700D02*
X173331000Y-72875080D01*
X157034819Y-76878904D02*
X157034819Y-76307476D01*
X158034819Y-76593190D02*
X157034819Y-76593190D01*
X158034819Y-75402714D02*
X157558628Y-75736047D01*
X158034819Y-75974142D02*
X157034819Y-75974142D01*
X157034819Y-75974142D02*
X157034819Y-75593190D01*
X157034819Y-75593190D02*
X157082438Y-75497952D01*
X157082438Y-75497952D02*
X157130057Y-75450333D01*
X157130057Y-75450333D02*
X157225295Y-75402714D01*
X157225295Y-75402714D02*
X157368152Y-75402714D01*
X157368152Y-75402714D02*
X157463390Y-75450333D01*
X157463390Y-75450333D02*
X157511009Y-75497952D01*
X157511009Y-75497952D02*
X157558628Y-75593190D01*
X157558628Y-75593190D02*
X157558628Y-75974142D01*
X158034819Y-74402714D02*
X157558628Y-74736047D01*
X158034819Y-74974142D02*
X157034819Y-74974142D01*
X157034819Y-74974142D02*
X157034819Y-74593190D01*
X157034819Y-74593190D02*
X157082438Y-74497952D01*
X157082438Y-74497952D02*
X157130057Y-74450333D01*
X157130057Y-74450333D02*
X157225295Y-74402714D01*
X157225295Y-74402714D02*
X157368152Y-74402714D01*
X157368152Y-74402714D02*
X157463390Y-74450333D01*
X157463390Y-74450333D02*
X157511009Y-74497952D01*
X157511009Y-74497952D02*
X157558628Y-74593190D01*
X157558628Y-74593190D02*
X157558628Y-74974142D01*
X157987200Y-74021761D02*
X158034819Y-73878904D01*
X158034819Y-73878904D02*
X158034819Y-73640809D01*
X158034819Y-73640809D02*
X157987200Y-73545571D01*
X157987200Y-73545571D02*
X157939580Y-73497952D01*
X157939580Y-73497952D02*
X157844342Y-73450333D01*
X157844342Y-73450333D02*
X157749104Y-73450333D01*
X157749104Y-73450333D02*
X157653866Y-73497952D01*
X157653866Y-73497952D02*
X157606247Y-73545571D01*
X157606247Y-73545571D02*
X157558628Y-73640809D01*
X157558628Y-73640809D02*
X157511009Y-73831285D01*
X157511009Y-73831285D02*
X157463390Y-73926523D01*
X157463390Y-73926523D02*
X157415771Y-73974142D01*
X157415771Y-73974142D02*
X157320533Y-74021761D01*
X157320533Y-74021761D02*
X157225295Y-74021761D01*
X157225295Y-74021761D02*
X157130057Y-73974142D01*
X157130057Y-73974142D02*
X157082438Y-73926523D01*
X157082438Y-73926523D02*
X157034819Y-73831285D01*
X157034819Y-73831285D02*
X157034819Y-73593190D01*
X157034819Y-73593190D02*
X157082438Y-73450333D01*
X152294819Y-55275880D02*
X152294819Y-55085404D01*
X152294819Y-55085404D02*
X152342438Y-54990166D01*
X152342438Y-54990166D02*
X152437676Y-54894928D01*
X152437676Y-54894928D02*
X152628152Y-54847309D01*
X152628152Y-54847309D02*
X152961485Y-54847309D01*
X152961485Y-54847309D02*
X153151961Y-54894928D01*
X153151961Y-54894928D02*
X153247200Y-54990166D01*
X153247200Y-54990166D02*
X153294819Y-55085404D01*
X153294819Y-55085404D02*
X153294819Y-55275880D01*
X153294819Y-55275880D02*
X153247200Y-55371118D01*
X153247200Y-55371118D02*
X153151961Y-55466356D01*
X153151961Y-55466356D02*
X152961485Y-55513975D01*
X152961485Y-55513975D02*
X152628152Y-55513975D01*
X152628152Y-55513975D02*
X152437676Y-55466356D01*
X152437676Y-55466356D02*
X152342438Y-55371118D01*
X152342438Y-55371118D02*
X152294819Y-55275880D01*
X153294819Y-53942547D02*
X153294819Y-54418737D01*
X153294819Y-54418737D02*
X152294819Y-54418737D01*
X152771009Y-53609213D02*
X152771009Y-53275880D01*
X153294819Y-53133023D02*
X153294819Y-53609213D01*
X153294819Y-53609213D02*
X152294819Y-53609213D01*
X152294819Y-53609213D02*
X152294819Y-53133023D01*
X153294819Y-52704451D02*
X152294819Y-52704451D01*
X152294819Y-52704451D02*
X152294819Y-52466356D01*
X152294819Y-52466356D02*
X152342438Y-52323499D01*
X152342438Y-52323499D02*
X152437676Y-52228261D01*
X152437676Y-52228261D02*
X152532914Y-52180642D01*
X152532914Y-52180642D02*
X152723390Y-52133023D01*
X152723390Y-52133023D02*
X152866247Y-52133023D01*
X152866247Y-52133023D02*
X153056723Y-52180642D01*
X153056723Y-52180642D02*
X153151961Y-52228261D01*
X153151961Y-52228261D02*
X153247200Y-52323499D01*
X153247200Y-52323499D02*
X153294819Y-52466356D01*
X153294819Y-52466356D02*
X153294819Y-52704451D01*
D11*
X161232686Y-57528678D02*
X161551733Y-57528678D01*
X161168876Y-57742964D02*
X161392209Y-56992964D01*
X161392209Y-56992964D02*
X161615543Y-57742964D01*
X161966495Y-56992964D02*
X162030305Y-56992964D01*
X162030305Y-56992964D02*
X162094114Y-57028678D01*
X162094114Y-57028678D02*
X162126019Y-57064392D01*
X162126019Y-57064392D02*
X162157924Y-57135821D01*
X162157924Y-57135821D02*
X162189829Y-57278678D01*
X162189829Y-57278678D02*
X162189829Y-57457250D01*
X162189829Y-57457250D02*
X162157924Y-57600107D01*
X162157924Y-57600107D02*
X162126019Y-57671535D01*
X162126019Y-57671535D02*
X162094114Y-57707250D01*
X162094114Y-57707250D02*
X162030305Y-57742964D01*
X162030305Y-57742964D02*
X161966495Y-57742964D01*
X161966495Y-57742964D02*
X161902686Y-57707250D01*
X161902686Y-57707250D02*
X161870781Y-57671535D01*
X161870781Y-57671535D02*
X161838876Y-57600107D01*
X161838876Y-57600107D02*
X161806972Y-57457250D01*
X161806972Y-57457250D02*
X161806972Y-57278678D01*
X161806972Y-57278678D02*
X161838876Y-57135821D01*
X161838876Y-57135821D02*
X161870781Y-57064392D01*
X161870781Y-57064392D02*
X161902686Y-57028678D01*
X161902686Y-57028678D02*
X161966495Y-56992964D01*
X162955543Y-56957250D02*
X162381257Y-57921535D01*
X163402210Y-57350107D02*
X163178876Y-57350107D01*
X163178876Y-57742964D02*
X163178876Y-56992964D01*
X163178876Y-56992964D02*
X163497924Y-56992964D01*
X163689353Y-56992964D02*
X164136019Y-56992964D01*
X164136019Y-56992964D02*
X163848877Y-57742964D01*
X161232686Y-52448678D02*
X161551733Y-52448678D01*
X161168876Y-52662964D02*
X161392209Y-51912964D01*
X161392209Y-51912964D02*
X161615543Y-52662964D01*
X161806972Y-51984392D02*
X161838876Y-51948678D01*
X161838876Y-51948678D02*
X161902686Y-51912964D01*
X161902686Y-51912964D02*
X162062210Y-51912964D01*
X162062210Y-51912964D02*
X162126019Y-51948678D01*
X162126019Y-51948678D02*
X162157924Y-51984392D01*
X162157924Y-51984392D02*
X162189829Y-52055821D01*
X162189829Y-52055821D02*
X162189829Y-52127250D01*
X162189829Y-52127250D02*
X162157924Y-52234392D01*
X162157924Y-52234392D02*
X161775067Y-52662964D01*
X161775067Y-52662964D02*
X162189829Y-52662964D01*
X162955543Y-51877250D02*
X162381257Y-52841535D01*
X163402210Y-52270107D02*
X163178876Y-52270107D01*
X163178876Y-52662964D02*
X163178876Y-51912964D01*
X163178876Y-51912964D02*
X163497924Y-51912964D01*
X164072210Y-51912964D02*
X163753162Y-51912964D01*
X163753162Y-51912964D02*
X163721258Y-52270107D01*
X163721258Y-52270107D02*
X163753162Y-52234392D01*
X163753162Y-52234392D02*
X163816972Y-52198678D01*
X163816972Y-52198678D02*
X163976496Y-52198678D01*
X163976496Y-52198678D02*
X164040305Y-52234392D01*
X164040305Y-52234392D02*
X164072210Y-52270107D01*
X164072210Y-52270107D02*
X164104115Y-52341535D01*
X164104115Y-52341535D02*
X164104115Y-52520107D01*
X164104115Y-52520107D02*
X164072210Y-52591535D01*
X164072210Y-52591535D02*
X164040305Y-52627250D01*
X164040305Y-52627250D02*
X163976496Y-52662964D01*
X163976496Y-52662964D02*
X163816972Y-52662964D01*
X163816972Y-52662964D02*
X163753162Y-52627250D01*
X163753162Y-52627250D02*
X163721258Y-52591535D01*
X161232686Y-54988678D02*
X161551733Y-54988678D01*
X161168876Y-55202964D02*
X161392209Y-54452964D01*
X161392209Y-54452964D02*
X161615543Y-55202964D01*
X162189829Y-55202964D02*
X161806972Y-55202964D01*
X161998400Y-55202964D02*
X161998400Y-54452964D01*
X161998400Y-54452964D02*
X161934591Y-54560107D01*
X161934591Y-54560107D02*
X161870781Y-54631535D01*
X161870781Y-54631535D02*
X161806972Y-54667250D01*
X162955543Y-54417250D02*
X162381257Y-55381535D01*
X163402210Y-54810107D02*
X163178876Y-54810107D01*
X163178876Y-55202964D02*
X163178876Y-54452964D01*
X163178876Y-54452964D02*
X163497924Y-54452964D01*
X164040305Y-54452964D02*
X163912686Y-54452964D01*
X163912686Y-54452964D02*
X163848877Y-54488678D01*
X163848877Y-54488678D02*
X163816972Y-54524392D01*
X163816972Y-54524392D02*
X163753162Y-54631535D01*
X163753162Y-54631535D02*
X163721258Y-54774392D01*
X163721258Y-54774392D02*
X163721258Y-55060107D01*
X163721258Y-55060107D02*
X163753162Y-55131535D01*
X163753162Y-55131535D02*
X163785067Y-55167250D01*
X163785067Y-55167250D02*
X163848877Y-55202964D01*
X163848877Y-55202964D02*
X163976496Y-55202964D01*
X163976496Y-55202964D02*
X164040305Y-55167250D01*
X164040305Y-55167250D02*
X164072210Y-55131535D01*
X164072210Y-55131535D02*
X164104115Y-55060107D01*
X164104115Y-55060107D02*
X164104115Y-54881535D01*
X164104115Y-54881535D02*
X164072210Y-54810107D01*
X164072210Y-54810107D02*
X164040305Y-54774392D01*
X164040305Y-54774392D02*
X163976496Y-54738678D01*
X163976496Y-54738678D02*
X163848877Y-54738678D01*
X163848877Y-54738678D02*
X163785067Y-54774392D01*
X163785067Y-54774392D02*
X163753162Y-54810107D01*
X163753162Y-54810107D02*
X163721258Y-54881535D01*
X169476733Y-42502964D02*
X169476733Y-41752964D01*
X169476733Y-41752964D02*
X169636257Y-41752964D01*
X169636257Y-41752964D02*
X169731971Y-41788678D01*
X169731971Y-41788678D02*
X169795781Y-41860107D01*
X169795781Y-41860107D02*
X169827686Y-41931535D01*
X169827686Y-41931535D02*
X169859590Y-42074392D01*
X169859590Y-42074392D02*
X169859590Y-42181535D01*
X169859590Y-42181535D02*
X169827686Y-42324392D01*
X169827686Y-42324392D02*
X169795781Y-42395821D01*
X169795781Y-42395821D02*
X169731971Y-42467250D01*
X169731971Y-42467250D02*
X169636257Y-42502964D01*
X169636257Y-42502964D02*
X169476733Y-42502964D01*
X170114829Y-41824392D02*
X170146733Y-41788678D01*
X170146733Y-41788678D02*
X170210543Y-41752964D01*
X170210543Y-41752964D02*
X170370067Y-41752964D01*
X170370067Y-41752964D02*
X170433876Y-41788678D01*
X170433876Y-41788678D02*
X170465781Y-41824392D01*
X170465781Y-41824392D02*
X170497686Y-41895821D01*
X170497686Y-41895821D02*
X170497686Y-41967250D01*
X170497686Y-41967250D02*
X170465781Y-42074392D01*
X170465781Y-42074392D02*
X170082924Y-42502964D01*
X170082924Y-42502964D02*
X170497686Y-42502964D01*
X171263400Y-41717250D02*
X170689114Y-42681535D01*
X171869590Y-42502964D02*
X171646257Y-42145821D01*
X171486733Y-42502964D02*
X171486733Y-41752964D01*
X171486733Y-41752964D02*
X171741971Y-41752964D01*
X171741971Y-41752964D02*
X171805781Y-41788678D01*
X171805781Y-41788678D02*
X171837686Y-41824392D01*
X171837686Y-41824392D02*
X171869590Y-41895821D01*
X171869590Y-41895821D02*
X171869590Y-42002964D01*
X171869590Y-42002964D02*
X171837686Y-42074392D01*
X171837686Y-42074392D02*
X171805781Y-42110107D01*
X171805781Y-42110107D02*
X171741971Y-42145821D01*
X171741971Y-42145821D02*
X171486733Y-42145821D01*
X172092924Y-41752964D02*
X172539590Y-42502964D01*
X172539590Y-41752964D02*
X172092924Y-42502964D01*
X173145781Y-42502964D02*
X172762924Y-42502964D01*
X172954352Y-42502964D02*
X172954352Y-41752964D01*
X172954352Y-41752964D02*
X172890543Y-41860107D01*
X172890543Y-41860107D02*
X172826733Y-41931535D01*
X172826733Y-41931535D02*
X172762924Y-41967250D01*
X161168876Y-46832964D02*
X161392209Y-47582964D01*
X161392209Y-47582964D02*
X161615543Y-46832964D01*
X162221733Y-47511535D02*
X162189829Y-47547250D01*
X162189829Y-47547250D02*
X162094114Y-47582964D01*
X162094114Y-47582964D02*
X162030305Y-47582964D01*
X162030305Y-47582964D02*
X161934591Y-47547250D01*
X161934591Y-47547250D02*
X161870781Y-47475821D01*
X161870781Y-47475821D02*
X161838876Y-47404392D01*
X161838876Y-47404392D02*
X161806972Y-47261535D01*
X161806972Y-47261535D02*
X161806972Y-47154392D01*
X161806972Y-47154392D02*
X161838876Y-47011535D01*
X161838876Y-47011535D02*
X161870781Y-46940107D01*
X161870781Y-46940107D02*
X161934591Y-46868678D01*
X161934591Y-46868678D02*
X162030305Y-46832964D01*
X162030305Y-46832964D02*
X162094114Y-46832964D01*
X162094114Y-46832964D02*
X162189829Y-46868678D01*
X162189829Y-46868678D02*
X162221733Y-46904392D01*
X162891733Y-47511535D02*
X162859829Y-47547250D01*
X162859829Y-47547250D02*
X162764114Y-47582964D01*
X162764114Y-47582964D02*
X162700305Y-47582964D01*
X162700305Y-47582964D02*
X162604591Y-47547250D01*
X162604591Y-47547250D02*
X162540781Y-47475821D01*
X162540781Y-47475821D02*
X162508876Y-47404392D01*
X162508876Y-47404392D02*
X162476972Y-47261535D01*
X162476972Y-47261535D02*
X162476972Y-47154392D01*
X162476972Y-47154392D02*
X162508876Y-47011535D01*
X162508876Y-47011535D02*
X162540781Y-46940107D01*
X162540781Y-46940107D02*
X162604591Y-46868678D01*
X162604591Y-46868678D02*
X162700305Y-46832964D01*
X162700305Y-46832964D02*
X162764114Y-46832964D01*
X162764114Y-46832964D02*
X162859829Y-46868678D01*
X162859829Y-46868678D02*
X162891733Y-46904392D01*
X170784828Y-55202964D02*
X170784828Y-54452964D01*
X170784828Y-54452964D02*
X170944352Y-54452964D01*
X170944352Y-54452964D02*
X171040066Y-54488678D01*
X171040066Y-54488678D02*
X171103876Y-54560107D01*
X171103876Y-54560107D02*
X171135781Y-54631535D01*
X171135781Y-54631535D02*
X171167685Y-54774392D01*
X171167685Y-54774392D02*
X171167685Y-54881535D01*
X171167685Y-54881535D02*
X171135781Y-55024392D01*
X171135781Y-55024392D02*
X171103876Y-55095821D01*
X171103876Y-55095821D02*
X171040066Y-55167250D01*
X171040066Y-55167250D02*
X170944352Y-55202964D01*
X170944352Y-55202964D02*
X170784828Y-55202964D01*
X171741971Y-54702964D02*
X171741971Y-55202964D01*
X171582447Y-54417250D02*
X171422924Y-54952964D01*
X171422924Y-54952964D02*
X171837685Y-54952964D01*
X172571495Y-54417250D02*
X171997209Y-55381535D01*
X173081971Y-54702964D02*
X173081971Y-55202964D01*
X172922447Y-54417250D02*
X172762924Y-54952964D01*
X172762924Y-54952964D02*
X173177685Y-54952964D01*
X168200543Y-52627250D02*
X168296257Y-52662964D01*
X168296257Y-52662964D02*
X168455781Y-52662964D01*
X168455781Y-52662964D02*
X168519590Y-52627250D01*
X168519590Y-52627250D02*
X168551495Y-52591535D01*
X168551495Y-52591535D02*
X168583400Y-52520107D01*
X168583400Y-52520107D02*
X168583400Y-52448678D01*
X168583400Y-52448678D02*
X168551495Y-52377250D01*
X168551495Y-52377250D02*
X168519590Y-52341535D01*
X168519590Y-52341535D02*
X168455781Y-52305821D01*
X168455781Y-52305821D02*
X168328162Y-52270107D01*
X168328162Y-52270107D02*
X168264352Y-52234392D01*
X168264352Y-52234392D02*
X168232447Y-52198678D01*
X168232447Y-52198678D02*
X168200543Y-52127250D01*
X168200543Y-52127250D02*
X168200543Y-52055821D01*
X168200543Y-52055821D02*
X168232447Y-51984392D01*
X168232447Y-51984392D02*
X168264352Y-51948678D01*
X168264352Y-51948678D02*
X168328162Y-51912964D01*
X168328162Y-51912964D02*
X168487685Y-51912964D01*
X168487685Y-51912964D02*
X168583400Y-51948678D01*
X169253399Y-52591535D02*
X169221495Y-52627250D01*
X169221495Y-52627250D02*
X169125780Y-52662964D01*
X169125780Y-52662964D02*
X169061971Y-52662964D01*
X169061971Y-52662964D02*
X168966257Y-52627250D01*
X168966257Y-52627250D02*
X168902447Y-52555821D01*
X168902447Y-52555821D02*
X168870542Y-52484392D01*
X168870542Y-52484392D02*
X168838638Y-52341535D01*
X168838638Y-52341535D02*
X168838638Y-52234392D01*
X168838638Y-52234392D02*
X168870542Y-52091535D01*
X168870542Y-52091535D02*
X168902447Y-52020107D01*
X168902447Y-52020107D02*
X168966257Y-51948678D01*
X168966257Y-51948678D02*
X169061971Y-51912964D01*
X169061971Y-51912964D02*
X169125780Y-51912964D01*
X169125780Y-51912964D02*
X169221495Y-51948678D01*
X169221495Y-51948678D02*
X169253399Y-51984392D01*
X169859590Y-52662964D02*
X169540542Y-52662964D01*
X169540542Y-52662964D02*
X169540542Y-51912964D01*
X170561495Y-51877250D02*
X169987209Y-52841535D01*
X170784828Y-52662964D02*
X170784828Y-51912964D01*
X170784828Y-51912964D02*
X170944352Y-51912964D01*
X170944352Y-51912964D02*
X171040066Y-51948678D01*
X171040066Y-51948678D02*
X171103876Y-52020107D01*
X171103876Y-52020107D02*
X171135781Y-52091535D01*
X171135781Y-52091535D02*
X171167685Y-52234392D01*
X171167685Y-52234392D02*
X171167685Y-52341535D01*
X171167685Y-52341535D02*
X171135781Y-52484392D01*
X171135781Y-52484392D02*
X171103876Y-52555821D01*
X171103876Y-52555821D02*
X171040066Y-52627250D01*
X171040066Y-52627250D02*
X170944352Y-52662964D01*
X170944352Y-52662964D02*
X170784828Y-52662964D01*
X171582447Y-51912964D02*
X171646257Y-51912964D01*
X171646257Y-51912964D02*
X171710066Y-51948678D01*
X171710066Y-51948678D02*
X171741971Y-51984392D01*
X171741971Y-51984392D02*
X171773876Y-52055821D01*
X171773876Y-52055821D02*
X171805781Y-52198678D01*
X171805781Y-52198678D02*
X171805781Y-52377250D01*
X171805781Y-52377250D02*
X171773876Y-52520107D01*
X171773876Y-52520107D02*
X171741971Y-52591535D01*
X171741971Y-52591535D02*
X171710066Y-52627250D01*
X171710066Y-52627250D02*
X171646257Y-52662964D01*
X171646257Y-52662964D02*
X171582447Y-52662964D01*
X171582447Y-52662964D02*
X171518638Y-52627250D01*
X171518638Y-52627250D02*
X171486733Y-52591535D01*
X171486733Y-52591535D02*
X171454828Y-52520107D01*
X171454828Y-52520107D02*
X171422924Y-52377250D01*
X171422924Y-52377250D02*
X171422924Y-52198678D01*
X171422924Y-52198678D02*
X171454828Y-52055821D01*
X171454828Y-52055821D02*
X171486733Y-51984392D01*
X171486733Y-51984392D02*
X171518638Y-51948678D01*
X171518638Y-51948678D02*
X171582447Y-51912964D01*
X172571495Y-51877250D02*
X171997209Y-52841535D01*
X172731019Y-51912964D02*
X173145781Y-51912964D01*
X173145781Y-51912964D02*
X172922447Y-52198678D01*
X172922447Y-52198678D02*
X173018162Y-52198678D01*
X173018162Y-52198678D02*
X173081971Y-52234392D01*
X173081971Y-52234392D02*
X173113876Y-52270107D01*
X173113876Y-52270107D02*
X173145781Y-52341535D01*
X173145781Y-52341535D02*
X173145781Y-52520107D01*
X173145781Y-52520107D02*
X173113876Y-52591535D01*
X173113876Y-52591535D02*
X173081971Y-52627250D01*
X173081971Y-52627250D02*
X173018162Y-52662964D01*
X173018162Y-52662964D02*
X172826733Y-52662964D01*
X172826733Y-52662964D02*
X172762924Y-52627250D01*
X172762924Y-52627250D02*
X172731019Y-52591535D01*
X161615543Y-41788678D02*
X161551733Y-41752964D01*
X161551733Y-41752964D02*
X161456019Y-41752964D01*
X161456019Y-41752964D02*
X161360305Y-41788678D01*
X161360305Y-41788678D02*
X161296495Y-41860107D01*
X161296495Y-41860107D02*
X161264590Y-41931535D01*
X161264590Y-41931535D02*
X161232686Y-42074392D01*
X161232686Y-42074392D02*
X161232686Y-42181535D01*
X161232686Y-42181535D02*
X161264590Y-42324392D01*
X161264590Y-42324392D02*
X161296495Y-42395821D01*
X161296495Y-42395821D02*
X161360305Y-42467250D01*
X161360305Y-42467250D02*
X161456019Y-42502964D01*
X161456019Y-42502964D02*
X161519828Y-42502964D01*
X161519828Y-42502964D02*
X161615543Y-42467250D01*
X161615543Y-42467250D02*
X161647447Y-42431535D01*
X161647447Y-42431535D02*
X161647447Y-42181535D01*
X161647447Y-42181535D02*
X161519828Y-42181535D01*
X161934590Y-42502964D02*
X161934590Y-41752964D01*
X161934590Y-41752964D02*
X162317447Y-42502964D01*
X162317447Y-42502964D02*
X162317447Y-41752964D01*
X162636495Y-42502964D02*
X162636495Y-41752964D01*
X162636495Y-41752964D02*
X162796019Y-41752964D01*
X162796019Y-41752964D02*
X162891733Y-41788678D01*
X162891733Y-41788678D02*
X162955543Y-41860107D01*
X162955543Y-41860107D02*
X162987448Y-41931535D01*
X162987448Y-41931535D02*
X163019352Y-42074392D01*
X163019352Y-42074392D02*
X163019352Y-42181535D01*
X163019352Y-42181535D02*
X162987448Y-42324392D01*
X162987448Y-42324392D02*
X162955543Y-42395821D01*
X162955543Y-42395821D02*
X162891733Y-42467250D01*
X162891733Y-42467250D02*
X162796019Y-42502964D01*
X162796019Y-42502964D02*
X162636495Y-42502964D01*
X161615543Y-65362964D02*
X161232686Y-65362964D01*
X161424114Y-65362964D02*
X161424114Y-64612964D01*
X161424114Y-64612964D02*
X161360305Y-64720107D01*
X161360305Y-64720107D02*
X161296495Y-64791535D01*
X161296495Y-64791535D02*
X161232686Y-64827250D01*
X162189828Y-64612964D02*
X162062209Y-64612964D01*
X162062209Y-64612964D02*
X161998400Y-64648678D01*
X161998400Y-64648678D02*
X161966495Y-64684392D01*
X161966495Y-64684392D02*
X161902685Y-64791535D01*
X161902685Y-64791535D02*
X161870781Y-64934392D01*
X161870781Y-64934392D02*
X161870781Y-65220107D01*
X161870781Y-65220107D02*
X161902685Y-65291535D01*
X161902685Y-65291535D02*
X161934590Y-65327250D01*
X161934590Y-65327250D02*
X161998400Y-65362964D01*
X161998400Y-65362964D02*
X162126019Y-65362964D01*
X162126019Y-65362964D02*
X162189828Y-65327250D01*
X162189828Y-65327250D02*
X162221733Y-65291535D01*
X162221733Y-65291535D02*
X162253638Y-65220107D01*
X162253638Y-65220107D02*
X162253638Y-65041535D01*
X162253638Y-65041535D02*
X162221733Y-64970107D01*
X162221733Y-64970107D02*
X162189828Y-64934392D01*
X162189828Y-64934392D02*
X162126019Y-64898678D01*
X162126019Y-64898678D02*
X161998400Y-64898678D01*
X161998400Y-64898678D02*
X161934590Y-64934392D01*
X161934590Y-64934392D02*
X161902685Y-64970107D01*
X161902685Y-64970107D02*
X161870781Y-65041535D01*
X163019352Y-64577250D02*
X162445066Y-65541535D01*
X163466019Y-64970107D02*
X163561733Y-65005821D01*
X163561733Y-65005821D02*
X163593638Y-65041535D01*
X163593638Y-65041535D02*
X163625542Y-65112964D01*
X163625542Y-65112964D02*
X163625542Y-65220107D01*
X163625542Y-65220107D02*
X163593638Y-65291535D01*
X163593638Y-65291535D02*
X163561733Y-65327250D01*
X163561733Y-65327250D02*
X163497923Y-65362964D01*
X163497923Y-65362964D02*
X163242685Y-65362964D01*
X163242685Y-65362964D02*
X163242685Y-64612964D01*
X163242685Y-64612964D02*
X163466019Y-64612964D01*
X163466019Y-64612964D02*
X163529828Y-64648678D01*
X163529828Y-64648678D02*
X163561733Y-64684392D01*
X163561733Y-64684392D02*
X163593638Y-64755821D01*
X163593638Y-64755821D02*
X163593638Y-64827250D01*
X163593638Y-64827250D02*
X163561733Y-64898678D01*
X163561733Y-64898678D02*
X163529828Y-64934392D01*
X163529828Y-64934392D02*
X163466019Y-64970107D01*
X163466019Y-64970107D02*
X163242685Y-64970107D01*
X163880781Y-64684392D02*
X163912685Y-64648678D01*
X163912685Y-64648678D02*
X163976495Y-64612964D01*
X163976495Y-64612964D02*
X164136019Y-64612964D01*
X164136019Y-64612964D02*
X164199828Y-64648678D01*
X164199828Y-64648678D02*
X164231733Y-64684392D01*
X164231733Y-64684392D02*
X164263638Y-64755821D01*
X164263638Y-64755821D02*
X164263638Y-64827250D01*
X164263638Y-64827250D02*
X164231733Y-64934392D01*
X164231733Y-64934392D02*
X163848876Y-65362964D01*
X163848876Y-65362964D02*
X164263638Y-65362964D01*
X169636256Y-39962964D02*
X169636256Y-39212964D01*
X169636256Y-39212964D02*
X169795780Y-39212964D01*
X169795780Y-39212964D02*
X169891494Y-39248678D01*
X169891494Y-39248678D02*
X169955304Y-39320107D01*
X169955304Y-39320107D02*
X169987209Y-39391535D01*
X169987209Y-39391535D02*
X170019113Y-39534392D01*
X170019113Y-39534392D02*
X170019113Y-39641535D01*
X170019113Y-39641535D02*
X169987209Y-39784392D01*
X169987209Y-39784392D02*
X169955304Y-39855821D01*
X169955304Y-39855821D02*
X169891494Y-39927250D01*
X169891494Y-39927250D02*
X169795780Y-39962964D01*
X169795780Y-39962964D02*
X169636256Y-39962964D01*
X170242447Y-39212964D02*
X170657209Y-39212964D01*
X170657209Y-39212964D02*
X170433875Y-39498678D01*
X170433875Y-39498678D02*
X170529590Y-39498678D01*
X170529590Y-39498678D02*
X170593399Y-39534392D01*
X170593399Y-39534392D02*
X170625304Y-39570107D01*
X170625304Y-39570107D02*
X170657209Y-39641535D01*
X170657209Y-39641535D02*
X170657209Y-39820107D01*
X170657209Y-39820107D02*
X170625304Y-39891535D01*
X170625304Y-39891535D02*
X170593399Y-39927250D01*
X170593399Y-39927250D02*
X170529590Y-39962964D01*
X170529590Y-39962964D02*
X170338161Y-39962964D01*
X170338161Y-39962964D02*
X170274352Y-39927250D01*
X170274352Y-39927250D02*
X170242447Y-39891535D01*
X171422923Y-39177250D02*
X170848637Y-40141535D01*
X171550542Y-39212964D02*
X171933399Y-39212964D01*
X171741971Y-39962964D02*
X171741971Y-39212964D01*
X172092923Y-39212964D02*
X172539589Y-39962964D01*
X172539589Y-39212964D02*
X172092923Y-39962964D01*
X172922446Y-39212964D02*
X172986256Y-39212964D01*
X172986256Y-39212964D02*
X173050065Y-39248678D01*
X173050065Y-39248678D02*
X173081970Y-39284392D01*
X173081970Y-39284392D02*
X173113875Y-39355821D01*
X173113875Y-39355821D02*
X173145780Y-39498678D01*
X173145780Y-39498678D02*
X173145780Y-39677250D01*
X173145780Y-39677250D02*
X173113875Y-39820107D01*
X173113875Y-39820107D02*
X173081970Y-39891535D01*
X173081970Y-39891535D02*
X173050065Y-39927250D01*
X173050065Y-39927250D02*
X172986256Y-39962964D01*
X172986256Y-39962964D02*
X172922446Y-39962964D01*
X172922446Y-39962964D02*
X172858637Y-39927250D01*
X172858637Y-39927250D02*
X172826732Y-39891535D01*
X172826732Y-39891535D02*
X172794827Y-39820107D01*
X172794827Y-39820107D02*
X172762923Y-39677250D01*
X172762923Y-39677250D02*
X172762923Y-39498678D01*
X172762923Y-39498678D02*
X172794827Y-39355821D01*
X172794827Y-39355821D02*
X172826732Y-39284392D01*
X172826732Y-39284392D02*
X172858637Y-39248678D01*
X172858637Y-39248678D02*
X172922446Y-39212964D01*
X161615543Y-62822964D02*
X161232686Y-62822964D01*
X161424114Y-62822964D02*
X161424114Y-62072964D01*
X161424114Y-62072964D02*
X161360305Y-62180107D01*
X161360305Y-62180107D02*
X161296495Y-62251535D01*
X161296495Y-62251535D02*
X161232686Y-62287250D01*
X162189828Y-62322964D02*
X162189828Y-62822964D01*
X162030304Y-62037250D02*
X161870781Y-62572964D01*
X161870781Y-62572964D02*
X162285542Y-62572964D01*
X163019352Y-62037250D02*
X162445066Y-63001535D01*
X163466019Y-62430107D02*
X163561733Y-62465821D01*
X163561733Y-62465821D02*
X163593638Y-62501535D01*
X163593638Y-62501535D02*
X163625542Y-62572964D01*
X163625542Y-62572964D02*
X163625542Y-62680107D01*
X163625542Y-62680107D02*
X163593638Y-62751535D01*
X163593638Y-62751535D02*
X163561733Y-62787250D01*
X163561733Y-62787250D02*
X163497923Y-62822964D01*
X163497923Y-62822964D02*
X163242685Y-62822964D01*
X163242685Y-62822964D02*
X163242685Y-62072964D01*
X163242685Y-62072964D02*
X163466019Y-62072964D01*
X163466019Y-62072964D02*
X163529828Y-62108678D01*
X163529828Y-62108678D02*
X163561733Y-62144392D01*
X163561733Y-62144392D02*
X163593638Y-62215821D01*
X163593638Y-62215821D02*
X163593638Y-62287250D01*
X163593638Y-62287250D02*
X163561733Y-62358678D01*
X163561733Y-62358678D02*
X163529828Y-62394392D01*
X163529828Y-62394392D02*
X163466019Y-62430107D01*
X163466019Y-62430107D02*
X163242685Y-62430107D01*
X163848876Y-62072964D02*
X164263638Y-62072964D01*
X164263638Y-62072964D02*
X164040304Y-62358678D01*
X164040304Y-62358678D02*
X164136019Y-62358678D01*
X164136019Y-62358678D02*
X164199828Y-62394392D01*
X164199828Y-62394392D02*
X164231733Y-62430107D01*
X164231733Y-62430107D02*
X164263638Y-62501535D01*
X164263638Y-62501535D02*
X164263638Y-62680107D01*
X164263638Y-62680107D02*
X164231733Y-62751535D01*
X164231733Y-62751535D02*
X164199828Y-62787250D01*
X164199828Y-62787250D02*
X164136019Y-62822964D01*
X164136019Y-62822964D02*
X163944590Y-62822964D01*
X163944590Y-62822964D02*
X163880781Y-62787250D01*
X163880781Y-62787250D02*
X163848876Y-62751535D01*
X171008162Y-64970107D02*
X171103876Y-65005821D01*
X171103876Y-65005821D02*
X171135781Y-65041535D01*
X171135781Y-65041535D02*
X171167685Y-65112964D01*
X171167685Y-65112964D02*
X171167685Y-65220107D01*
X171167685Y-65220107D02*
X171135781Y-65291535D01*
X171135781Y-65291535D02*
X171103876Y-65327250D01*
X171103876Y-65327250D02*
X171040066Y-65362964D01*
X171040066Y-65362964D02*
X170784828Y-65362964D01*
X170784828Y-65362964D02*
X170784828Y-64612964D01*
X170784828Y-64612964D02*
X171008162Y-64612964D01*
X171008162Y-64612964D02*
X171071971Y-64648678D01*
X171071971Y-64648678D02*
X171103876Y-64684392D01*
X171103876Y-64684392D02*
X171135781Y-64755821D01*
X171135781Y-64755821D02*
X171135781Y-64827250D01*
X171135781Y-64827250D02*
X171103876Y-64898678D01*
X171103876Y-64898678D02*
X171071971Y-64934392D01*
X171071971Y-64934392D02*
X171008162Y-64970107D01*
X171008162Y-64970107D02*
X170784828Y-64970107D01*
X171741971Y-64862964D02*
X171741971Y-65362964D01*
X171582447Y-64577250D02*
X171422924Y-65112964D01*
X171422924Y-65112964D02*
X171837685Y-65112964D01*
X172571495Y-64577250D02*
X171997209Y-65541535D01*
X172890543Y-64934392D02*
X172826733Y-64898678D01*
X172826733Y-64898678D02*
X172794828Y-64862964D01*
X172794828Y-64862964D02*
X172762924Y-64791535D01*
X172762924Y-64791535D02*
X172762924Y-64755821D01*
X172762924Y-64755821D02*
X172794828Y-64684392D01*
X172794828Y-64684392D02*
X172826733Y-64648678D01*
X172826733Y-64648678D02*
X172890543Y-64612964D01*
X172890543Y-64612964D02*
X173018162Y-64612964D01*
X173018162Y-64612964D02*
X173081971Y-64648678D01*
X173081971Y-64648678D02*
X173113876Y-64684392D01*
X173113876Y-64684392D02*
X173145781Y-64755821D01*
X173145781Y-64755821D02*
X173145781Y-64791535D01*
X173145781Y-64791535D02*
X173113876Y-64862964D01*
X173113876Y-64862964D02*
X173081971Y-64898678D01*
X173081971Y-64898678D02*
X173018162Y-64934392D01*
X173018162Y-64934392D02*
X172890543Y-64934392D01*
X172890543Y-64934392D02*
X172826733Y-64970107D01*
X172826733Y-64970107D02*
X172794828Y-65005821D01*
X172794828Y-65005821D02*
X172762924Y-65077250D01*
X172762924Y-65077250D02*
X172762924Y-65220107D01*
X172762924Y-65220107D02*
X172794828Y-65291535D01*
X172794828Y-65291535D02*
X172826733Y-65327250D01*
X172826733Y-65327250D02*
X172890543Y-65362964D01*
X172890543Y-65362964D02*
X173018162Y-65362964D01*
X173018162Y-65362964D02*
X173081971Y-65327250D01*
X173081971Y-65327250D02*
X173113876Y-65291535D01*
X173113876Y-65291535D02*
X173145781Y-65220107D01*
X173145781Y-65220107D02*
X173145781Y-65077250D01*
X173145781Y-65077250D02*
X173113876Y-65005821D01*
X173113876Y-65005821D02*
X173081971Y-64970107D01*
X173081971Y-64970107D02*
X173018162Y-64934392D01*
X161615543Y-67902964D02*
X161232686Y-67902964D01*
X161424114Y-67902964D02*
X161424114Y-67152964D01*
X161424114Y-67152964D02*
X161360305Y-67260107D01*
X161360305Y-67260107D02*
X161296495Y-67331535D01*
X161296495Y-67331535D02*
X161232686Y-67367250D01*
X162030304Y-67152964D02*
X162094114Y-67152964D01*
X162094114Y-67152964D02*
X162157923Y-67188678D01*
X162157923Y-67188678D02*
X162189828Y-67224392D01*
X162189828Y-67224392D02*
X162221733Y-67295821D01*
X162221733Y-67295821D02*
X162253638Y-67438678D01*
X162253638Y-67438678D02*
X162253638Y-67617250D01*
X162253638Y-67617250D02*
X162221733Y-67760107D01*
X162221733Y-67760107D02*
X162189828Y-67831535D01*
X162189828Y-67831535D02*
X162157923Y-67867250D01*
X162157923Y-67867250D02*
X162094114Y-67902964D01*
X162094114Y-67902964D02*
X162030304Y-67902964D01*
X162030304Y-67902964D02*
X161966495Y-67867250D01*
X161966495Y-67867250D02*
X161934590Y-67831535D01*
X161934590Y-67831535D02*
X161902685Y-67760107D01*
X161902685Y-67760107D02*
X161870781Y-67617250D01*
X161870781Y-67617250D02*
X161870781Y-67438678D01*
X161870781Y-67438678D02*
X161902685Y-67295821D01*
X161902685Y-67295821D02*
X161934590Y-67224392D01*
X161934590Y-67224392D02*
X161966495Y-67188678D01*
X161966495Y-67188678D02*
X162030304Y-67152964D01*
X163019352Y-67117250D02*
X162445066Y-68081535D01*
X163466019Y-67510107D02*
X163561733Y-67545821D01*
X163561733Y-67545821D02*
X163593638Y-67581535D01*
X163593638Y-67581535D02*
X163625542Y-67652964D01*
X163625542Y-67652964D02*
X163625542Y-67760107D01*
X163625542Y-67760107D02*
X163593638Y-67831535D01*
X163593638Y-67831535D02*
X163561733Y-67867250D01*
X163561733Y-67867250D02*
X163497923Y-67902964D01*
X163497923Y-67902964D02*
X163242685Y-67902964D01*
X163242685Y-67902964D02*
X163242685Y-67152964D01*
X163242685Y-67152964D02*
X163466019Y-67152964D01*
X163466019Y-67152964D02*
X163529828Y-67188678D01*
X163529828Y-67188678D02*
X163561733Y-67224392D01*
X163561733Y-67224392D02*
X163593638Y-67295821D01*
X163593638Y-67295821D02*
X163593638Y-67367250D01*
X163593638Y-67367250D02*
X163561733Y-67438678D01*
X163561733Y-67438678D02*
X163529828Y-67474392D01*
X163529828Y-67474392D02*
X163466019Y-67510107D01*
X163466019Y-67510107D02*
X163242685Y-67510107D01*
X164199828Y-67152964D02*
X164072209Y-67152964D01*
X164072209Y-67152964D02*
X164008400Y-67188678D01*
X164008400Y-67188678D02*
X163976495Y-67224392D01*
X163976495Y-67224392D02*
X163912685Y-67331535D01*
X163912685Y-67331535D02*
X163880781Y-67474392D01*
X163880781Y-67474392D02*
X163880781Y-67760107D01*
X163880781Y-67760107D02*
X163912685Y-67831535D01*
X163912685Y-67831535D02*
X163944590Y-67867250D01*
X163944590Y-67867250D02*
X164008400Y-67902964D01*
X164008400Y-67902964D02*
X164136019Y-67902964D01*
X164136019Y-67902964D02*
X164199828Y-67867250D01*
X164199828Y-67867250D02*
X164231733Y-67831535D01*
X164231733Y-67831535D02*
X164263638Y-67760107D01*
X164263638Y-67760107D02*
X164263638Y-67581535D01*
X164263638Y-67581535D02*
X164231733Y-67510107D01*
X164231733Y-67510107D02*
X164199828Y-67474392D01*
X164199828Y-67474392D02*
X164136019Y-67438678D01*
X164136019Y-67438678D02*
X164008400Y-67438678D01*
X164008400Y-67438678D02*
X163944590Y-67474392D01*
X163944590Y-67474392D02*
X163912685Y-67510107D01*
X163912685Y-67510107D02*
X163880781Y-67581535D01*
X171741971Y-44328678D02*
X171678161Y-44292964D01*
X171678161Y-44292964D02*
X171582447Y-44292964D01*
X171582447Y-44292964D02*
X171486733Y-44328678D01*
X171486733Y-44328678D02*
X171422923Y-44400107D01*
X171422923Y-44400107D02*
X171391018Y-44471535D01*
X171391018Y-44471535D02*
X171359114Y-44614392D01*
X171359114Y-44614392D02*
X171359114Y-44721535D01*
X171359114Y-44721535D02*
X171391018Y-44864392D01*
X171391018Y-44864392D02*
X171422923Y-44935821D01*
X171422923Y-44935821D02*
X171486733Y-45007250D01*
X171486733Y-45007250D02*
X171582447Y-45042964D01*
X171582447Y-45042964D02*
X171646256Y-45042964D01*
X171646256Y-45042964D02*
X171741971Y-45007250D01*
X171741971Y-45007250D02*
X171773875Y-44971535D01*
X171773875Y-44971535D02*
X171773875Y-44721535D01*
X171773875Y-44721535D02*
X171646256Y-44721535D01*
X172061018Y-45042964D02*
X172061018Y-44292964D01*
X172061018Y-44292964D02*
X172443875Y-45042964D01*
X172443875Y-45042964D02*
X172443875Y-44292964D01*
X172762923Y-45042964D02*
X172762923Y-44292964D01*
X172762923Y-44292964D02*
X172922447Y-44292964D01*
X172922447Y-44292964D02*
X173018161Y-44328678D01*
X173018161Y-44328678D02*
X173081971Y-44400107D01*
X173081971Y-44400107D02*
X173113876Y-44471535D01*
X173113876Y-44471535D02*
X173145780Y-44614392D01*
X173145780Y-44614392D02*
X173145780Y-44721535D01*
X173145780Y-44721535D02*
X173113876Y-44864392D01*
X173113876Y-44864392D02*
X173081971Y-44935821D01*
X173081971Y-44935821D02*
X173018161Y-45007250D01*
X173018161Y-45007250D02*
X172922447Y-45042964D01*
X172922447Y-45042964D02*
X172762923Y-45042964D01*
X161647447Y-39962964D02*
X161424114Y-39605821D01*
X161264590Y-39962964D02*
X161264590Y-39212964D01*
X161264590Y-39212964D02*
X161519828Y-39212964D01*
X161519828Y-39212964D02*
X161583638Y-39248678D01*
X161583638Y-39248678D02*
X161615543Y-39284392D01*
X161615543Y-39284392D02*
X161647447Y-39355821D01*
X161647447Y-39355821D02*
X161647447Y-39462964D01*
X161647447Y-39462964D02*
X161615543Y-39534392D01*
X161615543Y-39534392D02*
X161583638Y-39570107D01*
X161583638Y-39570107D02*
X161519828Y-39605821D01*
X161519828Y-39605821D02*
X161264590Y-39605821D01*
X161902686Y-39748678D02*
X162221733Y-39748678D01*
X161838876Y-39962964D02*
X162062209Y-39212964D01*
X162062209Y-39212964D02*
X162285543Y-39962964D01*
X162445067Y-39212964D02*
X162604591Y-39962964D01*
X162604591Y-39962964D02*
X162732210Y-39427250D01*
X162732210Y-39427250D02*
X162859829Y-39962964D01*
X162859829Y-39962964D02*
X163019353Y-39212964D01*
X171741971Y-46868678D02*
X171678161Y-46832964D01*
X171678161Y-46832964D02*
X171582447Y-46832964D01*
X171582447Y-46832964D02*
X171486733Y-46868678D01*
X171486733Y-46868678D02*
X171422923Y-46940107D01*
X171422923Y-46940107D02*
X171391018Y-47011535D01*
X171391018Y-47011535D02*
X171359114Y-47154392D01*
X171359114Y-47154392D02*
X171359114Y-47261535D01*
X171359114Y-47261535D02*
X171391018Y-47404392D01*
X171391018Y-47404392D02*
X171422923Y-47475821D01*
X171422923Y-47475821D02*
X171486733Y-47547250D01*
X171486733Y-47547250D02*
X171582447Y-47582964D01*
X171582447Y-47582964D02*
X171646256Y-47582964D01*
X171646256Y-47582964D02*
X171741971Y-47547250D01*
X171741971Y-47547250D02*
X171773875Y-47511535D01*
X171773875Y-47511535D02*
X171773875Y-47261535D01*
X171773875Y-47261535D02*
X171646256Y-47261535D01*
X172061018Y-47582964D02*
X172061018Y-46832964D01*
X172061018Y-46832964D02*
X172443875Y-47582964D01*
X172443875Y-47582964D02*
X172443875Y-46832964D01*
X172762923Y-47582964D02*
X172762923Y-46832964D01*
X172762923Y-46832964D02*
X172922447Y-46832964D01*
X172922447Y-46832964D02*
X173018161Y-46868678D01*
X173018161Y-46868678D02*
X173081971Y-46940107D01*
X173081971Y-46940107D02*
X173113876Y-47011535D01*
X173113876Y-47011535D02*
X173145780Y-47154392D01*
X173145780Y-47154392D02*
X173145780Y-47261535D01*
X173145780Y-47261535D02*
X173113876Y-47404392D01*
X173113876Y-47404392D02*
X173081971Y-47475821D01*
X173081971Y-47475821D02*
X173018161Y-47547250D01*
X173018161Y-47547250D02*
X172922447Y-47582964D01*
X172922447Y-47582964D02*
X172762923Y-47582964D01*
X170848638Y-62430107D02*
X171071972Y-62430107D01*
X171167686Y-62822964D02*
X170848638Y-62822964D01*
X170848638Y-62822964D02*
X170848638Y-62072964D01*
X170848638Y-62072964D02*
X171167686Y-62072964D01*
X171741971Y-62072964D02*
X171614352Y-62072964D01*
X171614352Y-62072964D02*
X171550543Y-62108678D01*
X171550543Y-62108678D02*
X171518638Y-62144392D01*
X171518638Y-62144392D02*
X171454828Y-62251535D01*
X171454828Y-62251535D02*
X171422924Y-62394392D01*
X171422924Y-62394392D02*
X171422924Y-62680107D01*
X171422924Y-62680107D02*
X171454828Y-62751535D01*
X171454828Y-62751535D02*
X171486733Y-62787250D01*
X171486733Y-62787250D02*
X171550543Y-62822964D01*
X171550543Y-62822964D02*
X171678162Y-62822964D01*
X171678162Y-62822964D02*
X171741971Y-62787250D01*
X171741971Y-62787250D02*
X171773876Y-62751535D01*
X171773876Y-62751535D02*
X171805781Y-62680107D01*
X171805781Y-62680107D02*
X171805781Y-62501535D01*
X171805781Y-62501535D02*
X171773876Y-62430107D01*
X171773876Y-62430107D02*
X171741971Y-62394392D01*
X171741971Y-62394392D02*
X171678162Y-62358678D01*
X171678162Y-62358678D02*
X171550543Y-62358678D01*
X171550543Y-62358678D02*
X171486733Y-62394392D01*
X171486733Y-62394392D02*
X171454828Y-62430107D01*
X171454828Y-62430107D02*
X171422924Y-62501535D01*
X172571495Y-62037250D02*
X171997209Y-63001535D01*
X172731019Y-62072964D02*
X173177685Y-62072964D01*
X173177685Y-62072964D02*
X172890543Y-62822964D01*
X171167685Y-57671535D02*
X171135781Y-57707250D01*
X171135781Y-57707250D02*
X171040066Y-57742964D01*
X171040066Y-57742964D02*
X170976257Y-57742964D01*
X170976257Y-57742964D02*
X170880543Y-57707250D01*
X170880543Y-57707250D02*
X170816733Y-57635821D01*
X170816733Y-57635821D02*
X170784828Y-57564392D01*
X170784828Y-57564392D02*
X170752924Y-57421535D01*
X170752924Y-57421535D02*
X170752924Y-57314392D01*
X170752924Y-57314392D02*
X170784828Y-57171535D01*
X170784828Y-57171535D02*
X170816733Y-57100107D01*
X170816733Y-57100107D02*
X170880543Y-57028678D01*
X170880543Y-57028678D02*
X170976257Y-56992964D01*
X170976257Y-56992964D02*
X171040066Y-56992964D01*
X171040066Y-56992964D02*
X171135781Y-57028678D01*
X171135781Y-57028678D02*
X171167685Y-57064392D01*
X171741971Y-56992964D02*
X171614352Y-56992964D01*
X171614352Y-56992964D02*
X171550543Y-57028678D01*
X171550543Y-57028678D02*
X171518638Y-57064392D01*
X171518638Y-57064392D02*
X171454828Y-57171535D01*
X171454828Y-57171535D02*
X171422924Y-57314392D01*
X171422924Y-57314392D02*
X171422924Y-57600107D01*
X171422924Y-57600107D02*
X171454828Y-57671535D01*
X171454828Y-57671535D02*
X171486733Y-57707250D01*
X171486733Y-57707250D02*
X171550543Y-57742964D01*
X171550543Y-57742964D02*
X171678162Y-57742964D01*
X171678162Y-57742964D02*
X171741971Y-57707250D01*
X171741971Y-57707250D02*
X171773876Y-57671535D01*
X171773876Y-57671535D02*
X171805781Y-57600107D01*
X171805781Y-57600107D02*
X171805781Y-57421535D01*
X171805781Y-57421535D02*
X171773876Y-57350107D01*
X171773876Y-57350107D02*
X171741971Y-57314392D01*
X171741971Y-57314392D02*
X171678162Y-57278678D01*
X171678162Y-57278678D02*
X171550543Y-57278678D01*
X171550543Y-57278678D02*
X171486733Y-57314392D01*
X171486733Y-57314392D02*
X171454828Y-57350107D01*
X171454828Y-57350107D02*
X171422924Y-57421535D01*
X172571495Y-56957250D02*
X171997209Y-57921535D01*
X173113876Y-56992964D02*
X172794828Y-56992964D01*
X172794828Y-56992964D02*
X172762924Y-57350107D01*
X172762924Y-57350107D02*
X172794828Y-57314392D01*
X172794828Y-57314392D02*
X172858638Y-57278678D01*
X172858638Y-57278678D02*
X173018162Y-57278678D01*
X173018162Y-57278678D02*
X173081971Y-57314392D01*
X173081971Y-57314392D02*
X173113876Y-57350107D01*
X173113876Y-57350107D02*
X173145781Y-57421535D01*
X173145781Y-57421535D02*
X173145781Y-57600107D01*
X173145781Y-57600107D02*
X173113876Y-57671535D01*
X173113876Y-57671535D02*
X173081971Y-57707250D01*
X173081971Y-57707250D02*
X173018162Y-57742964D01*
X173018162Y-57742964D02*
X172858638Y-57742964D01*
X172858638Y-57742964D02*
X172794828Y-57707250D01*
X172794828Y-57707250D02*
X172762924Y-57671535D01*
X161615543Y-60282964D02*
X161232686Y-60282964D01*
X161424114Y-60282964D02*
X161424114Y-59532964D01*
X161424114Y-59532964D02*
X161360305Y-59640107D01*
X161360305Y-59640107D02*
X161296495Y-59711535D01*
X161296495Y-59711535D02*
X161232686Y-59747250D01*
X162221733Y-59532964D02*
X161902685Y-59532964D01*
X161902685Y-59532964D02*
X161870781Y-59890107D01*
X161870781Y-59890107D02*
X161902685Y-59854392D01*
X161902685Y-59854392D02*
X161966495Y-59818678D01*
X161966495Y-59818678D02*
X162126019Y-59818678D01*
X162126019Y-59818678D02*
X162189828Y-59854392D01*
X162189828Y-59854392D02*
X162221733Y-59890107D01*
X162221733Y-59890107D02*
X162253638Y-59961535D01*
X162253638Y-59961535D02*
X162253638Y-60140107D01*
X162253638Y-60140107D02*
X162221733Y-60211535D01*
X162221733Y-60211535D02*
X162189828Y-60247250D01*
X162189828Y-60247250D02*
X162126019Y-60282964D01*
X162126019Y-60282964D02*
X161966495Y-60282964D01*
X161966495Y-60282964D02*
X161902685Y-60247250D01*
X161902685Y-60247250D02*
X161870781Y-60211535D01*
X163019352Y-59497250D02*
X162445066Y-60461535D01*
X163466019Y-59890107D02*
X163561733Y-59925821D01*
X163561733Y-59925821D02*
X163593638Y-59961535D01*
X163593638Y-59961535D02*
X163625542Y-60032964D01*
X163625542Y-60032964D02*
X163625542Y-60140107D01*
X163625542Y-60140107D02*
X163593638Y-60211535D01*
X163593638Y-60211535D02*
X163561733Y-60247250D01*
X163561733Y-60247250D02*
X163497923Y-60282964D01*
X163497923Y-60282964D02*
X163242685Y-60282964D01*
X163242685Y-60282964D02*
X163242685Y-59532964D01*
X163242685Y-59532964D02*
X163466019Y-59532964D01*
X163466019Y-59532964D02*
X163529828Y-59568678D01*
X163529828Y-59568678D02*
X163561733Y-59604392D01*
X163561733Y-59604392D02*
X163593638Y-59675821D01*
X163593638Y-59675821D02*
X163593638Y-59747250D01*
X163593638Y-59747250D02*
X163561733Y-59818678D01*
X163561733Y-59818678D02*
X163529828Y-59854392D01*
X163529828Y-59854392D02*
X163466019Y-59890107D01*
X163466019Y-59890107D02*
X163242685Y-59890107D01*
X164263638Y-60282964D02*
X163880781Y-60282964D01*
X164072209Y-60282964D02*
X164072209Y-59532964D01*
X164072209Y-59532964D02*
X164008400Y-59640107D01*
X164008400Y-59640107D02*
X163944590Y-59711535D01*
X163944590Y-59711535D02*
X163880781Y-59747250D01*
X161232686Y-49908678D02*
X161551733Y-49908678D01*
X161168876Y-50122964D02*
X161392209Y-49372964D01*
X161392209Y-49372964D02*
X161615543Y-50122964D01*
X161775067Y-49372964D02*
X162189829Y-49372964D01*
X162189829Y-49372964D02*
X161966495Y-49658678D01*
X161966495Y-49658678D02*
X162062210Y-49658678D01*
X162062210Y-49658678D02*
X162126019Y-49694392D01*
X162126019Y-49694392D02*
X162157924Y-49730107D01*
X162157924Y-49730107D02*
X162189829Y-49801535D01*
X162189829Y-49801535D02*
X162189829Y-49980107D01*
X162189829Y-49980107D02*
X162157924Y-50051535D01*
X162157924Y-50051535D02*
X162126019Y-50087250D01*
X162126019Y-50087250D02*
X162062210Y-50122964D01*
X162062210Y-50122964D02*
X161870781Y-50122964D01*
X161870781Y-50122964D02*
X161806972Y-50087250D01*
X161806972Y-50087250D02*
X161775067Y-50051535D01*
X162955543Y-49337250D02*
X162381257Y-50301535D01*
X163402210Y-49730107D02*
X163178876Y-49730107D01*
X163178876Y-50122964D02*
X163178876Y-49372964D01*
X163178876Y-49372964D02*
X163497924Y-49372964D01*
X164040305Y-49622964D02*
X164040305Y-50122964D01*
X163880781Y-49337250D02*
X163721258Y-49872964D01*
X163721258Y-49872964D02*
X164136019Y-49872964D01*
X161647447Y-45042964D02*
X161424114Y-44685821D01*
X161264590Y-45042964D02*
X161264590Y-44292964D01*
X161264590Y-44292964D02*
X161519828Y-44292964D01*
X161519828Y-44292964D02*
X161583638Y-44328678D01*
X161583638Y-44328678D02*
X161615543Y-44364392D01*
X161615543Y-44364392D02*
X161647447Y-44435821D01*
X161647447Y-44435821D02*
X161647447Y-44542964D01*
X161647447Y-44542964D02*
X161615543Y-44614392D01*
X161615543Y-44614392D02*
X161583638Y-44650107D01*
X161583638Y-44650107D02*
X161519828Y-44685821D01*
X161519828Y-44685821D02*
X161264590Y-44685821D01*
X161902686Y-45007250D02*
X161998400Y-45042964D01*
X161998400Y-45042964D02*
X162157924Y-45042964D01*
X162157924Y-45042964D02*
X162221733Y-45007250D01*
X162221733Y-45007250D02*
X162253638Y-44971535D01*
X162253638Y-44971535D02*
X162285543Y-44900107D01*
X162285543Y-44900107D02*
X162285543Y-44828678D01*
X162285543Y-44828678D02*
X162253638Y-44757250D01*
X162253638Y-44757250D02*
X162221733Y-44721535D01*
X162221733Y-44721535D02*
X162157924Y-44685821D01*
X162157924Y-44685821D02*
X162030305Y-44650107D01*
X162030305Y-44650107D02*
X161966495Y-44614392D01*
X161966495Y-44614392D02*
X161934590Y-44578678D01*
X161934590Y-44578678D02*
X161902686Y-44507250D01*
X161902686Y-44507250D02*
X161902686Y-44435821D01*
X161902686Y-44435821D02*
X161934590Y-44364392D01*
X161934590Y-44364392D02*
X161966495Y-44328678D01*
X161966495Y-44328678D02*
X162030305Y-44292964D01*
X162030305Y-44292964D02*
X162189828Y-44292964D01*
X162189828Y-44292964D02*
X162285543Y-44328678D01*
X162476971Y-44292964D02*
X162859828Y-44292964D01*
X162668400Y-45042964D02*
X162668400Y-44292964D01*
X168168638Y-50087250D02*
X168264352Y-50122964D01*
X168264352Y-50122964D02*
X168423876Y-50122964D01*
X168423876Y-50122964D02*
X168487685Y-50087250D01*
X168487685Y-50087250D02*
X168519590Y-50051535D01*
X168519590Y-50051535D02*
X168551495Y-49980107D01*
X168551495Y-49980107D02*
X168551495Y-49908678D01*
X168551495Y-49908678D02*
X168519590Y-49837250D01*
X168519590Y-49837250D02*
X168487685Y-49801535D01*
X168487685Y-49801535D02*
X168423876Y-49765821D01*
X168423876Y-49765821D02*
X168296257Y-49730107D01*
X168296257Y-49730107D02*
X168232447Y-49694392D01*
X168232447Y-49694392D02*
X168200542Y-49658678D01*
X168200542Y-49658678D02*
X168168638Y-49587250D01*
X168168638Y-49587250D02*
X168168638Y-49515821D01*
X168168638Y-49515821D02*
X168200542Y-49444392D01*
X168200542Y-49444392D02*
X168232447Y-49408678D01*
X168232447Y-49408678D02*
X168296257Y-49372964D01*
X168296257Y-49372964D02*
X168455780Y-49372964D01*
X168455780Y-49372964D02*
X168551495Y-49408678D01*
X168838637Y-50122964D02*
X168838637Y-49372964D01*
X168838637Y-49372964D02*
X168998161Y-49372964D01*
X168998161Y-49372964D02*
X169093875Y-49408678D01*
X169093875Y-49408678D02*
X169157685Y-49480107D01*
X169157685Y-49480107D02*
X169189590Y-49551535D01*
X169189590Y-49551535D02*
X169221494Y-49694392D01*
X169221494Y-49694392D02*
X169221494Y-49801535D01*
X169221494Y-49801535D02*
X169189590Y-49944392D01*
X169189590Y-49944392D02*
X169157685Y-50015821D01*
X169157685Y-50015821D02*
X169093875Y-50087250D01*
X169093875Y-50087250D02*
X168998161Y-50122964D01*
X168998161Y-50122964D02*
X168838637Y-50122964D01*
X169476733Y-49908678D02*
X169795780Y-49908678D01*
X169412923Y-50122964D02*
X169636256Y-49372964D01*
X169636256Y-49372964D02*
X169859590Y-50122964D01*
X170561495Y-49337250D02*
X169987209Y-50301535D01*
X170784828Y-50122964D02*
X170784828Y-49372964D01*
X170784828Y-49372964D02*
X170944352Y-49372964D01*
X170944352Y-49372964D02*
X171040066Y-49408678D01*
X171040066Y-49408678D02*
X171103876Y-49480107D01*
X171103876Y-49480107D02*
X171135781Y-49551535D01*
X171135781Y-49551535D02*
X171167685Y-49694392D01*
X171167685Y-49694392D02*
X171167685Y-49801535D01*
X171167685Y-49801535D02*
X171135781Y-49944392D01*
X171135781Y-49944392D02*
X171103876Y-50015821D01*
X171103876Y-50015821D02*
X171040066Y-50087250D01*
X171040066Y-50087250D02*
X170944352Y-50122964D01*
X170944352Y-50122964D02*
X170784828Y-50122964D01*
X171805781Y-50122964D02*
X171422924Y-50122964D01*
X171614352Y-50122964D02*
X171614352Y-49372964D01*
X171614352Y-49372964D02*
X171550543Y-49480107D01*
X171550543Y-49480107D02*
X171486733Y-49551535D01*
X171486733Y-49551535D02*
X171422924Y-49587250D01*
X172571495Y-49337250D02*
X171997209Y-50301535D01*
X172762924Y-49444392D02*
X172794828Y-49408678D01*
X172794828Y-49408678D02*
X172858638Y-49372964D01*
X172858638Y-49372964D02*
X173018162Y-49372964D01*
X173018162Y-49372964D02*
X173081971Y-49408678D01*
X173081971Y-49408678D02*
X173113876Y-49444392D01*
X173113876Y-49444392D02*
X173145781Y-49515821D01*
X173145781Y-49515821D02*
X173145781Y-49587250D01*
X173145781Y-49587250D02*
X173113876Y-49694392D01*
X173113876Y-49694392D02*
X172731019Y-50122964D01*
X172731019Y-50122964D02*
X173145781Y-50122964D01*
X171008162Y-67510107D02*
X171103876Y-67545821D01*
X171103876Y-67545821D02*
X171135781Y-67581535D01*
X171135781Y-67581535D02*
X171167685Y-67652964D01*
X171167685Y-67652964D02*
X171167685Y-67760107D01*
X171167685Y-67760107D02*
X171135781Y-67831535D01*
X171135781Y-67831535D02*
X171103876Y-67867250D01*
X171103876Y-67867250D02*
X171040066Y-67902964D01*
X171040066Y-67902964D02*
X170784828Y-67902964D01*
X170784828Y-67902964D02*
X170784828Y-67152964D01*
X170784828Y-67152964D02*
X171008162Y-67152964D01*
X171008162Y-67152964D02*
X171071971Y-67188678D01*
X171071971Y-67188678D02*
X171103876Y-67224392D01*
X171103876Y-67224392D02*
X171135781Y-67295821D01*
X171135781Y-67295821D02*
X171135781Y-67367250D01*
X171135781Y-67367250D02*
X171103876Y-67438678D01*
X171103876Y-67438678D02*
X171071971Y-67474392D01*
X171071971Y-67474392D02*
X171008162Y-67510107D01*
X171008162Y-67510107D02*
X170784828Y-67510107D01*
X171773876Y-67152964D02*
X171454828Y-67152964D01*
X171454828Y-67152964D02*
X171422924Y-67510107D01*
X171422924Y-67510107D02*
X171454828Y-67474392D01*
X171454828Y-67474392D02*
X171518638Y-67438678D01*
X171518638Y-67438678D02*
X171678162Y-67438678D01*
X171678162Y-67438678D02*
X171741971Y-67474392D01*
X171741971Y-67474392D02*
X171773876Y-67510107D01*
X171773876Y-67510107D02*
X171805781Y-67581535D01*
X171805781Y-67581535D02*
X171805781Y-67760107D01*
X171805781Y-67760107D02*
X171773876Y-67831535D01*
X171773876Y-67831535D02*
X171741971Y-67867250D01*
X171741971Y-67867250D02*
X171678162Y-67902964D01*
X171678162Y-67902964D02*
X171518638Y-67902964D01*
X171518638Y-67902964D02*
X171454828Y-67867250D01*
X171454828Y-67867250D02*
X171422924Y-67831535D01*
X172571495Y-67117250D02*
X171997209Y-68081535D01*
X172826733Y-67902964D02*
X172954352Y-67902964D01*
X172954352Y-67902964D02*
X173018162Y-67867250D01*
X173018162Y-67867250D02*
X173050066Y-67831535D01*
X173050066Y-67831535D02*
X173113876Y-67724392D01*
X173113876Y-67724392D02*
X173145781Y-67581535D01*
X173145781Y-67581535D02*
X173145781Y-67295821D01*
X173145781Y-67295821D02*
X173113876Y-67224392D01*
X173113876Y-67224392D02*
X173081971Y-67188678D01*
X173081971Y-67188678D02*
X173018162Y-67152964D01*
X173018162Y-67152964D02*
X172890543Y-67152964D01*
X172890543Y-67152964D02*
X172826733Y-67188678D01*
X172826733Y-67188678D02*
X172794828Y-67224392D01*
X172794828Y-67224392D02*
X172762924Y-67295821D01*
X172762924Y-67295821D02*
X172762924Y-67474392D01*
X172762924Y-67474392D02*
X172794828Y-67545821D01*
X172794828Y-67545821D02*
X172826733Y-67581535D01*
X172826733Y-67581535D02*
X172890543Y-67617250D01*
X172890543Y-67617250D02*
X173018162Y-67617250D01*
X173018162Y-67617250D02*
X173081971Y-67581535D01*
X173081971Y-67581535D02*
X173113876Y-67545821D01*
X173113876Y-67545821D02*
X173145781Y-67474392D01*
X170784828Y-60282964D02*
X170784828Y-59532964D01*
X170784828Y-59532964D02*
X170944352Y-59532964D01*
X170944352Y-59532964D02*
X171040066Y-59568678D01*
X171040066Y-59568678D02*
X171103876Y-59640107D01*
X171103876Y-59640107D02*
X171135781Y-59711535D01*
X171135781Y-59711535D02*
X171167685Y-59854392D01*
X171167685Y-59854392D02*
X171167685Y-59961535D01*
X171167685Y-59961535D02*
X171135781Y-60104392D01*
X171135781Y-60104392D02*
X171103876Y-60175821D01*
X171103876Y-60175821D02*
X171040066Y-60247250D01*
X171040066Y-60247250D02*
X170944352Y-60282964D01*
X170944352Y-60282964D02*
X170784828Y-60282964D01*
X171391019Y-59532964D02*
X171837685Y-59532964D01*
X171837685Y-59532964D02*
X171550543Y-60282964D01*
X172571495Y-59497250D02*
X171997209Y-60461535D01*
X173081971Y-59532964D02*
X172954352Y-59532964D01*
X172954352Y-59532964D02*
X172890543Y-59568678D01*
X172890543Y-59568678D02*
X172858638Y-59604392D01*
X172858638Y-59604392D02*
X172794828Y-59711535D01*
X172794828Y-59711535D02*
X172762924Y-59854392D01*
X172762924Y-59854392D02*
X172762924Y-60140107D01*
X172762924Y-60140107D02*
X172794828Y-60211535D01*
X172794828Y-60211535D02*
X172826733Y-60247250D01*
X172826733Y-60247250D02*
X172890543Y-60282964D01*
X172890543Y-60282964D02*
X173018162Y-60282964D01*
X173018162Y-60282964D02*
X173081971Y-60247250D01*
X173081971Y-60247250D02*
X173113876Y-60211535D01*
X173113876Y-60211535D02*
X173145781Y-60140107D01*
X173145781Y-60140107D02*
X173145781Y-59961535D01*
X173145781Y-59961535D02*
X173113876Y-59890107D01*
X173113876Y-59890107D02*
X173081971Y-59854392D01*
X173081971Y-59854392D02*
X173018162Y-59818678D01*
X173018162Y-59818678D02*
X172890543Y-59818678D01*
X172890543Y-59818678D02*
X172826733Y-59854392D01*
X172826733Y-59854392D02*
X172794828Y-59890107D01*
X172794828Y-59890107D02*
X172762924Y-59961535D01*
X133416162Y-67504607D02*
X133511876Y-67540321D01*
X133511876Y-67540321D02*
X133543781Y-67576035D01*
X133543781Y-67576035D02*
X133575685Y-67647464D01*
X133575685Y-67647464D02*
X133575685Y-67754607D01*
X133575685Y-67754607D02*
X133543781Y-67826035D01*
X133543781Y-67826035D02*
X133511876Y-67861750D01*
X133511876Y-67861750D02*
X133448066Y-67897464D01*
X133448066Y-67897464D02*
X133192828Y-67897464D01*
X133192828Y-67897464D02*
X133192828Y-67147464D01*
X133192828Y-67147464D02*
X133416162Y-67147464D01*
X133416162Y-67147464D02*
X133479971Y-67183178D01*
X133479971Y-67183178D02*
X133511876Y-67218892D01*
X133511876Y-67218892D02*
X133543781Y-67290321D01*
X133543781Y-67290321D02*
X133543781Y-67361750D01*
X133543781Y-67361750D02*
X133511876Y-67433178D01*
X133511876Y-67433178D02*
X133479971Y-67468892D01*
X133479971Y-67468892D02*
X133416162Y-67504607D01*
X133416162Y-67504607D02*
X133192828Y-67504607D01*
X134181876Y-67147464D02*
X133862828Y-67147464D01*
X133862828Y-67147464D02*
X133830924Y-67504607D01*
X133830924Y-67504607D02*
X133862828Y-67468892D01*
X133862828Y-67468892D02*
X133926638Y-67433178D01*
X133926638Y-67433178D02*
X134086162Y-67433178D01*
X134086162Y-67433178D02*
X134149971Y-67468892D01*
X134149971Y-67468892D02*
X134181876Y-67504607D01*
X134181876Y-67504607D02*
X134213781Y-67576035D01*
X134213781Y-67576035D02*
X134213781Y-67754607D01*
X134213781Y-67754607D02*
X134181876Y-67826035D01*
X134181876Y-67826035D02*
X134149971Y-67861750D01*
X134149971Y-67861750D02*
X134086162Y-67897464D01*
X134086162Y-67897464D02*
X133926638Y-67897464D01*
X133926638Y-67897464D02*
X133862828Y-67861750D01*
X133862828Y-67861750D02*
X133830924Y-67826035D01*
X134979495Y-67111750D02*
X134405209Y-68076035D01*
X135234733Y-67897464D02*
X135362352Y-67897464D01*
X135362352Y-67897464D02*
X135426162Y-67861750D01*
X135426162Y-67861750D02*
X135458066Y-67826035D01*
X135458066Y-67826035D02*
X135521876Y-67718892D01*
X135521876Y-67718892D02*
X135553781Y-67576035D01*
X135553781Y-67576035D02*
X135553781Y-67290321D01*
X135553781Y-67290321D02*
X135521876Y-67218892D01*
X135521876Y-67218892D02*
X135489971Y-67183178D01*
X135489971Y-67183178D02*
X135426162Y-67147464D01*
X135426162Y-67147464D02*
X135298543Y-67147464D01*
X135298543Y-67147464D02*
X135234733Y-67183178D01*
X135234733Y-67183178D02*
X135202828Y-67218892D01*
X135202828Y-67218892D02*
X135170924Y-67290321D01*
X135170924Y-67290321D02*
X135170924Y-67468892D01*
X135170924Y-67468892D02*
X135202828Y-67540321D01*
X135202828Y-67540321D02*
X135234733Y-67576035D01*
X135234733Y-67576035D02*
X135298543Y-67611750D01*
X135298543Y-67611750D02*
X135426162Y-67611750D01*
X135426162Y-67611750D02*
X135489971Y-67576035D01*
X135489971Y-67576035D02*
X135521876Y-67540321D01*
X135521876Y-67540321D02*
X135553781Y-67468892D01*
X123576876Y-46827464D02*
X123800209Y-47577464D01*
X123800209Y-47577464D02*
X124023543Y-46827464D01*
X124629733Y-47506035D02*
X124597829Y-47541750D01*
X124597829Y-47541750D02*
X124502114Y-47577464D01*
X124502114Y-47577464D02*
X124438305Y-47577464D01*
X124438305Y-47577464D02*
X124342591Y-47541750D01*
X124342591Y-47541750D02*
X124278781Y-47470321D01*
X124278781Y-47470321D02*
X124246876Y-47398892D01*
X124246876Y-47398892D02*
X124214972Y-47256035D01*
X124214972Y-47256035D02*
X124214972Y-47148892D01*
X124214972Y-47148892D02*
X124246876Y-47006035D01*
X124246876Y-47006035D02*
X124278781Y-46934607D01*
X124278781Y-46934607D02*
X124342591Y-46863178D01*
X124342591Y-46863178D02*
X124438305Y-46827464D01*
X124438305Y-46827464D02*
X124502114Y-46827464D01*
X124502114Y-46827464D02*
X124597829Y-46863178D01*
X124597829Y-46863178D02*
X124629733Y-46898892D01*
X125299733Y-47506035D02*
X125267829Y-47541750D01*
X125267829Y-47541750D02*
X125172114Y-47577464D01*
X125172114Y-47577464D02*
X125108305Y-47577464D01*
X125108305Y-47577464D02*
X125012591Y-47541750D01*
X125012591Y-47541750D02*
X124948781Y-47470321D01*
X124948781Y-47470321D02*
X124916876Y-47398892D01*
X124916876Y-47398892D02*
X124884972Y-47256035D01*
X124884972Y-47256035D02*
X124884972Y-47148892D01*
X124884972Y-47148892D02*
X124916876Y-47006035D01*
X124916876Y-47006035D02*
X124948781Y-46934607D01*
X124948781Y-46934607D02*
X125012591Y-46863178D01*
X125012591Y-46863178D02*
X125108305Y-46827464D01*
X125108305Y-46827464D02*
X125172114Y-46827464D01*
X125172114Y-46827464D02*
X125267829Y-46863178D01*
X125267829Y-46863178D02*
X125299733Y-46898892D01*
X133575685Y-57666035D02*
X133543781Y-57701750D01*
X133543781Y-57701750D02*
X133448066Y-57737464D01*
X133448066Y-57737464D02*
X133384257Y-57737464D01*
X133384257Y-57737464D02*
X133288543Y-57701750D01*
X133288543Y-57701750D02*
X133224733Y-57630321D01*
X133224733Y-57630321D02*
X133192828Y-57558892D01*
X133192828Y-57558892D02*
X133160924Y-57416035D01*
X133160924Y-57416035D02*
X133160924Y-57308892D01*
X133160924Y-57308892D02*
X133192828Y-57166035D01*
X133192828Y-57166035D02*
X133224733Y-57094607D01*
X133224733Y-57094607D02*
X133288543Y-57023178D01*
X133288543Y-57023178D02*
X133384257Y-56987464D01*
X133384257Y-56987464D02*
X133448066Y-56987464D01*
X133448066Y-56987464D02*
X133543781Y-57023178D01*
X133543781Y-57023178D02*
X133575685Y-57058892D01*
X134149971Y-56987464D02*
X134022352Y-56987464D01*
X134022352Y-56987464D02*
X133958543Y-57023178D01*
X133958543Y-57023178D02*
X133926638Y-57058892D01*
X133926638Y-57058892D02*
X133862828Y-57166035D01*
X133862828Y-57166035D02*
X133830924Y-57308892D01*
X133830924Y-57308892D02*
X133830924Y-57594607D01*
X133830924Y-57594607D02*
X133862828Y-57666035D01*
X133862828Y-57666035D02*
X133894733Y-57701750D01*
X133894733Y-57701750D02*
X133958543Y-57737464D01*
X133958543Y-57737464D02*
X134086162Y-57737464D01*
X134086162Y-57737464D02*
X134149971Y-57701750D01*
X134149971Y-57701750D02*
X134181876Y-57666035D01*
X134181876Y-57666035D02*
X134213781Y-57594607D01*
X134213781Y-57594607D02*
X134213781Y-57416035D01*
X134213781Y-57416035D02*
X134181876Y-57344607D01*
X134181876Y-57344607D02*
X134149971Y-57308892D01*
X134149971Y-57308892D02*
X134086162Y-57273178D01*
X134086162Y-57273178D02*
X133958543Y-57273178D01*
X133958543Y-57273178D02*
X133894733Y-57308892D01*
X133894733Y-57308892D02*
X133862828Y-57344607D01*
X133862828Y-57344607D02*
X133830924Y-57416035D01*
X134979495Y-56951750D02*
X134405209Y-57916035D01*
X135521876Y-56987464D02*
X135202828Y-56987464D01*
X135202828Y-56987464D02*
X135170924Y-57344607D01*
X135170924Y-57344607D02*
X135202828Y-57308892D01*
X135202828Y-57308892D02*
X135266638Y-57273178D01*
X135266638Y-57273178D02*
X135426162Y-57273178D01*
X135426162Y-57273178D02*
X135489971Y-57308892D01*
X135489971Y-57308892D02*
X135521876Y-57344607D01*
X135521876Y-57344607D02*
X135553781Y-57416035D01*
X135553781Y-57416035D02*
X135553781Y-57594607D01*
X135553781Y-57594607D02*
X135521876Y-57666035D01*
X135521876Y-57666035D02*
X135489971Y-57701750D01*
X135489971Y-57701750D02*
X135426162Y-57737464D01*
X135426162Y-57737464D02*
X135266638Y-57737464D01*
X135266638Y-57737464D02*
X135202828Y-57701750D01*
X135202828Y-57701750D02*
X135170924Y-57666035D01*
X131884733Y-42497464D02*
X131884733Y-41747464D01*
X131884733Y-41747464D02*
X132044257Y-41747464D01*
X132044257Y-41747464D02*
X132139971Y-41783178D01*
X132139971Y-41783178D02*
X132203781Y-41854607D01*
X132203781Y-41854607D02*
X132235686Y-41926035D01*
X132235686Y-41926035D02*
X132267590Y-42068892D01*
X132267590Y-42068892D02*
X132267590Y-42176035D01*
X132267590Y-42176035D02*
X132235686Y-42318892D01*
X132235686Y-42318892D02*
X132203781Y-42390321D01*
X132203781Y-42390321D02*
X132139971Y-42461750D01*
X132139971Y-42461750D02*
X132044257Y-42497464D01*
X132044257Y-42497464D02*
X131884733Y-42497464D01*
X132522829Y-41818892D02*
X132554733Y-41783178D01*
X132554733Y-41783178D02*
X132618543Y-41747464D01*
X132618543Y-41747464D02*
X132778067Y-41747464D01*
X132778067Y-41747464D02*
X132841876Y-41783178D01*
X132841876Y-41783178D02*
X132873781Y-41818892D01*
X132873781Y-41818892D02*
X132905686Y-41890321D01*
X132905686Y-41890321D02*
X132905686Y-41961750D01*
X132905686Y-41961750D02*
X132873781Y-42068892D01*
X132873781Y-42068892D02*
X132490924Y-42497464D01*
X132490924Y-42497464D02*
X132905686Y-42497464D01*
X133671400Y-41711750D02*
X133097114Y-42676035D01*
X134277590Y-42497464D02*
X134054257Y-42140321D01*
X133894733Y-42497464D02*
X133894733Y-41747464D01*
X133894733Y-41747464D02*
X134149971Y-41747464D01*
X134149971Y-41747464D02*
X134213781Y-41783178D01*
X134213781Y-41783178D02*
X134245686Y-41818892D01*
X134245686Y-41818892D02*
X134277590Y-41890321D01*
X134277590Y-41890321D02*
X134277590Y-41997464D01*
X134277590Y-41997464D02*
X134245686Y-42068892D01*
X134245686Y-42068892D02*
X134213781Y-42104607D01*
X134213781Y-42104607D02*
X134149971Y-42140321D01*
X134149971Y-42140321D02*
X133894733Y-42140321D01*
X134500924Y-41747464D02*
X134947590Y-42497464D01*
X134947590Y-41747464D02*
X134500924Y-42497464D01*
X135553781Y-42497464D02*
X135170924Y-42497464D01*
X135362352Y-42497464D02*
X135362352Y-41747464D01*
X135362352Y-41747464D02*
X135298543Y-41854607D01*
X135298543Y-41854607D02*
X135234733Y-41926035D01*
X135234733Y-41926035D02*
X135170924Y-41961750D01*
X132044256Y-39957464D02*
X132044256Y-39207464D01*
X132044256Y-39207464D02*
X132203780Y-39207464D01*
X132203780Y-39207464D02*
X132299494Y-39243178D01*
X132299494Y-39243178D02*
X132363304Y-39314607D01*
X132363304Y-39314607D02*
X132395209Y-39386035D01*
X132395209Y-39386035D02*
X132427113Y-39528892D01*
X132427113Y-39528892D02*
X132427113Y-39636035D01*
X132427113Y-39636035D02*
X132395209Y-39778892D01*
X132395209Y-39778892D02*
X132363304Y-39850321D01*
X132363304Y-39850321D02*
X132299494Y-39921750D01*
X132299494Y-39921750D02*
X132203780Y-39957464D01*
X132203780Y-39957464D02*
X132044256Y-39957464D01*
X132650447Y-39207464D02*
X133065209Y-39207464D01*
X133065209Y-39207464D02*
X132841875Y-39493178D01*
X132841875Y-39493178D02*
X132937590Y-39493178D01*
X132937590Y-39493178D02*
X133001399Y-39528892D01*
X133001399Y-39528892D02*
X133033304Y-39564607D01*
X133033304Y-39564607D02*
X133065209Y-39636035D01*
X133065209Y-39636035D02*
X133065209Y-39814607D01*
X133065209Y-39814607D02*
X133033304Y-39886035D01*
X133033304Y-39886035D02*
X133001399Y-39921750D01*
X133001399Y-39921750D02*
X132937590Y-39957464D01*
X132937590Y-39957464D02*
X132746161Y-39957464D01*
X132746161Y-39957464D02*
X132682352Y-39921750D01*
X132682352Y-39921750D02*
X132650447Y-39886035D01*
X133830923Y-39171750D02*
X133256637Y-40136035D01*
X133958542Y-39207464D02*
X134341399Y-39207464D01*
X134149971Y-39957464D02*
X134149971Y-39207464D01*
X134500923Y-39207464D02*
X134947589Y-39957464D01*
X134947589Y-39207464D02*
X134500923Y-39957464D01*
X135330446Y-39207464D02*
X135394256Y-39207464D01*
X135394256Y-39207464D02*
X135458065Y-39243178D01*
X135458065Y-39243178D02*
X135489970Y-39278892D01*
X135489970Y-39278892D02*
X135521875Y-39350321D01*
X135521875Y-39350321D02*
X135553780Y-39493178D01*
X135553780Y-39493178D02*
X135553780Y-39671750D01*
X135553780Y-39671750D02*
X135521875Y-39814607D01*
X135521875Y-39814607D02*
X135489970Y-39886035D01*
X135489970Y-39886035D02*
X135458065Y-39921750D01*
X135458065Y-39921750D02*
X135394256Y-39957464D01*
X135394256Y-39957464D02*
X135330446Y-39957464D01*
X135330446Y-39957464D02*
X135266637Y-39921750D01*
X135266637Y-39921750D02*
X135234732Y-39886035D01*
X135234732Y-39886035D02*
X135202827Y-39814607D01*
X135202827Y-39814607D02*
X135170923Y-39671750D01*
X135170923Y-39671750D02*
X135170923Y-39493178D01*
X135170923Y-39493178D02*
X135202827Y-39350321D01*
X135202827Y-39350321D02*
X135234732Y-39278892D01*
X135234732Y-39278892D02*
X135266637Y-39243178D01*
X135266637Y-39243178D02*
X135330446Y-39207464D01*
X130608543Y-52621750D02*
X130704257Y-52657464D01*
X130704257Y-52657464D02*
X130863781Y-52657464D01*
X130863781Y-52657464D02*
X130927590Y-52621750D01*
X130927590Y-52621750D02*
X130959495Y-52586035D01*
X130959495Y-52586035D02*
X130991400Y-52514607D01*
X130991400Y-52514607D02*
X130991400Y-52443178D01*
X130991400Y-52443178D02*
X130959495Y-52371750D01*
X130959495Y-52371750D02*
X130927590Y-52336035D01*
X130927590Y-52336035D02*
X130863781Y-52300321D01*
X130863781Y-52300321D02*
X130736162Y-52264607D01*
X130736162Y-52264607D02*
X130672352Y-52228892D01*
X130672352Y-52228892D02*
X130640447Y-52193178D01*
X130640447Y-52193178D02*
X130608543Y-52121750D01*
X130608543Y-52121750D02*
X130608543Y-52050321D01*
X130608543Y-52050321D02*
X130640447Y-51978892D01*
X130640447Y-51978892D02*
X130672352Y-51943178D01*
X130672352Y-51943178D02*
X130736162Y-51907464D01*
X130736162Y-51907464D02*
X130895685Y-51907464D01*
X130895685Y-51907464D02*
X130991400Y-51943178D01*
X131661399Y-52586035D02*
X131629495Y-52621750D01*
X131629495Y-52621750D02*
X131533780Y-52657464D01*
X131533780Y-52657464D02*
X131469971Y-52657464D01*
X131469971Y-52657464D02*
X131374257Y-52621750D01*
X131374257Y-52621750D02*
X131310447Y-52550321D01*
X131310447Y-52550321D02*
X131278542Y-52478892D01*
X131278542Y-52478892D02*
X131246638Y-52336035D01*
X131246638Y-52336035D02*
X131246638Y-52228892D01*
X131246638Y-52228892D02*
X131278542Y-52086035D01*
X131278542Y-52086035D02*
X131310447Y-52014607D01*
X131310447Y-52014607D02*
X131374257Y-51943178D01*
X131374257Y-51943178D02*
X131469971Y-51907464D01*
X131469971Y-51907464D02*
X131533780Y-51907464D01*
X131533780Y-51907464D02*
X131629495Y-51943178D01*
X131629495Y-51943178D02*
X131661399Y-51978892D01*
X132267590Y-52657464D02*
X131948542Y-52657464D01*
X131948542Y-52657464D02*
X131948542Y-51907464D01*
X132969495Y-51871750D02*
X132395209Y-52836035D01*
X133192828Y-52657464D02*
X133192828Y-51907464D01*
X133192828Y-51907464D02*
X133352352Y-51907464D01*
X133352352Y-51907464D02*
X133448066Y-51943178D01*
X133448066Y-51943178D02*
X133511876Y-52014607D01*
X133511876Y-52014607D02*
X133543781Y-52086035D01*
X133543781Y-52086035D02*
X133575685Y-52228892D01*
X133575685Y-52228892D02*
X133575685Y-52336035D01*
X133575685Y-52336035D02*
X133543781Y-52478892D01*
X133543781Y-52478892D02*
X133511876Y-52550321D01*
X133511876Y-52550321D02*
X133448066Y-52621750D01*
X133448066Y-52621750D02*
X133352352Y-52657464D01*
X133352352Y-52657464D02*
X133192828Y-52657464D01*
X133990447Y-51907464D02*
X134054257Y-51907464D01*
X134054257Y-51907464D02*
X134118066Y-51943178D01*
X134118066Y-51943178D02*
X134149971Y-51978892D01*
X134149971Y-51978892D02*
X134181876Y-52050321D01*
X134181876Y-52050321D02*
X134213781Y-52193178D01*
X134213781Y-52193178D02*
X134213781Y-52371750D01*
X134213781Y-52371750D02*
X134181876Y-52514607D01*
X134181876Y-52514607D02*
X134149971Y-52586035D01*
X134149971Y-52586035D02*
X134118066Y-52621750D01*
X134118066Y-52621750D02*
X134054257Y-52657464D01*
X134054257Y-52657464D02*
X133990447Y-52657464D01*
X133990447Y-52657464D02*
X133926638Y-52621750D01*
X133926638Y-52621750D02*
X133894733Y-52586035D01*
X133894733Y-52586035D02*
X133862828Y-52514607D01*
X133862828Y-52514607D02*
X133830924Y-52371750D01*
X133830924Y-52371750D02*
X133830924Y-52193178D01*
X133830924Y-52193178D02*
X133862828Y-52050321D01*
X133862828Y-52050321D02*
X133894733Y-51978892D01*
X133894733Y-51978892D02*
X133926638Y-51943178D01*
X133926638Y-51943178D02*
X133990447Y-51907464D01*
X134979495Y-51871750D02*
X134405209Y-52836035D01*
X135139019Y-51907464D02*
X135553781Y-51907464D01*
X135553781Y-51907464D02*
X135330447Y-52193178D01*
X135330447Y-52193178D02*
X135426162Y-52193178D01*
X135426162Y-52193178D02*
X135489971Y-52228892D01*
X135489971Y-52228892D02*
X135521876Y-52264607D01*
X135521876Y-52264607D02*
X135553781Y-52336035D01*
X135553781Y-52336035D02*
X135553781Y-52514607D01*
X135553781Y-52514607D02*
X135521876Y-52586035D01*
X135521876Y-52586035D02*
X135489971Y-52621750D01*
X135489971Y-52621750D02*
X135426162Y-52657464D01*
X135426162Y-52657464D02*
X135234733Y-52657464D01*
X135234733Y-52657464D02*
X135170924Y-52621750D01*
X135170924Y-52621750D02*
X135139019Y-52586035D01*
X133192828Y-60277464D02*
X133192828Y-59527464D01*
X133192828Y-59527464D02*
X133352352Y-59527464D01*
X133352352Y-59527464D02*
X133448066Y-59563178D01*
X133448066Y-59563178D02*
X133511876Y-59634607D01*
X133511876Y-59634607D02*
X133543781Y-59706035D01*
X133543781Y-59706035D02*
X133575685Y-59848892D01*
X133575685Y-59848892D02*
X133575685Y-59956035D01*
X133575685Y-59956035D02*
X133543781Y-60098892D01*
X133543781Y-60098892D02*
X133511876Y-60170321D01*
X133511876Y-60170321D02*
X133448066Y-60241750D01*
X133448066Y-60241750D02*
X133352352Y-60277464D01*
X133352352Y-60277464D02*
X133192828Y-60277464D01*
X133799019Y-59527464D02*
X134245685Y-59527464D01*
X134245685Y-59527464D02*
X133958543Y-60277464D01*
X134979495Y-59491750D02*
X134405209Y-60456035D01*
X135489971Y-59527464D02*
X135362352Y-59527464D01*
X135362352Y-59527464D02*
X135298543Y-59563178D01*
X135298543Y-59563178D02*
X135266638Y-59598892D01*
X135266638Y-59598892D02*
X135202828Y-59706035D01*
X135202828Y-59706035D02*
X135170924Y-59848892D01*
X135170924Y-59848892D02*
X135170924Y-60134607D01*
X135170924Y-60134607D02*
X135202828Y-60206035D01*
X135202828Y-60206035D02*
X135234733Y-60241750D01*
X135234733Y-60241750D02*
X135298543Y-60277464D01*
X135298543Y-60277464D02*
X135426162Y-60277464D01*
X135426162Y-60277464D02*
X135489971Y-60241750D01*
X135489971Y-60241750D02*
X135521876Y-60206035D01*
X135521876Y-60206035D02*
X135553781Y-60134607D01*
X135553781Y-60134607D02*
X135553781Y-59956035D01*
X135553781Y-59956035D02*
X135521876Y-59884607D01*
X135521876Y-59884607D02*
X135489971Y-59848892D01*
X135489971Y-59848892D02*
X135426162Y-59813178D01*
X135426162Y-59813178D02*
X135298543Y-59813178D01*
X135298543Y-59813178D02*
X135234733Y-59848892D01*
X135234733Y-59848892D02*
X135202828Y-59884607D01*
X135202828Y-59884607D02*
X135170924Y-59956035D01*
X130576638Y-50081750D02*
X130672352Y-50117464D01*
X130672352Y-50117464D02*
X130831876Y-50117464D01*
X130831876Y-50117464D02*
X130895685Y-50081750D01*
X130895685Y-50081750D02*
X130927590Y-50046035D01*
X130927590Y-50046035D02*
X130959495Y-49974607D01*
X130959495Y-49974607D02*
X130959495Y-49903178D01*
X130959495Y-49903178D02*
X130927590Y-49831750D01*
X130927590Y-49831750D02*
X130895685Y-49796035D01*
X130895685Y-49796035D02*
X130831876Y-49760321D01*
X130831876Y-49760321D02*
X130704257Y-49724607D01*
X130704257Y-49724607D02*
X130640447Y-49688892D01*
X130640447Y-49688892D02*
X130608542Y-49653178D01*
X130608542Y-49653178D02*
X130576638Y-49581750D01*
X130576638Y-49581750D02*
X130576638Y-49510321D01*
X130576638Y-49510321D02*
X130608542Y-49438892D01*
X130608542Y-49438892D02*
X130640447Y-49403178D01*
X130640447Y-49403178D02*
X130704257Y-49367464D01*
X130704257Y-49367464D02*
X130863780Y-49367464D01*
X130863780Y-49367464D02*
X130959495Y-49403178D01*
X131246637Y-50117464D02*
X131246637Y-49367464D01*
X131246637Y-49367464D02*
X131406161Y-49367464D01*
X131406161Y-49367464D02*
X131501875Y-49403178D01*
X131501875Y-49403178D02*
X131565685Y-49474607D01*
X131565685Y-49474607D02*
X131597590Y-49546035D01*
X131597590Y-49546035D02*
X131629494Y-49688892D01*
X131629494Y-49688892D02*
X131629494Y-49796035D01*
X131629494Y-49796035D02*
X131597590Y-49938892D01*
X131597590Y-49938892D02*
X131565685Y-50010321D01*
X131565685Y-50010321D02*
X131501875Y-50081750D01*
X131501875Y-50081750D02*
X131406161Y-50117464D01*
X131406161Y-50117464D02*
X131246637Y-50117464D01*
X131884733Y-49903178D02*
X132203780Y-49903178D01*
X131820923Y-50117464D02*
X132044256Y-49367464D01*
X132044256Y-49367464D02*
X132267590Y-50117464D01*
X132969495Y-49331750D02*
X132395209Y-50296035D01*
X133192828Y-50117464D02*
X133192828Y-49367464D01*
X133192828Y-49367464D02*
X133352352Y-49367464D01*
X133352352Y-49367464D02*
X133448066Y-49403178D01*
X133448066Y-49403178D02*
X133511876Y-49474607D01*
X133511876Y-49474607D02*
X133543781Y-49546035D01*
X133543781Y-49546035D02*
X133575685Y-49688892D01*
X133575685Y-49688892D02*
X133575685Y-49796035D01*
X133575685Y-49796035D02*
X133543781Y-49938892D01*
X133543781Y-49938892D02*
X133511876Y-50010321D01*
X133511876Y-50010321D02*
X133448066Y-50081750D01*
X133448066Y-50081750D02*
X133352352Y-50117464D01*
X133352352Y-50117464D02*
X133192828Y-50117464D01*
X134213781Y-50117464D02*
X133830924Y-50117464D01*
X134022352Y-50117464D02*
X134022352Y-49367464D01*
X134022352Y-49367464D02*
X133958543Y-49474607D01*
X133958543Y-49474607D02*
X133894733Y-49546035D01*
X133894733Y-49546035D02*
X133830924Y-49581750D01*
X134979495Y-49331750D02*
X134405209Y-50296035D01*
X135170924Y-49438892D02*
X135202828Y-49403178D01*
X135202828Y-49403178D02*
X135266638Y-49367464D01*
X135266638Y-49367464D02*
X135426162Y-49367464D01*
X135426162Y-49367464D02*
X135489971Y-49403178D01*
X135489971Y-49403178D02*
X135521876Y-49438892D01*
X135521876Y-49438892D02*
X135553781Y-49510321D01*
X135553781Y-49510321D02*
X135553781Y-49581750D01*
X135553781Y-49581750D02*
X135521876Y-49688892D01*
X135521876Y-49688892D02*
X135139019Y-50117464D01*
X135139019Y-50117464D02*
X135553781Y-50117464D01*
X124023543Y-62817464D02*
X123640686Y-62817464D01*
X123832114Y-62817464D02*
X123832114Y-62067464D01*
X123832114Y-62067464D02*
X123768305Y-62174607D01*
X123768305Y-62174607D02*
X123704495Y-62246035D01*
X123704495Y-62246035D02*
X123640686Y-62281750D01*
X124597828Y-62317464D02*
X124597828Y-62817464D01*
X124438304Y-62031750D02*
X124278781Y-62567464D01*
X124278781Y-62567464D02*
X124693542Y-62567464D01*
X125427352Y-62031750D02*
X124853066Y-62996035D01*
X125874019Y-62424607D02*
X125969733Y-62460321D01*
X125969733Y-62460321D02*
X126001638Y-62496035D01*
X126001638Y-62496035D02*
X126033542Y-62567464D01*
X126033542Y-62567464D02*
X126033542Y-62674607D01*
X126033542Y-62674607D02*
X126001638Y-62746035D01*
X126001638Y-62746035D02*
X125969733Y-62781750D01*
X125969733Y-62781750D02*
X125905923Y-62817464D01*
X125905923Y-62817464D02*
X125650685Y-62817464D01*
X125650685Y-62817464D02*
X125650685Y-62067464D01*
X125650685Y-62067464D02*
X125874019Y-62067464D01*
X125874019Y-62067464D02*
X125937828Y-62103178D01*
X125937828Y-62103178D02*
X125969733Y-62138892D01*
X125969733Y-62138892D02*
X126001638Y-62210321D01*
X126001638Y-62210321D02*
X126001638Y-62281750D01*
X126001638Y-62281750D02*
X125969733Y-62353178D01*
X125969733Y-62353178D02*
X125937828Y-62388892D01*
X125937828Y-62388892D02*
X125874019Y-62424607D01*
X125874019Y-62424607D02*
X125650685Y-62424607D01*
X126256876Y-62067464D02*
X126671638Y-62067464D01*
X126671638Y-62067464D02*
X126448304Y-62353178D01*
X126448304Y-62353178D02*
X126544019Y-62353178D01*
X126544019Y-62353178D02*
X126607828Y-62388892D01*
X126607828Y-62388892D02*
X126639733Y-62424607D01*
X126639733Y-62424607D02*
X126671638Y-62496035D01*
X126671638Y-62496035D02*
X126671638Y-62674607D01*
X126671638Y-62674607D02*
X126639733Y-62746035D01*
X126639733Y-62746035D02*
X126607828Y-62781750D01*
X126607828Y-62781750D02*
X126544019Y-62817464D01*
X126544019Y-62817464D02*
X126352590Y-62817464D01*
X126352590Y-62817464D02*
X126288781Y-62781750D01*
X126288781Y-62781750D02*
X126256876Y-62746035D01*
X124055447Y-45037464D02*
X123832114Y-44680321D01*
X123672590Y-45037464D02*
X123672590Y-44287464D01*
X123672590Y-44287464D02*
X123927828Y-44287464D01*
X123927828Y-44287464D02*
X123991638Y-44323178D01*
X123991638Y-44323178D02*
X124023543Y-44358892D01*
X124023543Y-44358892D02*
X124055447Y-44430321D01*
X124055447Y-44430321D02*
X124055447Y-44537464D01*
X124055447Y-44537464D02*
X124023543Y-44608892D01*
X124023543Y-44608892D02*
X123991638Y-44644607D01*
X123991638Y-44644607D02*
X123927828Y-44680321D01*
X123927828Y-44680321D02*
X123672590Y-44680321D01*
X124310686Y-45001750D02*
X124406400Y-45037464D01*
X124406400Y-45037464D02*
X124565924Y-45037464D01*
X124565924Y-45037464D02*
X124629733Y-45001750D01*
X124629733Y-45001750D02*
X124661638Y-44966035D01*
X124661638Y-44966035D02*
X124693543Y-44894607D01*
X124693543Y-44894607D02*
X124693543Y-44823178D01*
X124693543Y-44823178D02*
X124661638Y-44751750D01*
X124661638Y-44751750D02*
X124629733Y-44716035D01*
X124629733Y-44716035D02*
X124565924Y-44680321D01*
X124565924Y-44680321D02*
X124438305Y-44644607D01*
X124438305Y-44644607D02*
X124374495Y-44608892D01*
X124374495Y-44608892D02*
X124342590Y-44573178D01*
X124342590Y-44573178D02*
X124310686Y-44501750D01*
X124310686Y-44501750D02*
X124310686Y-44430321D01*
X124310686Y-44430321D02*
X124342590Y-44358892D01*
X124342590Y-44358892D02*
X124374495Y-44323178D01*
X124374495Y-44323178D02*
X124438305Y-44287464D01*
X124438305Y-44287464D02*
X124597828Y-44287464D01*
X124597828Y-44287464D02*
X124693543Y-44323178D01*
X124884971Y-44287464D02*
X125267828Y-44287464D01*
X125076400Y-45037464D02*
X125076400Y-44287464D01*
X123640686Y-49903178D02*
X123959733Y-49903178D01*
X123576876Y-50117464D02*
X123800209Y-49367464D01*
X123800209Y-49367464D02*
X124023543Y-50117464D01*
X124183067Y-49367464D02*
X124597829Y-49367464D01*
X124597829Y-49367464D02*
X124374495Y-49653178D01*
X124374495Y-49653178D02*
X124470210Y-49653178D01*
X124470210Y-49653178D02*
X124534019Y-49688892D01*
X124534019Y-49688892D02*
X124565924Y-49724607D01*
X124565924Y-49724607D02*
X124597829Y-49796035D01*
X124597829Y-49796035D02*
X124597829Y-49974607D01*
X124597829Y-49974607D02*
X124565924Y-50046035D01*
X124565924Y-50046035D02*
X124534019Y-50081750D01*
X124534019Y-50081750D02*
X124470210Y-50117464D01*
X124470210Y-50117464D02*
X124278781Y-50117464D01*
X124278781Y-50117464D02*
X124214972Y-50081750D01*
X124214972Y-50081750D02*
X124183067Y-50046035D01*
X125363543Y-49331750D02*
X124789257Y-50296035D01*
X125810210Y-49724607D02*
X125586876Y-49724607D01*
X125586876Y-50117464D02*
X125586876Y-49367464D01*
X125586876Y-49367464D02*
X125905924Y-49367464D01*
X126448305Y-49617464D02*
X126448305Y-50117464D01*
X126288781Y-49331750D02*
X126129258Y-49867464D01*
X126129258Y-49867464D02*
X126544019Y-49867464D01*
X123640686Y-52443178D02*
X123959733Y-52443178D01*
X123576876Y-52657464D02*
X123800209Y-51907464D01*
X123800209Y-51907464D02*
X124023543Y-52657464D01*
X124214972Y-51978892D02*
X124246876Y-51943178D01*
X124246876Y-51943178D02*
X124310686Y-51907464D01*
X124310686Y-51907464D02*
X124470210Y-51907464D01*
X124470210Y-51907464D02*
X124534019Y-51943178D01*
X124534019Y-51943178D02*
X124565924Y-51978892D01*
X124565924Y-51978892D02*
X124597829Y-52050321D01*
X124597829Y-52050321D02*
X124597829Y-52121750D01*
X124597829Y-52121750D02*
X124565924Y-52228892D01*
X124565924Y-52228892D02*
X124183067Y-52657464D01*
X124183067Y-52657464D02*
X124597829Y-52657464D01*
X125363543Y-51871750D02*
X124789257Y-52836035D01*
X125810210Y-52264607D02*
X125586876Y-52264607D01*
X125586876Y-52657464D02*
X125586876Y-51907464D01*
X125586876Y-51907464D02*
X125905924Y-51907464D01*
X126480210Y-51907464D02*
X126161162Y-51907464D01*
X126161162Y-51907464D02*
X126129258Y-52264607D01*
X126129258Y-52264607D02*
X126161162Y-52228892D01*
X126161162Y-52228892D02*
X126224972Y-52193178D01*
X126224972Y-52193178D02*
X126384496Y-52193178D01*
X126384496Y-52193178D02*
X126448305Y-52228892D01*
X126448305Y-52228892D02*
X126480210Y-52264607D01*
X126480210Y-52264607D02*
X126512115Y-52336035D01*
X126512115Y-52336035D02*
X126512115Y-52514607D01*
X126512115Y-52514607D02*
X126480210Y-52586035D01*
X126480210Y-52586035D02*
X126448305Y-52621750D01*
X126448305Y-52621750D02*
X126384496Y-52657464D01*
X126384496Y-52657464D02*
X126224972Y-52657464D01*
X126224972Y-52657464D02*
X126161162Y-52621750D01*
X126161162Y-52621750D02*
X126129258Y-52586035D01*
X124023543Y-41783178D02*
X123959733Y-41747464D01*
X123959733Y-41747464D02*
X123864019Y-41747464D01*
X123864019Y-41747464D02*
X123768305Y-41783178D01*
X123768305Y-41783178D02*
X123704495Y-41854607D01*
X123704495Y-41854607D02*
X123672590Y-41926035D01*
X123672590Y-41926035D02*
X123640686Y-42068892D01*
X123640686Y-42068892D02*
X123640686Y-42176035D01*
X123640686Y-42176035D02*
X123672590Y-42318892D01*
X123672590Y-42318892D02*
X123704495Y-42390321D01*
X123704495Y-42390321D02*
X123768305Y-42461750D01*
X123768305Y-42461750D02*
X123864019Y-42497464D01*
X123864019Y-42497464D02*
X123927828Y-42497464D01*
X123927828Y-42497464D02*
X124023543Y-42461750D01*
X124023543Y-42461750D02*
X124055447Y-42426035D01*
X124055447Y-42426035D02*
X124055447Y-42176035D01*
X124055447Y-42176035D02*
X123927828Y-42176035D01*
X124342590Y-42497464D02*
X124342590Y-41747464D01*
X124342590Y-41747464D02*
X124725447Y-42497464D01*
X124725447Y-42497464D02*
X124725447Y-41747464D01*
X125044495Y-42497464D02*
X125044495Y-41747464D01*
X125044495Y-41747464D02*
X125204019Y-41747464D01*
X125204019Y-41747464D02*
X125299733Y-41783178D01*
X125299733Y-41783178D02*
X125363543Y-41854607D01*
X125363543Y-41854607D02*
X125395448Y-41926035D01*
X125395448Y-41926035D02*
X125427352Y-42068892D01*
X125427352Y-42068892D02*
X125427352Y-42176035D01*
X125427352Y-42176035D02*
X125395448Y-42318892D01*
X125395448Y-42318892D02*
X125363543Y-42390321D01*
X125363543Y-42390321D02*
X125299733Y-42461750D01*
X125299733Y-42461750D02*
X125204019Y-42497464D01*
X125204019Y-42497464D02*
X125044495Y-42497464D01*
X124055447Y-39957464D02*
X123832114Y-39600321D01*
X123672590Y-39957464D02*
X123672590Y-39207464D01*
X123672590Y-39207464D02*
X123927828Y-39207464D01*
X123927828Y-39207464D02*
X123991638Y-39243178D01*
X123991638Y-39243178D02*
X124023543Y-39278892D01*
X124023543Y-39278892D02*
X124055447Y-39350321D01*
X124055447Y-39350321D02*
X124055447Y-39457464D01*
X124055447Y-39457464D02*
X124023543Y-39528892D01*
X124023543Y-39528892D02*
X123991638Y-39564607D01*
X123991638Y-39564607D02*
X123927828Y-39600321D01*
X123927828Y-39600321D02*
X123672590Y-39600321D01*
X124310686Y-39743178D02*
X124629733Y-39743178D01*
X124246876Y-39957464D02*
X124470209Y-39207464D01*
X124470209Y-39207464D02*
X124693543Y-39957464D01*
X124853067Y-39207464D02*
X125012591Y-39957464D01*
X125012591Y-39957464D02*
X125140210Y-39421750D01*
X125140210Y-39421750D02*
X125267829Y-39957464D01*
X125267829Y-39957464D02*
X125427353Y-39207464D01*
X124023543Y-67897464D02*
X123640686Y-67897464D01*
X123832114Y-67897464D02*
X123832114Y-67147464D01*
X123832114Y-67147464D02*
X123768305Y-67254607D01*
X123768305Y-67254607D02*
X123704495Y-67326035D01*
X123704495Y-67326035D02*
X123640686Y-67361750D01*
X124438304Y-67147464D02*
X124502114Y-67147464D01*
X124502114Y-67147464D02*
X124565923Y-67183178D01*
X124565923Y-67183178D02*
X124597828Y-67218892D01*
X124597828Y-67218892D02*
X124629733Y-67290321D01*
X124629733Y-67290321D02*
X124661638Y-67433178D01*
X124661638Y-67433178D02*
X124661638Y-67611750D01*
X124661638Y-67611750D02*
X124629733Y-67754607D01*
X124629733Y-67754607D02*
X124597828Y-67826035D01*
X124597828Y-67826035D02*
X124565923Y-67861750D01*
X124565923Y-67861750D02*
X124502114Y-67897464D01*
X124502114Y-67897464D02*
X124438304Y-67897464D01*
X124438304Y-67897464D02*
X124374495Y-67861750D01*
X124374495Y-67861750D02*
X124342590Y-67826035D01*
X124342590Y-67826035D02*
X124310685Y-67754607D01*
X124310685Y-67754607D02*
X124278781Y-67611750D01*
X124278781Y-67611750D02*
X124278781Y-67433178D01*
X124278781Y-67433178D02*
X124310685Y-67290321D01*
X124310685Y-67290321D02*
X124342590Y-67218892D01*
X124342590Y-67218892D02*
X124374495Y-67183178D01*
X124374495Y-67183178D02*
X124438304Y-67147464D01*
X125427352Y-67111750D02*
X124853066Y-68076035D01*
X125874019Y-67504607D02*
X125969733Y-67540321D01*
X125969733Y-67540321D02*
X126001638Y-67576035D01*
X126001638Y-67576035D02*
X126033542Y-67647464D01*
X126033542Y-67647464D02*
X126033542Y-67754607D01*
X126033542Y-67754607D02*
X126001638Y-67826035D01*
X126001638Y-67826035D02*
X125969733Y-67861750D01*
X125969733Y-67861750D02*
X125905923Y-67897464D01*
X125905923Y-67897464D02*
X125650685Y-67897464D01*
X125650685Y-67897464D02*
X125650685Y-67147464D01*
X125650685Y-67147464D02*
X125874019Y-67147464D01*
X125874019Y-67147464D02*
X125937828Y-67183178D01*
X125937828Y-67183178D02*
X125969733Y-67218892D01*
X125969733Y-67218892D02*
X126001638Y-67290321D01*
X126001638Y-67290321D02*
X126001638Y-67361750D01*
X126001638Y-67361750D02*
X125969733Y-67433178D01*
X125969733Y-67433178D02*
X125937828Y-67468892D01*
X125937828Y-67468892D02*
X125874019Y-67504607D01*
X125874019Y-67504607D02*
X125650685Y-67504607D01*
X126607828Y-67147464D02*
X126480209Y-67147464D01*
X126480209Y-67147464D02*
X126416400Y-67183178D01*
X126416400Y-67183178D02*
X126384495Y-67218892D01*
X126384495Y-67218892D02*
X126320685Y-67326035D01*
X126320685Y-67326035D02*
X126288781Y-67468892D01*
X126288781Y-67468892D02*
X126288781Y-67754607D01*
X126288781Y-67754607D02*
X126320685Y-67826035D01*
X126320685Y-67826035D02*
X126352590Y-67861750D01*
X126352590Y-67861750D02*
X126416400Y-67897464D01*
X126416400Y-67897464D02*
X126544019Y-67897464D01*
X126544019Y-67897464D02*
X126607828Y-67861750D01*
X126607828Y-67861750D02*
X126639733Y-67826035D01*
X126639733Y-67826035D02*
X126671638Y-67754607D01*
X126671638Y-67754607D02*
X126671638Y-67576035D01*
X126671638Y-67576035D02*
X126639733Y-67504607D01*
X126639733Y-67504607D02*
X126607828Y-67468892D01*
X126607828Y-67468892D02*
X126544019Y-67433178D01*
X126544019Y-67433178D02*
X126416400Y-67433178D01*
X126416400Y-67433178D02*
X126352590Y-67468892D01*
X126352590Y-67468892D02*
X126320685Y-67504607D01*
X126320685Y-67504607D02*
X126288781Y-67576035D01*
X123640686Y-57523178D02*
X123959733Y-57523178D01*
X123576876Y-57737464D02*
X123800209Y-56987464D01*
X123800209Y-56987464D02*
X124023543Y-57737464D01*
X124374495Y-56987464D02*
X124438305Y-56987464D01*
X124438305Y-56987464D02*
X124502114Y-57023178D01*
X124502114Y-57023178D02*
X124534019Y-57058892D01*
X124534019Y-57058892D02*
X124565924Y-57130321D01*
X124565924Y-57130321D02*
X124597829Y-57273178D01*
X124597829Y-57273178D02*
X124597829Y-57451750D01*
X124597829Y-57451750D02*
X124565924Y-57594607D01*
X124565924Y-57594607D02*
X124534019Y-57666035D01*
X124534019Y-57666035D02*
X124502114Y-57701750D01*
X124502114Y-57701750D02*
X124438305Y-57737464D01*
X124438305Y-57737464D02*
X124374495Y-57737464D01*
X124374495Y-57737464D02*
X124310686Y-57701750D01*
X124310686Y-57701750D02*
X124278781Y-57666035D01*
X124278781Y-57666035D02*
X124246876Y-57594607D01*
X124246876Y-57594607D02*
X124214972Y-57451750D01*
X124214972Y-57451750D02*
X124214972Y-57273178D01*
X124214972Y-57273178D02*
X124246876Y-57130321D01*
X124246876Y-57130321D02*
X124278781Y-57058892D01*
X124278781Y-57058892D02*
X124310686Y-57023178D01*
X124310686Y-57023178D02*
X124374495Y-56987464D01*
X125363543Y-56951750D02*
X124789257Y-57916035D01*
X125810210Y-57344607D02*
X125586876Y-57344607D01*
X125586876Y-57737464D02*
X125586876Y-56987464D01*
X125586876Y-56987464D02*
X125905924Y-56987464D01*
X126097353Y-56987464D02*
X126544019Y-56987464D01*
X126544019Y-56987464D02*
X126256877Y-57737464D01*
X133416162Y-64964607D02*
X133511876Y-65000321D01*
X133511876Y-65000321D02*
X133543781Y-65036035D01*
X133543781Y-65036035D02*
X133575685Y-65107464D01*
X133575685Y-65107464D02*
X133575685Y-65214607D01*
X133575685Y-65214607D02*
X133543781Y-65286035D01*
X133543781Y-65286035D02*
X133511876Y-65321750D01*
X133511876Y-65321750D02*
X133448066Y-65357464D01*
X133448066Y-65357464D02*
X133192828Y-65357464D01*
X133192828Y-65357464D02*
X133192828Y-64607464D01*
X133192828Y-64607464D02*
X133416162Y-64607464D01*
X133416162Y-64607464D02*
X133479971Y-64643178D01*
X133479971Y-64643178D02*
X133511876Y-64678892D01*
X133511876Y-64678892D02*
X133543781Y-64750321D01*
X133543781Y-64750321D02*
X133543781Y-64821750D01*
X133543781Y-64821750D02*
X133511876Y-64893178D01*
X133511876Y-64893178D02*
X133479971Y-64928892D01*
X133479971Y-64928892D02*
X133416162Y-64964607D01*
X133416162Y-64964607D02*
X133192828Y-64964607D01*
X134149971Y-64857464D02*
X134149971Y-65357464D01*
X133990447Y-64571750D02*
X133830924Y-65107464D01*
X133830924Y-65107464D02*
X134245685Y-65107464D01*
X134979495Y-64571750D02*
X134405209Y-65536035D01*
X135298543Y-64928892D02*
X135234733Y-64893178D01*
X135234733Y-64893178D02*
X135202828Y-64857464D01*
X135202828Y-64857464D02*
X135170924Y-64786035D01*
X135170924Y-64786035D02*
X135170924Y-64750321D01*
X135170924Y-64750321D02*
X135202828Y-64678892D01*
X135202828Y-64678892D02*
X135234733Y-64643178D01*
X135234733Y-64643178D02*
X135298543Y-64607464D01*
X135298543Y-64607464D02*
X135426162Y-64607464D01*
X135426162Y-64607464D02*
X135489971Y-64643178D01*
X135489971Y-64643178D02*
X135521876Y-64678892D01*
X135521876Y-64678892D02*
X135553781Y-64750321D01*
X135553781Y-64750321D02*
X135553781Y-64786035D01*
X135553781Y-64786035D02*
X135521876Y-64857464D01*
X135521876Y-64857464D02*
X135489971Y-64893178D01*
X135489971Y-64893178D02*
X135426162Y-64928892D01*
X135426162Y-64928892D02*
X135298543Y-64928892D01*
X135298543Y-64928892D02*
X135234733Y-64964607D01*
X135234733Y-64964607D02*
X135202828Y-65000321D01*
X135202828Y-65000321D02*
X135170924Y-65071750D01*
X135170924Y-65071750D02*
X135170924Y-65214607D01*
X135170924Y-65214607D02*
X135202828Y-65286035D01*
X135202828Y-65286035D02*
X135234733Y-65321750D01*
X135234733Y-65321750D02*
X135298543Y-65357464D01*
X135298543Y-65357464D02*
X135426162Y-65357464D01*
X135426162Y-65357464D02*
X135489971Y-65321750D01*
X135489971Y-65321750D02*
X135521876Y-65286035D01*
X135521876Y-65286035D02*
X135553781Y-65214607D01*
X135553781Y-65214607D02*
X135553781Y-65071750D01*
X135553781Y-65071750D02*
X135521876Y-65000321D01*
X135521876Y-65000321D02*
X135489971Y-64964607D01*
X135489971Y-64964607D02*
X135426162Y-64928892D01*
X124023543Y-65357464D02*
X123640686Y-65357464D01*
X123832114Y-65357464D02*
X123832114Y-64607464D01*
X123832114Y-64607464D02*
X123768305Y-64714607D01*
X123768305Y-64714607D02*
X123704495Y-64786035D01*
X123704495Y-64786035D02*
X123640686Y-64821750D01*
X124597828Y-64607464D02*
X124470209Y-64607464D01*
X124470209Y-64607464D02*
X124406400Y-64643178D01*
X124406400Y-64643178D02*
X124374495Y-64678892D01*
X124374495Y-64678892D02*
X124310685Y-64786035D01*
X124310685Y-64786035D02*
X124278781Y-64928892D01*
X124278781Y-64928892D02*
X124278781Y-65214607D01*
X124278781Y-65214607D02*
X124310685Y-65286035D01*
X124310685Y-65286035D02*
X124342590Y-65321750D01*
X124342590Y-65321750D02*
X124406400Y-65357464D01*
X124406400Y-65357464D02*
X124534019Y-65357464D01*
X124534019Y-65357464D02*
X124597828Y-65321750D01*
X124597828Y-65321750D02*
X124629733Y-65286035D01*
X124629733Y-65286035D02*
X124661638Y-65214607D01*
X124661638Y-65214607D02*
X124661638Y-65036035D01*
X124661638Y-65036035D02*
X124629733Y-64964607D01*
X124629733Y-64964607D02*
X124597828Y-64928892D01*
X124597828Y-64928892D02*
X124534019Y-64893178D01*
X124534019Y-64893178D02*
X124406400Y-64893178D01*
X124406400Y-64893178D02*
X124342590Y-64928892D01*
X124342590Y-64928892D02*
X124310685Y-64964607D01*
X124310685Y-64964607D02*
X124278781Y-65036035D01*
X125427352Y-64571750D02*
X124853066Y-65536035D01*
X125874019Y-64964607D02*
X125969733Y-65000321D01*
X125969733Y-65000321D02*
X126001638Y-65036035D01*
X126001638Y-65036035D02*
X126033542Y-65107464D01*
X126033542Y-65107464D02*
X126033542Y-65214607D01*
X126033542Y-65214607D02*
X126001638Y-65286035D01*
X126001638Y-65286035D02*
X125969733Y-65321750D01*
X125969733Y-65321750D02*
X125905923Y-65357464D01*
X125905923Y-65357464D02*
X125650685Y-65357464D01*
X125650685Y-65357464D02*
X125650685Y-64607464D01*
X125650685Y-64607464D02*
X125874019Y-64607464D01*
X125874019Y-64607464D02*
X125937828Y-64643178D01*
X125937828Y-64643178D02*
X125969733Y-64678892D01*
X125969733Y-64678892D02*
X126001638Y-64750321D01*
X126001638Y-64750321D02*
X126001638Y-64821750D01*
X126001638Y-64821750D02*
X125969733Y-64893178D01*
X125969733Y-64893178D02*
X125937828Y-64928892D01*
X125937828Y-64928892D02*
X125874019Y-64964607D01*
X125874019Y-64964607D02*
X125650685Y-64964607D01*
X126288781Y-64678892D02*
X126320685Y-64643178D01*
X126320685Y-64643178D02*
X126384495Y-64607464D01*
X126384495Y-64607464D02*
X126544019Y-64607464D01*
X126544019Y-64607464D02*
X126607828Y-64643178D01*
X126607828Y-64643178D02*
X126639733Y-64678892D01*
X126639733Y-64678892D02*
X126671638Y-64750321D01*
X126671638Y-64750321D02*
X126671638Y-64821750D01*
X126671638Y-64821750D02*
X126639733Y-64928892D01*
X126639733Y-64928892D02*
X126256876Y-65357464D01*
X126256876Y-65357464D02*
X126671638Y-65357464D01*
X133192828Y-55197464D02*
X133192828Y-54447464D01*
X133192828Y-54447464D02*
X133352352Y-54447464D01*
X133352352Y-54447464D02*
X133448066Y-54483178D01*
X133448066Y-54483178D02*
X133511876Y-54554607D01*
X133511876Y-54554607D02*
X133543781Y-54626035D01*
X133543781Y-54626035D02*
X133575685Y-54768892D01*
X133575685Y-54768892D02*
X133575685Y-54876035D01*
X133575685Y-54876035D02*
X133543781Y-55018892D01*
X133543781Y-55018892D02*
X133511876Y-55090321D01*
X133511876Y-55090321D02*
X133448066Y-55161750D01*
X133448066Y-55161750D02*
X133352352Y-55197464D01*
X133352352Y-55197464D02*
X133192828Y-55197464D01*
X134149971Y-54697464D02*
X134149971Y-55197464D01*
X133990447Y-54411750D02*
X133830924Y-54947464D01*
X133830924Y-54947464D02*
X134245685Y-54947464D01*
X134979495Y-54411750D02*
X134405209Y-55376035D01*
X135489971Y-54697464D02*
X135489971Y-55197464D01*
X135330447Y-54411750D02*
X135170924Y-54947464D01*
X135170924Y-54947464D02*
X135585685Y-54947464D01*
X124023543Y-60277464D02*
X123640686Y-60277464D01*
X123832114Y-60277464D02*
X123832114Y-59527464D01*
X123832114Y-59527464D02*
X123768305Y-59634607D01*
X123768305Y-59634607D02*
X123704495Y-59706035D01*
X123704495Y-59706035D02*
X123640686Y-59741750D01*
X124629733Y-59527464D02*
X124310685Y-59527464D01*
X124310685Y-59527464D02*
X124278781Y-59884607D01*
X124278781Y-59884607D02*
X124310685Y-59848892D01*
X124310685Y-59848892D02*
X124374495Y-59813178D01*
X124374495Y-59813178D02*
X124534019Y-59813178D01*
X124534019Y-59813178D02*
X124597828Y-59848892D01*
X124597828Y-59848892D02*
X124629733Y-59884607D01*
X124629733Y-59884607D02*
X124661638Y-59956035D01*
X124661638Y-59956035D02*
X124661638Y-60134607D01*
X124661638Y-60134607D02*
X124629733Y-60206035D01*
X124629733Y-60206035D02*
X124597828Y-60241750D01*
X124597828Y-60241750D02*
X124534019Y-60277464D01*
X124534019Y-60277464D02*
X124374495Y-60277464D01*
X124374495Y-60277464D02*
X124310685Y-60241750D01*
X124310685Y-60241750D02*
X124278781Y-60206035D01*
X125427352Y-59491750D02*
X124853066Y-60456035D01*
X125874019Y-59884607D02*
X125969733Y-59920321D01*
X125969733Y-59920321D02*
X126001638Y-59956035D01*
X126001638Y-59956035D02*
X126033542Y-60027464D01*
X126033542Y-60027464D02*
X126033542Y-60134607D01*
X126033542Y-60134607D02*
X126001638Y-60206035D01*
X126001638Y-60206035D02*
X125969733Y-60241750D01*
X125969733Y-60241750D02*
X125905923Y-60277464D01*
X125905923Y-60277464D02*
X125650685Y-60277464D01*
X125650685Y-60277464D02*
X125650685Y-59527464D01*
X125650685Y-59527464D02*
X125874019Y-59527464D01*
X125874019Y-59527464D02*
X125937828Y-59563178D01*
X125937828Y-59563178D02*
X125969733Y-59598892D01*
X125969733Y-59598892D02*
X126001638Y-59670321D01*
X126001638Y-59670321D02*
X126001638Y-59741750D01*
X126001638Y-59741750D02*
X125969733Y-59813178D01*
X125969733Y-59813178D02*
X125937828Y-59848892D01*
X125937828Y-59848892D02*
X125874019Y-59884607D01*
X125874019Y-59884607D02*
X125650685Y-59884607D01*
X126671638Y-60277464D02*
X126288781Y-60277464D01*
X126480209Y-60277464D02*
X126480209Y-59527464D01*
X126480209Y-59527464D02*
X126416400Y-59634607D01*
X126416400Y-59634607D02*
X126352590Y-59706035D01*
X126352590Y-59706035D02*
X126288781Y-59741750D01*
X134149971Y-46863178D02*
X134086161Y-46827464D01*
X134086161Y-46827464D02*
X133990447Y-46827464D01*
X133990447Y-46827464D02*
X133894733Y-46863178D01*
X133894733Y-46863178D02*
X133830923Y-46934607D01*
X133830923Y-46934607D02*
X133799018Y-47006035D01*
X133799018Y-47006035D02*
X133767114Y-47148892D01*
X133767114Y-47148892D02*
X133767114Y-47256035D01*
X133767114Y-47256035D02*
X133799018Y-47398892D01*
X133799018Y-47398892D02*
X133830923Y-47470321D01*
X133830923Y-47470321D02*
X133894733Y-47541750D01*
X133894733Y-47541750D02*
X133990447Y-47577464D01*
X133990447Y-47577464D02*
X134054256Y-47577464D01*
X134054256Y-47577464D02*
X134149971Y-47541750D01*
X134149971Y-47541750D02*
X134181875Y-47506035D01*
X134181875Y-47506035D02*
X134181875Y-47256035D01*
X134181875Y-47256035D02*
X134054256Y-47256035D01*
X134469018Y-47577464D02*
X134469018Y-46827464D01*
X134469018Y-46827464D02*
X134851875Y-47577464D01*
X134851875Y-47577464D02*
X134851875Y-46827464D01*
X135170923Y-47577464D02*
X135170923Y-46827464D01*
X135170923Y-46827464D02*
X135330447Y-46827464D01*
X135330447Y-46827464D02*
X135426161Y-46863178D01*
X135426161Y-46863178D02*
X135489971Y-46934607D01*
X135489971Y-46934607D02*
X135521876Y-47006035D01*
X135521876Y-47006035D02*
X135553780Y-47148892D01*
X135553780Y-47148892D02*
X135553780Y-47256035D01*
X135553780Y-47256035D02*
X135521876Y-47398892D01*
X135521876Y-47398892D02*
X135489971Y-47470321D01*
X135489971Y-47470321D02*
X135426161Y-47541750D01*
X135426161Y-47541750D02*
X135330447Y-47577464D01*
X135330447Y-47577464D02*
X135170923Y-47577464D01*
X133256638Y-62424607D02*
X133479972Y-62424607D01*
X133575686Y-62817464D02*
X133256638Y-62817464D01*
X133256638Y-62817464D02*
X133256638Y-62067464D01*
X133256638Y-62067464D02*
X133575686Y-62067464D01*
X134149971Y-62067464D02*
X134022352Y-62067464D01*
X134022352Y-62067464D02*
X133958543Y-62103178D01*
X133958543Y-62103178D02*
X133926638Y-62138892D01*
X133926638Y-62138892D02*
X133862828Y-62246035D01*
X133862828Y-62246035D02*
X133830924Y-62388892D01*
X133830924Y-62388892D02*
X133830924Y-62674607D01*
X133830924Y-62674607D02*
X133862828Y-62746035D01*
X133862828Y-62746035D02*
X133894733Y-62781750D01*
X133894733Y-62781750D02*
X133958543Y-62817464D01*
X133958543Y-62817464D02*
X134086162Y-62817464D01*
X134086162Y-62817464D02*
X134149971Y-62781750D01*
X134149971Y-62781750D02*
X134181876Y-62746035D01*
X134181876Y-62746035D02*
X134213781Y-62674607D01*
X134213781Y-62674607D02*
X134213781Y-62496035D01*
X134213781Y-62496035D02*
X134181876Y-62424607D01*
X134181876Y-62424607D02*
X134149971Y-62388892D01*
X134149971Y-62388892D02*
X134086162Y-62353178D01*
X134086162Y-62353178D02*
X133958543Y-62353178D01*
X133958543Y-62353178D02*
X133894733Y-62388892D01*
X133894733Y-62388892D02*
X133862828Y-62424607D01*
X133862828Y-62424607D02*
X133830924Y-62496035D01*
X134979495Y-62031750D02*
X134405209Y-62996035D01*
X135139019Y-62067464D02*
X135585685Y-62067464D01*
X135585685Y-62067464D02*
X135298543Y-62817464D01*
X123640686Y-54983178D02*
X123959733Y-54983178D01*
X123576876Y-55197464D02*
X123800209Y-54447464D01*
X123800209Y-54447464D02*
X124023543Y-55197464D01*
X124597829Y-55197464D02*
X124214972Y-55197464D01*
X124406400Y-55197464D02*
X124406400Y-54447464D01*
X124406400Y-54447464D02*
X124342591Y-54554607D01*
X124342591Y-54554607D02*
X124278781Y-54626035D01*
X124278781Y-54626035D02*
X124214972Y-54661750D01*
X125363543Y-54411750D02*
X124789257Y-55376035D01*
X125810210Y-54804607D02*
X125586876Y-54804607D01*
X125586876Y-55197464D02*
X125586876Y-54447464D01*
X125586876Y-54447464D02*
X125905924Y-54447464D01*
X126448305Y-54447464D02*
X126320686Y-54447464D01*
X126320686Y-54447464D02*
X126256877Y-54483178D01*
X126256877Y-54483178D02*
X126224972Y-54518892D01*
X126224972Y-54518892D02*
X126161162Y-54626035D01*
X126161162Y-54626035D02*
X126129258Y-54768892D01*
X126129258Y-54768892D02*
X126129258Y-55054607D01*
X126129258Y-55054607D02*
X126161162Y-55126035D01*
X126161162Y-55126035D02*
X126193067Y-55161750D01*
X126193067Y-55161750D02*
X126256877Y-55197464D01*
X126256877Y-55197464D02*
X126384496Y-55197464D01*
X126384496Y-55197464D02*
X126448305Y-55161750D01*
X126448305Y-55161750D02*
X126480210Y-55126035D01*
X126480210Y-55126035D02*
X126512115Y-55054607D01*
X126512115Y-55054607D02*
X126512115Y-54876035D01*
X126512115Y-54876035D02*
X126480210Y-54804607D01*
X126480210Y-54804607D02*
X126448305Y-54768892D01*
X126448305Y-54768892D02*
X126384496Y-54733178D01*
X126384496Y-54733178D02*
X126256877Y-54733178D01*
X126256877Y-54733178D02*
X126193067Y-54768892D01*
X126193067Y-54768892D02*
X126161162Y-54804607D01*
X126161162Y-54804607D02*
X126129258Y-54876035D01*
X134149971Y-44323178D02*
X134086161Y-44287464D01*
X134086161Y-44287464D02*
X133990447Y-44287464D01*
X133990447Y-44287464D02*
X133894733Y-44323178D01*
X133894733Y-44323178D02*
X133830923Y-44394607D01*
X133830923Y-44394607D02*
X133799018Y-44466035D01*
X133799018Y-44466035D02*
X133767114Y-44608892D01*
X133767114Y-44608892D02*
X133767114Y-44716035D01*
X133767114Y-44716035D02*
X133799018Y-44858892D01*
X133799018Y-44858892D02*
X133830923Y-44930321D01*
X133830923Y-44930321D02*
X133894733Y-45001750D01*
X133894733Y-45001750D02*
X133990447Y-45037464D01*
X133990447Y-45037464D02*
X134054256Y-45037464D01*
X134054256Y-45037464D02*
X134149971Y-45001750D01*
X134149971Y-45001750D02*
X134181875Y-44966035D01*
X134181875Y-44966035D02*
X134181875Y-44716035D01*
X134181875Y-44716035D02*
X134054256Y-44716035D01*
X134469018Y-45037464D02*
X134469018Y-44287464D01*
X134469018Y-44287464D02*
X134851875Y-45037464D01*
X134851875Y-45037464D02*
X134851875Y-44287464D01*
X135170923Y-45037464D02*
X135170923Y-44287464D01*
X135170923Y-44287464D02*
X135330447Y-44287464D01*
X135330447Y-44287464D02*
X135426161Y-44323178D01*
X135426161Y-44323178D02*
X135489971Y-44394607D01*
X135489971Y-44394607D02*
X135521876Y-44466035D01*
X135521876Y-44466035D02*
X135553780Y-44608892D01*
X135553780Y-44608892D02*
X135553780Y-44716035D01*
X135553780Y-44716035D02*
X135521876Y-44858892D01*
X135521876Y-44858892D02*
X135489971Y-44930321D01*
X135489971Y-44930321D02*
X135426161Y-45001750D01*
X135426161Y-45001750D02*
X135330447Y-45037464D01*
X135330447Y-45037464D02*
X135170923Y-45037464D01*
D10*
X139086819Y-55270380D02*
X139086819Y-55079904D01*
X139086819Y-55079904D02*
X139134438Y-54984666D01*
X139134438Y-54984666D02*
X139229676Y-54889428D01*
X139229676Y-54889428D02*
X139420152Y-54841809D01*
X139420152Y-54841809D02*
X139753485Y-54841809D01*
X139753485Y-54841809D02*
X139943961Y-54889428D01*
X139943961Y-54889428D02*
X140039200Y-54984666D01*
X140039200Y-54984666D02*
X140086819Y-55079904D01*
X140086819Y-55079904D02*
X140086819Y-55270380D01*
X140086819Y-55270380D02*
X140039200Y-55365618D01*
X140039200Y-55365618D02*
X139943961Y-55460856D01*
X139943961Y-55460856D02*
X139753485Y-55508475D01*
X139753485Y-55508475D02*
X139420152Y-55508475D01*
X139420152Y-55508475D02*
X139229676Y-55460856D01*
X139229676Y-55460856D02*
X139134438Y-55365618D01*
X139134438Y-55365618D02*
X139086819Y-55270380D01*
X140086819Y-53937047D02*
X140086819Y-54413237D01*
X140086819Y-54413237D02*
X139086819Y-54413237D01*
X139563009Y-53603713D02*
X139563009Y-53270380D01*
X140086819Y-53127523D02*
X140086819Y-53603713D01*
X140086819Y-53603713D02*
X139086819Y-53603713D01*
X139086819Y-53603713D02*
X139086819Y-53127523D01*
X140086819Y-52698951D02*
X139086819Y-52698951D01*
X139086819Y-52698951D02*
X139086819Y-52460856D01*
X139086819Y-52460856D02*
X139134438Y-52317999D01*
X139134438Y-52317999D02*
X139229676Y-52222761D01*
X139229676Y-52222761D02*
X139324914Y-52175142D01*
X139324914Y-52175142D02*
X139515390Y-52127523D01*
X139515390Y-52127523D02*
X139658247Y-52127523D01*
X139658247Y-52127523D02*
X139848723Y-52175142D01*
X139848723Y-52175142D02*
X139943961Y-52222761D01*
X139943961Y-52222761D02*
X140039200Y-52317999D01*
X140039200Y-52317999D02*
X140086819Y-52460856D01*
X140086819Y-52460856D02*
X140086819Y-52698951D01*
X138546819Y-75299904D02*
X138546819Y-74728476D01*
X139546819Y-75014190D02*
X138546819Y-75014190D01*
X139546819Y-73823714D02*
X139070628Y-74157047D01*
X139546819Y-74395142D02*
X138546819Y-74395142D01*
X138546819Y-74395142D02*
X138546819Y-74014190D01*
X138546819Y-74014190D02*
X138594438Y-73918952D01*
X138594438Y-73918952D02*
X138642057Y-73871333D01*
X138642057Y-73871333D02*
X138737295Y-73823714D01*
X138737295Y-73823714D02*
X138880152Y-73823714D01*
X138880152Y-73823714D02*
X138975390Y-73871333D01*
X138975390Y-73871333D02*
X139023009Y-73918952D01*
X139023009Y-73918952D02*
X139070628Y-74014190D01*
X139070628Y-74014190D02*
X139070628Y-74395142D01*
X139546819Y-72823714D02*
X139070628Y-73157047D01*
X139546819Y-73395142D02*
X138546819Y-73395142D01*
X138546819Y-73395142D02*
X138546819Y-73014190D01*
X138546819Y-73014190D02*
X138594438Y-72918952D01*
X138594438Y-72918952D02*
X138642057Y-72871333D01*
X138642057Y-72871333D02*
X138737295Y-72823714D01*
X138737295Y-72823714D02*
X138880152Y-72823714D01*
X138880152Y-72823714D02*
X138975390Y-72871333D01*
X138975390Y-72871333D02*
X139023009Y-72918952D01*
X139023009Y-72918952D02*
X139070628Y-73014190D01*
X139070628Y-73014190D02*
X139070628Y-73395142D01*
X139499200Y-72442761D02*
X139546819Y-72299904D01*
X139546819Y-72299904D02*
X139546819Y-72061809D01*
X139546819Y-72061809D02*
X139499200Y-71966571D01*
X139499200Y-71966571D02*
X139451580Y-71918952D01*
X139451580Y-71918952D02*
X139356342Y-71871333D01*
X139356342Y-71871333D02*
X139261104Y-71871333D01*
X139261104Y-71871333D02*
X139165866Y-71918952D01*
X139165866Y-71918952D02*
X139118247Y-71966571D01*
X139118247Y-71966571D02*
X139070628Y-72061809D01*
X139070628Y-72061809D02*
X139023009Y-72252285D01*
X139023009Y-72252285D02*
X138975390Y-72347523D01*
X138975390Y-72347523D02*
X138927771Y-72395142D01*
X138927771Y-72395142D02*
X138832533Y-72442761D01*
X138832533Y-72442761D02*
X138737295Y-72442761D01*
X138737295Y-72442761D02*
X138642057Y-72395142D01*
X138642057Y-72395142D02*
X138594438Y-72347523D01*
X138594438Y-72347523D02*
X138546819Y-72252285D01*
X138546819Y-72252285D02*
X138546819Y-72014190D01*
X138546819Y-72014190D02*
X138594438Y-71871333D01*
X121888476Y-73425200D02*
X122031333Y-73472819D01*
X122031333Y-73472819D02*
X122269428Y-73472819D01*
X122269428Y-73472819D02*
X122364666Y-73425200D01*
X122364666Y-73425200D02*
X122412285Y-73377580D01*
X122412285Y-73377580D02*
X122459904Y-73282342D01*
X122459904Y-73282342D02*
X122459904Y-73187104D01*
X122459904Y-73187104D02*
X122412285Y-73091866D01*
X122412285Y-73091866D02*
X122364666Y-73044247D01*
X122364666Y-73044247D02*
X122269428Y-72996628D01*
X122269428Y-72996628D02*
X122078952Y-72949009D01*
X122078952Y-72949009D02*
X121983714Y-72901390D01*
X121983714Y-72901390D02*
X121936095Y-72853771D01*
X121936095Y-72853771D02*
X121888476Y-72758533D01*
X121888476Y-72758533D02*
X121888476Y-72663295D01*
X121888476Y-72663295D02*
X121936095Y-72568057D01*
X121936095Y-72568057D02*
X121983714Y-72520438D01*
X121983714Y-72520438D02*
X122078952Y-72472819D01*
X122078952Y-72472819D02*
X122317047Y-72472819D01*
X122317047Y-72472819D02*
X122459904Y-72520438D01*
X122793238Y-72472819D02*
X123031333Y-73472819D01*
X123031333Y-73472819D02*
X123221809Y-72758533D01*
X123221809Y-72758533D02*
X123412285Y-73472819D01*
X123412285Y-73472819D02*
X123650381Y-72472819D01*
X123983714Y-72568057D02*
X124031333Y-72520438D01*
X124031333Y-72520438D02*
X124126571Y-72472819D01*
X124126571Y-72472819D02*
X124364666Y-72472819D01*
X124364666Y-72472819D02*
X124459904Y-72520438D01*
X124459904Y-72520438D02*
X124507523Y-72568057D01*
X124507523Y-72568057D02*
X124555142Y-72663295D01*
X124555142Y-72663295D02*
X124555142Y-72758533D01*
X124555142Y-72758533D02*
X124507523Y-72901390D01*
X124507523Y-72901390D02*
X123936095Y-73472819D01*
X123936095Y-73472819D02*
X124555142Y-73472819D01*
X124888476Y-72472819D02*
X125507523Y-72472819D01*
X125507523Y-72472819D02*
X125174190Y-72853771D01*
X125174190Y-72853771D02*
X125317047Y-72853771D01*
X125317047Y-72853771D02*
X125412285Y-72901390D01*
X125412285Y-72901390D02*
X125459904Y-72949009D01*
X125459904Y-72949009D02*
X125507523Y-73044247D01*
X125507523Y-73044247D02*
X125507523Y-73282342D01*
X125507523Y-73282342D02*
X125459904Y-73377580D01*
X125459904Y-73377580D02*
X125412285Y-73425200D01*
X125412285Y-73425200D02*
X125317047Y-73472819D01*
X125317047Y-73472819D02*
X125031333Y-73472819D01*
X125031333Y-73472819D02*
X124936095Y-73425200D01*
X124936095Y-73425200D02*
X124888476Y-73377580D01*
X199202000Y-86391500D02*
X200702000Y-86391500D01*
X200702000Y-86391500D02*
X200702000Y-80991500D01*
X199452000Y-84191500D02*
X199952000Y-83291500D01*
X200452000Y-84191500D02*
X199452000Y-84191500D01*
X199952000Y-83291500D02*
X200452000Y-84191500D01*
X200452000Y-83191500D02*
X199452000Y-83191500D01*
X199202000Y-80991500D02*
X199202000Y-86391500D01*
X200702000Y-80991500D02*
X199202000Y-80991500D01*
X218252000Y-45624500D02*
X219752000Y-45624500D01*
X219752000Y-45624500D02*
X219752000Y-40224500D01*
X218502000Y-43424500D02*
X219002000Y-42524500D01*
X219502000Y-43424500D02*
X218502000Y-43424500D01*
X219002000Y-42524500D02*
X219502000Y-43424500D01*
X219502000Y-42424500D02*
X218502000Y-42424500D01*
X218252000Y-40224500D02*
X218252000Y-45624500D01*
X219752000Y-40224500D02*
X218252000Y-40224500D01*
X237302000Y-100488500D02*
X238802000Y-100488500D01*
X238802000Y-100488500D02*
X238802000Y-95088500D01*
X237552000Y-98288500D02*
X238052000Y-97388500D01*
X238552000Y-98288500D02*
X237552000Y-98288500D01*
X238052000Y-97388500D02*
X238552000Y-98288500D01*
X238552000Y-97288500D02*
X237552000Y-97288500D01*
X237302000Y-95088500D02*
X237302000Y-100488500D01*
X238802000Y-95088500D02*
X237302000Y-95088500D01*
X199202000Y-67214500D02*
X200702000Y-67214500D01*
X200702000Y-67214500D02*
X200702000Y-61814500D01*
X199452000Y-65014500D02*
X199952000Y-64114500D01*
X200452000Y-65014500D02*
X199452000Y-65014500D01*
X199952000Y-64114500D02*
X200452000Y-65014500D01*
X200452000Y-64014500D02*
X199452000Y-64014500D01*
X199202000Y-61814500D02*
X199202000Y-67214500D01*
X200702000Y-61814500D02*
X199202000Y-61814500D01*
X237302000Y-81438500D02*
X238802000Y-81438500D01*
X238802000Y-81438500D02*
X238802000Y-76038500D01*
X237552000Y-79238500D02*
X238052000Y-78338500D01*
X238552000Y-79238500D02*
X237552000Y-79238500D01*
X238052000Y-78338500D02*
X238552000Y-79238500D01*
X238552000Y-78238500D02*
X237552000Y-78238500D01*
X237302000Y-76038500D02*
X237302000Y-81438500D01*
X238802000Y-76038500D02*
X237302000Y-76038500D01*
X174831000Y-74265500D02*
X174831000Y-74015500D01*
X174831000Y-70765500D02*
X174831000Y-71015500D01*
X168831000Y-74265500D02*
X174831000Y-74265500D01*
X168831000Y-74265500D02*
X168831000Y-74015500D01*
X168831000Y-70765500D02*
X174831000Y-70765500D01*
X168831000Y-70765500D02*
X168831000Y-71015500D01*
X237302000Y-62515500D02*
X238802000Y-62515500D01*
X238802000Y-62515500D02*
X238802000Y-57115500D01*
X237552000Y-60315500D02*
X238052000Y-59415500D01*
X238552000Y-60315500D02*
X237552000Y-60315500D01*
X238052000Y-59415500D02*
X238552000Y-60315500D01*
X238552000Y-59315500D02*
X237552000Y-59315500D01*
X237302000Y-57115500D02*
X237302000Y-62515500D01*
X238802000Y-57115500D02*
X237302000Y-57115500D01*
X192560367Y-110115614D02*
X194009256Y-109727385D01*
X194009256Y-109727385D02*
X192611633Y-104511386D01*
X192232447Y-107925872D02*
X192482472Y-106927130D01*
X193198372Y-107667053D02*
X192232447Y-107925872D01*
X192482472Y-106927130D02*
X193198372Y-107667053D01*
X192939553Y-106701128D02*
X191973628Y-106959947D01*
X191162744Y-104899615D02*
X192560367Y-110115614D01*
X192611633Y-104511386D02*
X191162744Y-104899615D01*
X213553000Y-110140500D02*
X215053000Y-110140500D01*
X215053000Y-110140500D02*
X215053000Y-104740500D01*
X213803000Y-107940500D02*
X214303000Y-107040500D01*
X214803000Y-107940500D02*
X213803000Y-107940500D01*
X214303000Y-107040500D02*
X214803000Y-107940500D01*
X214803000Y-106940500D02*
X213803000Y-106940500D01*
X213553000Y-104740500D02*
X213553000Y-110140500D01*
X215053000Y-104740500D02*
X213553000Y-104740500D01*
X256352000Y-64928500D02*
X257852000Y-64928500D01*
X257852000Y-64928500D02*
X257852000Y-59528500D01*
X256602000Y-62728500D02*
X257102000Y-61828500D01*
X257602000Y-62728500D02*
X256602000Y-62728500D01*
X257102000Y-61828500D02*
X257602000Y-62728500D01*
X257602000Y-61728500D02*
X256602000Y-61728500D01*
X256352000Y-59528500D02*
X256352000Y-64928500D01*
X257852000Y-59528500D02*
X256352000Y-59528500D01*
X275402000Y-107600500D02*
X276902000Y-107600500D01*
X276902000Y-107600500D02*
X276902000Y-102200500D01*
X275652000Y-105400500D02*
X276152000Y-104500500D01*
X276652000Y-105400500D02*
X275652000Y-105400500D01*
X276152000Y-104500500D02*
X276652000Y-105400500D01*
X276652000Y-104400500D02*
X275652000Y-104400500D01*
X275402000Y-102200500D02*
X275402000Y-107600500D01*
X276902000Y-102200500D02*
X275402000Y-102200500D01*
X218252000Y-83724500D02*
X219752000Y-83724500D01*
X219752000Y-83724500D02*
X219752000Y-78324500D01*
X218502000Y-81524500D02*
X219002000Y-80624500D01*
X219502000Y-81524500D02*
X218502000Y-81524500D01*
X219002000Y-80624500D02*
X219502000Y-81524500D01*
X219502000Y-80524500D02*
X218502000Y-80524500D01*
X218252000Y-78324500D02*
X218252000Y-83724500D01*
X219752000Y-78324500D02*
X218252000Y-78324500D01*
X256352000Y-45878500D02*
X257852000Y-45878500D01*
X257852000Y-45878500D02*
X257852000Y-40478500D01*
X256602000Y-43678500D02*
X257102000Y-42778500D01*
X257602000Y-43678500D02*
X256602000Y-43678500D01*
X257102000Y-42778500D02*
X257602000Y-43678500D01*
X257602000Y-42678500D02*
X256602000Y-42678500D01*
X256352000Y-40478500D02*
X256352000Y-45878500D01*
X257852000Y-40478500D02*
X256352000Y-40478500D01*
X171951316Y-115869604D02*
X173250354Y-115119604D01*
X173250354Y-115119604D02*
X170550354Y-110443066D01*
X171067822Y-113839348D02*
X171050835Y-112809925D01*
X171933848Y-113339348D02*
X171067822Y-113839348D01*
X171050835Y-112809925D02*
X171933848Y-113339348D01*
X171433848Y-112473322D02*
X170567822Y-112973322D01*
X169251316Y-111193066D02*
X171951316Y-115869604D01*
X170550354Y-110443066D02*
X169251316Y-111193066D01*
X163130000Y-71367000D02*
X163130000Y-77367000D01*
X151130000Y-71367000D02*
X163130000Y-71367000D01*
X163130000Y-77367000D02*
X151130000Y-77367000D01*
X151130000Y-77367000D02*
X151130000Y-71367000D01*
X153670000Y-48733500D02*
X156210000Y-48733500D01*
X156210000Y-58893500D02*
X156210000Y-48733500D01*
X156210000Y-58893500D02*
X153670000Y-58893500D01*
X153670000Y-58893500D02*
X153670000Y-48733500D01*
X275402000Y-69500500D02*
X276902000Y-69500500D01*
X276902000Y-69500500D02*
X276902000Y-64100500D01*
X275652000Y-67300500D02*
X276152000Y-66400500D01*
X276652000Y-67300500D02*
X275652000Y-67300500D01*
X276152000Y-66400500D02*
X276652000Y-67300500D01*
X276652000Y-66300500D02*
X275652000Y-66300500D01*
X275402000Y-64100500D02*
X275402000Y-69500500D01*
X276902000Y-64100500D02*
X275402000Y-64100500D01*
X180152000Y-93249500D02*
X181652000Y-93249500D01*
X181652000Y-93249500D02*
X181652000Y-87849500D01*
X180402000Y-91049500D02*
X180902000Y-90149500D01*
X181402000Y-91049500D02*
X180402000Y-91049500D01*
X180902000Y-90149500D02*
X181402000Y-91049500D01*
X181402000Y-90049500D02*
X180402000Y-90049500D01*
X180152000Y-87849500D02*
X180152000Y-93249500D01*
X181652000Y-87849500D02*
X180152000Y-87849500D01*
X174785000Y-78091500D02*
X174785000Y-76591500D01*
X174785000Y-76591500D02*
X169385000Y-76591500D01*
X172585000Y-77841500D02*
X171685000Y-77341500D01*
X172585000Y-76841500D02*
X172585000Y-77841500D01*
X171685000Y-77341500D02*
X172585000Y-76841500D01*
X171585000Y-76841500D02*
X171585000Y-77841500D01*
X169385000Y-78091500D02*
X174785000Y-78091500D01*
X169385000Y-76591500D02*
X169385000Y-78091500D01*
X237429000Y-43338500D02*
X238929000Y-43338500D01*
X238929000Y-43338500D02*
X238929000Y-37938500D01*
X237679000Y-41138500D02*
X238179000Y-40238500D01*
X238679000Y-41138500D02*
X237679000Y-41138500D01*
X238179000Y-40238500D02*
X238679000Y-41138500D01*
X238679000Y-40138500D02*
X237679000Y-40138500D01*
X237429000Y-37938500D02*
X237429000Y-43338500D01*
X238929000Y-37938500D02*
X237429000Y-37938500D01*
D12*
X176022000Y-68832500D02*
X176022000Y-38352500D01*
X176022000Y-38352500D02*
X173482000Y-38352500D01*
X173482000Y-68832500D02*
X176022000Y-68832500D01*
X173482000Y-38352500D02*
X173482000Y-68832500D01*
X160782000Y-68832500D02*
X158242000Y-68832500D01*
X160782000Y-38352500D02*
X160782000Y-68832500D01*
X158242000Y-68832500D02*
X158242000Y-38352500D01*
X158242000Y-38352500D02*
X160782000Y-38352500D01*
D10*
X218252000Y-64674500D02*
X219752000Y-64674500D01*
X219752000Y-64674500D02*
X219752000Y-59274500D01*
X218502000Y-62474500D02*
X219002000Y-61574500D01*
X219502000Y-62474500D02*
X218502000Y-62474500D01*
X219002000Y-61574500D02*
X219502000Y-62474500D01*
X219502000Y-61474500D02*
X218502000Y-61474500D01*
X218252000Y-59274500D02*
X218252000Y-64674500D01*
X219752000Y-59274500D02*
X218252000Y-59274500D01*
X199202000Y-48291500D02*
X200702000Y-48291500D01*
X200702000Y-48291500D02*
X200702000Y-42891500D01*
X199452000Y-46091500D02*
X199952000Y-45191500D01*
X200452000Y-46091500D02*
X199452000Y-46091500D01*
X199952000Y-45191500D02*
X200452000Y-46091500D01*
X200452000Y-45091500D02*
X199452000Y-45091500D01*
X199202000Y-42891500D02*
X199202000Y-48291500D01*
X200702000Y-42891500D02*
X199202000Y-42891500D01*
X256352000Y-104933500D02*
X257852000Y-104933500D01*
X257852000Y-104933500D02*
X257852000Y-99533500D01*
X256602000Y-102733500D02*
X257102000Y-101833500D01*
X257602000Y-102733500D02*
X256602000Y-102733500D01*
X257102000Y-101833500D02*
X257602000Y-102733500D01*
X257602000Y-101733500D02*
X256602000Y-101733500D01*
X256352000Y-99533500D02*
X256352000Y-104933500D01*
X257852000Y-99533500D02*
X256352000Y-99533500D01*
X256352000Y-83851500D02*
X257852000Y-83851500D01*
X257852000Y-83851500D02*
X257852000Y-78451500D01*
X256602000Y-81651500D02*
X257102000Y-80751500D01*
X257602000Y-81651500D02*
X256602000Y-81651500D01*
X257102000Y-80751500D02*
X257602000Y-81651500D01*
X257602000Y-80651500D02*
X256602000Y-80651500D01*
X256352000Y-78451500D02*
X256352000Y-83851500D01*
X257852000Y-78451500D02*
X256352000Y-78451500D01*
X275402000Y-50958500D02*
X276902000Y-50958500D01*
X276902000Y-50958500D02*
X276902000Y-45558500D01*
X275652000Y-48758500D02*
X276152000Y-47858500D01*
X276652000Y-48758500D02*
X275652000Y-48758500D01*
X276152000Y-47858500D02*
X276652000Y-48758500D01*
X276652000Y-47758500D02*
X275652000Y-47758500D01*
X275402000Y-45558500D02*
X275402000Y-50958500D01*
X276902000Y-45558500D02*
X275402000Y-45558500D01*
X275402000Y-88550500D02*
X276902000Y-88550500D01*
X276902000Y-88550500D02*
X276902000Y-83150500D01*
X275652000Y-86350500D02*
X276152000Y-85450500D01*
X276652000Y-86350500D02*
X275652000Y-86350500D01*
X276152000Y-85450500D02*
X276652000Y-86350500D01*
X276652000Y-85350500D02*
X275652000Y-85350500D01*
X275402000Y-83150500D02*
X275402000Y-88550500D01*
X276902000Y-83150500D02*
X275402000Y-83150500D01*
X40247000Y-40288588D02*
X38747000Y-40288588D01*
X38747000Y-40288588D02*
X38747000Y-45688588D01*
X39997000Y-42488588D02*
X38997000Y-42488588D01*
X39497000Y-42588588D02*
X39997000Y-43488588D01*
X39997000Y-43488588D02*
X38997000Y-43488588D01*
X38997000Y-43488588D02*
X39497000Y-42588588D01*
X40247000Y-45688588D02*
X40247000Y-40288588D01*
X38747000Y-45688588D02*
X40247000Y-45688588D01*
X83046000Y-104677588D02*
X81546000Y-104677588D01*
X81546000Y-104677588D02*
X81546000Y-110077588D01*
X82796000Y-106877588D02*
X81796000Y-106877588D01*
X82296000Y-106977588D02*
X82796000Y-107877588D01*
X82796000Y-107877588D02*
X81796000Y-107877588D01*
X81796000Y-107877588D02*
X82296000Y-106977588D01*
X83046000Y-110077588D02*
X83046000Y-104677588D01*
X81546000Y-110077588D02*
X83046000Y-110077588D01*
X59297000Y-75975588D02*
X57797000Y-75975588D01*
X57797000Y-75975588D02*
X57797000Y-81375588D01*
X59047000Y-78175588D02*
X58047000Y-78175588D01*
X58547000Y-78275588D02*
X59047000Y-79175588D01*
X59047000Y-79175588D02*
X58047000Y-79175588D01*
X58047000Y-79175588D02*
X58547000Y-78275588D01*
X59297000Y-81375588D02*
X59297000Y-75975588D01*
X57797000Y-81375588D02*
X59297000Y-81375588D01*
X78347000Y-59465588D02*
X76847000Y-59465588D01*
X76847000Y-59465588D02*
X76847000Y-64865588D01*
X78097000Y-61665588D02*
X77097000Y-61665588D01*
X77597000Y-61765588D02*
X78097000Y-62665588D01*
X78097000Y-62665588D02*
X77097000Y-62665588D01*
X77097000Y-62665588D02*
X77597000Y-61765588D01*
X78347000Y-64865588D02*
X78347000Y-59465588D01*
X76847000Y-64865588D02*
X78347000Y-64865588D01*
X97397000Y-61751588D02*
X95897000Y-61751588D01*
X95897000Y-61751588D02*
X95897000Y-67151588D01*
X97147000Y-63951588D02*
X96147000Y-63951588D01*
X96647000Y-64051588D02*
X97147000Y-64951588D01*
X97147000Y-64951588D02*
X96147000Y-64951588D01*
X96147000Y-64951588D02*
X96647000Y-64051588D01*
X97397000Y-67151588D02*
X97397000Y-61751588D01*
X95897000Y-67151588D02*
X97397000Y-67151588D01*
X21297000Y-83214588D02*
X19797000Y-83214588D01*
X19797000Y-83214588D02*
X19797000Y-88614588D01*
X21047000Y-85414588D02*
X20047000Y-85414588D01*
X20547000Y-85514588D02*
X21047000Y-86414588D01*
X21047000Y-86414588D02*
X20047000Y-86414588D01*
X20047000Y-86414588D02*
X20547000Y-85514588D01*
X21297000Y-88614588D02*
X21297000Y-83214588D01*
X19797000Y-88614588D02*
X21297000Y-88614588D01*
X116447000Y-87532588D02*
X114947000Y-87532588D01*
X114947000Y-87532588D02*
X114947000Y-92932588D01*
X116197000Y-89732588D02*
X115197000Y-89732588D01*
X115697000Y-89832588D02*
X116197000Y-90732588D01*
X116197000Y-90732588D02*
X115197000Y-90732588D01*
X115197000Y-90732588D02*
X115697000Y-89832588D01*
X116447000Y-92932588D02*
X116447000Y-87532588D01*
X114947000Y-92932588D02*
X116447000Y-92932588D01*
X97397000Y-80928588D02*
X95897000Y-80928588D01*
X95897000Y-80928588D02*
X95897000Y-86328588D01*
X97147000Y-83128588D02*
X96147000Y-83128588D01*
X96647000Y-83228588D02*
X97147000Y-84128588D01*
X97147000Y-84128588D02*
X96147000Y-84128588D01*
X96147000Y-84128588D02*
X96647000Y-83228588D01*
X97397000Y-86328588D02*
X97397000Y-80928588D01*
X95897000Y-86328588D02*
X97397000Y-86328588D01*
X21297000Y-45495588D02*
X19797000Y-45495588D01*
X19797000Y-45495588D02*
X19797000Y-50895588D01*
X21047000Y-47695588D02*
X20047000Y-47695588D01*
X20547000Y-47795588D02*
X21047000Y-48695588D01*
X21047000Y-48695588D02*
X20047000Y-48695588D01*
X20047000Y-48695588D02*
X20547000Y-47795588D01*
X21297000Y-50895588D02*
X21297000Y-45495588D01*
X19797000Y-50895588D02*
X21297000Y-50895588D01*
X40247000Y-59465588D02*
X38747000Y-59465588D01*
X38747000Y-59465588D02*
X38747000Y-64865588D01*
X39997000Y-61665588D02*
X38997000Y-61665588D01*
X39497000Y-61765588D02*
X39997000Y-62665588D01*
X39997000Y-62665588D02*
X38997000Y-62665588D01*
X38997000Y-62665588D02*
X39497000Y-61765588D01*
X40247000Y-64865588D02*
X40247000Y-59465588D01*
X38747000Y-64865588D02*
X40247000Y-64865588D01*
X59297000Y-37875588D02*
X57797000Y-37875588D01*
X57797000Y-37875588D02*
X57797000Y-43275588D01*
X59047000Y-40075588D02*
X58047000Y-40075588D01*
X58547000Y-40175588D02*
X59047000Y-41075588D01*
X59047000Y-41075588D02*
X58047000Y-41075588D01*
X58047000Y-41075588D02*
X58547000Y-40175588D01*
X59297000Y-43275588D02*
X59297000Y-37875588D01*
X57797000Y-43275588D02*
X59297000Y-43275588D01*
D12*
X120650000Y-38347000D02*
X123190000Y-38347000D01*
X120650000Y-68827000D02*
X120650000Y-38347000D01*
X123190000Y-38347000D02*
X123190000Y-68827000D01*
X123190000Y-68827000D02*
X120650000Y-68827000D01*
X135890000Y-38347000D02*
X135890000Y-68827000D01*
X135890000Y-68827000D02*
X138430000Y-68827000D01*
X138430000Y-38347000D02*
X135890000Y-38347000D01*
X138430000Y-68827000D02*
X138430000Y-38347000D01*
D10*
X105563256Y-104963703D02*
X104114367Y-104575474D01*
X104114367Y-104575474D02*
X102716744Y-109791473D01*
X104752372Y-107024035D02*
X103786447Y-106765216D01*
X104243528Y-106991218D02*
X104493553Y-107989960D01*
X104493553Y-107989960D02*
X103527628Y-107731141D01*
X103527628Y-107731141D02*
X104243528Y-106991218D01*
X104165633Y-110179702D02*
X105563256Y-104963703D01*
X102716744Y-109791473D02*
X104165633Y-110179702D01*
X78347000Y-78515588D02*
X76847000Y-78515588D01*
X76847000Y-78515588D02*
X76847000Y-83915588D01*
X78097000Y-80715588D02*
X77097000Y-80715588D01*
X77597000Y-80815588D02*
X78097000Y-81715588D01*
X78097000Y-81715588D02*
X77097000Y-81715588D01*
X77097000Y-81715588D02*
X77597000Y-80815588D01*
X78347000Y-83915588D02*
X78347000Y-78515588D01*
X76847000Y-83915588D02*
X78347000Y-83915588D01*
X40247000Y-97565588D02*
X38747000Y-97565588D01*
X38747000Y-97565588D02*
X38747000Y-102965588D01*
X39997000Y-99765588D02*
X38997000Y-99765588D01*
X39497000Y-99865588D02*
X39997000Y-100765588D01*
X39997000Y-100765588D02*
X38997000Y-100765588D01*
X38997000Y-100765588D02*
X39497000Y-99865588D01*
X40247000Y-102965588D02*
X40247000Y-97565588D01*
X38747000Y-102965588D02*
X40247000Y-102965588D01*
X21297000Y-102391588D02*
X19797000Y-102391588D01*
X19797000Y-102391588D02*
X19797000Y-107791588D01*
X21047000Y-104591588D02*
X20047000Y-104591588D01*
X20547000Y-104691588D02*
X21047000Y-105591588D01*
X21047000Y-105591588D02*
X20047000Y-105591588D01*
X20047000Y-105591588D02*
X20547000Y-104691588D01*
X21297000Y-107791588D02*
X21297000Y-102391588D01*
X19797000Y-107791588D02*
X21297000Y-107791588D01*
X59297000Y-95152588D02*
X57797000Y-95152588D01*
X57797000Y-95152588D02*
X57797000Y-100552588D01*
X59047000Y-97352588D02*
X58047000Y-97352588D01*
X58547000Y-97452588D02*
X59047000Y-98352588D01*
X59047000Y-98352588D02*
X58047000Y-98352588D01*
X58047000Y-98352588D02*
X58547000Y-97452588D01*
X59297000Y-100552588D02*
X59297000Y-95152588D01*
X57797000Y-100552588D02*
X59297000Y-100552588D01*
X127347685Y-110876154D02*
X126048647Y-110126154D01*
X126048647Y-110126154D02*
X123348647Y-114802692D01*
X126031179Y-112656410D02*
X125165153Y-112156410D01*
X125548166Y-112493013D02*
X125531179Y-113522436D01*
X125531179Y-113522436D02*
X124665153Y-113022436D01*
X124665153Y-113022436D02*
X125548166Y-112493013D01*
X124647685Y-115552692D02*
X127347685Y-110876154D01*
X123348647Y-114802692D02*
X124647685Y-115552692D01*
X59297000Y-57052588D02*
X57797000Y-57052588D01*
X57797000Y-57052588D02*
X57797000Y-62452588D01*
X59047000Y-59252588D02*
X58047000Y-59252588D01*
X58547000Y-59352588D02*
X59047000Y-60252588D01*
X59047000Y-60252588D02*
X58047000Y-60252588D01*
X58047000Y-60252588D02*
X58547000Y-59352588D01*
X59297000Y-62452588D02*
X59297000Y-57052588D01*
X57797000Y-62452588D02*
X59297000Y-62452588D01*
X140462000Y-58888000D02*
X140462000Y-48728000D01*
X143002000Y-58888000D02*
X140462000Y-58888000D01*
X143002000Y-58888000D02*
X143002000Y-48728000D01*
X140462000Y-48728000D02*
X143002000Y-48728000D01*
X145542000Y-71288000D02*
X145542000Y-77288000D01*
X133542000Y-71288000D02*
X145542000Y-71288000D01*
X145542000Y-77288000D02*
X133542000Y-77288000D01*
X133542000Y-77288000D02*
X133542000Y-71288000D01*
X40247000Y-78388588D02*
X38747000Y-78388588D01*
X38747000Y-78388588D02*
X38747000Y-83788588D01*
X39997000Y-80588588D02*
X38997000Y-80588588D01*
X39497000Y-80688588D02*
X39997000Y-81588588D01*
X39997000Y-81588588D02*
X38997000Y-81588588D01*
X38997000Y-81588588D02*
X39497000Y-80688588D01*
X40247000Y-83788588D02*
X40247000Y-78388588D01*
X38747000Y-83788588D02*
X40247000Y-83788588D01*
X78347000Y-40161588D02*
X76847000Y-40161588D01*
X76847000Y-40161588D02*
X76847000Y-45561588D01*
X78097000Y-42361588D02*
X77097000Y-42361588D01*
X77597000Y-42461588D02*
X78097000Y-43361588D01*
X78097000Y-43361588D02*
X77097000Y-43361588D01*
X77097000Y-43361588D02*
X77597000Y-42461588D01*
X78347000Y-45561588D02*
X78347000Y-40161588D01*
X76847000Y-45561588D02*
X78347000Y-45561588D01*
X126401000Y-78594000D02*
X126401000Y-77094000D01*
X126401000Y-77094000D02*
X121001000Y-77094000D01*
X124201000Y-78344000D02*
X124201000Y-77344000D01*
X124101000Y-77844000D02*
X123201000Y-78344000D01*
X123201000Y-78344000D02*
X123201000Y-77344000D01*
X123201000Y-77344000D02*
X124101000Y-77844000D01*
X121001000Y-78594000D02*
X126401000Y-78594000D01*
X121001000Y-77094000D02*
X121001000Y-78594000D01*
X21297000Y-64291588D02*
X19797000Y-64291588D01*
X19797000Y-64291588D02*
X19797000Y-69691588D01*
X21047000Y-66491588D02*
X20047000Y-66491588D01*
X20547000Y-66591588D02*
X21047000Y-67491588D01*
X21047000Y-67491588D02*
X20047000Y-67491588D01*
X20047000Y-67491588D02*
X20547000Y-66591588D01*
X21297000Y-69691588D02*
X21297000Y-64291588D01*
X19797000Y-69691588D02*
X21297000Y-69691588D01*
X126698000Y-74768000D02*
X126698000Y-74518000D01*
X126698000Y-74768000D02*
X120698000Y-74768000D01*
X126698000Y-71268000D02*
X126698000Y-71518000D01*
X126698000Y-71268000D02*
X120698000Y-71268000D01*
X120698000Y-74768000D02*
X120698000Y-74518000D01*
X120698000Y-71268000D02*
X120698000Y-71518000D01*
X97397000Y-42574588D02*
X95897000Y-42574588D01*
X95897000Y-42574588D02*
X95897000Y-47974588D01*
X97147000Y-44774588D02*
X96147000Y-44774588D01*
X96647000Y-44874588D02*
X97147000Y-45774588D01*
X97147000Y-45774588D02*
X96147000Y-45774588D01*
X96147000Y-45774588D02*
X96647000Y-44874588D01*
X97397000Y-47974588D02*
X97397000Y-42574588D01*
X95897000Y-47974588D02*
X97397000Y-47974588D01*
D13*
X199952000Y-87501500D03*
D14*
X199952000Y-79881500D03*
D13*
X219002000Y-46734500D03*
D14*
X219002000Y-39114500D03*
D13*
X238052000Y-101598500D03*
D14*
X238052000Y-93978500D03*
D13*
X199952000Y-68324500D03*
D14*
X199952000Y-60704500D03*
D13*
X238052000Y-82548500D03*
D14*
X238052000Y-74928500D03*
D13*
X238052000Y-63625500D03*
D14*
X238052000Y-56005500D03*
D13*
X193572101Y-110993677D03*
D15*
X191599899Y-103633323D03*
D13*
X214303000Y-111250500D03*
D14*
X214303000Y-103630500D03*
D13*
X257102000Y-66038500D03*
D14*
X257102000Y-58418500D03*
D13*
X276152000Y-108710500D03*
D14*
X276152000Y-101090500D03*
D13*
X219002000Y-84834500D03*
D14*
X219002000Y-77214500D03*
D13*
X257102000Y-46988500D03*
D14*
X257102000Y-39368500D03*
D13*
X173155835Y-116455892D03*
D16*
X169345835Y-109856778D03*
D13*
X154940000Y-50003500D03*
X154940000Y-52543500D03*
X154940000Y-55083500D03*
X154940000Y-57623500D03*
X276152000Y-70610500D03*
D14*
X276152000Y-62990500D03*
D13*
X180902000Y-94359500D03*
D14*
X180902000Y-86739500D03*
D13*
X175895000Y-77341500D03*
D14*
X168275000Y-77341500D03*
D13*
X238179000Y-44448500D03*
D14*
X238179000Y-36828500D03*
D13*
X219002000Y-65784500D03*
D14*
X219002000Y-58164500D03*
D13*
X199952000Y-49401500D03*
D14*
X199952000Y-41781500D03*
D13*
X257102000Y-106043500D03*
D14*
X257102000Y-98423500D03*
D13*
X257102000Y-84961500D03*
D14*
X257102000Y-77341500D03*
D13*
X276152000Y-52068500D03*
D14*
X276152000Y-44448500D03*
D13*
X276152000Y-89660500D03*
D14*
X276152000Y-82040500D03*
X39497000Y-39178588D03*
D13*
X39497000Y-46798588D03*
D14*
X82296000Y-103567588D03*
D13*
X82296000Y-111187588D03*
D14*
X58547000Y-74865588D03*
D13*
X58547000Y-82485588D03*
D14*
X77597000Y-58355588D03*
D13*
X77597000Y-65975588D03*
D14*
X96647000Y-60641588D03*
D13*
X96647000Y-68261588D03*
D14*
X20547000Y-82104588D03*
D13*
X20547000Y-89724588D03*
D14*
X115697000Y-86422588D03*
D13*
X115697000Y-94042588D03*
D14*
X96647000Y-79818588D03*
D13*
X96647000Y-87438588D03*
D14*
X20547000Y-44385588D03*
D13*
X20547000Y-52005588D03*
D14*
X39497000Y-58355588D03*
D13*
X39497000Y-65975588D03*
D14*
X58547000Y-36765588D03*
D13*
X58547000Y-44385588D03*
D17*
X105126101Y-103697411D03*
D13*
X103153899Y-111057765D03*
D14*
X77597000Y-77405588D03*
D13*
X77597000Y-85025588D03*
D14*
X39497000Y-96455588D03*
D13*
X39497000Y-104075588D03*
D14*
X20547000Y-101281588D03*
D13*
X20547000Y-108901588D03*
D14*
X58547000Y-94042588D03*
D13*
X58547000Y-101662588D03*
D18*
X127253166Y-109539866D03*
D13*
X123443166Y-116138980D03*
D14*
X58547000Y-55942588D03*
D13*
X58547000Y-63562588D03*
X141732000Y-57618000D03*
X141732000Y-55078000D03*
X141732000Y-52538000D03*
X141732000Y-49998000D03*
D14*
X39497000Y-77278588D03*
D13*
X39497000Y-84898588D03*
D14*
X77597000Y-39051588D03*
D13*
X77597000Y-46671588D03*
D14*
X127511000Y-77844000D03*
D13*
X119891000Y-77844000D03*
D14*
X20547000Y-63181588D03*
D13*
X20547000Y-70801588D03*
D14*
X96647000Y-41464588D03*
D13*
X96647000Y-49084588D03*
M02*
