M48
; DRILL file {KiCad 7.0.10} date Thu Sep 26 01:26:01 2024
; FORMAT={-:-/ absolute / inch / decimal}
; #@! TF.CreationDate,2024-09-26T01:26:01+09:00
; #@! TF.GenerationSoftware,Kicad,Pcbnew,7.0.10
; #@! TF.FileFunction,NonPlated,1,2,NPTH
FMAT,2
INCH
; #@! TA.AperFunction,NonPlated,NPTH,ComponentDrill
T1C0.0591
; #@! TA.AperFunction,NonPlated,NPTH,ComponentDrill
T2C0.0669
; #@! TA.AperFunction,NonPlated,NPTH,ComponentDrill
T3C0.1339
%
G90
G05
T1
X7.6164Y-3.612
X7.892Y-3.612
T2
X3.1435Y-2.567
X3.1435Y-3.317
X3.1435Y-4.067
X3.1435Y-4.817
X3.5765Y-2.567
X3.5765Y-3.317
X3.5765Y-4.067
X3.5765Y-4.817
X3.8935Y-2.3795
X3.8935Y-3.1295
X3.8935Y-3.8795
X3.8935Y-4.6295
X4.3265Y-2.3795
X4.3265Y-3.1295
X4.3265Y-3.8795
X4.3265Y-4.6295
X4.6435Y-2.2858
X4.6435Y-3.0358
X4.6435Y-3.7858
X4.6435Y-4.5358
X5.0765Y-2.2858
X5.0765Y-3.0358
X5.0765Y-3.7858
X5.0765Y-4.5358
X5.3935Y-2.3795
X5.3935Y-3.1295
X5.3935Y-3.8795
X5.5779Y-4.9114
X5.8265Y-2.3795
X5.8265Y-3.1295
X5.8265Y-3.8795
X6.0109Y-4.9114
X6.1435Y-2.4732
X6.1435Y-3.2232
X6.1435Y-3.9732
X6.4357Y-4.9467
X6.5765Y-2.4732
X6.5765Y-3.2232
X6.5765Y-3.9732
X6.854Y-5.0587
X6.8935Y-4.242
X7.2552Y-5.1965
X7.3265Y-4.242
X7.6303Y-5.413
T3
X3.36Y-2.567
X3.36Y-3.317
X3.36Y-4.067
X3.36Y-4.817
X4.11Y-2.3795
X4.11Y-3.1295
X4.11Y-3.8795
X4.11Y-4.6295
X4.86Y-2.2858
X4.86Y-3.0358
X4.86Y-3.7858
X4.86Y-4.5358
X5.61Y-2.3795
X5.61Y-3.1295
X5.61Y-3.8795
X5.7944Y-4.9114
X6.36Y-2.4732
X6.36Y-3.2232
X6.36Y-3.9732
X6.6448Y-5.0027
X7.11Y-4.242
X7.4427Y-5.3047
M30
