%TF.GenerationSoftware,KiCad,Pcbnew,7.0.10*%
%TF.CreationDate,2024-09-26T01:26:01+09:00*%
%TF.ProjectId,keyboard_denchi_left,6b657962-6f61-4726-945f-64656e636869,rev?*%
%TF.SameCoordinates,Original*%
%TF.FileFunction,Paste,Top*%
%TF.FilePolarity,Positive*%
%FSLAX46Y46*%
G04 Gerber Fmt 4.6, Leading zero omitted, Abs format (unit mm)*
G04 Created by KiCad (PCBNEW 7.0.10) date 2024-09-26 01:26:01*
%MOMM*%
%LPD*%
G01*
G04 APERTURE LIST*
G04 Aperture macros list*
%AMRotRect*
0 Rectangle, with rotation*
0 The origin of the aperture is its center*
0 $1 length*
0 $2 width*
0 $3 Rotation angle, in degrees counterclockwise*
0 Add horizontal line*
21,1,$1,$2,0,0,$3*%
G04 Aperture macros list end*
%ADD10R,0.950000X1.300000*%
%ADD11RotRect,1.300000X0.950000X255.000000*%
%ADD12RotRect,1.300000X0.950000X240.000000*%
%ADD13R,1.300000X0.950000*%
G04 APERTURE END LIST*
D10*
%TO.C,D2*%
X96012000Y-58670000D03*
X96012000Y-62220000D03*
%TD*%
%TO.C,D20*%
X138811000Y-123059000D03*
X138811000Y-126609000D03*
%TD*%
%TO.C,D13*%
X115062000Y-94357000D03*
X115062000Y-97907000D03*
%TD*%
%TO.C,D9*%
X134112000Y-77847000D03*
X134112000Y-81397000D03*
%TD*%
%TO.C,D10*%
X153162000Y-80133000D03*
X153162000Y-83683000D03*
%TD*%
%TO.C,D11*%
X77062000Y-101596000D03*
X77062000Y-105146000D03*
%TD*%
%TO.C,D16*%
X172212000Y-105914000D03*
X172212000Y-109464000D03*
%TD*%
%TO.C,D15*%
X153162000Y-99310000D03*
X153162000Y-102860000D03*
%TD*%
%TO.C,D1*%
X77062000Y-63877000D03*
X77062000Y-67427000D03*
%TD*%
%TO.C,D7*%
X96012000Y-77847000D03*
X96012000Y-81397000D03*
%TD*%
%TO.C,D3*%
X115062000Y-56257000D03*
X115062000Y-59807000D03*
%TD*%
D11*
%TO.C,D21*%
X161114404Y-123119482D03*
X160195596Y-126548518D03*
%TD*%
D10*
%TO.C,D14*%
X134112000Y-96897000D03*
X134112000Y-100447000D03*
%TD*%
%TO.C,D18*%
X96012000Y-115947000D03*
X96012000Y-119497000D03*
%TD*%
%TO.C,D17*%
X77062000Y-120773000D03*
X77062000Y-124323000D03*
%TD*%
%TO.C,D19*%
X115062000Y-113534000D03*
X115062000Y-117084000D03*
%TD*%
D12*
%TO.C,D22*%
X182750666Y-128758640D03*
X180975666Y-131833030D03*
%TD*%
D10*
%TO.C,D8*%
X115062000Y-75434000D03*
X115062000Y-78984000D03*
%TD*%
%TO.C,D12*%
X96012000Y-96770000D03*
X96012000Y-100320000D03*
%TD*%
%TO.C,D4*%
X134112000Y-58543000D03*
X134112000Y-62093000D03*
%TD*%
D13*
%TO.C,D23*%
X181991000Y-95300412D03*
X178441000Y-95300412D03*
%TD*%
D10*
%TO.C,D6*%
X77062000Y-82673000D03*
X77062000Y-86223000D03*
%TD*%
%TO.C,D5*%
X153162000Y-60956000D03*
X153162000Y-64506000D03*
%TD*%
M02*
