%TF.GenerationSoftware,KiCad,Pcbnew,7.0.10*%
%TF.CreationDate,2024-09-26T01:26:01+09:00*%
%TF.ProjectId,keyboard_denchi_left,6b657962-6f61-4726-945f-64656e636869,rev?*%
%TF.SameCoordinates,Original*%
%TF.FileFunction,Legend,Bot*%
%TF.FilePolarity,Positive*%
%FSLAX46Y46*%
G04 Gerber Fmt 4.6, Leading zero omitted, Abs format (unit mm)*
G04 Created by KiCad (PCBNEW 7.0.10) date 2024-09-26 01:26:01*
%MOMM*%
%LPD*%
G01*
G04 APERTURE LIST*
G04 Aperture macros list*
%AMHorizOval*
0 Thick line with rounded ends*
0 $1 width*
0 $2 $3 position (X,Y) of the first rounded end (center of the circle)*
0 $4 $5 position (X,Y) of the second rounded end (center of the circle)*
0 Add line between two ends*
20,1,$1,$2,$3,$4,$5,0*
0 Add two circle primitives to create the rounded ends*
1,1,$1,$2,$3*
1,1,$1,$4,$5*%
%AMRotRect*
0 Rectangle, with rotation*
0 The origin of the aperture is its center*
0 $1 length*
0 $2 width*
0 $3 Rotation angle, in degrees counterclockwise*
0 Add horizontal line*
21,1,$1,$2,0,0,$3*%
G04 Aperture macros list end*
%ADD10C,0.150000*%
%ADD11R,1.397000X1.397000*%
%ADD12R,0.950000X1.300000*%
%ADD13C,1.397000*%
%ADD14C,1.700000*%
%ADD15C,3.400000*%
%ADD16O,1.600000X1.200000*%
%ADD17HorizOval,1.200000X0.173205X-0.100000X-0.173205X0.100000X0*%
%ADD18C,1.524000*%
%ADD19RotRect,1.397000X1.397000X255.000000*%
%ADD20RotRect,1.300000X0.950000X255.000000*%
%ADD21RotRect,1.397000X1.397000X240.000000*%
%ADD22RotRect,1.300000X0.950000X240.000000*%
%ADD23C,1.500000*%
%ADD24O,2.500000X1.700000*%
%ADD25R,1.300000X0.950000*%
%ADD26HorizOval,1.200000X0.193185X-0.051764X-0.193185X0.051764X0*%
%ADD27C,2.000000*%
G04 APERTURE END LIST*
D10*
X195601819Y-69872031D02*
X195601819Y-70062507D01*
X195601819Y-70062507D02*
X195649438Y-70157745D01*
X195649438Y-70157745D02*
X195744676Y-70252983D01*
X195744676Y-70252983D02*
X195935152Y-70300602D01*
X195935152Y-70300602D02*
X196268485Y-70300602D01*
X196268485Y-70300602D02*
X196458961Y-70252983D01*
X196458961Y-70252983D02*
X196554200Y-70157745D01*
X196554200Y-70157745D02*
X196601819Y-70062507D01*
X196601819Y-70062507D02*
X196601819Y-69872031D01*
X196601819Y-69872031D02*
X196554200Y-69776793D01*
X196554200Y-69776793D02*
X196458961Y-69681555D01*
X196458961Y-69681555D02*
X196268485Y-69633936D01*
X196268485Y-69633936D02*
X195935152Y-69633936D01*
X195935152Y-69633936D02*
X195744676Y-69681555D01*
X195744676Y-69681555D02*
X195649438Y-69776793D01*
X195649438Y-69776793D02*
X195601819Y-69872031D01*
X196601819Y-71205364D02*
X196601819Y-70729174D01*
X196601819Y-70729174D02*
X195601819Y-70729174D01*
X196078009Y-71538698D02*
X196078009Y-71872031D01*
X196601819Y-72014888D02*
X196601819Y-71538698D01*
X196601819Y-71538698D02*
X195601819Y-71538698D01*
X195601819Y-71538698D02*
X195601819Y-72014888D01*
X196601819Y-72443460D02*
X195601819Y-72443460D01*
X195601819Y-72443460D02*
X195601819Y-72681555D01*
X195601819Y-72681555D02*
X195649438Y-72824412D01*
X195649438Y-72824412D02*
X195744676Y-72919650D01*
X195744676Y-72919650D02*
X195839914Y-72967269D01*
X195839914Y-72967269D02*
X196030390Y-73014888D01*
X196030390Y-73014888D02*
X196173247Y-73014888D01*
X196173247Y-73014888D02*
X196363723Y-72967269D01*
X196363723Y-72967269D02*
X196458961Y-72919650D01*
X196458961Y-72919650D02*
X196554200Y-72824412D01*
X196554200Y-72824412D02*
X196601819Y-72681555D01*
X196601819Y-72681555D02*
X196601819Y-72443460D01*
%TO.C,D2*%
X96762000Y-57745000D02*
X95262000Y-57745000D01*
X95262000Y-57745000D02*
X95262000Y-63145000D01*
X96512000Y-59945000D02*
X95512000Y-59945000D01*
X96012000Y-60045000D02*
X96512000Y-60945000D01*
X96512000Y-60945000D02*
X95512000Y-60945000D01*
X95512000Y-60945000D02*
X96012000Y-60045000D01*
X96762000Y-63145000D02*
X96762000Y-57745000D01*
X95262000Y-63145000D02*
X96762000Y-63145000D01*
%TO.C,D20*%
X139561000Y-122134000D02*
X138061000Y-122134000D01*
X138061000Y-122134000D02*
X138061000Y-127534000D01*
X139311000Y-124334000D02*
X138311000Y-124334000D01*
X138811000Y-124434000D02*
X139311000Y-125334000D01*
X139311000Y-125334000D02*
X138311000Y-125334000D01*
X138311000Y-125334000D02*
X138811000Y-124434000D01*
X139561000Y-127534000D02*
X139561000Y-122134000D01*
X138061000Y-127534000D02*
X139561000Y-127534000D01*
%TO.C,D13*%
X115812000Y-93432000D02*
X114312000Y-93432000D01*
X114312000Y-93432000D02*
X114312000Y-98832000D01*
X115562000Y-95632000D02*
X114562000Y-95632000D01*
X115062000Y-95732000D02*
X115562000Y-96632000D01*
X115562000Y-96632000D02*
X114562000Y-96632000D01*
X114562000Y-96632000D02*
X115062000Y-95732000D01*
X115812000Y-98832000D02*
X115812000Y-93432000D01*
X114312000Y-98832000D02*
X115812000Y-98832000D01*
%TO.C,D9*%
X134862000Y-76922000D02*
X133362000Y-76922000D01*
X133362000Y-76922000D02*
X133362000Y-82322000D01*
X134612000Y-79122000D02*
X133612000Y-79122000D01*
X134112000Y-79222000D02*
X134612000Y-80122000D01*
X134612000Y-80122000D02*
X133612000Y-80122000D01*
X133612000Y-80122000D02*
X134112000Y-79222000D01*
X134862000Y-82322000D02*
X134862000Y-76922000D01*
X133362000Y-82322000D02*
X134862000Y-82322000D01*
%TO.C,D10*%
X153912000Y-79208000D02*
X152412000Y-79208000D01*
X152412000Y-79208000D02*
X152412000Y-84608000D01*
X153662000Y-81408000D02*
X152662000Y-81408000D01*
X153162000Y-81508000D02*
X153662000Y-82408000D01*
X153662000Y-82408000D02*
X152662000Y-82408000D01*
X152662000Y-82408000D02*
X153162000Y-81508000D01*
X153912000Y-84608000D02*
X153912000Y-79208000D01*
X152412000Y-84608000D02*
X153912000Y-84608000D01*
%TO.C,D11*%
X77812000Y-100671000D02*
X76312000Y-100671000D01*
X76312000Y-100671000D02*
X76312000Y-106071000D01*
X77562000Y-102871000D02*
X76562000Y-102871000D01*
X77062000Y-102971000D02*
X77562000Y-103871000D01*
X77562000Y-103871000D02*
X76562000Y-103871000D01*
X76562000Y-103871000D02*
X77062000Y-102971000D01*
X77812000Y-106071000D02*
X77812000Y-100671000D01*
X76312000Y-106071000D02*
X77812000Y-106071000D01*
%TO.C,D16*%
X172962000Y-104989000D02*
X171462000Y-104989000D01*
X171462000Y-104989000D02*
X171462000Y-110389000D01*
X172712000Y-107189000D02*
X171712000Y-107189000D01*
X172212000Y-107289000D02*
X172712000Y-108189000D01*
X172712000Y-108189000D02*
X171712000Y-108189000D01*
X171712000Y-108189000D02*
X172212000Y-107289000D01*
X172962000Y-110389000D02*
X172962000Y-104989000D01*
X171462000Y-110389000D02*
X172962000Y-110389000D01*
%TO.C,D15*%
X153912000Y-98385000D02*
X152412000Y-98385000D01*
X152412000Y-98385000D02*
X152412000Y-103785000D01*
X153662000Y-100585000D02*
X152662000Y-100585000D01*
X153162000Y-100685000D02*
X153662000Y-101585000D01*
X153662000Y-101585000D02*
X152662000Y-101585000D01*
X152662000Y-101585000D02*
X153162000Y-100685000D01*
X153912000Y-103785000D02*
X153912000Y-98385000D01*
X152412000Y-103785000D02*
X153912000Y-103785000D01*
%TO.C,D1*%
X77812000Y-62952000D02*
X76312000Y-62952000D01*
X76312000Y-62952000D02*
X76312000Y-68352000D01*
X77562000Y-65152000D02*
X76562000Y-65152000D01*
X77062000Y-65252000D02*
X77562000Y-66152000D01*
X77562000Y-66152000D02*
X76562000Y-66152000D01*
X76562000Y-66152000D02*
X77062000Y-65252000D01*
X77812000Y-68352000D02*
X77812000Y-62952000D01*
X76312000Y-68352000D02*
X77812000Y-68352000D01*
%TO.C,D7*%
X96762000Y-76922000D02*
X95262000Y-76922000D01*
X95262000Y-76922000D02*
X95262000Y-82322000D01*
X96512000Y-79122000D02*
X95512000Y-79122000D01*
X96012000Y-79222000D02*
X96512000Y-80122000D01*
X96512000Y-80122000D02*
X95512000Y-80122000D01*
X95512000Y-80122000D02*
X96012000Y-79222000D01*
X96762000Y-82322000D02*
X96762000Y-76922000D01*
X95262000Y-82322000D02*
X96762000Y-82322000D01*
%TO.C,D3*%
X115812000Y-55332000D02*
X114312000Y-55332000D01*
X114312000Y-55332000D02*
X114312000Y-60732000D01*
X115562000Y-57532000D02*
X114562000Y-57532000D01*
X115062000Y-57632000D02*
X115562000Y-58532000D01*
X115562000Y-58532000D02*
X114562000Y-58532000D01*
X114562000Y-58532000D02*
X115062000Y-57632000D01*
X115812000Y-60732000D02*
X115812000Y-55332000D01*
X114312000Y-60732000D02*
X115812000Y-60732000D01*
%TO.C,D21*%
X162078256Y-122420115D02*
X160629367Y-122031886D01*
X160629367Y-122031886D02*
X159231744Y-127247885D01*
X161267372Y-124480447D02*
X160301447Y-124221628D01*
X160758528Y-124447630D02*
X161008553Y-125446372D01*
X161008553Y-125446372D02*
X160042628Y-125187553D01*
X160042628Y-125187553D02*
X160758528Y-124447630D01*
X160680633Y-127636114D02*
X162078256Y-122420115D01*
X159231744Y-127247885D02*
X160680633Y-127636114D01*
%TO.C,D14*%
X134862000Y-95972000D02*
X133362000Y-95972000D01*
X133362000Y-95972000D02*
X133362000Y-101372000D01*
X134612000Y-98172000D02*
X133612000Y-98172000D01*
X134112000Y-98272000D02*
X134612000Y-99172000D01*
X134612000Y-99172000D02*
X133612000Y-99172000D01*
X133612000Y-99172000D02*
X134112000Y-98272000D01*
X134862000Y-101372000D02*
X134862000Y-95972000D01*
X133362000Y-101372000D02*
X134862000Y-101372000D01*
%TO.C,D18*%
X96762000Y-115022000D02*
X95262000Y-115022000D01*
X95262000Y-115022000D02*
X95262000Y-120422000D01*
X96512000Y-117222000D02*
X95512000Y-117222000D01*
X96012000Y-117322000D02*
X96512000Y-118222000D01*
X96512000Y-118222000D02*
X95512000Y-118222000D01*
X95512000Y-118222000D02*
X96012000Y-117322000D01*
X96762000Y-120422000D02*
X96762000Y-115022000D01*
X95262000Y-120422000D02*
X96762000Y-120422000D01*
%TO.C,D17*%
X77812000Y-119848000D02*
X76312000Y-119848000D01*
X76312000Y-119848000D02*
X76312000Y-125248000D01*
X77562000Y-122048000D02*
X76562000Y-122048000D01*
X77062000Y-122148000D02*
X77562000Y-123048000D01*
X77562000Y-123048000D02*
X76562000Y-123048000D01*
X76562000Y-123048000D02*
X77062000Y-122148000D01*
X77812000Y-125248000D02*
X77812000Y-119848000D01*
X76312000Y-125248000D02*
X77812000Y-125248000D01*
%TO.C,D19*%
X115812000Y-112609000D02*
X114312000Y-112609000D01*
X114312000Y-112609000D02*
X114312000Y-118009000D01*
X115562000Y-114809000D02*
X114562000Y-114809000D01*
X115062000Y-114909000D02*
X115562000Y-115809000D01*
X115562000Y-115809000D02*
X114562000Y-115809000D01*
X114562000Y-115809000D02*
X115062000Y-114909000D01*
X115812000Y-118009000D02*
X115812000Y-112609000D01*
X114312000Y-118009000D02*
X115812000Y-118009000D01*
%TO.C,D22*%
X183862685Y-128332566D02*
X182563647Y-127582566D01*
X182563647Y-127582566D02*
X179863647Y-132259104D01*
X182546179Y-130112822D02*
X181680153Y-129612822D01*
X182063166Y-129949425D02*
X182046179Y-130978848D01*
X182046179Y-130978848D02*
X181180153Y-130478848D01*
X181180153Y-130478848D02*
X182063166Y-129949425D01*
X181162685Y-133009104D02*
X183862685Y-128332566D01*
X179863647Y-132259104D02*
X181162685Y-133009104D01*
%TO.C,D8*%
X115812000Y-74509000D02*
X114312000Y-74509000D01*
X114312000Y-74509000D02*
X114312000Y-79909000D01*
X115562000Y-76709000D02*
X114562000Y-76709000D01*
X115062000Y-76809000D02*
X115562000Y-77709000D01*
X115562000Y-77709000D02*
X114562000Y-77709000D01*
X114562000Y-77709000D02*
X115062000Y-76809000D01*
X115812000Y-79909000D02*
X115812000Y-74509000D01*
X114312000Y-79909000D02*
X115812000Y-79909000D01*
%TO.C,OL1*%
X196977000Y-76344412D02*
X196977000Y-66184412D01*
X199517000Y-76344412D02*
X196977000Y-76344412D01*
X196977000Y-66184412D02*
X199517000Y-66184412D01*
X199517000Y-66184412D02*
X199517000Y-76344412D01*
%TO.C,D12*%
X96762000Y-95845000D02*
X95262000Y-95845000D01*
X95262000Y-95845000D02*
X95262000Y-101245000D01*
X96512000Y-98045000D02*
X95512000Y-98045000D01*
X96012000Y-98145000D02*
X96512000Y-99045000D01*
X96512000Y-99045000D02*
X95512000Y-99045000D01*
X95512000Y-99045000D02*
X96012000Y-98145000D01*
X96762000Y-101245000D02*
X96762000Y-95845000D01*
X95262000Y-101245000D02*
X96762000Y-101245000D01*
%TO.C,D4*%
X134862000Y-57618000D02*
X133362000Y-57618000D01*
X133362000Y-57618000D02*
X133362000Y-63018000D01*
X134612000Y-59818000D02*
X133612000Y-59818000D01*
X134112000Y-59918000D02*
X134612000Y-60818000D01*
X134612000Y-60818000D02*
X133612000Y-60818000D01*
X133612000Y-60818000D02*
X134112000Y-59918000D01*
X134862000Y-63018000D02*
X134862000Y-57618000D01*
X133362000Y-63018000D02*
X134862000Y-63018000D01*
%TO.C,D23*%
X182916000Y-96050412D02*
X182916000Y-94550412D01*
X182916000Y-94550412D02*
X177516000Y-94550412D01*
X180716000Y-95800412D02*
X180716000Y-94800412D01*
X180616000Y-95300412D02*
X179716000Y-95800412D01*
X179716000Y-95800412D02*
X179716000Y-94800412D01*
X179716000Y-94800412D02*
X180616000Y-95300412D01*
X177516000Y-96050412D02*
X182916000Y-96050412D01*
X177516000Y-94550412D02*
X177516000Y-96050412D01*
%TO.C,D6*%
X77812000Y-81748000D02*
X76312000Y-81748000D01*
X76312000Y-81748000D02*
X76312000Y-87148000D01*
X77562000Y-83948000D02*
X76562000Y-83948000D01*
X77062000Y-84048000D02*
X77562000Y-84948000D01*
X77562000Y-84948000D02*
X76562000Y-84948000D01*
X76562000Y-84948000D02*
X77062000Y-84048000D01*
X77812000Y-87148000D02*
X77812000Y-81748000D01*
X76312000Y-87148000D02*
X77812000Y-87148000D01*
%TO.C,SW23*%
X183213000Y-92224412D02*
X177213000Y-92224412D01*
X183213000Y-91974412D02*
X183213000Y-92224412D01*
X183213000Y-88724412D02*
X183213000Y-88974412D01*
X177213000Y-92224412D02*
X177213000Y-91974412D01*
X177213000Y-88974412D02*
X177213000Y-88724412D01*
X177213000Y-88724412D02*
X183213000Y-88724412D01*
%TO.C,D5*%
X153912000Y-60031000D02*
X152412000Y-60031000D01*
X152412000Y-60031000D02*
X152412000Y-65431000D01*
X153662000Y-62231000D02*
X152662000Y-62231000D01*
X153162000Y-62331000D02*
X153662000Y-63231000D01*
X153662000Y-63231000D02*
X152662000Y-63231000D01*
X152662000Y-63231000D02*
X153162000Y-62331000D01*
X153912000Y-65431000D02*
X153912000Y-60031000D01*
X152412000Y-65431000D02*
X153912000Y-65431000D01*
%TD*%
%LPC*%
D11*
%TO.C,D2*%
X96012000Y-56635000D03*
D12*
X96012000Y-58670000D03*
X96012000Y-62220000D03*
D13*
X96012000Y-64255000D03*
%TD*%
D14*
%TO.C,SW16*%
X175094000Y-107746412D03*
D15*
X180594000Y-107746412D03*
D14*
X186094000Y-107746412D03*
D16*
X175594000Y-111446412D03*
X180594000Y-113646412D03*
%TD*%
D11*
%TO.C,D20*%
X138811000Y-121024000D03*
D12*
X138811000Y-123059000D03*
X138811000Y-126609000D03*
D13*
X138811000Y-128644000D03*
%TD*%
D11*
%TO.C,D13*%
X115062000Y-92322000D03*
D12*
X115062000Y-94357000D03*
X115062000Y-97907000D03*
D13*
X115062000Y-99942000D03*
%TD*%
D14*
%TO.C,SW19*%
X117944000Y-115209412D03*
D15*
X123444000Y-115209412D03*
D14*
X128944000Y-115209412D03*
D16*
X118444000Y-118909412D03*
X123444000Y-121109412D03*
%TD*%
D11*
%TO.C,D9*%
X134112000Y-75812000D03*
D12*
X134112000Y-77847000D03*
X134112000Y-81397000D03*
D13*
X134112000Y-83432000D03*
%TD*%
D14*
%TO.C,SW10*%
X156044000Y-81870412D03*
D15*
X161544000Y-81870412D03*
D14*
X167044000Y-81870412D03*
D16*
X156544000Y-85570412D03*
X161544000Y-87770412D03*
%TD*%
D11*
%TO.C,D10*%
X153162000Y-78098000D03*
D12*
X153162000Y-80133000D03*
X153162000Y-83683000D03*
D13*
X153162000Y-85718000D03*
%TD*%
D11*
%TO.C,D11*%
X77062000Y-99561000D03*
D12*
X77062000Y-101596000D03*
X77062000Y-105146000D03*
D13*
X77062000Y-107181000D03*
%TD*%
D11*
%TO.C,D16*%
X172212000Y-103879000D03*
D12*
X172212000Y-105914000D03*
X172212000Y-109464000D03*
D13*
X172212000Y-111499000D03*
%TD*%
D11*
%TO.C,D15*%
X153162000Y-97275000D03*
D12*
X153162000Y-99310000D03*
X153162000Y-102860000D03*
D13*
X153162000Y-104895000D03*
%TD*%
D14*
%TO.C,SW12*%
X98894000Y-98538412D03*
D15*
X104394000Y-98538412D03*
D14*
X109894000Y-98538412D03*
D16*
X99394000Y-102238412D03*
X104394000Y-104438412D03*
%TD*%
D11*
%TO.C,D1*%
X77062000Y-61842000D03*
D12*
X77062000Y-63877000D03*
X77062000Y-67427000D03*
D13*
X77062000Y-69462000D03*
%TD*%
D14*
%TO.C,SW4*%
X136994000Y-60438412D03*
D15*
X142494000Y-60438412D03*
D14*
X147994000Y-60438412D03*
D16*
X137494000Y-64138412D03*
X142494000Y-66338412D03*
%TD*%
D14*
%TO.C,SW17*%
X79844000Y-122351412D03*
D15*
X85344000Y-122351412D03*
D14*
X90844000Y-122351412D03*
D16*
X80344000Y-126051412D03*
X85344000Y-128251412D03*
%TD*%
D14*
%TO.C,SW22*%
X184282468Y-131990020D03*
D15*
X189045608Y-134740020D03*
D14*
X193808748Y-137490020D03*
D17*
X182865481Y-135444314D03*
X186095608Y-139849570D03*
%TD*%
D11*
%TO.C,D7*%
X96012000Y-75812000D03*
D12*
X96012000Y-77847000D03*
X96012000Y-81397000D03*
D13*
X96012000Y-83432000D03*
%TD*%
D14*
%TO.C,SW5*%
X156044000Y-62820412D03*
D15*
X161544000Y-62820412D03*
D14*
X167044000Y-62820412D03*
D16*
X156544000Y-66520412D03*
X161544000Y-68720412D03*
%TD*%
D14*
%TO.C,SW7*%
X98894000Y-79488412D03*
D15*
X104394000Y-79488412D03*
D14*
X109894000Y-79488412D03*
D16*
X99394000Y-83188412D03*
X104394000Y-85388412D03*
%TD*%
D11*
%TO.C,D3*%
X115062000Y-54222000D03*
D12*
X115062000Y-56257000D03*
X115062000Y-59807000D03*
D13*
X115062000Y-61842000D03*
%TD*%
D18*
%TO.C,U1*%
X193675000Y-57073412D03*
X193675000Y-59613412D03*
X193675000Y-62153412D03*
X193675000Y-64693412D03*
X193675000Y-67233412D03*
X193675000Y-69773412D03*
X193675000Y-72313412D03*
X193675000Y-74853412D03*
X193675000Y-77393412D03*
X193675000Y-79933412D03*
X193675000Y-82473412D03*
X193675000Y-85013412D03*
X178435000Y-85013412D03*
X178435000Y-82473412D03*
X178435000Y-79933412D03*
X178435000Y-77393412D03*
X178435000Y-74853412D03*
X178435000Y-72313412D03*
X178435000Y-69773412D03*
X178435000Y-67233412D03*
X178435000Y-64693412D03*
X178435000Y-62153412D03*
X178435000Y-59613412D03*
X178435000Y-57073412D03*
%TD*%
D19*
%TO.C,D21*%
X161641101Y-121153823D03*
D20*
X161114404Y-123119482D03*
X160195596Y-126548518D03*
D13*
X159668899Y-128514177D03*
%TD*%
D11*
%TO.C,D14*%
X134112000Y-94862000D03*
D12*
X134112000Y-96897000D03*
X134112000Y-100447000D03*
D13*
X134112000Y-102482000D03*
%TD*%
D14*
%TO.C,SW2*%
X98894000Y-60438412D03*
D15*
X104394000Y-60438412D03*
D14*
X109894000Y-60438412D03*
D16*
X99394000Y-64138412D03*
X104394000Y-66338412D03*
%TD*%
D14*
%TO.C,SW18*%
X98894000Y-117588412D03*
D15*
X104394000Y-117588412D03*
D14*
X109894000Y-117588412D03*
D16*
X99394000Y-121288412D03*
X104394000Y-123488412D03*
%TD*%
D14*
%TO.C,SW9*%
X136994000Y-79488412D03*
D15*
X142494000Y-79488412D03*
D14*
X147994000Y-79488412D03*
D16*
X137494000Y-83188412D03*
X142494000Y-85388412D03*
%TD*%
D14*
%TO.C,SW13*%
X117944000Y-96159412D03*
D15*
X123444000Y-96159412D03*
D14*
X128944000Y-96159412D03*
D16*
X118444000Y-99859412D03*
X123444000Y-102059412D03*
%TD*%
D11*
%TO.C,D18*%
X96012000Y-113912000D03*
D12*
X96012000Y-115947000D03*
X96012000Y-119497000D03*
D13*
X96012000Y-121532000D03*
%TD*%
D11*
%TO.C,D17*%
X77062000Y-118738000D03*
D12*
X77062000Y-120773000D03*
X77062000Y-124323000D03*
D13*
X77062000Y-126358000D03*
%TD*%
D14*
%TO.C,SW1*%
X79844000Y-65201412D03*
D15*
X85344000Y-65201412D03*
D14*
X90844000Y-65201412D03*
D16*
X80344000Y-68901412D03*
X85344000Y-71101412D03*
%TD*%
D11*
%TO.C,D19*%
X115062000Y-111499000D03*
D12*
X115062000Y-113534000D03*
X115062000Y-117084000D03*
D13*
X115062000Y-119119000D03*
%TD*%
D21*
%TO.C,D22*%
X183768166Y-126996278D03*
D22*
X182750666Y-128758640D03*
X180975666Y-131833030D03*
D13*
X179958166Y-133595392D03*
%TD*%
D14*
%TO.C,SW15*%
X156044000Y-100920412D03*
D15*
X161544000Y-100920412D03*
D14*
X167044000Y-100920412D03*
D16*
X156544000Y-104620412D03*
X161544000Y-106820412D03*
%TD*%
D11*
%TO.C,D8*%
X115062000Y-73399000D03*
D12*
X115062000Y-75434000D03*
X115062000Y-78984000D03*
D13*
X115062000Y-81019000D03*
%TD*%
%TO.C,OL1*%
X198247000Y-75074412D03*
X198247000Y-72534412D03*
X198247000Y-69994412D03*
X198247000Y-67454412D03*
%TD*%
D23*
%TO.C,J1*%
X200457000Y-91744412D03*
X193457000Y-91744412D03*
D24*
X190657000Y-89344412D03*
X198857000Y-94144412D03*
X195857000Y-94144412D03*
X191857000Y-94144412D03*
%TD*%
D11*
%TO.C,D12*%
X96012000Y-94735000D03*
D12*
X96012000Y-96770000D03*
X96012000Y-100320000D03*
D13*
X96012000Y-102355000D03*
%TD*%
D11*
%TO.C,D4*%
X134112000Y-56508000D03*
D12*
X134112000Y-58543000D03*
X134112000Y-62093000D03*
D13*
X134112000Y-64128000D03*
%TD*%
D11*
%TO.C,D23*%
X184026000Y-95300412D03*
D25*
X181991000Y-95300412D03*
X178441000Y-95300412D03*
D13*
X176406000Y-95300412D03*
%TD*%
D14*
%TO.C,SW8*%
X117944000Y-77109412D03*
D15*
X123444000Y-77109412D03*
D14*
X128944000Y-77109412D03*
D16*
X118444000Y-80809412D03*
X123444000Y-83009412D03*
%TD*%
D14*
%TO.C,SW3*%
X117944000Y-58059412D03*
D15*
X123444000Y-58059412D03*
D14*
X128944000Y-58059412D03*
D16*
X118444000Y-61759412D03*
X123444000Y-63959412D03*
%TD*%
D14*
%TO.C,SW6*%
X79844000Y-84251412D03*
D15*
X85344000Y-84251412D03*
D14*
X90844000Y-84251412D03*
D16*
X80344000Y-87951412D03*
X85344000Y-90151412D03*
%TD*%
D14*
%TO.C,SW21*%
X163466216Y-125645212D03*
D15*
X168778808Y-127068717D03*
D14*
X174091400Y-128492222D03*
D26*
X162991548Y-129348547D03*
X167251776Y-132767679D03*
%TD*%
D14*
%TO.C,SW14*%
X136994000Y-98538412D03*
D15*
X142494000Y-98538412D03*
D14*
X147994000Y-98538412D03*
D16*
X137494000Y-102238412D03*
X142494000Y-104438412D03*
%TD*%
D14*
%TO.C,SW20*%
X141678000Y-124749412D03*
D15*
X147178000Y-124749412D03*
D14*
X152678000Y-124749412D03*
D16*
X142178000Y-128449412D03*
X147178000Y-130649412D03*
%TD*%
D11*
%TO.C,D6*%
X77062000Y-80638000D03*
D12*
X77062000Y-82673000D03*
X77062000Y-86223000D03*
D13*
X77062000Y-88258000D03*
%TD*%
D27*
%TO.C,SW23*%
X176963000Y-90474412D03*
X183463000Y-90474412D03*
%TD*%
D11*
%TO.C,D5*%
X153162000Y-58921000D03*
D12*
X153162000Y-60956000D03*
X153162000Y-64506000D03*
D13*
X153162000Y-66541000D03*
%TD*%
D14*
%TO.C,SW11*%
X79844000Y-103301412D03*
D15*
X85344000Y-103301412D03*
D14*
X90844000Y-103301412D03*
D16*
X80344000Y-107001412D03*
X85344000Y-109201412D03*
%TD*%
%LPD*%
M02*
