M48
; DRILL file {KiCad 7.0.10} date Thu Sep 26 01:26:01 2024
; FORMAT={-:-/ absolute / inch / decimal}
; #@! TF.CreationDate,2024-09-26T01:26:01+09:00
; #@! TF.GenerationSoftware,Kicad,Pcbnew,7.0.10
; #@! TF.FileFunction,Plated,1,2,PTH
FMAT,2
INCH
; #@! TA.AperFunction,Plated,PTH,ViaDrill
T1C0.0118
; #@! TA.AperFunction,Plated,PTH,ComponentDrill
T2C0.0315
; #@! TA.AperFunction,Plated,PTH,ComponentDrill
T3C0.0320
; #@! TA.AperFunction,Plated,PTH,ComponentDrill
T4C0.0335
; #@! TA.AperFunction,Plated,PTH,ComponentDrill
T5C0.0394
; #@! TA.AperFunction,Plated,PTH,ComponentDrill
T6C0.0512
%
G90
G05
T1
X6.78Y-3.5947
X7.255Y-2.9147
T3
X3.0339Y-2.4347
X3.0339Y-2.7347
X3.0339Y-3.1747
X3.0339Y-3.4747
X3.0339Y-3.9197
X3.0339Y-4.2197
X3.0339Y-4.6747
X3.0339Y-4.9747
X3.78Y-2.2297
X3.78Y-2.5297
X3.78Y-2.9847
X3.78Y-3.2847
X3.78Y-3.7297
X3.78Y-4.0297
X3.78Y-4.4847
X3.78Y-4.7847
X4.53Y-2.1347
X4.53Y-2.4347
X4.53Y-2.8897
X4.53Y-3.1897
X4.53Y-3.6347
X4.53Y-3.9347
X4.53Y-4.3897
X4.53Y-4.6897
X5.28Y-2.2247
X5.28Y-2.5247
X5.28Y-2.9847
X5.28Y-3.2847
X5.28Y-3.7347
X5.28Y-4.0347
X5.465Y-4.7647
X5.465Y-5.0647
X6.03Y-2.3197
X6.03Y-2.6197
X6.03Y-3.0747
X6.03Y-3.3747
X6.03Y-3.8297
X6.03Y-4.1297
X6.2862Y-5.0596
X6.3638Y-4.7698
X6.78Y-4.0897
X6.78Y-4.3897
X6.9451Y-3.752
X7.085Y-5.2597
X7.235Y-4.9999
X7.2451Y-3.752
X7.805Y-2.6557
X7.805Y-2.7557
X7.805Y-2.8557
X7.805Y-2.9557
T4
X7.025Y-2.247
X7.025Y-2.347
X7.025Y-2.447
X7.025Y-2.547
X7.025Y-2.647
X7.025Y-2.747
X7.025Y-2.847
X7.025Y-2.947
X7.025Y-3.047
X7.025Y-3.147
X7.025Y-3.247
X7.025Y-3.347
X7.625Y-2.247
X7.625Y-2.347
X7.625Y-2.447
X7.625Y-2.547
X7.625Y-2.647
X7.625Y-2.747
X7.625Y-2.847
X7.625Y-2.947
X7.625Y-3.047
X7.625Y-3.147
X7.625Y-3.247
X7.625Y-3.347
T6
X6.967Y-3.562
X7.223Y-3.562
T2
G00X3.1553Y-2.7127
M15
G01X3.171Y-2.7127
M16
G05
G00X3.1553Y-3.4627
M15
G01X3.171Y-3.4627
M16
G05
G00X3.1553Y-4.2127
M15
G01X3.171Y-4.2127
M16
G05
G00X3.1553Y-4.9627
M15
G01X3.171Y-4.9627
M16
G05
G00X3.3521Y-2.7993
M15
G01X3.3679Y-2.7993
M16
G05
G00X3.3521Y-3.5493
M15
G01X3.3679Y-3.5493
M16
G05
G00X3.3521Y-4.2993
M15
G01X3.3679Y-4.2993
M16
G05
G00X3.3521Y-5.0493
M15
G01X3.3679Y-5.0493
M16
G05
G00X3.9053Y-2.5251
M15
G01X3.921Y-2.5251
M16
G05
G00X3.9053Y-3.2751
M15
G01X3.921Y-3.2751
M16
G05
G00X3.9053Y-4.0251
M15
G01X3.921Y-4.0251
M16
G05
G00X3.9053Y-4.7751
M15
G01X3.921Y-4.7751
M16
G05
G00X4.1021Y-2.6117
M15
G01X4.1179Y-2.6117
M16
G05
G00X4.1021Y-3.3617
M15
G01X4.1179Y-3.3617
M16
G05
G00X4.1021Y-4.1117
M15
G01X4.1179Y-4.1117
M16
G05
G00X4.1021Y-4.8617
M15
G01X4.1179Y-4.8617
M16
G05
G00X4.6553Y-2.4315
M15
G01X4.671Y-2.4315
M16
G05
G00X4.6553Y-3.1815
M15
G01X4.671Y-3.1815
M16
G05
G00X4.6553Y-3.9315
M15
G01X4.671Y-3.9315
M16
G05
G00X4.6553Y-4.6815
M15
G01X4.671Y-4.6815
M16
G05
G00X4.8521Y-2.5181
M15
G01X4.8679Y-2.5181
M16
G05
G00X4.8521Y-3.2681
M15
G01X4.8679Y-3.2681
M16
G05
G00X4.8521Y-4.0181
M15
G01X4.8679Y-4.0181
M16
G05
G00X4.8521Y-4.7681
M15
G01X4.8679Y-4.7681
M16
G05
G00X5.4053Y-2.5251
M15
G01X5.421Y-2.5251
M16
G05
G00X5.4053Y-3.2751
M15
G01X5.421Y-3.2751
M16
G05
G00X5.4053Y-4.0251
M15
G01X5.421Y-4.0251
M16
G05
G00X5.5897Y-5.0571
M15
G01X5.6054Y-5.0571
M16
G05
G00X5.6021Y-2.6117
M15
G01X5.6179Y-2.6117
M16
G05
G00X5.6021Y-3.3617
M15
G01X5.6179Y-3.3617
M16
G05
G00X5.6021Y-4.1117
M15
G01X5.6179Y-4.1117
M16
G05
G00X5.7865Y-5.1437
M15
G01X5.8023Y-5.1437
M16
G05
G00X6.1553Y-2.6189
M15
G01X6.171Y-2.6189
M16
G05
G00X6.1553Y-3.3689
M15
G01X6.171Y-3.3689
M16
G05
G00X6.1553Y-4.1189
M15
G01X6.171Y-4.1189
M16
G05
G00X6.3521Y-2.7055
M15
G01X6.3679Y-2.7055
M16
G05
G00X6.3521Y-3.4555
M15
G01X6.3679Y-3.4555
M16
G05
G00X6.3521Y-4.2055
M15
G01X6.3679Y-4.2055
M16
G05
G00X6.4094Y-5.0904
M15
G01X6.4246Y-5.0945
M16
G05
G00X6.5771Y-5.225
M15
G01X6.5923Y-5.2291
M16
G05
G00X6.9053Y-4.3877
M15
G01X6.921Y-4.3877
M16
G05
G00X7.1021Y-4.4743
M15
G01X7.1179Y-4.4743
M16
G05
G00X7.1926Y-5.3285
M15
G01X7.2062Y-5.3364
M16
G05
G00X7.3198Y-5.502
M15
G01X7.3334Y-5.5098
M16
G05
T5
G00X7.516Y-3.5175
M15
G01X7.4963Y-3.5175
M16
G05
G00X7.5633Y-3.7065
M15
G01X7.5436Y-3.7065
M16
G05
G00X7.7207Y-3.7065
M15
G01X7.7011Y-3.7065
M16
G05
G00X7.8389Y-3.7065
M15
G01X7.8192Y-3.7065
M16
G05
M30
